<svg xmlns="http://www.w3.org/2000/svg" enable-background="new 0 0 1000 1000" viewBox="0 0 1000 1000"><rect width="1000" height="1000" fill="#ff2756"/><path fill="#353535" d="M738.659,678.207H279.341c-10.518,0-19.045-8.527-19.045-19.045v0
	c0-10.518,8.527-19.045,19.045-19.045h459.318c10.518,0,19.045,8.527,19.045,19.045v0
	C757.704,669.681,749.177,678.207,738.659,678.207z" opacity=".34"/><path fill="#edbec4" d="M381.76,520.793v-200c0-6.627,5.373-12,12-12h220c6.627,0,12,5.373,12,12v200
	c0,6.627-5.373,12-12,12h-220C387.133,532.793,381.76,527.42,381.76,520.793z"/><path fill="#f4d7de" d="M389.76,511.459v-188c0-2.761,2.239-5,5-5h218c2.761,0,5,2.239,5,5v188
	c0,2.761-2.239,5-5,5h-218C391.999,516.459,389.76,514.221,389.76,511.459z"/><path fill="none" stroke="#3a3842" stroke-linecap="round" stroke-linejoin="round" stroke-miterlimit="10" stroke-width="6" d="
	M381.76,520.793v-200c0-6.627,5.373-12,12-12h220c6.627,0,12,5.373,12,12v200c0,6.627-5.373,12-12,12h-220
	C387.133,532.793,381.76,527.42,381.76,520.793z"/><path fill="#edbec4" d="M399.76,483.528v-146c0-3.866,3.134-7,7-7h194c3.866,0,7,3.134,7,7v146
	c0,3.866-3.134,7-7,7h-194C402.894,490.528,399.76,487.394,399.76,483.528z"/><path fill="#3a3842" d="M428.76,481.528c-12.131,0-22-9.869-22-22v-98c0-12.131,9.869-22,22-22h150
	c12.131,0,22,9.869,22,22v98c0,12.131-9.869,22-22,22H428.76z"/><path fill="#edbec4" d="M582.76,550.793h-158c-4.418,0-8-3.582-8-8v-10h174v10
	C590.76,547.211,587.178,550.793,582.76,550.793z"/><rect width="174" height="9" x="416.76" y="532.793" fill="#dba1a9"/><path fill="none" stroke="#3a3842" stroke-linecap="round" stroke-linejoin="round" stroke-miterlimit="10" stroke-width="6" d="
	M582.76,550.793h-158c-4.418,0-8-3.582-8-8v-10h174v10C590.76,547.211,587.178,550.793,582.76,550.793z"/><path fill="#edbec4" d="M675.76,646.793h-344c-4.418,0-8-3.582-8-8v-80c0-4.418,3.582-8,8-8h344
	c4.418,0,8,3.582,8,8v80C683.76,643.211,680.178,646.793,675.76,646.793z"/><path fill="none" stroke="#3a3842" stroke-linecap="round" stroke-linejoin="round" stroke-miterlimit="10" stroke-width="6" d="
	M675.76,646.793h-344c-4.418,0-8-3.582-8-8v-80c0-4.418,3.582-8,8-8h344c4.418,0,8,3.582,8,8v80
	C683.76,643.211,680.178,646.793,675.76,646.793z"/><path fill="#f4d7de" d="M336.227,630.793v-64c0-4.418,3.582-8,8-8h319.067c4.418,0,8,3.582,8,8v64
	c0,4.418-3.582,8-8,8H344.227C339.808,638.793,336.227,635.211,336.227,630.793z"/><circle cx="573.96" cy="503.126" r="7.5" fill="#cab5ea"/><circle cx="573.96" cy="503.126" r="6.5" fill="#3a3842"/><circle cx="573.96" cy="503.126" r="5.583" fill="#33313a"/><line x1="444.21" x2="444.21" y1="604.293" y2="631.793" fill="none" stroke="#edbec4" stroke-linecap="round" stroke-linejoin="round" stroke-miterlimit="10" stroke-width="6"/><line x1="434.21" x2="434.21" y1="604.293" y2="631.793" fill="none" stroke="#edbec4" stroke-linecap="round" stroke-linejoin="round" stroke-miterlimit="10" stroke-width="6"/><line x1="424.21" x2="424.21" y1="604.293" y2="631.793" fill="none" stroke="#edbec4" stroke-linecap="round" stroke-linejoin="round" stroke-miterlimit="10" stroke-width="6"/><line x1="414.21" x2="414.21" y1="604.293" y2="631.793" fill="none" stroke="#edbec4" stroke-linecap="round" stroke-linejoin="round" stroke-miterlimit="10" stroke-width="6"/><line x1="404.21" x2="404.21" y1="604.293" y2="631.793" fill="none" stroke="#edbec4" stroke-linecap="round" stroke-linejoin="round" stroke-miterlimit="10" stroke-width="6"/><line x1="394.21" x2="394.21" y1="604.293" y2="631.793" fill="none" stroke="#edbec4" stroke-linecap="round" stroke-linejoin="round" stroke-miterlimit="10" stroke-width="6"/><line x1="384.21" x2="384.21" y1="604.293" y2="631.793" fill="none" stroke="#edbec4" stroke-linecap="round" stroke-linejoin="round" stroke-miterlimit="10" stroke-width="6"/><line x1="374.21" x2="374.21" y1="604.293" y2="631.793" fill="none" stroke="#edbec4" stroke-linecap="round" stroke-linejoin="round" stroke-miterlimit="10" stroke-width="6"/><line x1="364.21" x2="364.21" y1="604.293" y2="631.793" fill="none" stroke="#edbec4" stroke-linecap="round" stroke-linejoin="round" stroke-miterlimit="10" stroke-width="6"/><line x1="445.085" x2="445.085" y1="604.293" y2="631.793" fill="none" stroke="#3a3842" stroke-linecap="round" stroke-linejoin="round" stroke-miterlimit="10" stroke-width="4"/><line x1="435.085" x2="435.085" y1="604.293" y2="631.793" fill="none" stroke="#3a3842" stroke-linecap="round" stroke-linejoin="round" stroke-miterlimit="10" stroke-width="4"/><line x1="425.085" x2="425.085" y1="604.293" y2="631.793" fill="none" stroke="#3a3842" stroke-linecap="round" stroke-linejoin="round" stroke-miterlimit="10" stroke-width="4"/><line x1="415.085" x2="415.085" y1="604.293" y2="631.793" fill="none" stroke="#3a3842" stroke-linecap="round" stroke-linejoin="round" stroke-miterlimit="10" stroke-width="4"/><line x1="405.085" x2="405.085" y1="604.293" y2="631.793" fill="none" stroke="#3a3842" stroke-linecap="round" stroke-linejoin="round" stroke-miterlimit="10" stroke-width="4"/><line x1="395.085" x2="395.085" y1="604.293" y2="631.793" fill="none" stroke="#3a3842" stroke-linecap="round" stroke-linejoin="round" stroke-miterlimit="10" stroke-width="4"/><line x1="385.085" x2="385.085" y1="604.293" y2="631.793" fill="none" stroke="#3a3842" stroke-linecap="round" stroke-linejoin="round" stroke-miterlimit="10" stroke-width="4"/><line x1="375.085" x2="375.085" y1="604.293" y2="631.793" fill="none" stroke="#3a3842" stroke-linecap="round" stroke-linejoin="round" stroke-miterlimit="10" stroke-width="4"/><line x1="365.085" x2="365.085" y1="604.293" y2="631.793" fill="none" stroke="#3a3842" stroke-linecap="round" stroke-linejoin="round" stroke-miterlimit="10" stroke-width="4"/><rect width="6.776" height="6.776" x="359.8" y="571.168" fill="#f26640"/><rect width="6.776" height="6.776" x="368.037" y="571.168" fill="#5eb755"/><rect width="6.776" height="6.776" x="359.8" y="579.141" fill="#6a82ea"/><rect width="6.776" height="6.776" x="368.037" y="579.141" fill="#efad43"/><line x1="463.96" x2="519.294" y1="355.793" y2="355.793" fill="none" stroke="#fff" stroke-linecap="round" stroke-linejoin="round" stroke-miterlimit="10" stroke-width="8"/><path fill="none" stroke="#fff" stroke-linecap="round" stroke-linejoin="round" stroke-miterlimit="10" stroke-width="8" d="
	M447.96,355.793"/><line x1="431.96" x2="447.96" y1="355.793" y2="355.793" fill="none" stroke="#fff" stroke-linecap="round" stroke-linejoin="round" stroke-miterlimit="10" stroke-width="8"/><path fill="#33313a" d="M578.76,339.528h-7.598c-4.68,63.917-58.015,114.32-123.127,114.32H406.76v5.68
	c0,12.131,9.869,22,22,22h150c12.131,0,22-9.869,22-22v-98C600.76,349.397,590.891,339.528,578.76,339.528z"/><rect width="24.833" height="3.596" x="378.08" y="574.51" fill="#3a3842" opacity=".34"/><rect width="12.417" height="1.868" x="378.08" y="580.707" fill="#3a3842" opacity=".34"/><rect width="104" height="12" x="405" y="632.459" fill="#e8b5bb"/><rect width="20" height="12" x="343.16" y="632.459" fill="#e8b5bb"/><rect width="20" height="12" x="374.08" y="632.459" fill="#e8b5bb"/><rect width="20" height="12" x="519.92" y="632.459" fill="#e8b5bb"/><rect width="20" height="12" x="550.84" y="632.459" fill="#e8b5bb"/><rect width="20" height="12" x="581.76" y="632.459" fill="#e8b5bb"/><rect width="104" height="12" x="405" y="632.459" fill="none" stroke="#3a3842" stroke-linecap="round" stroke-linejoin="round" stroke-miterlimit="10" stroke-width="6"/><rect width="20" height="12" x="343.16" y="632.459" fill="none" stroke="#3a3842" stroke-linecap="round" stroke-linejoin="round" stroke-miterlimit="10" stroke-width="6"/><rect width="20" height="12" x="374.08" y="632.459" fill="none" stroke="#3a3842" stroke-linecap="round" stroke-linejoin="round" stroke-miterlimit="10" stroke-width="6"/><rect width="20" height="12" x="519.92" y="632.459" fill="none" stroke="#3a3842" stroke-linecap="round" stroke-linejoin="round" stroke-miterlimit="10" stroke-width="6"/><rect width="20" height="12" x="550.84" y="632.459" fill="none" stroke="#3a3842" stroke-linecap="round" stroke-linejoin="round" stroke-miterlimit="10" stroke-width="6"/><rect width="20" height="12" x="581.76" y="632.459" fill="none" stroke="#3a3842" stroke-linecap="round" stroke-linejoin="round" stroke-miterlimit="10" stroke-width="6"/><path fill="#f2ccd4" d="M620.76,662.459h-296c-2.209,0-4-1.791-4-4v-10c0-2.209,1.791-4,4-4h296
	c2.209,0,4,1.791,4,4v10C624.76,660.668,622.969,662.459,620.76,662.459z"/><path fill="none" stroke="#3a3842" stroke-linecap="round" stroke-linejoin="round" stroke-miterlimit="10" stroke-width="6" d="
	M620.76,662.459h-296c-2.209,0-4-1.791-4-4v-10c0-2.209,1.791-4,4-4h296c2.209,0,4,1.791,4,4v10
	C624.76,660.668,622.969,662.459,620.76,662.459z"/><path fill="#f2ccd4" d="M685.094,662.459H647.76v-4.833c0-7.272,5.895-13.167,13.167-13.167h11
	c7.272,0,13.167,5.895,13.167,13.167V662.459z"/><path fill="none" stroke="#3a3842" stroke-linecap="round" stroke-linejoin="round" stroke-miterlimit="10" stroke-width="6" d="
	M685.094,662.459H647.76v-4.833c0-7.272,5.895-13.167,13.167-13.167h11c7.272,0,13.167,5.895,13.167,13.167V662.459z"/><g><path fill="#edbec4" d="M646.403,591.507h-91.286c-0.75,0-1.357-0.608-1.357-1.357v-8.048
		c0-0.75,0.608-1.357,1.357-1.357h91.286c0.75,0,1.357,0.608,1.357,1.357v8.048C647.76,590.9,647.153,591.507,646.403,591.507z"/><path fill="#edbec4" d="M612.631,595.543H588.89c-0.688,0-1.246-0.558-1.246-1.246v-16.342
		c0-0.688,0.558-1.246,1.246-1.246h23.741c0.688,0,1.246,0.558,1.246,1.246v16.342C613.876,594.985,613.319,595.543,612.631,595.543
		z"/><rect width="86" height="8" x="557.76" y="582.126" fill="#3a3842"/><rect width="24" height="14" x="588.76" y="579.126" fill="#3a3842"/><path fill="#33313a" d="M559.76,586.127L559.76,586.127c0-1.105,0.895-2,2-2h78c1.105,0,2,0.895,2,2l0,0
		c0,1.105-0.895,2-2,2h-78C560.656,588.127,559.76,587.231,559.76,586.127z"/></g><g><path fill="#edbec4" d="M646.403,616.84h-91.286c-0.75,0-1.357-0.608-1.357-1.357v-8.048
		c0-0.75,0.608-1.357,1.357-1.357h91.286c0.75,0,1.357,0.608,1.357,1.357v8.048C647.76,616.233,647.153,616.84,646.403,616.84z"/><path fill="#edbec4" d="M612.631,620.876H588.89c-0.688,0-1.246-0.558-1.246-1.246v-16.342
		c0-0.688,0.558-1.246,1.246-1.246h23.741c0.688,0,1.246,0.558,1.246,1.246v16.342C613.876,620.318,613.319,620.876,612.631,620.876
		z"/><rect width="86" height="8" x="557.76" y="607.459" fill="#3a3842"/><rect width="24" height="14" x="588.76" y="604.459" fill="#3a3842"/><path fill="#33313a" d="M559.76,611.46L559.76,611.46c0-1.105,0.895-2,2-2h78c1.105,0,2,0.895,2,2l0,0
		c0,1.105-0.895,2-2,2h-78C560.656,613.46,559.76,612.564,559.76,611.46z"/></g></svg>