<svg xmlns="http://www.w3.org/2000/svg" width="240" height="324" fill="none" viewBox="0 0 240 324"><path fill="#fff" fill-rule="evenodd" d="M47.4645 286.051C75.0656 290.245 103.167 290.456 130.998 288.933C142.012 288.108 153.06 287.959 164.065 289.014C170.568 289.498 199.081 291.678 201.411 285.851C199.944 254.824 196.975 223.533 187.865 193.692C184.119 183.096 180.901 174.302 173.589 165.534C171.284 163.14 166.315 158.119 163.467 156.482C161 155.063 159.969 155.569 158.552 153.173C157.144 150.527 156.106 146.107 154.107 144.239C152.072 142.338 149.056 143.018 145.317 143.63C146.004 134.346 141.72 131.981 135.818 130.215C125.444 126.254 115.198 128.244 112.587 140.878C107.746 140.878 105.026 142.962 102.086 144.965C100.884 145.784 101.72 147.869 100.285 148.513C97.6289 149.459 92.9354 149.227 90.3781 150.391C78.7492 155.686 68.3917 163.363 61.5897 174.576C46.3403 198.514 35.8652 248.942 37.6779 277.315C36.8837 278.561 37.9819 280.347 38.2611 281.687C38.6135 282.852 39.7545 283.627 40.9454 283.495C42.6072 285.283 45.1775 285.681 47.4645 286.051Z" clip-rule="evenodd"/><path fill="#000" fill-rule="evenodd" d="M161.709 155.78C161.54 155.686 161.689 155.443 161.859 155.523C170.045 159.365 176.324 166.105 180.743 173.892C185.318 181.955 187.926 191.11 190.174 200.058L190.255 200.381C192.652 209.953 194.691 219.624 196.526 229.319C198.384 239.136 199.876 249.015 201.076 258.934C201.67 263.838 202.199 268.751 202.612 273.674C202.818 276.134 203.005 278.596 203.174 281.059C203.241 282.044 203.304 283.03 203.359 284.015L203.398 284.755C203.431 285.426 203.511 286.098 203.345 286.76C203.202 287.331 202.9 287.847 202.635 288.371C202.109 289.406 200.67 289.235 200.104 288.371L199.939 288.119C199.564 287.539 199.252 286.999 199.134 286.277C199.02 285.578 199.016 284.845 198.965 284.139C198.871 282.839 198.791 281.538 198.7 280.238C198.508 277.502 198.293 274.767 198.055 272.034C197.583 266.639 197.078 261.249 196.457 255.869C195.354 246.307 193.969 236.771 192.337 227.286C190.742 218.02 188.727 208.848 186.624 199.687L186.406 198.74C182.723 182.746 177.048 164.327 161.709 155.78ZM74.5219 218.408C74.5821 218.248 74.8411 218.211 74.8848 218.408C75.4362 220.891 75.4907 223.449 75.575 225.992C75.6581 228.5 75.6547 231.02 75.6181 233.53C75.4833 242.754 75.2302 251.97 75.0114 261.193C74.9019 265.806 74.7993 270.419 74.7205 275.033C74.6907 276.764 74.6656 278.494 74.6448 280.225L74.6193 282.507C74.6067 283.516 74.5802 284.513 74.4572 285.521C74.3761 286.184 74.2033 286.816 73.8374 287.385C73.5777 287.788 73.2076 287.993 72.8468 288.267L72.7793 288.319C72.3192 288.683 71.8345 288.685 71.3788 288.319L71.2465 288.214C70.8112 287.874 70.435 287.608 70.1571 287.069C69.7704 286.32 69.7085 285.507 69.6428 284.682C69.5431 283.431 69.6093 282.161 69.6221 280.906C69.6479 278.389 69.6828 275.872 69.7269 273.355C69.889 264.125 70.2093 254.894 70.793 245.68C71.068 241.341 71.4409 236.987 71.941 232.665L72.0363 231.855C72.188 230.583 72.3264 229.289 72.4823 227.99C70.1547 226.352 68.1088 224.365 66.3642 222.111C66.2357 221.945 66.4472 221.712 66.6023 221.873C68.385 223.719 70.429 225.192 72.6919 226.349C73.0626 223.631 73.5724 220.927 74.5219 218.408ZM113.406 136.132C113.438 136.107 113.488 136.097 113.518 136.132C114.019 136.716 113.917 137.608 113.933 138.347L113.935 138.416C113.971 139.497 113.978 140.575 113.974 141.656L113.963 145.1V145.1C113.961 145.573 113.923 146.066 113.947 146.542L113.96 146.726V146.726C114.223 146.996 114.345 147.385 114.256 147.775C114.24 148.277 113.978 148.695 113.596 148.958L114.415 150.12V150.12L115.235 151.282C116.925 153.68 118.633 156.057 120.414 158.388C122.229 160.766 124.166 163.054 126.193 165.253C127.183 166.328 128.19 167.388 129.221 168.425C129.64 168.846 130.069 169.256 130.493 169.672L130.916 170.089C131.165 170.339 131.479 170.586 131.645 170.902C131.742 171.089 131.764 171.549 131.799 171.625C132.112 172.312 131.578 173.408 130.692 173.065L130.732 173.039C130.894 172.926 130.79 172.925 130.422 173.034C130.189 173.033 129.972 172.98 129.768 172.874L129.707 172.84C129.421 172.695 129.165 172.413 128.932 172.187L128.874 172.132C128.341 171.633 127.834 171.103 127.323 170.581C126.258 169.493 125.217 168.381 124.208 167.239C122.197 164.961 120.29 162.591 118.485 160.147C116.645 157.658 114.936 155.041 113.466 152.317C112.908 151.283 112.396 150.229 111.906 149.163C110.951 148.856 110.73 147.841 110.796 146.697C110.444 145.876 110.127 145.039 109.939 144.184C109.914 144.066 110.064 143.956 110.154 144.058C110.46 144.405 110.742 144.775 111.014 145.154C111.178 144.352 111.386 143.613 111.483 143.143L111.906 141.065V141.065C109.522 140.941 106.909 141.921 105.265 143.637C105.177 144.084 104.833 144.404 104.498 144.821C104.115 145.299 103.781 145.834 103.532 146.395C102.979 147.637 103.291 149.467 102.219 150.378C102.107 150.473 101.982 150.539 101.854 150.579C102.362 153.075 102.131 155.825 102.12 158.357L102.12 158.579C102.123 161.413 102.028 164.249 101.918 167.08L101.807 169.882C101.663 173.619 101.569 177.358 101.932 181.075C103.59 179.606 105.303 178.205 107.076 176.87C108.242 175.992 109.431 175.145 110.641 174.33L111.625 173.672C112.804 172.881 114.011 172.068 115.302 171.502C116.99 170.761 118.595 171.016 120.225 171.775C121.848 172.532 123.422 173.41 125.014 174.23C126.633 175.063 128.256 175.89 129.877 176.719C130.951 177.268 132.525 177.763 133.313 178.774C133.363 178.551 133.422 178.328 133.49 178.105C133.412 177.767 133.442 177.401 133.632 177.052C136.279 172.186 138.729 167.204 141.161 162.228C142.392 159.709 143.562 157.161 144.796 154.645L145.995 152.193C146.195 151.785 146.396 151.377 146.598 150.97C146.9 150.36 147.215 149.756 147.521 149.147C147.651 148.89 147.813 148.635 147.939 148.375L147.998 148.245C148.001 148.238 148.292 147.324 148.067 147.411L148.048 147.421C147.933 147.486 147.842 147.342 147.916 147.25C148.233 146.857 148.675 147.205 148.856 147.568C149.355 148.568 148.441 150.137 148.089 151.095L148.07 151.148C146.979 154.238 145.743 157.27 144.477 160.291C142.05 166.084 139.443 171.787 136.841 177.501L136.81 177.599V177.599C137.365 177.173 137.957 176.787 138.465 176.411C139.744 175.463 141.061 174.562 142.376 173.663C144.788 172.015 147.264 170.475 149.782 168.997L150.286 168.702C151.544 167.969 152.79 167.374 154.283 167.594C155.669 167.799 156.959 168.544 158.212 169.15L158.341 169.212L162.213 171.053C161.799 169.402 161.351 167.759 160.883 166.122C159.971 162.929 158.968 159.763 157.88 156.625C156.864 153.694 155.765 150.794 154.603 147.917L154.253 147.054C153.78 145.87 153.309 144.578 151.955 144.214C150.601 143.849 149.049 144.39 147.813 143.618C147.7 143.548 147.714 143.362 147.85 143.328L148.613 143.136C150.046 142.779 151.726 142.42 153.081 142.767C154.556 143.145 155.775 144.383 156.491 145.67C157.286 147.102 157.847 148.704 158.45 150.23L158.546 150.471C159.239 152.198 159.905 153.936 160.543 155.685C161.818 159.181 162.978 162.719 164.029 166.288C164.535 168.009 165.015 169.737 165.477 171.47C165.609 171.968 165.828 172.573 166.008 173.203C166.213 173.404 166.408 173.628 166.591 173.883C166.894 174.307 166.677 174.804 166.3 175.058C166.285 175.492 166.189 175.9 165.958 176.249C165.06 177.614 162.683 177.263 162.78 175.428C162.794 175.147 162.904 174.879 163.069 174.652L163.065 174.615V174.615L163.046 174.548V174.548C162.633 174.35 162.219 174.13 161.782 173.914L157.719 171.905V171.905C156.542 171.324 155.238 170.425 153.929 170.203C152.709 169.996 151.422 170.906 150.374 171.454L150.306 171.49C147.772 172.789 145.256 174.131 142.751 175.485C141.528 176.146 140.321 176.834 139.102 177.503C138.084 178.062 136.984 178.865 135.839 179.18C135.35 179.561 134.769 179.51 134.302 179.222C134.516 180.544 134.502 181.901 134.568 183.252C134.656 185.059 134.669 186.871 134.699 188.681L134.71 189.359C134.787 193.359 134.828 197.36 134.844 201.361C134.898 215.608 134.74 229.859 134.704 244.105C134.685 251.263 134.543 258.427 134.357 265.583C134.278 268.615 134.114 271.643 133.936 274.67L133.838 276.322C133.631 279.806 133.508 283.328 132.863 286.766C132.779 287.214 132.021 287.225 131.947 286.766C131.353 283.082 131.32 279.319 131.206 275.592L131.182 274.848C131.045 270.847 130.98 266.848 130.994 262.846C131.044 248.593 131.415 234.35 131.718 220.101C131.87 212.942 131.973 205.78 132.209 198.624C132.327 195.043 132.461 191.464 132.62 187.885C132.691 186.287 132.759 184.69 132.866 183.094L132.913 182.41C132.946 181.964 132.973 181.524 133.005 181.087C131.564 181.614 130.246 180.638 128.949 179.971C127.454 179.202 125.96 178.432 124.465 177.664L122.969 176.898V176.898L119.974 175.369C118.626 174.681 117.587 173.996 116.149 174.803C110.968 177.711 106.207 181.58 101.893 185.64C101.066 186.419 99.3173 186.209 99.1077 184.904C98.2125 179.33 98.757 173.675 99.214 168.083L99.3825 166.007C99.5867 163.528 99.809 161.049 100.105 158.579C100.238 157.475 100.37 156.371 100.516 155.268L100.628 154.442C100.811 153.135 100.93 151.836 101.319 150.583C101.196 150.543 101.078 150.478 100.973 150.378C99.8026 149.267 100.367 147.34 100.901 146.02C101.428 144.716 102.232 143.578 103.238 142.598C103.458 142.385 103.767 142.247 104.078 142.24C106.519 140.622 109.197 139.815 111.983 140.698C112.062 140.323 112.142 139.95 112.226 139.577L112.311 139.204C112.528 138.279 112.608 136.751 113.406 136.132ZM138.421 282.221C139.179 282.013 140.008 282.233 140.563 282.788C141.118 283.343 141.338 284.172 141.129 284.93C141.024 285.303 140.836 285.627 140.563 285.902C140.308 286.155 140.011 286.336 139.671 286.444L139.592 286.468L139.468 286.52C139.088 286.622 138.708 286.622 138.329 286.52C137.966 286.418 137.651 286.234 137.383 285.969C137.118 285.701 136.934 285.386 136.832 285.023C136.73 284.643 136.73 284.263 136.832 283.883L136.884 283.759V283.759C136.989 283.386 137.177 283.062 137.45 282.788C137.725 282.515 138.049 282.326 138.421 282.221ZM183.394 206.719C183.518 206.576 183.72 206.759 183.643 206.911C182.463 209.225 181.148 211.522 179.856 213.777C179.959 214.402 180.062 215.022 180.18 215.626C180.684 218.201 181.3 220.73 181.702 223.33C183.147 232.676 183.898 242.123 184.541 251.553C185.187 261.016 185.269 270.484 185.366 279.966C185.375 280.788 184.743 281.743 183.896 281.898C183.509 281.969 183.219 281.955 182.832 281.898C181.95 281.768 181.399 280.758 181.361 279.966C181.109 274.667 180.769 269.374 180.375 264.083C179.677 254.702 179.25 245.297 178.687 235.907L178.488 232.625C178.275 229.069 178.08 225.51 178.016 221.949C177.974 219.589 178.1 217.23 178.023 214.873C177.951 212.698 177.731 210.332 178.21 208.194C178.228 208.114 178.354 208.094 178.391 208.17C178.89 209.22 179.205 210.362 179.449 211.526C180.734 209.901 182.042 208.271 183.394 206.719ZM99.2255 149.243C99.4059 149.23 99.3988 149.501 99.2255 149.521C96.7038 149.814 94.2678 150.84 91.8868 151.713L91.6828 151.787C89.2774 152.66 86.9321 153.675 84.6751 154.886C80.2623 157.252 76.2102 160.303 72.6276 163.796C58.3237 177.739 51.805 197.846 47.0285 216.741C44.3745 227.239 42.4873 237.914 41.264 248.672C40.6592 253.992 40.2316 259.332 39.9823 264.681C39.8547 267.422 39.7742 270.166 39.7406 272.91C39.7233 274.315 39.7182 275.721 39.7199 277.126C39.7207 277.771 39.8357 278.582 39.6635 279.207C39.5038 279.786 39.0533 280.297 38.7202 280.779C38.3253 281.352 37.6157 281.322 37.2153 280.779L37.0677 280.582C36.6407 280.015 36.2229 279.473 36.1619 278.733C36.0966 277.939 36.1427 277.121 36.1397 276.323C36.133 274.717 36.1528 273.11 36.185 271.504C36.2469 268.426 36.3681 265.348 36.5483 262.274C36.9142 256.036 37.5166 249.811 38.379 243.622C39.9119 232.621 42.2097 221.726 45.2194 211.035C48.0588 200.949 51.4226 190.894 56.2146 181.552C60.6639 172.878 66.5008 164.809 74.2028 158.747C77.7844 155.928 81.6833 153.578 85.8869 151.809C88.007 150.917 90.2333 150.188 92.4975 149.773C94.7365 149.362 96.9658 149.42 99.2255 149.243ZM138.856 264.395C139.255 264.392 139.701 264.48 140.045 264.701L140.503 265.056V265.056C140.627 265.215 140.751 265.375 140.874 265.536C141.161 265.91 141.199 266.514 141.139 266.96C141.125 267.257 141.037 267.533 140.874 267.79L140.525 268.242V268.242C140.189 268.516 139.91 268.711 139.503 268.842C139.291 268.911 139.087 268.926 138.883 268.915L138.815 268.911L138.856 268.916L138.784 268.908V268.908C138.718 268.902 138.651 268.895 138.584 268.886C138.539 268.881 138.493 268.877 138.448 268.871C138.404 268.867 138.362 268.866 138.318 268.87C137.802 268.918 137.282 268.625 136.916 268.289C136.586 267.985 136.289 267.342 136.335 266.886L136.355 266.696C136.39 266.375 136.418 266.248 136.554 265.925C136.687 265.611 136.872 265.334 137.123 265.1C137.605 264.652 138.194 264.399 138.856 264.395ZM137.257 240.875C137.942 240.128 139.119 240.073 139.969 240.525C140.176 240.635 140.367 240.812 140.549 240.96C141.009 241.332 141.19 242.003 141.215 242.568C141.24 243.127 140.945 243.791 140.549 244.177L140.453 244.27V244.27C140.216 244.5 139.877 244.701 139.546 244.762C139.011 244.86 138.563 244.857 138.065 244.647C137.637 244.466 137.269 244.176 137.018 243.783L136.978 243.716C136.961 243.689 136.944 243.661 136.929 243.632L136.907 243.588C136.431 242.672 136.559 241.635 137.257 240.875ZM137.612 217.231C137.921 217.134 138.23 217.121 138.539 217.19C138.749 217.19 138.945 217.243 139.126 217.349C139.323 217.404 139.494 217.503 139.639 217.648C139.813 217.751 139.953 217.89 140.056 218.065C140.261 218.289 140.4 218.553 140.472 218.856L140.555 219.474L140.472 220.092L140.238 220.648V220.648C140.173 220.732 140.108 220.816 140.043 220.9C139.939 221.075 139.8 221.215 139.625 221.318C139.511 221.432 139.38 221.516 139.234 221.575C138.717 221.946 138.027 222.067 137.414 221.898C137.05 221.796 136.733 221.612 136.465 221.345C136.199 221.077 136.014 220.761 135.913 220.396L135.871 220.106C135.816 219.715 135.808 219.499 135.918 219.003C135.967 218.785 136.107 218.478 136.181 218.348C136.495 217.795 137.009 217.416 137.612 217.231ZM164.45 200.222C165.337 200.215 166.225 200.217 167.112 200.227L167.778 200.236C168.892 200.253 169.847 200.138 170.723 200.912C171.359 201.473 171.079 202.415 170.475 202.838C169.561 203.478 168.413 203.156 167.362 203.086C166.253 203.011 165.144 202.949 164.034 202.9C161.885 202.803 159.734 202.742 157.583 202.733C155.436 202.724 153.287 202.744 151.14 202.778C148.956 202.814 146.682 203.018 144.51 202.791C144.212 202.76 144.145 202.368 144.439 202.266C146.486 201.557 148.788 201.328 150.933 201.057C153.145 200.778 155.357 200.58 157.583 200.451C159.87 200.32 162.16 200.238 164.45 200.222ZM137.608 193.265L137.681 193.267C138.072 193.268 138.438 193.359 138.778 193.542L138.851 193.583L139.32 193.945C139.607 194.235 139.806 194.576 139.916 194.968L139.999 195.585V195.585C140.011 195.904 139.944 196.201 139.799 196.478C139.706 196.765 139.546 197.014 139.32 197.224C139.11 197.45 138.861 197.61 138.574 197.703C138.319 197.837 138.046 197.904 137.755 197.904L137.681 197.903C137.263 197.901 136.873 197.796 136.512 197.586L136.043 197.224V197.224C135.756 196.935 135.557 196.594 135.447 196.201L135.364 195.585V195.585C135.352 195.265 135.418 194.967 135.564 194.691C135.657 194.404 135.817 194.155 136.043 193.945C136.253 193.719 136.501 193.559 136.789 193.466C137.044 193.332 137.317 193.265 137.608 193.265V193.265ZM144.478 138.806C144.978 138.083 145.882 138.726 145.753 139.308C145.787 140.941 145.871 142.527 146.242 144.127C146.412 144.859 146.635 145.593 146.979 146.264L147.123 146.546C147.568 147.426 147.914 148.255 147.314 149.22C147.032 149.675 146.521 150.016 145.968 149.992C143.514 149.886 143.177 146.47 143.028 144.562C142.874 142.598 143.352 140.439 144.478 138.806Z" clip-rule="evenodd"/><path fill="#fff" fill-rule="evenodd" d="M130.31 50.4502C139.769 50.4502 151.117 55.0375 152.082 55.1292L152.108 55.1306C152.616 55.1306 154.6 56.6424 158.059 59.6661L154.312 66.9776L154.615 67.2672C156.067 68.659 157.305 69.9276 158.283 70.9277C166.267 79.0931 167.702 111.153 165.821 122.333C163.939 133.513 160.454 144.453 144.229 144.453C128.004 144.453 109.953 134.694 107.173 131.654C105.319 129.628 103.237 128.658 100.926 128.742C100.831 128.622 100.737 128.503 100.643 128.384L100.303 128.336C97.1055 127.872 94.814 127.249 93.4293 126.465C90.7244 124.934 87.7514 116.886 87.7514 115.113C87.7514 113.358 83.312 100.59 83.2233 99.2384L83.2219 99.201C83.2219 98.0715 77.4224 92.8791 77.4224 91.2301C77.4224 89.5812 76.2534 89.6812 77.4224 83.8704L77.762 82.1634C79.006 75.9766 81.4408 65.7322 90.7244 61.2807C100.926 56.3889 120.756 50.4502 130.31 50.4502Z" clip-rule="evenodd"/><path fill="#000" fill-rule="evenodd" d="M89.1499 61.0507C94.2378 55.6483 123.123 47.2919 137.736 49.0632L138.175 49.12C139.341 49.268 140.49 49.492 141.625 49.7963C145.291 50.6529 149.078 51.95 152.107 54.1166C154.637 55.8889 162.615 58.7834 160.263 63.42C161.135 65.0725 161.46 67.1142 160.871 68.7418C160.797 69.304 160.624 69.8218 160.402 70.3586C162.265 73.1085 163.74 76.2183 164.934 79.1761C167.02 86.6201 168.318 94.367 168.508 101.962C169.141 116.391 167.559 133.627 154.997 142.958C147.408 148.87 135.52 149.069 126.992 141.738C126.508 141.165 124.232 139.619 124.992 139.348C125.218 139.586 125.45 139.819 125.687 140.047C125.676 140.022 125.674 139.996 125.678 139.969L125.456 139.767C125.037 139.379 124.494 138.817 125.112 138.927C125.139 138.959 125.169 138.986 125.198 139.018C125.329 139.096 125.428 139.165 125.505 139.225L125.545 139.256L125.533 139.244C125.177 138.864 124.963 138.476 125.496 138.724L125.566 138.758C125.803 139.007 126.044 139.246 126.289 139.479C126.285 139.451 126.289 139.424 126.304 139.394L126.075 139.173C125.852 138.955 125.886 138.954 125.995 138.777C125.521 138.112 126.406 138.507 126.468 138.766C127.022 138.635 127.508 139.675 127.865 139.802C143.498 151.826 166.186 141.157 165.818 107.653L165.813 106.997C165.705 96.2839 164.804 85.2727 160.375 75.5747C159.944 74.6406 159.462 73.7318 158.932 72.8525C158.566 72.1931 158.175 71.5506 157.755 70.925C156.578 70.8299 155.416 70.6143 154.271 70.2804C153.878 70.1811 153.489 70.0712 153.101 69.9423C147.422 70.2521 141.87 70.5892 136.175 70.9088L134.396 71.0196C129.572 71.3298 124.583 71.8268 120.69 74.8118C116.87 77.5293 116.853 82.8881 113.583 85.8717C108.921 89.0375 108.887 91.8922 107.989 96.5576C108.055 100.074 110.493 105.184 106.02 106.664C106.774 107.741 105.722 107.224 105.64 106.846C105.631 106.848 105.623 106.85 105.616 106.85C106.289 108.101 105.3 107.313 105.213 106.912C105.16 106.897 105.107 106.859 105.054 106.806C105.732 107.902 104.637 107.134 104.702 106.935C103.392 104.922 100.698 104.609 98.7985 105.143C98.7753 105.215 98.691 105.221 98.6381 105.183C90.562 106.934 92.6457 123.659 100.922 122.042C101.276 121.97 101.268 122.14 101.338 122.156C101.147 121.654 101.686 121.859 101.68 121.964L101.713 121.962C101.739 121.96 101.728 121.957 101.748 121.964C101.563 120.937 102.603 122.425 102.521 122.486C102.553 122.467 102.589 122.456 102.621 122.452L102.585 122.355C102.412 121.895 102.427 122.086 102.428 121.822C102.298 121.497 102.289 121.639 102.319 121.427C102.775 121.074 102.91 122.146 103.062 122.224C102.801 121.86 103.008 121.564 103.254 121.761C105.118 125.683 107.526 129.368 110.638 132.272C110.978 132.54 111.323 132.804 111.679 133.054C113.003 134.207 115.033 134.949 116.272 135.97C116.272 135.987 116.264 136.008 116.252 136.029L116.28 136.055V136.055L116.309 136.082L116.74 136.289C116.866 136.397 116.98 136.518 117.082 136.651C117.19 136.775 117.284 136.913 117.365 137.059C117.405 137.236 117.316 137.31 117.147 137.234C117.073 137.209 116.999 137.179 116.925 137.152C116.93 137.158 116.932 137.162 116.936 137.166C116.96 137.203 117.124 137.584 116.935 137.522L116.913 137.513C116.809 137.475 116.706 137.433 116.604 137.393C116.725 137.543 116.834 137.705 116.932 137.843C117.035 137.951 117.098 138.077 117.124 138.221C117.12 138.301 117.075 138.335 116.995 138.325C116.873 138.284 116.752 138.242 116.632 138.198L116.666 138.263C116.751 138.431 116.872 138.712 116.657 138.618C116.473 138.561 116.296 138.496 116.118 138.424C116.103 138.454 116.074 138.464 116.015 138.437C115.451 138.236 114.906 137.991 114.384 137.701C113.925 137.367 113.463 137.04 113.002 136.708C112.569 136.448 112.151 136.158 111.752 135.833C109.08 134.107 106.741 131.914 104.885 129.471C101.782 132.16 95.5773 129.591 91.7392 127.487C88.3443 125.606 87.01 122.128 86.665 118.378C85.9477 113.33 81.8238 111.602 82.1107 100.525C82.1043 100.527 82.0978 100.527 82.0893 100.527C81.9393 100.482 81.7938 100.423 81.6564 100.347C81.5149 100.279 81.3818 100.199 81.2569 100.102L81.1027 99.8885V99.8885C81.0226 99.8441 80.9508 99.7976 80.8959 99.7511L80.8674 99.7878C80.7772 99.8967 80.8378 99.7329 80.8431 99.7004L80.5752 99.3359C79.9399 98.4682 79.243 97.4947 78.6753 96.7161L78.6574 96.7477C78.6445 96.7716 78.6377 96.7889 78.6438 96.7964C77.2927 94.8545 76.0222 92.509 75.6691 90.2382C75.2523 88.4891 75.4152 86.6867 75.7788 85.0665C77.3377 79.3928 82.4445 66.5537 89.1499 61.0507ZM125.815 139.515L125.73 139.44L125.805 139.533C125.844 139.581 125.884 139.625 125.949 139.669C125.944 139.654 125.944 139.639 125.946 139.622C125.903 139.589 125.859 139.553 125.815 139.515ZM137.672 51.9141C127.762 51.0617 118.014 53.2458 108.558 55.8896L107.905 56.0771C102.528 57.6121 96.8422 58.9933 92.298 62.2787C85.9492 67.1433 82.6708 74.8821 79.8098 82.0272C77.3116 87.3359 78.5887 93.322 82.3535 97.0289C82.7452 93.3453 83.413 89.7694 84.4566 86.2223C84.6744 85.6682 84.5097 85.4866 84.9791 85.4143C85.6881 94.9733 82.1961 102.036 89.1066 113.365C92.1052 118.71 88.634 122.621 97.1016 125.434L97.3308 125.522C99.0949 126.188 101.021 126.713 102.749 126.341L102.594 126.089C102.437 125.83 102.389 125.704 102.618 125.593C102.612 125.58 102.604 125.568 102.595 125.553C102.409 125.202 102.23 124.847 102.058 124.488C101.989 124.511 101.919 124.528 101.847 124.547C101.894 124.633 101.9 124.72 101.769 124.75C101.304 124.909 100.826 124.973 100.336 124.943L100.231 124.936C99.6782 124.902 99.3299 124.801 99.0182 124.707C98.9149 124.69 98.8114 124.674 98.7098 124.652C97.7073 124.43 96.6461 123.864 95.9593 123.304C88.1302 118.855 88.9393 103.712 98.5896 102.281C98.7875 92.7465 103.321 76.6611 110.844 67.5758C117.644 59.2188 136.209 55.5966 149.125 56.8738C149.313 56.9362 149.502 56.9991 149.69 57.0628C151.683 57.2399 153.582 58.128 155.576 58.5405C154.144 57.4671 152.52 56.7521 150.847 56.1444C147.513 54.1047 143.692 53.001 140 52.2226C139.235 52.0345 138.46 51.931 137.672 51.9141ZM98.1477 109.94C98.6665 109.658 98.6072 109.931 98.7265 109.852C102.459 109.547 106.483 112.816 108.569 115.541C108.405 115.712 107.959 115.205 107.881 115.125C107.87 115.135 107.858 115.144 107.845 115.148L107.903 115.23C108.749 116.444 107.072 115.015 106.915 114.721C106.888 114.736 106.86 114.744 106.829 114.738C106.962 114.868 107.367 115.208 107.437 115.45L107.545 115.54C108.559 116.409 108.475 117.063 107.323 115.828C107.35 115.886 107.361 115.938 107.342 115.981L107.382 116.007C107.948 116.403 108.414 117.507 107.23 116.374C107.353 117.201 106.057 115.602 106.015 115.613C103.772 113.851 100.469 112.138 97.6554 111.908L97.5586 111.897C97.0422 111.83 96.7981 111.677 96.9794 111.339C96.3434 111.188 96.4924 110.875 96.7934 110.885C96.3449 110.59 96.7486 110.308 97.0089 110.418C96.83 109.922 97.5477 110.252 97.6132 110.183C97.9856 109.609 98.086 110.088 98.1477 109.94ZM90.3245 79.2205C92.1171 78.5636 97.4121 80.53 96.9885 83.1343C96.7362 83.7322 95.9051 84.0748 95.3209 83.7373L94.5585 83.225C93.2317 82.3361 92.035 81.5566 90.6105 80.7813C89.8352 80.3965 89.5014 79.5794 90.3245 79.2205ZM100.523 75.3504L99.8311 74.8997C96.0951 72.4536 90.8136 68.7472 100.18 72.582C101.248 73.04 102.666 73.3109 103.249 74.3279C104.164 76.2024 101.756 76.3284 100.523 75.3504ZM100.943 64.3752C100.643 63.2371 104.374 64.5726 105.46 64.9248L105.625 64.9872C106.681 65.381 107.892 65.7463 108.524 66.6582C109.264 67.9183 107.766 68.1793 106.838 67.6102C104.935 66.3662 102.849 65.4276 100.943 64.3752ZM110.429 59.0735C108.33 56.7797 113.949 58.9771 114.791 59.5871L114.815 59.6051C115.443 60.0474 115.316 61.0002 114.726 61.28C113.047 61.312 111.811 59.912 110.429 59.0735ZM119.984 56.5603C116.646 54.1604 121.043 55.3019 122.571 56.2425C123.612 57.1608 122.539 58.711 119.984 56.5603Z" clip-rule="evenodd"/><path fill="#000" fill-rule="evenodd" d="M131.904 116.766C135.526 116.326 139.036 117.435 142.577 117.995C144.446 118.29 146.317 118.51 148.209 118.592C148.59 118.608 148.97 118.618 149.351 118.626C149.386 118.291 149.574 117.983 149.981 117.798C150.814 117.421 151.48 117.25 152.395 117.287C153.233 117.32 154.073 117.406 154.897 117.557C156.395 117.831 157.898 118.455 158.994 119.537C161.528 122.042 161.142 126.066 159.184 128.795C155.138 134.433 147.753 134.695 141.428 134.621L140.844 134.614C135.085 134.531 126.846 135.39 124.229 128.836C123.267 126.425 123.401 123.631 124.579 121.319C125.984 118.562 128.942 117.126 131.904 116.766ZM149.893 126.154L149.842 126.156C147.186 126.258 144.532 126.33 141.875 126.377C141.955 127.06 142.036 127.742 142.128 128.424C142.201 128.959 142.279 129.495 142.36 130.029C142.395 130.256 142.521 130.607 142.485 130.832L142.472 130.92V130.92C142.609 130.982 142.732 131.081 142.825 131.226C142.857 131.276 142.88 131.326 142.903 131.376C144.966 131.392 147.185 131.352 149.288 130.977L149.292 130.931V130.931C149.33 130.663 149.442 130.482 149.59 130.358C149.738 129.501 149.725 128.588 149.782 127.738C149.817 127.209 149.856 126.682 149.893 126.154ZM139.846 126.413C137.932 126.446 136.017 126.471 134.104 126.448L133.235 126.434V126.434C133.419 127.419 133.619 128.4 133.784 129.391C133.958 130.424 133.049 131.081 132.262 131.054C132.35 131.069 132.439 131.084 132.527 131.096C134.984 131.444 137.536 131.351 140.03 131.349C139.896 130.565 139.95 129.681 139.93 129.027L139.926 128.926C139.888 128.088 139.861 127.251 139.846 126.413ZM126.846 126.233C126.913 126.745 127.042 127.246 127.235 127.712C128.052 129.683 129.925 130.603 131.907 130.99C131.563 130.871 131.29 130.586 131.221 130.097C131.049 128.882 130.987 127.646 130.983 126.412C129.602 126.399 128.211 126.37 126.846 126.233ZM157.095 125.812C156.112 126.044 154.969 125.938 154.005 125.982C153.101 126.023 152.197 126.058 151.293 126.095C151.336 126.712 151.377 127.329 151.422 127.946C151.48 128.743 151.486 129.586 151.639 130.38C153.457 129.759 155.087 128.763 156.31 127.171C156.615 126.774 156.887 126.308 157.095 125.812ZM131.489 119.999C129.852 120.387 128.303 121.206 127.47 122.704C126.976 123.594 126.759 124.647 126.8 125.686C128.184 125.525 129.591 125.464 130.991 125.413C130.996 125.161 131.002 124.909 131.01 124.657L131.031 124.013C131.069 122.783 131.089 121.24 131.489 119.999ZM139.96 120.149L139.24 120.068C137.239 119.84 135.238 119.601 133.237 119.738C132.947 119.758 132.653 119.79 132.358 119.833C132.712 121.11 132.682 122.61 132.83 123.874C132.887 124.363 132.959 124.847 133.039 125.33L133.387 125.314V125.314C135.534 125.198 137.684 125.126 139.833 125.041C139.833 124.637 139.835 124.233 139.842 123.829L139.849 123.425C139.874 122.393 139.807 121.23 139.96 120.149ZM150.011 119.985C147.915 120.324 145.748 120.396 143.689 120.398C142.867 120.399 142.045 120.349 141.223 120.276C141.277 120.714 141.305 121.156 141.345 121.588C141.426 122.46 141.519 123.331 141.62 124.2L141.71 124.961V124.961C144.351 124.842 146.993 124.712 149.634 124.578L150.007 124.558V124.558L150.111 123.095C150.182 122.12 150.26 121.145 150.371 120.174L150.288 120.144V120.144C150.191 120.104 150.098 120.049 150.011 119.985ZM150.921 120.349C151.036 121.728 151.1 123.113 151.185 124.494L152.926 124.401C153.217 124.385 153.507 124.369 153.797 124.352C154.925 124.287 156.375 123.945 157.49 124.264C157.575 123.25 157.286 122.262 156.37 121.58C154.764 120.383 152.718 120.809 150.921 120.349ZM144.972 108.02C147.565 106.534 154.07 105.016 154.482 109.684C154.672 111.832 153.075 113.612 151.211 114.406L151.141 114.435C149.393 115.154 146.295 115.966 144.782 114.407C143.522 113.109 145.193 110.782 146.757 111.846C147.561 112.392 149.254 111.989 150.151 111.729L150.207 111.713C151.175 111.428 152.466 110.517 152.066 109.325C151.712 108.27 150.204 108.077 149.26 108.043C147.851 107.992 146.479 108.319 145.082 108.426C144.861 108.443 144.793 108.122 144.972 108.02ZM155.711 100.514C159.23 100.349 161.419 104.193 160.61 107.342C160.47 107.886 159.863 108.419 159.276 108.358L159.128 108.344C159.053 108.337 158.978 108.328 158.909 108.309C158.352 108.154 157.852 107.575 157.893 106.974L157.904 106.799C157.986 105.311 157.825 103.597 156.057 103.237C154.558 102.931 153.722 104.375 153.704 105.703C153.7 105.939 153.436 106.104 153.227 105.977C152.143 105.317 151.956 104.005 152.37 102.875C152.894 101.443 154.207 100.584 155.711 100.514ZM129.599 101.338C132.16 100.484 134.922 101.849 136.162 104.114C136.597 104.24 137.032 104.576 136.971 105.089C136.884 105.828 136.752 106.294 136.24 106.854C135.439 107.731 133.939 107.282 133.606 106.203L133.592 106.155C133.214 104.76 131.679 103.84 130.281 104.328C128.648 104.898 128.696 106.624 127.55 107.629C127.416 107.747 127.254 107.766 127.093 107.688C125.876 107.1 126.095 105.329 126.528 104.316C127.097 102.987 128.203 101.804 129.599 101.338ZM126.111 93.5592C128.186 91.4411 133.597 89.3914 135.017 93.3029C135.287 94.0479 134.711 95.0524 133.936 95.2069C132.666 95.4597 131.54 94.9083 130.279 95.0072C129.257 95.0877 128.192 95.429 127.376 96.0618C125.115 97.8143 124.618 100.779 123.042 103.009C122.966 103.118 122.817 103.072 122.803 102.944C122.444 99.6966 123.838 95.879 126.111 93.5592ZM153.173 91.4741C154.55 90.9875 156.11 91.0292 157.494 91.4607C158.888 91.8957 160.168 92.7217 161.155 93.8008C161.602 94.2907 162.016 94.8314 162.348 95.4069C162.525 95.7118 162.71 96.3419 162.911 96.717C163.995 97.3436 164.459 98.7713 163.488 99.787L163.444 99.8315L163.314 99.9604C162.792 100.477 162.005 100.701 161.292 100.495C159.698 100.033 159.504 98.7769 158.952 97.4432C158.587 96.5623 157.962 95.7829 157.205 95.2103C155.415 93.8577 152.48 93.4267 150.325 94.0642C150.21 94.0982 150.075 93.9519 150.157 93.8458C150.565 93.3166 150.801 92.8823 151.347 92.4554C151.902 92.0221 152.508 91.7091 153.173 91.4741Z" clip-rule="evenodd"/><path fill="#000" fill-rule="evenodd" d="M129.449 129.599C131.159 125.59 134.893 122.644 139.191 121.566C142.347 120.778 145.66 120.803 148.877 121.116C150.563 121.279 152.371 121.412 153.96 122.039C155.317 122.574 156.422 123.585 157.254 124.772C158.243 126.179 158.916 127.789 159.389 129.439C159.456 129.674 159.519 129.91 159.578 130.148C159.372 131.393 158.936 132.453 157.783 133.236C156.658 134 155.316 134.313 153.978 134.424C153.846 134.361 153.72 134.296 153.603 134.23C151.518 133.035 150.051 130.213 147.419 130.595C145.07 130.936 143.524 133.893 142.127 135.626C137.644 136.149 133.164 134.801 129.516 132.236C129.33 131.359 129.32 130.473 129.449 129.599M162.625 126.558C162.266 125.551 161.814 124.576 161.279 123.657C159.509 120.619 156.791 118.198 153.565 116.814C145.934 113.546 136.06 115.85 129.897 121.211C127.792 123.044 125.663 125.737 125.019 128.634C124.827 128.672 124.645 128.772 124.496 128.913C120.043 126.108 115.458 123.41 111.87 119.523C109.264 116.698 107.452 113.355 106.342 109.682C106.251 109.38 105.764 109.424 105.779 109.759C105.783 109.837 105.787 109.915 105.791 109.993C105.745 109.849 105.526 109.923 105.509 110.063C104.912 114.525 104.165 119.256 104.853 123.742C105.264 126.418 106.479 128.377 108.104 130.493C109.845 132.761 111.815 134.87 113.83 136.893C115.109 138.177 116.444 139.658 118.01 140.6C119.831 141.694 121.896 142.525 123.839 143.369C125.816 144.231 127.823 145.026 129.867 145.716C133.954 147.1 138.178 148.056 142.476 148.475C145.917 148.809 149.85 149.173 153.148 147.878C155.675 146.886 157.715 145.092 159.334 142.934C161.095 140.583 162.488 137.905 163.258 135.082C164.058 132.149 162.793 127.03 162.625 126.558" clip-rule="evenodd"/><path fill="#000" fill-rule="evenodd" d="M170.723 102.353C168.709 115.983 154.648 117.49 152.15 103.959C152.551 103.784 152.839 103.438 152.779 102.767C152.765 99.8178 153.68 96.7012 156.339 95.0613C159.087 93.3693 162.302 93.2014 165.482 93.2441C171.55 93.0996 171.423 98.1735 170.723 102.353M149.949 96.4254C148.044 96.3451 145.635 96.4123 143.929 97.573C143.46 96.3095 142.242 94.9605 141.01 94.2392C145.587 94.3732 150.298 93.9226 154.908 93.5728C153.805 94.3254 152.778 95.4561 152.11 96.7633C151.491 96.433 150.604 96.4638 149.949 96.4254M141.555 103.798C136.274 121.982 123.093 114.056 121.656 111.726C119.064 107.87 118.576 98.4953 120.834 95.9889C124.066 93.7224 128.641 94.3057 132.459 94.2502C139.474 94.3448 144.455 96.444 141.555 103.798M176.958 95.4348C175.524 95.2471 173.99 95.2093 172.657 95.8412C172.246 94.0948 170.956 92.6348 169.501 91.9923C169.324 91.7712 169.351 91.6525 168.749 91.6856C165.053 90.5744 160.917 91.1623 157.365 92.3019C151.755 92.7745 145.87 93.1471 140.213 93.7983C134.914 91.4176 118.923 91.0687 117.929 96.9364C116.679 96.7494 114.55 95.7651 113.5 97.1002C105.795 95.7934 97.8329 97.6096 90.0944 98.4184C88.1465 98.7773 87.1432 102.645 89.3543 102.592C90.5974 102.254 89.3161 100.184 90.99 100.028C98.4564 99.212 105.759 98.0547 113.302 97.9192C113.04 99.2222 118.291 99.3069 118.369 98.5461C118.38 98.5518 118.392 98.5556 118.403 98.5607C117.106 103.398 118.277 110.361 120.622 113.361C123.908 117.289 132.157 118.416 135.814 115.888C140.532 113.556 145.441 101.847 144.062 97.9564C146.564 97.163 149.038 97.4012 151.635 97.8053C151.04 99.4853 150.014 103.621 151.491 103.98C151.22 112.191 158.689 117.314 165.575 113.946C171.536 111.147 173.62 102.287 172.891 96.91C173.633 98.3442 179.862 96.7828 176.958 95.4348" clip-rule="evenodd"/></svg>