<svg xmlns="http://www.w3.org/2000/svg" width="240" height="324" fill="none" viewBox="0 0 240 324"><path fill="#fff" fill-rule="evenodd" d="M170.479 181.122C168.644 180.468 166.876 179.712 165.265 178.6C160.621 175.142 157.592 169.937 154.731 165.006C150.7 157.835 147.829 150.193 145.844 142.221C144.991 138.795 144.702 134.824 142.764 131.787C138.371 125.429 125.49 126.253 118.651 127.369C114.07 128.18 113.124 133.308 112.083 137.102C111.217 140.255 110.65 143.443 110.174 146.674C109.042 147.419 107.763 148.024 106.545 148.551C93.2646 152.625 90.9305 160.177 85.8582 171.843C77.2911 188.799 54.0443 195.439 50.5328 215.506C48.2703 228.755 54.704 241.219 61.3372 252.232C67.5147 264.263 76.1388 270.037 89.8731 267.195C102.755 264.304 115.135 259.468 127.791 255.731C133.92 254.223 140.04 250.302 146.488 251.669C159.773 254.654 173.424 256.057 187.039 255.67C206.155 256.443 206.152 238.089 204.19 223.875C202.816 201.755 191.663 187.551 170.479 181.122V181.122Z" clip-rule="evenodd"/><path fill="#000" fill-rule="evenodd" d="M171.757 213.13C173.355 214.187 174.698 215.789 175.777 217.475C171.274 217.007 166.779 216.466 162.295 215.851C162.882 215.476 163.474 215.109 164.08 214.762C166.292 213.516 169.288 211.497 171.757 213.13ZM96.9503 226.445C96.1253 226.122 95.806 224.863 95.4845 224.142C94.4763 221.88 93.5562 219.579 92.599 217.295C96.2336 216.259 99.7681 215.109 103.533 214.556C107.582 213.963 111.69 213.819 115.776 213.952C124.052 214.222 132.252 215.576 140.388 217.026C148.516 218.476 156.642 219.868 164.827 220.961C172.845 222.031 180.888 222.815 188.947 223.502C190.513 223.636 193.123 224.199 194.382 222.967C195.379 221.991 195.412 220.19 194.164 219.397C193.387 218.902 192.261 218.895 191.374 218.78C190.256 218.637 189.133 218.541 188.008 218.466C187.55 218.436 187.092 218.408 186.633 218.38C190.313 216.992 194.156 216.235 198.145 216.446C198.371 217.817 199.387 219.228 199.944 220.359C200.915 222.333 201.672 224.331 202.169 226.477C203.208 230.964 203.254 235.62 202.96 240.196C202.691 244.011 202.111 248.231 199.12 250.934C196.855 252.979 193.659 253.737 190.695 253.975C187.249 254.252 183.75 253.956 180.333 253.494C175.541 252.846 170.726 251.989 166.028 250.84C156.928 248.615 148.206 245.074 140.159 240.274C136.235 237.933 132.49 235.3 128.512 233.048C124.459 230.753 120.145 228.973 115.616 227.868C110.548 226.631 105.249 226.103 100.04 226.408C99.1356 226.461 97.8295 226.789 96.9503 226.445ZM91.0768 224.148C91.6094 225.877 92.0169 227.851 93.1538 229.304C94.2798 230.743 95.9786 231.252 97.7385 231.38C99.8605 231.534 102.007 231.435 104.134 231.514C108.496 231.676 112.797 232.385 116.967 233.685C120.853 234.897 124.46 236.786 127.934 238.883C131.147 240.822 134.266 242.904 137.48 244.837C136.624 245.229 135.779 245.653 134.928 246.023C133.145 246.797 131.35 247.545 129.548 248.274C125.993 249.711 122.424 251.113 118.818 252.416C111.546 255.043 104.155 257.338 96.6752 259.293C93.1077 260.226 89.4895 261.315 85.7833 261.47C82.4968 261.607 79.4526 260.678 76.8021 258.723C71.3045 254.669 66.9306 248.816 63.3948 243.044C61.2942 239.614 59.461 236.011 57.9448 232.285C57.1779 230.4 56.4824 228.487 55.8564 226.552C55.5627 225.643 55.2843 224.729 55.0206 223.811C54.9046 223.407 54.7935 223.002 54.6834 222.597C60.305 220.881 65.9934 219.332 71.8153 218.472C74.9237 218.012 78.0735 217.78 81.2159 217.814C82.7757 217.83 84.3346 217.915 85.8862 218.076C86.7213 218.162 87.5531 218.274 88.3812 218.412C88.7235 218.469 89.0753 218.553 89.4281 218.615C89.967 220.463 90.5104 222.308 91.0768 224.148ZM207.283 216.802C207.586 216.189 207.713 215.586 207.822 214.919C207.905 214.409 208.125 213.693 207.932 213.032C207.717 212.291 207.13 211.629 206.708 210.998C206.243 210.3 205.778 209.601 205.313 208.903C204.384 207.506 203.457 206.107 202.532 204.707C198.753 198.992 195 193.261 191.241 187.533C187.905 182.45 184.625 177.321 181.188 172.306C178.248 168.017 175.045 163.8 171.021 160.465C165.934 156.248 159.877 154.262 153.549 152.711C152.858 151.994 151.935 151.602 150.949 151.682C149.555 150.1 148.447 148.995 147.945 146.984C147.704 146.021 147.779 143.314 146.842 142.744C145.728 142.067 145.146 142.963 144.839 143.973C143.811 147.353 144.99 151.896 147.705 155.282C146.561 159.236 145.045 164.856 142.34 168.024C139.443 171.417 135.437 172.473 131.114 172.542C122.871 172.675 114.636 169.61 108.349 164.299C106.437 162.684 104.663 160.881 103.057 158.964C101.852 157.525 100.428 155.305 99.4853 153.627C99.4853 152.973 98.7135 152.289 106.571 151.76C114.429 151.232 115.025 140.469 115.2 139.004C115.342 137.814 115.945 135.968 115.107 134.998C114.752 134.586 114.022 134.52 113.571 134.8C112.721 135.328 112.442 136.678 112.175 137.595C111.8 138.88 110.576 146.854 108.257 147.777C107.172 148.209 105.926 148.217 104.778 148.297C103.36 148.396 101.939 148.469 100.526 148.634C100.005 148.695 99.4367 148.863 98.9227 148.868C98.5883 148.871 98.2433 148.709 97.92 148.595C96.829 148.209 95.7389 148.498 94.615 148.649C84.6778 149.985 74.4459 153.034 65.9698 158.521C58.499 163.357 53.2357 170.311 49.7626 178.442C46.2191 186.74 44.1879 195.713 42.4857 204.547C41.9155 207.507 41.4176 210.48 40.9898 213.464C40.5763 216.347 40.0591 219.294 39.9353 222.207C39.8863 223.359 40.1616 224.429 40.5852 225.482C41.0622 226.667 42.1898 227.134 43.2712 227.687C45.6453 228.902 48.1496 229.844 50.7298 230.511C52.3061 233.38 53.6326 236.36 54.6987 239.454C54.3032 240.238 54.295 241.408 54.2189 242.17C54.0302 244.068 53.9495 245.975 53.9326 247.881C53.8986 251.701 54.1283 255.517 54.3083 259.332C54.4908 263.2 55.0976 278.464 55.1964 280.328C55.2733 281.775 55.1698 283.801 55.9323 285.086C57.104 287.062 59.9958 286.996 61.3352 285.394C94.615 292.551 157.171 290.395 182.366 286.794C185.644 286.325 184.615 286.845 185.448 286.017C186.074 285.394 186.606 284.329 186.779 283.473C187.011 282.33 186.637 281.295 185.983 280.371C185.296 279.398 185.17 277.824 184.915 276.668C184.311 273.935 184.011 261.932 183.728 260.602C183.641 260.188 183.555 259.75 183.453 259.311C188.074 259.749 192.89 259.749 197.286 258.203C199.78 257.326 202.105 255.949 203.895 253.982C206.062 251.601 207.267 248.603 207.888 245.474C208.688 241.439 208.857 237.26 208.7 233.158C208.482 228.31 207.678 223.395 205.683 218.944C206.34 218.334 206.89 217.598 207.283 216.802Z" clip-rule="evenodd"/><path fill="#fff" fill-rule="evenodd" d="M162.509 74.7501C155.542 64.8789 138.036 63.767 126.972 63.8295C105.123 63.6475 100.548 88.7718 99.4068 106.377C97.0763 106.774 94.8099 107.587 93.2721 109.419C91.3995 111.65 90.7527 115.479 92.5083 117.974C93.6744 119.631 95.5156 120.185 97.4415 120.277C103.82 119.668 105.128 125.356 108.269 129.621C116.33 140.515 130.295 144.049 143.103 144.103C147.454 144.219 152.694 144.545 155.48 140.45C164.28 125.192 164.472 104.955 165.014 87.663C165.089 83.2361 165.07 78.5497 162.509 74.7501V74.7501Z" clip-rule="evenodd"/><path fill="#000" fill-rule="evenodd" d="M177.543 83.3129C177.632 83.48 177.697 83.6652 177.733 83.8666C177.848 84.5059 177.612 84.9948 177.303 85.4695C177.344 85.8004 177.366 86.1213 177.384 86.4034C177.482 87.9877 177.119 90.1593 175.723 90.8061C175.701 90.8323 175.679 90.8583 175.656 90.8843C175.548 91.0597 175.384 91.2114 175.168 91.3222C175.114 91.3596 175.06 91.3951 175.005 91.4255C174.991 91.4378 174.976 91.4488 174.96 91.4598C174.949 91.4678 174.938 91.4759 174.927 91.4845C174.956 91.4538 174.984 91.4219 175.013 91.3909C174.241 91.699 173.495 91.7626 172.698 91.669C172.206 91.847 171.713 91.9799 171.296 92.0828C169.997 92.4039 168.321 92.6609 167.055 92.1135C166.686 91.9541 166.379 91.743 166.149 91.4913C166.168 92.4719 166.197 93.4524 166.24 94.433C166.326 96.9122 166.322 99.3892 166.303 101.87C166.282 104.662 166.204 107.456 166.054 110.246C165.984 111.648 165.872 113.047 165.722 114.442C165.595 115.801 165.447 117.157 165.276 118.51C164.873 121.291 164.207 124.094 163.396 126.782C163.043 127.949 162.656 129.13 162.217 130.284C162.031 130.815 161.835 131.339 161.621 131.859C160.495 134.583 159.092 137.212 157.197 139.482C156.162 140.721 155.019 141.835 153.743 142.771C152.718 143.57 151.609 144.246 150.39 144.779C147.771 145.924 144.847 146.182 142.014 146.14C140.933 146.125 139.787 145.934 138.716 145.756L138.65 145.745C137.813 145.607 136.966 145.423 136.128 145.208C135.384 145.035 134.649 144.834 133.924 144.599C133.052 144.369 132.215 144.037 131.418 143.608L130.007 143.077C129.418 142.855 128.845 142.591 128.29 142.289L126.756 141.573C126.12 141.266 125.501 140.93 124.897 140.56C124.833 140.526 124.761 140.469 124.734 140.406C124.669 140.37 124.603 140.334 124.537 140.299C124.446 140.249 124.354 140.2 124.263 140.148C124.237 140.135 124.256 140.061 124.29 139.99C124.263 139.933 124.267 139.869 124.343 139.812C124.4 139.768 124.491 139.78 124.586 139.81C124.578 139.804 124.571 139.797 124.565 139.791C124.459 139.734 124.356 139.679 124.252 139.622C124.147 139.565 124.13 139.417 124.229 139.339C124.256 139.318 124.288 139.307 124.32 139.305C124.318 139.305 124.317 139.304 124.315 139.303C124.315 139.303 124.314 139.303 124.314 139.303C124.294 139.29 124.309 139.231 124.337 139.165C124.284 139.098 124.267 139.015 124.36 138.943C124.487 138.843 124.773 139.007 124.906 139.084C124.917 139.09 124.926 139.095 124.935 139.1C125.018 139.146 125.101 139.19 125.185 139.235C125.235 139.262 125.286 139.288 125.336 139.315C125.344 139.296 125.361 139.279 125.389 139.263C125.193 139.159 124.998 139.053 124.804 138.948L124.804 138.948C124.683 138.884 124.527 138.751 124.685 138.626C124.812 138.525 125.14 138.698 125.296 138.787C125.315 138.772 125.336 138.766 125.361 138.762C125.334 138.746 125.306 138.731 125.278 138.716C125.237 138.694 125.195 138.672 125.154 138.648C124.964 138.542 125.093 138.212 125.29 138.322C125.313 138.337 125.336 138.35 125.359 138.364C125.494 138.352 125.68 138.457 125.776 138.511L125.79 138.519C126.452 138.935 127.14 139.298 127.854 139.611C128.336 139.84 128.82 140.066 129.306 140.285C129.783 140.522 130.275 140.727 130.78 140.901C132.05 141.395 133.333 141.856 134.628 142.283C136.442 142.779 138.321 143.179 140.205 143.335C140.45 143.354 140.695 143.371 140.94 143.38C141.208 143.378 141.475 143.376 141.743 143.374C142.011 143.373 142.28 143.371 142.548 143.369C143.496 143.271 144.445 143.175 145.391 143.078L145.671 143.05C146.034 142.999 146.389 142.936 146.74 142.862C146.923 142.817 147.107 142.771 147.289 142.718C147.331 142.713 147.373 142.705 147.416 142.697C147.437 142.694 147.458 142.69 147.479 142.686C147.925 142.568 148.362 142.426 148.799 142.262C149.074 142.15 149.347 142.031 149.617 141.907C150.511 141.49 151.39 140.941 152.218 140.311C152.736 139.794 153.255 139.278 153.774 138.762C154.292 138.245 154.811 137.729 155.33 137.212L156.278 135.919C157.504 134.167 158.473 132.214 159.278 130.221L160.559 126.531C160.692 126.087 160.818 125.643 160.939 125.197C161.182 124.2 161.425 123.202 161.668 122.207C161.748 121.841 161.826 121.477 161.902 121.114C162.369 118.85 162.627 116.553 162.849 114.256C163.254 110.075 163.364 105.882 163.394 101.684C163.413 99.1757 163.392 96.667 163.341 94.1604C163.311 92.7063 163.29 91.2522 163.269 89.7981C163.242 88.2553 163.212 86.7103 163.172 85.1674C163.17 85.1336 163.183 85.104 163.199 85.0787C163.195 84.8969 163.193 84.7152 163.191 84.5313C163.189 84.4108 163.235 84.358 163.303 84.3474C163.29 83.2463 163.282 82.1473 163.28 81.0482C163.28 80.9764 163.313 80.9299 163.358 80.9024V80.6234C163.174 79.8583 162.925 79.108 162.602 78.3937C162.492 78.1358 162.369 77.8843 162.234 77.6392C162.067 77.2714 161.849 76.9375 161.583 76.631C161.361 76.2569 161.089 75.9251 160.772 75.6292C160.708 75.5827 160.643 75.5362 160.578 75.4897C160.513 75.4432 160.448 75.3967 160.383 75.3502C160.275 75.2932 160.117 75.1938 159.978 75.0797C159.852 75.0026 159.727 74.925 159.602 74.8474C159.477 74.7697 159.351 74.6919 159.225 74.6147C159.08 74.5386 159.175 74.3484 159.278 74.2977V74.2914C159.255 74.2808 159.23 74.2681 159.202 74.2449C158.898 73.9574 158.581 73.6869 158.252 73.4333C158.192 73.4565 158.123 73.4481 158.07 73.4037C157.875 73.2219 157.677 73.0465 157.474 72.8774C157.02 72.5794 156.544 72.3068 156.048 72.0658C155.252 71.6896 154.436 71.3663 153.599 71.0915C153.437 71.038 153.273 70.9896 153.11 70.9414L153.057 70.9256C152.958 70.9209 152.859 70.916 152.761 70.911C152.602 70.9031 152.444 70.8951 152.285 70.8882C142.712 70.468 133.114 70.6445 123.562 71.4153C121.209 71.6053 118.859 71.8317 116.513 72.094C116.071 72.1435 115.61 72.182 115.139 72.2213C113.415 72.3653 111.567 72.5196 110.076 73.2629C109.996 73.3031 109.919 73.3456 109.845 73.3893C109.973 74.2138 110.282 75.0214 110.582 75.8059C110.628 75.9251 110.673 76.0439 110.718 76.162C111.238 77.5434 111.704 78.9514 111.658 80.4474C111.625 81.4906 111.401 82.4937 111.078 83.4739C110.913 84.8716 110.478 86.2215 110.015 87.5477C107.741 94.0729 106.502 100.754 106.63 107.68C106.633 107.866 106.59 108.028 106.517 108.166L106.521 108.193C106.561 108.487 106.601 108.781 106.649 109.073C106.839 110.241 105.3 110.821 104.769 110.048C104.733 110.083 104.684 110.107 104.638 110.111C104.503 110.124 104.281 109.902 104.218 109.8C104.135 109.648 104.049 109.5 103.956 109.359C103.943 109.352 103.933 109.348 103.922 109.344C103.95 109.402 103.978 109.46 104.006 109.518C104.036 109.578 104.065 109.638 104.093 109.697C104.186 109.883 103.829 109.974 103.723 109.802C103.628 109.652 103.533 109.509 103.438 109.371C103.383 109.411 103.322 109.422 103.282 109.356C102.942 108.794 102.549 108.312 102.118 107.902C101.44 107.349 100.698 107.013 99.8551 106.816C99.1917 106.721 98.5114 106.717 97.8544 106.793C97.1001 106.882 96.3058 107.07 95.6234 107.414C95.0677 107.797 94.51 108.179 93.9522 108.562C93.8149 108.706 93.6839 108.856 93.5614 109.012C93.1748 109.513 92.8642 110.048 92.6086 110.616C92.598 110.652 92.5875 110.688 92.5769 110.722C92.4206 111.199 92.3191 111.69 92.2748 112.193C92.2716 112.511 92.269 112.828 92.2663 113.146C92.2637 113.464 92.261 113.781 92.2579 114.099C92.3424 114.926 92.5536 115.729 92.8769 116.492C93.029 116.942 93.2677 117.343 93.591 117.698C93.7642 117.999 93.9607 118.271 94.1804 118.525C94.6262 118.821 95.1121 119.072 95.6297 119.271L95.63 119.271C95.7567 119.305 95.8833 119.339 96.0121 119.364C96.6776 119.62 97.3663 119.757 98.0783 119.776C98.9783 119.837 99.8593 119.759 100.721 119.541C101.254 119.446 101.769 119.292 102.268 119.079C102.745 118.838 103.195 118.548 103.616 118.21C103.662 118.18 103.732 118.197 103.808 118.235C103.901 118.168 103.994 118.102 104.085 118.028C104.127 117.999 104.165 118.035 104.184 118.073L104.209 118.054C104.376 117.939 104.835 118.297 104.628 118.508C104.716 118.563 104.805 118.628 104.885 118.696C105.253 118.711 105.994 119.387 105.855 119.493C105.648 119.673 105.43 119.837 105.209 119.994C105.405 120.14 105.663 120.366 105.542 120.457C105.327 120.662 105.092 120.839 104.843 120.991C104.674 121.12 104.501 121.243 104.319 121.355C104.123 121.471 103.922 121.57 103.715 121.663C104.076 122.363 104.421 123.069 104.742 123.787C104.955 124.297 105.202 124.789 105.487 125.263C105.851 125.983 106.286 126.66 106.795 127.29C107.209 127.987 107.695 128.627 108.251 129.213C108.937 129.995 109.675 130.73 110.459 131.411C110.771 131.633 111.09 131.848 111.422 132.047C112.269 132.685 113.171 133.233 114.128 133.689C114.24 133.751 114.329 133.886 114.198 133.991C114.194 133.994 114.19 133.994 114.185 133.998C114.498 134.175 114.813 134.351 115.13 134.524L115.14 134.53C115.268 134.599 115.505 134.727 115.32 134.877C115.197 134.978 114.819 134.797 114.593 134.678C114.608 134.686 114.623 134.695 114.639 134.703C114.657 134.713 114.674 134.723 114.692 134.733C114.696 134.735 114.699 134.737 114.704 134.74C114.798 134.79 115.152 134.98 114.916 135.103C114.792 135.124 114.673 135.103 114.559 135.042C114.441 134.997 114.323 134.949 114.206 134.898C114.211 134.936 114.19 134.972 114.128 135.002C114.08 135.01 114.033 135.01 113.987 135.006C114.244 135.152 114.502 135.296 114.762 135.437C114.838 135.477 115.197 135.676 114.961 135.799C114.844 135.822 114.733 135.803 114.625 135.744C114.428 135.67 114.234 135.583 114.046 135.488C114.002 135.462 113.957 135.439 113.913 135.414C113.879 135.414 113.845 135.41 113.811 135.403C114.018 135.515 114.228 135.623 114.439 135.729C114.564 135.796 114.773 135.934 114.593 136.073C114.468 136.168 114.133 135.997 113.934 135.885C113.921 135.9 113.906 135.917 113.885 135.934C113.756 136.032 113.448 135.854 113.293 135.765C113.271 135.752 113.252 135.741 113.237 135.733C112.189 135.171 111.177 134.59 110.203 133.924C109.607 133.541 109.026 133.14 108.458 132.702C107.37 131.861 106.381 130.883 105.475 129.851C104.856 129.145 104.52 128.748 103.92 127.892C102.956 126.514 102.23 125.077 101.53 123.553C101.52 123.53 101.541 123.47 101.573 123.411C101.429 123.058 101.29 122.701 101.15 122.331C100.787 122.38 100.421 122.414 100.06 122.435C99.2086 122.483 98.3825 122.407 97.5818 122.232C96.6121 122.107 95.6529 121.832 94.8036 121.401C94.2945 121.146 93.8044 120.873 93.3396 120.569C92.9234 120.347 92.522 120.093 92.1375 119.797C90.5001 118.546 89.6107 116.604 89.3931 114.587C89.2262 113.7 89.1903 112.787 89.2896 111.905C89.3614 111.265 89.5051 110.631 89.7142 110.02C90.1008 108.665 90.8213 107.412 91.8649 106.463C92.0403 106.283 92.2241 106.112 92.4206 105.952C93.0015 105.476 93.6607 105.094 94.3621 104.815C94.4973 104.749 94.6346 104.688 94.772 104.631L94.6051 104.246C94.5459 104.263 94.341 104.229 94.3156 104.157C94.2741 104.044 94.2342 103.93 94.1945 103.816C94.1694 103.744 94.1444 103.672 94.1191 103.601C94.0811 103.625 94.0325 103.637 93.9797 103.639V103.853C93.9818 103.914 93.8656 104.295 93.8022 104.096C93.7622 103.985 93.7246 103.872 93.6869 103.759C93.6629 103.688 93.6389 103.616 93.6142 103.544C93.5614 103.511 93.5213 103.47 93.5065 103.424L93.5064 103.424C93.5001 103.405 93.4938 103.386 93.4853 103.367C93.4821 103.365 93.4777 103.365 93.4739 103.364C93.4727 103.363 93.4716 103.363 93.4706 103.363V103.428C93.4727 103.468 93.367 103.773 93.348 103.713C92.9825 102.707 92.6846 101.68 92.4522 100.636C92.2938 100.061 92.1691 99.4801 92.0741 98.8904C91.9706 98.3599 91.8797 97.8273 91.8015 97.2905L91.7825 97.1573C91.7815 97.1521 91.7804 97.1473 91.7794 97.1426C91.7783 97.1378 91.7772 97.1331 91.7762 97.1278C91.7698 97.0707 91.7635 97.0115 91.7551 96.9545C91.6706 96.3479 91.6008 95.7392 91.548 95.1263C91.436 93.8666 91.3917 92.6006 91.4044 91.3368C91.3872 91.3434 91.3709 91.3516 91.3543 91.36C91.3444 91.365 91.3344 91.37 91.3241 91.3748C90.7752 91.6086 90.1953 91.7996 89.6052 91.9518C88.5901 93.4194 86.9694 94.4125 85.0272 94.517C84.3696 94.5525 83.68 94.4724 83.0415 94.2866C82.9752 94.3018 82.9067 94.3141 82.8358 94.3234C82.5022 94.367 82.2338 94.2955 81.9559 94.2216C81.8003 94.1802 81.6416 94.138 81.467 94.1147C81.4039 94.1064 81.3416 94.0984 81.2801 94.0905C80.5821 94.0008 79.9868 93.9242 79.5235 93.5084C79.3678 93.512 79.2191 93.4894 79.0777 93.4471C77.741 93.7677 76.3207 93.061 75.8506 91.5798C75.0489 91.1098 74.41 90.4125 73.9805 89.6035C73.1532 88.5425 72.4917 87.2416 72.0814 85.8748C72.0789 85.8697 72.0762 85.8646 72.0736 85.8595C72.0696 85.8518 72.0656 85.8442 72.062 85.8362C71.8539 85.3847 71.7548 84.9005 71.7463 84.4148C71.5249 83.0313 71.5832 81.6461 72.0043 80.4286C71.9865 79.7685 72.1416 79.0806 72.4256 78.4564C72.7697 77.6996 73.2945 76.8295 73.9754 76.3248C73.9771 75.5491 74.3103 74.6953 74.747 74.1166C75.6184 72.9607 76.8822 72.3497 78.25 72.2613C78.9455 70.4778 81.0529 70.0612 82.8706 70.6549C83.6257 69.883 84.7317 69.5144 85.8356 69.6457C86.7689 69.7566 87.5667 70.2032 88.2271 70.8187C88.4012 70.8683 88.5746 70.9201 88.7479 70.974C89.3261 70.7202 90.0007 70.6627 90.6178 70.8218C91.6875 71.0976 92.3853 71.9084 92.868 72.8383C93.022 72.9444 93.1725 73.0539 93.3193 73.1683C93.4805 73.2405 93.6269 73.3371 93.7598 73.4508C93.9529 73.5537 94.1168 73.723 94.2167 73.9686C94.4893 74.2497 94.7428 74.5471 94.9672 74.866C95.1351 74.4774 95.3084 74.0914 95.4873 73.7082C95.7787 73.796 96.1308 73.6825 96.2775 73.2932L96.3148 73.1941C97.2518 70.7063 98.9202 66.2771 100.494 64.2214C98.6327 65.4888 96.3607 66.1569 94.1039 66.0897C94.0074 66.0867 93.91 66.0827 93.8117 66.0774C92.5986 66.2867 91.3663 66.3061 90.235 66.0791C89.4732 65.8025 88.7308 65.4728 88.0114 65.0997C87.8365 65.0089 87.663 64.9133 87.4902 64.817C87.4361 64.7713 87.3848 64.7218 87.3335 64.6724C87.3133 64.6529 87.2932 64.6335 87.2728 64.6143C87.1241 64.625 86.9684 64.6134 86.8027 64.5695C86.1801 64.4048 85.604 63.9904 85.2427 63.4578C85.1756 63.3586 85.1215 63.2566 85.0733 63.1536C84.6814 62.7702 84.3419 62.3359 84.0924 61.828C83.7987 61.2341 83.6191 60.5663 83.6001 59.8984C83.4776 59.2432 83.486 58.569 83.7142 57.9434C83.7302 57.9008 83.7478 57.859 83.7656 57.8171C83.776 57.7924 83.7864 57.7677 83.7966 57.7426C83.8018 57.7253 83.8063 57.7077 83.8108 57.69C83.8173 57.6644 83.8238 57.6387 83.8325 57.6137C83.8993 57.3907 83.9842 57.1921 84.0873 57.004C84.1256 56.8106 84.1881 56.6189 84.2764 56.4323C84.2863 56.342 84.2986 56.2518 84.3132 56.1619C83.6418 54.8949 83.8796 53.2379 84.8846 52.208C84.7456 51.5423 84.8872 50.8363 85.2922 50.2456C85.5896 49.8115 86.0031 49.4689 86.4715 49.2311C86.5203 49.2064 86.6496 49.1639 86.8042 49.1151C86.9775 48.9619 87.1602 48.8169 87.3603 48.6892C87.4078 47.4507 88.6437 46.7363 89.7136 46.1178C89.7653 46.0879 89.8166 46.0582 89.8674 46.0288C90.2159 45.8264 90.4688 45.5356 90.7217 45.2446C90.9873 44.9391 91.2531 44.6334 91.63 44.4297C92.2893 44.0736 93.0995 43.9917 93.8599 43.9149C94.0279 43.8979 94.1935 43.8812 94.3545 43.8618C96.4517 43.609 98.6851 43.4137 100.793 43.6422C101.963 43.769 102.932 44.3344 103.333 45.2605C104.34 45.3795 105.237 46.1061 105.947 46.8534C106.833 47.7861 107.587 48.7791 107.847 50.0047C108.021 50.0983 108.178 50.2129 108.32 50.3422C108.315 51.2041 108.202 52.0675 107.965 52.8809C108.034 53.3673 107.888 53.8316 107.64 54.2526C107.678 54.6512 107.651 55.0437 107.568 55.4349C108.049 56.2898 107.599 57.5818 106.924 58.4295L106.919 58.9076C106.959 58.8867 106.998 58.8619 107.035 58.8309C108.975 57.1786 110.951 56.7232 113.084 56.2312C114.316 55.9472 115.601 55.6509 116.963 55.105C120.317 54.4572 123.741 54.0449 127.177 53.9077C127.132 53.9009 127.086 53.8961 127.041 53.8887C125.31 53.605 123.647 52.8926 122.216 51.869C121.838 51.773 121.479 51.6021 121.157 51.3161C120.845 51.0384 120.629 50.718 120.505 50.3743C120.448 50.3137 120.392 50.2526 120.337 50.1905C119.263 49.9267 118.446 48.9974 118.583 47.7758C117.903 46.9707 117.653 45.9768 117.883 44.9418C117.503 44.2999 117.47 43.4907 117.753 42.8129C117.156 42.0875 117.11 41.0578 117.578 40.2371C117.15 39.6295 117.056 38.8243 117.583 38.1046C117.832 37.7648 118.177 37.5504 118.553 37.4469C118.659 37.0552 118.874 36.6915 119.213 36.4106C119.388 36.2663 119.57 36.1591 119.757 36.0792C119.827 35.6749 120.055 35.2915 120.495 34.9899C120.694 34.8532 120.898 34.7648 121.101 34.7158C121.293 34.2403 121.628 33.8233 122.099 33.5525C122.669 33.226 123.33 33.1827 123.934 33.3539C124.721 32.1631 126.449 31.7015 127.648 32.5848C128.645 31.9672 129.9 32.0974 130.797 32.8483C131.881 32.2073 133.227 32.466 134.078 33.3598C135.44 32.615 137.238 33.1651 137.968 34.5763C139.343 34.4237 140.639 35.3241 141.005 36.6273C141.065 36.6757 141.124 36.7255 141.183 36.7753L141.198 36.7883C142.022 36.8278 142.804 37.1508 143.266 37.9171C143.497 38.2999 143.603 38.7496 143.588 39.1903C144.08 39.4566 144.478 39.8935 144.648 40.4597C144.808 40.9906 144.748 41.5158 144.538 41.9734C145.224 42.7032 145.405 43.8406 144.919 44.7573C145.12 45.1022 145.225 45.5099 145.208 45.9337C145.184 46.5611 144.893 47.0669 144.497 47.4987C144.995 48.3969 144.801 49.5492 143.992 50.179C143.528 51.8267 142.352 52.923 140.55 53.5955C139.645 53.9333 138.699 54.1934 137.734 54.3845C141.595 54.9042 145.393 55.8177 149.042 57.1796C149.24 57.2538 149.409 57.2248 149.537 57.1384C149.572 57.157 149.608 57.1749 149.643 57.1928C149.688 57.2157 149.733 57.2386 149.778 57.2629C150.783 57.8145 151.768 58.4126 152.727 59.053C152.727 58.9473 152.729 58.8417 152.733 58.7339C152.715 57.8642 152.806 57.0076 153.037 56.1818C152.735 55.7699 152.509 55.3003 152.386 54.8163C152.079 53.6086 152.663 51.8901 153.712 51.4776C154.079 50.4576 154.915 49.7196 155.94 49.4292C156.021 49.3558 156.108 49.2846 156.204 49.2185C156.42 49.0701 156.656 48.9689 156.899 48.9101C157.025 48.3574 157.333 47.8487 157.844 47.4917C158.566 46.9877 159.419 46.9329 160.169 47.2079C160.311 47.1599 160.456 47.1183 160.602 47.0821C161.809 46.0545 163.69 46.1302 164.751 47.3326C165.48 46.9993 166.339 46.9845 167.085 47.433C167.683 47.7918 168.054 48.3705 168.199 49.0056C169.33 49.0403 170.364 49.7906 170.69 50.9103C171.731 51.0282 172.583 51.8436 172.764 52.87C173.429 52.9625 174.042 53.2749 174.416 53.8961C174.588 54.1833 174.682 54.4976 174.706 54.8123C175.042 54.9735 175.343 55.2176 175.571 55.5366C175.969 56.0954 176.046 56.7478 175.9 57.3618C175.914 57.3896 175.928 57.4172 175.942 57.4447C175.963 57.4845 175.983 57.5244 176.002 57.5651C176.111 57.7959 176.198 58.0434 176.275 58.2947C176.625 58.8 176.787 59.4178 176.755 60.0383C176.83 60.3008 176.902 60.564 176.961 60.8284C177.198 61.8661 177.287 62.9714 177.124 64.0282C177.044 64.5397 176.928 65.0427 176.763 65.5309C176.746 65.6239 176.718 65.7105 176.687 65.793C176.596 66.1776 176.48 66.5559 176.332 66.9258C175.977 67.3971 175.605 67.8557 175.214 68.2996C174.885 68.7941 174.509 69.2507 174.084 69.6691C173.778 69.9714 173.442 70.2525 173.085 70.5061C172.376 71.0744 171.583 71.5176 170.737 71.8059C170.586 71.7742 170.434 71.7495 170.282 71.7251C169.321 72.2544 167.809 72.3142 166.884 72.3106C165.866 72.3068 164.933 72.0494 164.157 71.563C164.247 71.7421 164.337 71.9213 164.426 72.1009C164.404 72.1138 164.38 72.1254 164.361 72.1405C164.193 71.8625 164.006 71.6157 163.785 71.4381C163.484 71.1953 162.999 71.1735 162.79 71.5664C162.786 71.5732 162.782 71.5802 162.779 71.5871C162.667 71.7966 162.683 71.9976 162.768 72.1616C162.799 72.2062 162.83 72.2512 162.861 72.296C162.872 72.3087 162.882 72.3222 162.894 72.334L162.889 72.3347C163.177 72.567 163.461 73.1359 163.73 73.689C163.912 74.0122 164.086 74.34 164.248 74.6735C164.343 74.8134 164.511 74.9362 164.691 74.9719C164.655 75.2382 164.778 75.5136 164.979 75.6501C165.032 75.5436 165.096 75.4346 165.179 75.3221C166.087 74.0883 167.871 73.5559 169.214 74.1197C169.482 74.0745 169.751 74.0371 170.023 74.0158C170.91 73.9572 171.809 74.027 172.685 74.2106C172.957 74.3738 173.216 74.5575 173.459 74.7669C173.663 74.9444 173.854 75.1304 174.031 75.3228C174.168 75.4257 174.303 75.5347 174.436 75.6484C174.973 75.9374 175.367 76.4915 175.699 77.0431C175.961 77.4149 176.191 77.8099 176.39 78.2284C177.311 79.8051 178.374 81.7626 177.543 83.3129ZM103.668 113.782C104.006 114.173 104.27 114.609 104.46 115.088C104.536 115.243 104.443 115.336 104.287 115.308C104.217 115.298 104.122 115.247 104.025 115.179C104.033 115.197 104.04 115.214 104.048 115.231C104.056 115.248 104.064 115.265 104.072 115.283C104.154 115.446 104.084 115.562 103.896 115.5C103.886 115.494 103.875 115.488 103.867 115.481C103.964 115.655 104.053 115.832 104.129 116.018C104.211 116.183 104.137 116.297 103.951 116.234C103.854 116.179 103.761 116.115 103.672 116.046C103.683 116.07 103.694 116.094 103.705 116.118C103.735 116.182 103.764 116.246 103.791 116.312C103.875 116.479 103.778 116.566 103.613 116.528C103.472 116.449 103.341 116.356 103.218 116.249C103.206 116.239 103.194 116.228 103.183 116.218C103.177 116.213 103.171 116.207 103.165 116.202C103.22 116.34 103.117 116.424 102.979 116.397C102.785 116.359 102.419 116.031 102.331 115.858C102.324 115.847 102.32 115.837 102.314 115.826C102.21 115.756 102.098 115.659 102.014 115.566C101.946 115.663 101.815 115.735 101.756 115.617C101.579 115.133 101.302 114.718 100.924 114.37C100.708 114.055 100.446 113.786 100.14 113.564C99.9751 113.425 99.804 113.292 99.6286 113.165C99.3181 113.023 98.9948 112.916 98.6568 112.844C98.6185 112.832 98.5795 112.823 98.5406 112.813C98.5108 112.806 98.4812 112.799 98.4519 112.791L98.427 112.786C98.2855 112.76 98.1457 112.735 98.004 112.715C97.3934 112.63 96.7808 112.616 96.1681 112.67C96.0582 112.675 95.9526 112.59 95.9061 112.493C95.7688 112.499 95.6336 112.506 95.4963 112.518C95.2702 112.527 95.3188 112.208 95.4899 112.176C95.7054 112.136 95.9209 112.106 96.1322 112.081C96.1279 112.062 96.1258 112.041 96.1301 112.024C95.7434 112.005 95.3589 112.013 94.9702 112.053C94.8012 112.062 95.0019 111.749 95.0948 111.732C95.1168 111.728 95.1387 111.724 95.161 111.721C95.1815 111.718 95.2024 111.715 95.2237 111.711C95.2195 111.705 95.2174 111.7 95.2153 111.694H95.2047C94.9723 111.705 94.8139 111.335 95.0927 111.284C95.1262 111.278 95.1592 111.273 95.1919 111.268C95.2273 111.262 95.2625 111.257 95.2977 111.25C95.285 111.214 95.2829 111.183 95.2955 111.153C95.1751 111.151 95.0568 111.151 94.9364 111.151C94.9679 111.149 94.9956 111.082 95.0245 111.012C95.0556 110.937 95.0881 110.858 95.1286 110.853L95.3146 110.828C95.3188 110.749 95.4371 110.568 95.4878 110.557C95.8892 110.489 96.2822 110.443 96.6709 110.428C96.7089 110.339 96.7639 110.221 96.8167 110.221C97.2582 110.215 97.6829 110.219 98.1054 110.263C98.1223 110.251 98.1392 110.244 98.154 110.246C98.1785 110.252 98.2021 110.258 98.2255 110.263C98.2687 110.274 98.3108 110.284 98.3547 110.295C98.5892 110.329 98.8237 110.377 99.0624 110.447C99.6265 110.614 100.191 110.878 100.679 111.206C101.139 111.514 101.598 111.836 101.999 112.22C102.141 112.341 102.274 112.472 102.4 112.607C102.605 112.776 102.804 112.949 102.994 113.121C103.227 113.334 103.453 113.554 103.668 113.782Z" clip-rule="evenodd"/><path fill="#000" fill-rule="evenodd" d="M148.318 128.112C146.762 128.563 145.092 128.603 143.505 128.138C142.066 127.715 140.589 126.786 139.53 125.555C138.589 124.463 137.98 123.135 138.004 121.717C138.006 121.555 138.064 121.42 138.153 121.315C138.249 121.202 138.383 121.125 138.526 121.091C138.674 121.056 138.83 121.069 138.962 121.129C139.083 121.184 139.186 121.276 139.25 121.412C139.413 121.626 139.575 121.837 139.738 122.041C141.046 123.658 142.313 124.866 144.281 125.299C145.349 125.534 146.415 125.43 147.393 125.071C148.441 124.687 149.387 124.012 150.129 123.148C150.465 122.758 150.86 122.598 151.247 122.595C151.686 122.592 152.12 122.796 152.446 123.122C152.767 123.443 152.982 123.878 153.002 124.333C153.019 124.733 152.888 125.15 152.542 125.523C151.4 126.749 149.92 127.648 148.318 128.112ZM148.271 107.866C149.866 108.837 152.297 111.099 150.581 113.504C148.561 115.624 145.652 113.193 144.219 112.093C142.89 111.241 141.396 113.433 142.629 114.428C152.987 122.099 157.19 108.12 149.078 106.726C148.185 106.572 147.853 107.566 148.271 107.866ZM133.347 103.598C132.834 103.27 132.231 103.157 131.563 103.461C131.04 103.699 130.124 104.491 129.486 105.533C129.05 106.245 128.741 107.081 128.805 107.952C128.82 108.154 128.746 108.303 128.628 108.413C128.535 108.5 128.4 108.564 128.242 108.584C128.108 108.601 127.958 108.586 127.837 108.548C127.605 108.475 127.482 108.325 127.435 108.202C126.989 107.016 127.181 105.692 127.682 104.498C128.357 102.887 129.583 101.537 130.387 101.101C131.762 100.356 133.383 100.322 134.76 101.081C135.932 101.727 136.665 102.77 137.394 103.833C137.549 104.059 137.703 104.283 137.862 104.504C138.18 104.945 138.212 105.383 138.089 105.759C137.952 106.175 137.603 106.526 137.168 106.71C136.765 106.88 136.298 106.904 135.884 106.729C135.535 106.582 135.214 106.294 135.011 105.807C134.669 104.986 134.1 104.08 133.347 103.598V103.598ZM159.389 105.425C159.037 105.608 158.763 105.663 158.373 105.546C158.158 105.482 157.945 105.358 157.778 105.191C157.613 105.025 157.494 104.82 157.447 104.592C157.333 104.029 157.026 103.503 156.587 103.159C156.212 102.866 155.739 102.71 155.214 102.798C154.648 102.893 154.109 103.256 153.737 103.684C153.613 103.828 153.515 103.99 153.418 104.152C153.234 104.454 153.056 104.735 152.804 104.958C152.708 105.042 152.564 105.101 152.424 105.101C152.368 105.101 152.31 105.091 152.255 105.074C151.691 104.508 151.583 104.079 151.601 103.653C151.62 103.207 151.796 102.754 152.081 102.333C152.748 101.343 154.014 100.532 154.869 100.348C156.04 100.096 157.202 100.398 158.134 101.052C159.093 101.725 159.804 102.77 160.025 103.948C160.078 104.231 160.056 104.537 159.948 104.803C159.842 105.062 159.659 105.284 159.389 105.425ZM135.928 93.0477C135.226 93.7324 134.394 93.8384 133.553 93.9328C133.086 93.9857 132.713 94.0283 132.346 94.1112C131.337 94.3391 130.339 94.6823 129.429 95.1765C128.478 95.6932 127.441 96.3164 126.696 97.1147C126.518 97.3046 126.351 97.504 126.184 97.7037C126.031 97.8859 125.884 98.0613 125.729 98.2304C125.551 98.4246 125.382 98.6281 125.214 98.8312C125.11 99.0025 125.089 99.0446 125.068 99.0885C125.037 99.1544 125 99.2281 124.958 99.3073C124.901 99.4156 124.834 99.5343 124.764 99.6418C124.647 99.8384 124.584 99.8925 124.53 99.9168C124.44 99.9569 124.354 99.9766 124.271 99.9659C124.194 99.9559 124.121 99.9186 124.048 99.8575C123.688 99.5527 123.581 99.0524 123.592 98.5214C123.609 97.7156 123.906 96.8234 124.18 96.2749C124.817 95.0005 125.7 93.6757 126.762 92.7246C127.974 91.6389 129.3 90.817 130.822 90.2506C131.769 89.8985 132.864 89.5753 133.895 89.6162C134.637 89.6456 135.346 89.8662 135.931 90.4173C136.29 90.7557 136.463 91.2369 136.463 91.7177C136.463 92.2082 136.284 92.7015 135.928 93.0477ZM160.817 99.3174C160.773 99.3907 160.711 99.4412 160.642 99.4715C160.57 99.5033 160.49 99.5124 160.412 99.4994C160.335 99.4864 160.262 99.4515 160.204 99.3982C160.149 99.3471 160.106 99.2794 160.087 99.1963C159.621 97.1472 158.715 95.6226 156.783 94.6394C155.832 94.1558 154.738 93.8485 153.703 93.6035C153.403 93.5323 153.085 93.4861 152.765 93.4394C151.762 93.2929 150.751 93.1251 150.097 92.314C149.703 91.8254 149.538 91.2005 149.632 90.6291C149.72 90.091 150.034 89.5977 150.605 89.302C152.028 88.5663 153.795 89.2882 155.231 89.9032C155.338 89.9488 155.443 89.9936 155.545 90.0368C156.95 90.63 158.231 91.4129 159.284 92.5326C160.119 93.4209 160.894 94.734 161.205 96.0849C161.465 97.2088 161.404 98.3561 160.817 99.3174Z" clip-rule="evenodd"/><path fill="#000" fill-rule="evenodd" d="M166.085 109.758C164.662 111.67 162.025 112.279 159.593 112.069C154.347 111.564 152.696 105.603 152.524 100.971C156.042 101.961 152.226 94.9493 164.251 94.1783C168.49 93.8249 167.322 96.3861 169.195 98.2574C169.156 102.185 168.503 106.452 166.085 109.758M141.098 105.246C138.001 119.756 121.04 116.304 119.259 103.225C120.904 102.063 120.471 99.1947 122.514 98.1555C125.754 96.0851 129.803 96.1737 133.481 96.2223C138.183 96.5454 139.523 98.4939 141.938 100.62C141.822 102.039 141.487 103.722 141.098 105.246M172.803 91.7753C172.629 91.7463 172.455 91.719 172.281 91.6935C172.145 91.6163 171.986 91.5569 171.8 91.5212C171.377 91.4136 170.956 91.3411 170.536 91.302C164.508 89.945 150.563 91.8718 149.987 97.0178C148.068 97.6588 146.407 97.0848 144.182 97.1419C142.488 90.0606 113.21 91.06 111.802 95.3293C111.797 95.3278 111.792 95.3266 111.786 95.3249C110.433 94.906 108.439 95.007 106.89 94.9406C103.584 94.8713 100.273 95.1662 97.038 95.8638C90.9799 96.8269 82.712 97.9545 86.9253 105.523C86.9261 105.524 86.9268 105.525 86.9278 105.527L86.9285 105.526C87.6546 106.271 88.8869 105.671 88.9328 104.663C87.5162 101.078 90.7156 100.647 93.1773 99.6168C99.3026 97.4153 105.539 97.1102 111.874 97.7911C112.351 98.3525 113.074 98.842 113.838 99.0981C118.074 99.8015 115.841 102.945 118.519 103.402C118.027 114.359 131.324 120.339 139.029 113.137C142.105 110.128 142.839 105.671 143.552 101.653C143.929 101.569 144.169 101.362 144.309 101.089C145.216 100.183 145.786 99.3469 147.579 99.0981C149.373 98.8496 150.753 99.3486 150.94 99.5014C150.987 99.5963 151.038 99.6914 151.096 99.7865C151.178 99.9283 151.29 100.041 151.417 100.13C149.646 111.041 158.113 117.941 166.66 112.282C170.374 108.787 171.159 103.436 171.314 98.6602C171.818 98.3563 172.137 97.7672 171.962 97.0267C171.722 96.0059 172.285 95.122 173.182 94.6781C174.348 94.1018 174.142 91.997 172.803 91.7753" clip-rule="evenodd"/></svg>