<svg xmlns="http://www.w3.org/2000/svg" width="240" height="324" fill="none" viewBox="0 0 240 324"><path fill="#fff" fill-rule="evenodd" d="M117.565 124.062C120.404 123.276 123.668 123.367 126.581 123.568C129.539 123.773 132.714 124.123 135.49 125.228C137.903 126.189 139.938 127.804 141.177 130.119C142.197 132.022 142.675 134.108 142.975 136.228C143.097 137.095 143.2 137.965 143.297 138.835L143.498 140.646C143.576 141.338 143.645 141.857 143.783 142.63C144.164 144.766 144.694 146.551 145.878 148.106C148.747 151.869 153.43 153.129 157.689 154.735C160.414 155.763 162.572 157.612 163.171 160.583C163.749 163.449 185.713 187.494 187.869 189.522L187.928 189.576C189.601 191.083 189.404 193.915 189.638 195.982C189.889 198.199 190.128 200.418 190.354 202.637C190.814 207.146 191.224 211.659 191.584 216.177C192.991 233.844 193.629 251.573 193.494 269.296L193.485 270.299C193.464 272.548 193.481 274.807 193.38 277.055C193.283 279.214 192.63 281.376 190.63 282.504C188.776 283.549 186.433 283.457 184.362 283.561L184.238 283.567C182.016 283.689 179.793 283.789 177.568 283.871C168.529 284.206 159.482 284.242 150.437 284.2C132.494 284.118 114.533 283.723 96.607 284.728C92.0375 284.984 77.4697 283.428 72.9146 283.871C68.5608 284.295 72.2964 286.431 69.6068 286.291C60.7614 285.828 52.3711 283.853 43.8964 281.475C42.8377 281.178 42.0281 280.15 42.0414 279.039C42.1988 266.836 42.5432 254.636 43.0813 242.444C43.5607 231.584 44.1923 220.73 44.9759 209.888C45.3166 205.175 45.686 200.464 46.0839 195.755L46.2562 193.737C46.481 191.135 46.6103 188.485 47.1218 185.919C47.6278 183.381 48.7756 181.181 50.4399 179.214C51.9334 177.45 68.8422 163.64 72.9146 161.025C76.8125 158.522 80.9056 156.411 84.9072 154.091C86.572 153.126 88.1709 153.473 89.5931 152.289C90.3429 151.664 101.223 147.457 104.158 146.068L104.244 146.027C106.491 144.949 108.558 143.78 110.111 141.915C110.631 141.29 111.652 137.353 111.654 136.094C111.657 133.847 111.487 131.479 112.165 129.302C112.975 126.699 114.929 124.792 117.565 124.062ZM122.379 182.013L104.994 215.882H116.299L108.195 234.7H125.99L119.678 261.058L155.777 215.882H142.231L155.777 198.095H146.381L155.777 183.031L122.379 182.013Z" clip-rule="evenodd"/><path fill="#000" fill-rule="evenodd" d="M180.777 201.057C180.737 201.097 180.695 201.138 180.655 201.18C180.701 201.114 180.741 201.047 180.777 200.979V201.057ZM146.991 191.191C145.43 193.187 143.778 197.247 142.261 199.278C142.043 199.569 141.83 199.861 141.619 200.155C140.989 201.036 141.83 202.384 142.865 202.328C144.934 202.217 147 202.063 149.066 201.907C144.822 206.639 141.298 212.517 137.4 217.53C137.136 217.866 136.876 218.204 136.616 218.542C135.629 219.829 136.618 220.413 137.966 220.066C138.245 219.994 138.524 219.923 138.803 219.853C140.763 219.35 142.722 218.847 144.682 218.346C145.766 218.067 146.856 217.722 147.955 217.509C148.407 217.422 148.84 217.494 149.267 217.517C149.062 217.83 148.774 218.394 148.717 218.481C148.077 219.478 147.433 220.472 146.784 221.461C145.521 223.384 144.251 225.305 142.935 227.193C137.801 234.552 132.264 241.577 126.775 248.668C125.393 250.452 123.993 252.217 122.569 253.965C122.575 253.954 122.579 253.943 122.586 253.933C123.868 251.435 125.15 248.939 126.433 246.44C128.871 241.694 131.286 236.934 133.749 232.2C133.876 231.953 134.005 231.707 134.134 231.46C134.645 230.479 133.806 229.461 132.756 229.668C127.634 230.677 122.561 231.918 117.551 233.387C117.326 233.627 116.994 233.698 116.698 233.64C116.497 233.7 116.295 233.758 116.093 233.819C116.154 233.692 116.218 233.567 116.279 233.441C116.074 233.263 115.973 232.987 116.106 232.643C118.988 225.202 122.941 218.019 127.624 211.44C127.435 211.443 127.247 211.446 127.058 211.452C121.918 211.591 116.875 212.329 111.921 213.73C111.898 213.271 112.174 212.561 112.324 212.223C112.924 210.872 113.613 209.553 114.257 208.224C115.576 205.493 116.894 202.765 118.212 200.034C119.501 197.367 120.779 194.691 121.992 191.986C122.628 190.568 123.264 189.148 123.898 187.728C124.415 186.571 124.823 185.407 125.252 184.223C126.511 184.593 142.679 184.673 146.609 184.946C147.572 185.014 148.538 185.075 149.503 185.128C150.272 185.172 151.356 185.341 151.886 184.646L152.087 184.815C150.342 186.903 148.669 189.048 146.991 191.191V191.191ZM83.8668 152.396C83.9471 152.36 84.0253 152.324 84.1034 152.288C84.1436 152.345 84.1922 152.398 84.2429 152.451C84.3696 152.58 84.4943 152.719 84.6253 152.846C84.3717 152.698 84.1182 152.548 83.8668 152.396V152.396ZM196.861 271.173C196.715 268.093 196.553 265.014 196.379 261.935C196.037 255.915 195.684 249.896 195.213 243.885C194.256 231.705 193.365 219.529 191.93 207.393C191.328 202.306 190.487 197.257 189.644 192.206C189.752 192.109 189.862 192.011 189.97 191.916C189.853 193.298 191.729 194.174 192.659 192.795C192.729 192.692 192.796 192.589 192.864 192.481C193.669 191.179 195.524 184.792 195.395 184.251C195.162 183.276 194.516 182.41 194.011 181.552C193.57 180.801 193.124 180.051 192.672 179.307C191.77 177.817 190.84 176.342 189.866 174.898C187.848 171.91 185.643 169.04 183.044 166.531C180.355 163.932 177.268 161.795 174.08 159.857C172.548 158.927 170.968 158.084 169.358 157.297C167.77 156.524 166.031 155.668 164.32 155.228C164.222 155.203 164.123 155.338 164.212 155.41C164.666 155.769 165.141 156.107 165.625 156.433C164.315 155.978 162.965 155.651 161.605 155.534C158.97 154.609 156.304 153.761 153.682 152.795C151.105 151.844 148.565 150.775 146.852 148.522C145.388 146.596 144.462 144.24 143.75 141.945C142.969 139.415 142.658 136.786 141.936 134.251C141.879 134.046 141.543 134.023 141.498 134.251C140.983 136.91 141.006 139.899 141.3 142.583C141.608 145.398 142.4 148.161 144.124 150.45C146.127 153.11 148.844 154.592 151.901 155.773C154.367 156.729 156.864 157.701 159.389 158.555C159.059 158.77 158.725 158.986 158.381 159.191C157.012 160.005 155.588 160.728 154.132 161.376C151.474 162.562 148.675 163.45 145.859 164.17C140.617 165.506 135.243 166.185 129.839 166.273C119.026 166.453 108.093 164.187 98.2033 159.812C95.4188 158.58 92.6998 157.225 90.0082 155.803C89.1674 155.359 88.3223 154.911 87.4815 154.45C87.5512 154.446 87.623 154.44 87.6927 154.433C89.5709 154.256 91.4258 153.895 93.2427 153.383C96.9632 152.333 100.529 150.695 104.032 149.082C107.003 147.714 110.062 146.157 111.877 143.308C112.846 141.784 113.292 139.996 113.653 138.246C114.057 136.298 114.532 134.34 114.826 132.373C114.929 131.684 114.775 130.752 114.036 130.426C113.74 130.297 113.497 130.191 113.165 130.191C112.432 130.191 111.68 130.724 111.505 131.455C111.072 133.279 110.81 135.154 110.47 136.997C110.176 138.59 109.908 140.254 109.048 141.655C107.546 144.109 104.6 145.364 102.112 146.559C98.9575 148.072 95.8012 149.547 92.5244 150.775C91.0815 151.316 89.6132 151.806 88.1237 152.208C88.1829 151.842 88.1322 151.457 87.9167 151.168C87.5575 150.69 87.1498 150.373 86.6871 150.008C86.1843 149.61 85.5082 149.403 84.9146 149.579C84.9146 149.581 84.9125 149.579 84.9125 149.579C84.6716 149.526 84.4054 149.547 84.1308 149.672C83.2815 150.061 82.4343 150.454 81.5871 150.853C69.3991 156.589 57.5575 163.327 48.5892 173.588C47.2963 175.067 46.0857 176.623 44.9512 178.227C43.8484 179.785 42.4836 181.476 42.1794 183.407C42.154 183.568 42.3885 183.642 42.4287 183.477C42.5005 183.179 42.5977 182.887 42.7181 182.604C42.4667 183.484 42.4815 184.418 42.8364 185.337C43.2568 186.419 44.028 187.136 45.0019 187.421C44.0237 191.709 43.3667 196.055 42.8385 200.448C42.0801 206.778 41.5413 213.123 41.1357 219.485C40.3244 232.181 39.9632 244.94 40.2251 257.659C40.2991 261.254 40.4216 264.849 40.6075 268.442C40.7005 270.239 40.8019 272.033 40.9181 273.829C41.0322 275.596 40.9392 277.543 42.4794 278.475C42.4984 278.545 42.5195 278.612 42.5385 278.682C42.9125 279.986 44.5794 279.568 44.7357 278.384C44.7378 278.371 44.7399 278.356 44.742 278.344C46.0012 277.382 45.8111 275.78 45.7181 274.244C45.6188 272.585 45.5132 270.928 45.4244 269.271C45.2554 266.092 45.1118 262.913 44.9829 259.732C44.7315 253.442 44.5899 247.144 44.5434 240.85C44.4505 228.26 45.1773 215.689 46.0392 203.135C46.4005 197.883 46.823 192.654 46.9519 187.404C47.6258 187.053 47.8329 186.056 47.4949 185.384C55.4765 190.832 62.8836 197.346 68.8308 204.917C69.8237 206.18 70.7723 207.482 71.6808 208.808C71.9765 209.239 72.2575 209.687 72.5406 210.135C72.266 211.384 72.0526 212.654 71.7737 213.852C71.1991 216.327 70.9561 218.895 70.6265 221.41C69.9568 226.519 69.4857 231.673 69.0864 236.809C68.3005 246.952 67.7174 257.093 67.5336 267.265C67.4322 273.018 67.297 278.807 67.5505 284.558C67.3625 285.682 68.3744 286.781 69.4329 286.923C70.3604 287.047 71.2265 286.565 71.6322 285.79C74.5223 286.149 77.4885 286.314 80.3596 286.335C84.228 286.362 88.0963 286.358 91.9646 286.276C99.7033 286.107 107.44 285.908 115.177 285.678C130.65 285.221 146.123 284.763 161.598 284.304C165.889 284.177 170.18 284.05 174.471 283.924C176.406 283.867 178.819 284.424 180.344 282.93C180.606 282.672 180.809 282.37 180.953 282.047C181.409 282.161 181.969 282.049 182.269 281.696C182.829 281.034 183.241 280.422 183.22 279.504C183.2 278.646 182.964 277.742 182.841 276.892C182.609 275.296 182.385 273.7 182.172 272.103C181.751 268.945 181.358 265.783 180.997 262.619C180.258 256.15 179.586 249.666 179.062 243.175C178.022 230.34 177.729 217.437 177.765 204.562C177.769 203.41 177.775 202.258 177.781 201.106C177.83 201.167 177.883 201.224 177.94 201.273C177.986 201.313 178.033 201.353 178.079 201.396C178.62 201.871 179.52 202.116 180.169 201.666C180.965 201.15 181.515 200.377 182.136 199.677C182.789 198.944 183.46 198.229 184.139 197.519C185.453 196.146 186.811 194.829 188.197 193.527C188.309 193.423 188.421 193.318 188.533 193.216C188.541 197.314 188.537 201.41 188.647 205.506C188.812 211.591 189.141 217.67 189.443 223.746C190.043 235.778 190.665 247.806 191.262 259.836C191.429 263.194 191.588 266.555 191.755 269.913C191.839 271.593 191.922 273.273 192.002 274.954C192.044 275.862 192.086 276.774 192.129 277.682C192.175 278.659 192.114 279.703 192.443 280.631C193.193 282.753 196.434 283.053 197.058 280.631C197.448 279.111 197.148 277.352 197.079 275.793C197.007 274.254 196.935 272.713 196.861 271.173V271.173Z" clip-rule="evenodd"/><path fill="#fff" fill-rule="evenodd" d="M164.338 80.9851C162.161 73.1258 153.843 69.6965 146.351 69.1522C126.066 67.0428 105.419 78.3551 96.4262 96.6984C89.2277 110.627 89.0023 125.259 104.476 133.212C105.321 133.678 106.203 134.176 107.105 134.628C107.888 135.356 108.694 136.056 109.574 136.644C118 142.187 128.342 144.584 138.364 144.064C153.161 143.766 158.444 133.721 161.677 120.839C165.086 108.015 166.993 94.099 164.338 80.9851V80.9851Z" clip-rule="evenodd"/><path fill="#000" fill-rule="evenodd" d="M174.051 155.064C173.36 152.974 172.494 150.947 171.685 148.899C171.514 147.878 171.4 146.849 171.37 145.811C171.258 142.104 171.951 138.366 172.729 134.756C174.309 127.42 175.984 120.16 176.825 112.689C178.327 99.325 177.434 85.4287 171.358 73.2296C166.093 62.6621 157.171 54.0199 145.646 50.7821C142.239 49.8244 138.733 49.2963 135.202 49.0853C134.765 49.0158 134.329 48.9477 133.895 48.8822C128.984 48.1417 124.013 47.7726 119.049 48.092C110.818 48.6218 102.664 50.9881 95.8089 55.6683C88.907 60.3807 84.0031 66.9884 81.7212 75.0478C79.3474 83.4321 79.5487 92.5123 75.4495 100.373C74.2385 102.695 72.8249 104.903 71.4768 107.147C67.8998 111.14 64.0163 115.579 63.1653 121.068C62.1153 127.853 66.0174 133.587 69.7104 138.881C73.0484 143.662 77.578 150.265 74.1428 156.151C72.5224 158.928 69.9259 161.005 67.9759 163.537C65.9541 166.167 64.3759 169.185 63.5604 172.41C62.0287 178.467 63.4379 184.78 67.5343 189.514C69.6681 191.979 72.4083 193.608 75.3745 194.879C78.4104 196.176 81.3766 197.408 83.8864 199.617C85.0336 200.625 86.0836 201.731 87.0766 202.889C88.0019 204.336 89.0794 205.689 90.2942 206.928C91.6315 208.291 94.2512 206.425 93.0238 204.82C92.9329 204.702 92.8442 204.586 92.7533 204.468C91.8555 203.297 90.9533 202.126 90.009 200.993C87.1928 196.529 86.109 191.064 87.5097 185.85C87.8731 184.495 88.3843 183.21 89.0205 181.997C89.1555 182.35 89.3033 182.698 89.4597 183.043C90.0681 184.379 90.9219 185.961 92.0076 187.314C92.0498 188.242 92.1895 189.162 92.4597 190.062C94.1329 195.644 99.7273 198.398 104.772 200.541C105.267 200.752 105.755 200.955 106.234 201.156C107.553 201.707 108.947 199.828 108.125 198.695C107.91 198.398 107.701 198.093 107.502 197.785C105.136 194.12 104.01 189.736 104.648 185.37C105.32 180.752 108.041 176.931 110.743 173.264C113.396 169.658 116.246 165.979 117.434 161.58C118.748 156.721 117.552 151.877 115.524 147.405C113.667 143.313 111.193 139.541 109.119 135.561C109.829 136.27 110.562 136.955 111.317 137.616C112.166 138.36 113.038 139.211 114.044 139.735C114.789 140.122 115.534 139.195 114.945 138.568C114.17 137.744 113.179 137.107 112.319 136.372C111.493 135.666 110.692 134.932 109.91 134.178C108.947 133.25 108.031 132.279 107.148 131.277C106.441 129.476 105.859 127.627 105.385 125.75C104.741 123.21 104.145 120.507 104.191 117.873C104.238 115.172 105.641 113.28 107.508 111.467C108.299 110.699 109.098 109.94 109.895 109.18C111.593 107.933 113.194 106.541 114.75 105.152C117.522 102.677 120.202 100.06 122.763 97.3675C123.45 96.6451 124.131 95.9146 124.803 95.1758C127.154 92.763 129.395 90.2437 131.508 87.6373C133.608 86.8722 135.626 85.8599 137.519 84.6678C136.695 85.5027 135.862 86.3269 135.034 87.1575C133.19 89.009 131.274 90.8689 129.136 92.3777C128.916 92.5343 129.049 92.8661 129.32 92.8133C132.039 92.2701 134.582 91.3655 136.957 89.9241C139.372 88.4574 141.499 86.4643 143.485 84.4649C144.609 83.9577 145.693 83.3046 146.684 82.6621C146.736 82.6283 146.789 82.5924 146.842 82.5584C145.866 85.6527 144.434 89.1569 141.381 90.2602C141.282 90.2961 141.288 90.461 141.406 90.4546C143.978 90.3037 146.045 89.1461 147.677 87.4589C148.989 86.5142 150.242 85.513 151.437 84.4231C152.595 83.3672 153.691 82.2348 154.733 81.0622C153.277 83.9469 151.647 86.7676 150.039 89.5564C149.954 89.7043 150.132 89.9051 150.284 89.8015C153.679 87.502 156.254 84.5347 158.36 81.0261C158.671 80.5095 158.968 79.9845 159.258 79.4555C159.039 80.2834 158.801 81.106 158.545 81.9243C158.083 83.4057 157.627 84.8904 157.164 86.3709C156.914 87.1692 156.61 87.9493 156.276 88.716C156.037 89.2647 155.724 89.8123 155.675 90.414C155.672 90.454 155.716 90.4802 155.75 90.4715C157.104 90.1329 158.365 88.5884 159.329 87.6316C159.867 87.0988 160.37 86.514 160.833 85.8973C160.919 89.4494 160.978 93.002 160.9 96.5647C160.754 103.108 160.332 109.649 159.791 116.172C159.313 121.937 158.96 127.988 155.745 132.999C153.256 136.878 149.221 139.562 144.837 140.862C144.451 140.978 144.062 141.081 143.671 141.174C137.324 142.681 131.003 140.974 125.392 137.956C123.706 137.049 122.265 139.509 123.892 140.521C129.981 144.313 137.698 145.604 144.59 143.905C144.373 152.048 148.384 159.773 152.375 166.68C154.608 170.546 156.843 174.386 158.422 178.577C159.761 182.136 160.672 185.829 160.978 189.626C161.341 194.103 160.984 198.605 160.359 203.043C160.325 203.284 160.291 203.527 160.255 203.768C160.116 204.721 160.972 205.52 161.899 205.032C166 202.876 167.768 198.281 168.843 194.033C169.849 190.053 170.532 185.995 170.912 181.91C171.47 183.451 171.922 185.03 172.272 186.64C172.321 186.87 172.367 187.101 172.414 187.331C172.68 188.678 174.717 188.582 175.042 187.331C175.101 187.105 175.158 186.879 175.211 186.651C176.891 179.856 177.343 172.769 176.455 165.822C175.989 162.168 175.209 158.562 174.051 155.064" clip-rule="evenodd"/><path fill="#000" fill-rule="evenodd" d="M143.152 128.274C141.732 127.695 140.465 126.728 139.538 125.493C139.216 125.064 139.133 124.61 139.2 124.196C139.276 123.729 139.552 123.307 139.928 123.023C140.305 122.739 140.777 122.599 141.233 122.67C141.63 122.732 142.024 122.949 142.337 123.4L142.402 123.49C142.953 124.235 143.67 124.847 144.488 125.241C145.276 125.621 146.158 125.798 147.07 125.695C148.808 125.499 150.005 124.559 151.278 123.282C151.436 123.121 151.594 122.955 151.752 122.786C151.852 122.633 151.991 122.535 152.146 122.483C152.317 122.426 152.511 122.429 152.689 122.491C152.86 122.551 153.013 122.664 153.116 122.815C153.213 122.958 153.269 123.135 153.251 123.339C153.134 124.662 152.443 125.842 151.461 126.769C150.37 127.799 148.924 128.511 147.563 128.761C146.064 129.036 144.536 128.839 143.152 128.274V128.274ZM148.271 107.866C149.866 108.837 152.297 111.099 150.581 113.504C148.56 115.624 145.652 113.193 144.219 112.093C142.89 111.241 141.396 113.433 142.629 114.428C152.987 122.099 157.19 108.12 149.078 106.726C148.184 106.572 147.853 107.566 148.271 107.866ZM129.711 98.9431C129.887 96.7543 133.219 96.2573 133.551 98.4232C133.847 100.363 133.498 102.146 132.624 103.893C131.79 105.561 129.692 104.783 129.533 103.263C129.32 101.226 129.601 100.305 129.711 98.9431ZM155.076 97.9741C155.541 97.3654 156.212 96.9499 157.015 97.1847C159.526 97.9187 158.786 101.485 157.904 103.221C157.425 104.163 155.876 104.402 155.176 103.572C154.036 102.219 153.489 99.5159 154.94 98.1827C154.979 98.1138 155.023 98.0443 155.076 97.9741ZM132.589 89.3656L132.986 89.2962C134.213 89.0839 135.738 88.8799 136.606 89.8667C137.067 90.39 137.225 91.3627 136.606 91.8636C135.518 92.7449 134.314 92.4033 133.01 92.4779C131.935 92.5397 130.902 92.7176 129.867 93.0137C127.595 93.6632 125.744 94.8489 123.804 96.1508C123.55 96.3216 123.29 95.9959 123.411 95.7577C124.531 93.5632 126.701 91.7606 128.875 90.6618C130.036 90.0753 131.305 89.5888 132.589 89.3656ZM152.787 88.3826L153.091 88.4447C156.395 89.1356 160.687 90.5155 162.251 93.7617C162.311 94.2208 162.248 94.3192 162.197 94.3834L162.18 94.4048C162.137 94.4597 162.104 94.5354 161.905 94.5978C161.85 94.5847 161.794 94.5708 161.737 94.556C161.02 94.368 160.453 94.109 159.904 93.8402L159.308 93.5467C158.617 93.2078 157.92 92.8812 157.181 92.6401C155.605 92.1257 153.983 91.7633 152.337 91.5698C151.98 91.5279 151.636 91.4074 151.365 91.2009C151.108 91.0049 150.911 90.7334 150.821 90.3727C150.705 89.9058 150.739 89.5523 150.989 89.1311C151.177 88.8148 151.447 88.5956 151.756 88.4697C152.071 88.3413 152.43 88.3111 152.787 88.3826Z" clip-rule="evenodd"/></svg>