<svg xmlns="http://www.w3.org/2000/svg" width="240" height="324" fill="none" viewBox="0 0 240 324"><path fill="#fff" fill-rule="evenodd" d="M127.585 126.83C133.74 127.134 143.323 129.773 143.802 131.46C144.55 134.094 142.943 143.97 145.632 149.29C146.778 151.557 151.13 151.354 152.817 152.093C158.46 154.563 175.165 159.25 178.609 165.151C179.989 167.515 188.47 196.848 192.976 211.813C193.484 213.5 194.057 215.06 194.681 216.505L194.91 215.383C196.748 206.338 197.666 200.862 197.666 198.956C197.666 195.977 195.291 183.411 197.666 180.215C200.018 177.051 205.684 174.464 208.233 174.413L208.31 174.412C209.983 174.412 211.436 173.889 212.667 172.842L214.472 171.934C223.653 167.325 229.017 164.797 230.564 164.349C233.033 163.635 237.234 165.156 235.133 167.44C233.733 168.962 230.214 171.655 224.576 175.519L222.451 177.208L222.707 177.342C225.455 178.789 227.07 180.007 227.553 180.996C228.052 182.015 227.813 183.22 226.836 184.612L226.984 184.757C228.219 185.969 228.837 186.783 228.837 187.197V189.219C230.065 191.019 230.372 192.52 229.758 193.723C229.144 194.925 228.17 195.967 226.836 196.848C225.853 199.434 224.683 201.274 223.325 202.369C221.967 203.465 219.621 204.376 216.285 205.104L213.266 212.324L210.82 222.468L209.588 233.787L209.946 234.046C211.604 235.254 212.667 236.15 212.667 237.076C212.667 238.518 205.975 272.435 195.563 273.953C193.311 274.282 181.633 272.671 177.798 269.551L177.855 269.888C178.757 275.339 178.566 278.17 177.282 278.381C161.503 280.969 116.69 281.768 42.8419 280.78C42.4025 241.57 44.3892 215.456 48.802 202.44C60.0879 169.149 72.5312 157.779 76.8844 156.805C80.6977 155.952 93.9206 150.687 97.617 149.29C100.03 148.378 100.547 145.643 103.296 145.643L103.519 145.644C106.178 145.671 108.536 146.146 109.86 144.778C113.337 141.188 112.365 136.218 113.808 131.46C114.602 128.838 120.033 126.457 127.585 126.83Z" clip-rule="evenodd"/><path fill="#000" fill-rule="evenodd" d="M110.677 136.23C111.038 135.514 111.997 135.607 112.63 135.932C114.528 137.319 112.542 140.01 112.017 141.704C110.666 144.989 108.321 148.199 105.083 149.735C105.351 153.001 105.655 156.259 105.768 159.535C109.907 164.672 116.887 166.547 123.083 167.989C132.814 170.681 143.797 165.165 147.081 155.543C143.343 153.418 142.133 147.855 143.249 143.973C143.345 143.701 143.768 143.58 143.918 143.885C144.942 145.991 144.805 148.56 145.969 150.641C157.138 151.711 171.553 155.927 178.87 164.963C182.113 169.483 183.398 175.363 184.995 180.603C188.403 191.404 191.118 202.424 194.46 213.237L194.854 211.191C195.934 205.555 196.915 199.843 196.185 194.112L196.172 193.838C195.934 189.277 194.507 180.802 198.043 177.724C201.241 175.279 205.874 173.314 209.887 174.441C217.028 171.262 223.192 165.909 230.798 163.823C233.139 163.342 236.506 163.912 235.953 167.089C234.42 172.645 227.998 174.802 223.608 177.667C226.422 178.43 229.853 181.853 227.654 184.838C227.635 184.891 227.618 184.931 227.601 184.963C229.384 185.753 229.634 187.74 229.196 189.443C229.152 189.893 229.034 189.507 229.298 189.915C231.31 191.813 230.421 197.103 227.39 197.282C227.588 199.789 225.979 202.224 223.94 203.591C221.743 205.064 218.565 205.128 216.746 207.144C212.475 214.678 211.002 223.573 210.536 232.2C213.352 233.255 215.878 236.407 213.32 239.082C213.269 239.088 213.219 239.094 213.168 239.098C211.685 243.057 211.112 247.277 210.328 251.411C209.121 258.466 205.977 264.943 201.962 270.82C197.319 278.599 184.833 277.366 178.543 272.345C178.568 273.663 178.785 274.972 178.363 276.245C177.741 277.618 176.223 277.025 176.073 275.672C172.748 277.543 171.965 271.368 175.661 272.347C175.377 267.883 175.212 263.413 175.078 258.942C170.894 260.297 170.713 253.351 174.994 254.74L174.989 252.82C174.957 238.097 175.12 223.323 177.062 208.716C177.241 207.624 177.546 206.567 177.723 205.481C177.742 205.368 177.918 205.4 177.918 205.508C178.219 225.958 176.883 246.452 178.277 266.91C179.437 267.263 179.9 268.595 180.759 269.372C182.667 271.133 185.264 271.991 187.805 272.29C194.918 273.288 197.989 271.115 201.157 264.929C199.728 265.884 197.798 264.198 198.668 262.686L198.696 262.64C199.6 261.038 202.154 261.998 201.831 263.792C205.016 258.69 206.682 252.937 207.914 247.1L208.08 246.402C208.679 243.924 209.455 241.084 210.892 238.842C202.128 236.608 193.556 229.8 192.184 220.46C189.959 227.453 186.945 234.289 184.072 241.091C183.184 243.456 182.815 245.998 181.543 248.192C181.247 248.7 180.497 248.569 180.33 248.034C179.186 242.918 182.652 238.052 184.452 233.446C185.921 230.843 190.139 218.958 192.755 218.929C189.816 206.043 185.896 193.254 182.163 180.529C178.554 163.347 171.198 160.033 155.615 154.623C158.426 168.952 171.259 182.822 164.43 197.851L164.264 198.241C163.566 199.898 162.986 201.567 163.473 203.386C163.946 205.151 165.024 206.683 165.886 208.27C170.705 217.236 167.388 227.707 165.525 237.044C163.171 247.993 160.846 258.953 158.413 269.885C157.934 272.066 157.623 274.313 156.899 276.427C156.525 277.517 154.659 277.414 154.78 276.141C155.01 273.673 155.703 271.265 156.21 268.841C159.239 253.146 163.338 237.636 165.944 221.873C167.621 210.204 161.021 208.411 161.267 200.871C162.164 197.015 164.539 193.574 164.403 189.464C164.93 176.886 155.771 166.508 154.641 154.274L152.644 153.562C151.646 153.205 150.65 152.844 149.656 152.476C154.886 189.066 153.298 226.455 150.683 263.226C150.149 264.922 150.657 276.775 148.418 275.723C148.305 276.385 147.953 277.036 147.189 277.033C140.244 277.097 133.298 277.207 126.353 277.289C123.013 276.981 118.422 278.257 115.581 276.329C112.3 275.393 111.923 266.505 111.046 263.338L110.704 261.034C105.13 223.39 100.142 184.971 104.149 146.954C98.5743 147.169 97.4237 153.187 97.0103 157.569C95.9765 167.241 89.7298 175.571 89.4302 185.354C89.4048 187.727 89.8527 190.026 90.8011 192.206C93.3173 197.545 97.669 203.717 94.4165 209.68C90.57 214.322 90.9029 215.544 92.3144 221.281C96.2856 240.246 102.881 258.478 109.154 276.763C107.791 283.87 99.5922 257.486 98.8208 255.497C95.1915 257.322 93.2089 251.264 97.3717 250.832C94.6979 241.879 92.2373 232.859 90.1886 223.739L90.1344 223.482C89.2294 219.269 87.4494 214.335 90.4553 210.597C98.2058 202.756 85.3348 193.992 86.9584 184.493C85.5564 185.533 83.4342 184.439 83.4661 182.693C83.4025 180.726 86.0429 179.719 87.3135 181.219C88.6198 173.513 93.1648 166.785 94.5401 159.101L94.6022 158.74C95.0683 156.025 95.1997 153.167 96.533 150.692C94.718 151.872 92.7851 152.825 90.7971 153.666C94.3517 156.636 87.4684 159.347 88.0379 154.759C68.5447 160.4 64.1387 168.268 56.9816 186.336C58.3185 185.037 60.6086 186.719 59.8083 188.376C59.1699 190.122 56.3848 189.611 56.3858 187.75L56.0596 188.529C51.7196 198.91 47.7695 209.543 45.7844 220.653C49.6785 220.103 48.687 226.329 45.1588 224.574C43.7429 234.455 43.7205 244.475 43.8936 254.435C47.1781 252.712 47.277 258.567 43.9252 256.898C44.0478 265.06 44.2274 273.223 44.3626 281.385C44.39 283.122 41.7112 283.114 41.6689 281.385C41.356 268.843 40.7858 256.279 41.0569 243.733C40.8019 221.958 47.0592 200.971 56.3824 181.466C64.6318 159.007 76.0267 156.453 96.9915 149.923C98.9267 147.049 103.061 144.331 106.434 146.136C108.322 143.088 109.28 139.477 110.677 136.23ZM74.7575 214.505C74.8357 214.228 75.2308 214.298 75.2434 214.571C75.4188 218.094 75.2624 221.64 75.0216 225.178C74.8756 227.338 74.6962 229.496 74.5441 231.641C74.1406 237.301 73.8153 242.968 73.5681 248.638C73.6547 248.602 73.7434 248.57 73.8364 248.545C74.2631 248.429 74.6901 248.429 75.1167 248.545C75.4972 248.652 75.8299 248.837 76.1165 249.106L76.1772 249.165C76.4117 249.382 76.5786 249.64 76.6758 249.938C76.8143 250.203 76.8843 250.487 76.8842 250.79L76.8827 250.866C76.8808 251.301 76.773 251.705 76.5533 252.081C76.3399 252.443 76.0526 252.73 75.6913 252.945C75.3153 253.163 74.9115 253.271 74.4765 253.273C74.43 253.277 74.3834 253.282 74.3371 253.284C74.0136 253.296 73.7117 253.229 73.4327 253.083L73.3906 253.07V253.07C73.285 255.947 73.1984 258.825 73.135 261.704C73.0779 264.213 73.0019 266.721 72.9512 269.23L72.9276 270.485V270.485L72.8816 273.258C72.8667 274.399 72.874 275.491 72.4864 276.567L72.4399 276.691C72.161 277.409 71.9436 278.409 71.1974 278.808C70.6019 279.127 69.7991 279.009 69.4568 278.388C69.1695 277.868 69.4186 277.12 69.8434 276.769C69.835 276.746 69.8223 276.725 69.8117 276.701C69.7462 276.511 69.6467 276.331 69.5878 276.139C69.4017 275.53 69.4526 274.882 69.4505 274.249C69.4505 273.134 69.4883 272.018 69.5181 270.904C69.5836 268.532 69.6596 266.163 69.7524 263.794C70.0664 255.846 70.6577 247.899 71.3349 239.973L71.5647 237.298C71.8709 233.741 72.1878 230.18 72.6364 226.641C72.6573 226.472 72.6786 226.303 72.7019 226.133C72.461 226.013 72.2371 225.846 72.0594 225.66C71.3477 224.913 70.9159 223.795 70.5111 222.832L70.4181 222.613C69.9786 221.585 69.573 220.546 69.3638 219.442L69.3438 219.341C69.2484 218.871 69.0601 218.038 69.5582 217.811C69.8181 217.692 69.9826 217.777 70.0674 218.037C70.0781 218.071 70.0693 218.109 70.0505 218.138C70.2554 218.453 70.5765 218.747 70.7793 219.039L71.4735 220.032V220.032L71.8167 220.531C72.2519 221.171 72.7167 221.784 73.1962 222.389C73.5742 219.734 74.0371 217.09 74.7575 214.505ZM103.224 273.66C104.092 272.979 105.506 273.349 105.506 274.605C105.506 275.866 104.09 276.23 103.224 275.549L103.181 275.517V275.517L103.139 275.484C102.668 275.115 102.652 274.155 103.104 273.755L103.139 273.726C103.167 273.702 103.194 273.681 103.224 273.66ZM65.3979 271.207L65.4725 271.208C65.8655 271.208 66.231 271.308 66.5711 271.506C66.719 271.618 66.8648 271.732 67.0127 271.847C67.2831 272.117 67.469 272.438 67.5725 272.808L67.6509 273.387V273.387C67.6612 273.687 67.6 273.966 67.4627 274.227C67.3739 274.497 67.2239 274.731 67.0127 274.928C66.8141 275.142 66.5817 275.292 66.3115 275.378C66.0731 275.504 65.8189 275.568 65.5471 275.568L65.4725 275.567C65.0777 275.567 64.712 275.467 64.3718 275.268C64.2239 275.156 64.0781 275.042 63.9303 274.928C63.6619 274.658 63.4739 274.336 63.3706 273.966C63.345 273.774 63.3199 273.58 63.2922 273.387C63.2819 273.087 63.345 272.808 63.4803 272.548C63.569 272.278 63.719 272.043 63.9303 271.847C64.1291 271.633 64.3612 271.483 64.6317 271.396C64.8699 271.271 65.1258 271.207 65.3979 271.207V271.207ZM164.295 267.188L164.849 267.262V267.262C165.379 267.383 165.805 267.774 166.091 268.22C166.243 268.459 166.325 268.717 166.338 268.993C166.399 269.268 166.386 269.545 166.3 269.822C166.236 270.092 166.112 270.329 165.928 270.53C165.865 270.629 165.791 270.72 165.706 270.801C165.533 271.09 165.271 271.28 165.001 271.475C164.773 271.621 164.525 271.699 164.259 271.711C164.084 271.758 163.906 271.758 163.729 271.711C163.465 271.699 163.217 271.621 162.989 271.475C162.854 271.371 162.719 271.265 162.586 271.162C162.468 271.025 162.358 270.883 162.254 270.735C162.185 270.572 162.117 270.411 162.049 270.251C161.924 269.864 161.986 269.522 162.054 269.135C162.064 269.07 162.081 269.01 162.104 268.947L162.15 268.824C162.271 268.503 162.336 268.394 162.552 268.114L162.634 268.004C162.675 267.95 162.717 267.896 162.766 267.848C162.901 267.708 163.093 267.592 163.245 267.472C163.57 267.284 163.921 267.191 164.295 267.188ZM92.5666 265.835L92.6371 265.836C92.9434 265.838 93.2309 265.914 93.4969 266.068L93.8434 266.337V266.337C94.0547 266.55 94.2005 266.799 94.2828 267.089C94.3019 267.241 94.3232 267.393 94.3441 267.544C94.3526 267.778 94.3042 267.998 94.1962 268.203C94.1288 268.414 94.0103 268.596 93.8434 268.752C93.6894 268.917 93.5054 269.036 93.2941 269.105C93.1097 269.202 92.9114 269.252 92.7007 269.253L92.6371 269.251C92.3286 269.251 92.0413 269.173 91.7751 269.019L91.4286 268.752V268.752C91.2174 268.539 91.0716 268.288 90.9892 267.998C90.9702 267.846 90.949 267.696 90.9279 267.544C90.9195 267.309 90.9681 267.089 91.0758 266.886C91.1455 266.675 91.2617 266.491 91.4286 266.337C91.5828 266.17 91.7666 266.051 91.9779 265.984C92.1624 265.887 92.3571 265.838 92.5666 265.835V265.835ZM78.6239 265.136C79.0653 265.132 79.5134 265.257 79.8746 265.512C80.2253 265.762 80.4913 266.03 80.6627 266.434C80.7091 266.544 80.7554 266.652 80.7958 266.762C80.9775 267.246 81.0113 267.732 80.7599 268.205C80.5169 268.664 79.9929 268.864 79.5237 269.002C79.1268 269.12 78.6767 269.139 78.2817 268.998C78.0852 268.928 77.8929 268.854 77.7155 268.746C77.3838 268.541 77.2042 268.298 76.9824 267.998C76.8091 267.702 76.7225 267.381 76.7225 267.038C76.7225 266.694 76.8091 266.375 76.9824 266.077C77.3223 265.496 77.9521 265.14 78.6239 265.136ZM56.2294 265.544C56.7874 265.544 57.2773 265.802 57.6134 266.237C57.9534 266.679 58.078 267.229 57.928 267.776C57.7696 268.355 57.2902 268.862 56.6963 269.008C56.2571 269.116 55.8977 269.112 55.4604 269.038C55.0907 268.974 54.8078 268.754 54.5245 268.526C54.2013 268.262 54.102 267.78 54.1548 267.391C54.2055 267.002 54.3853 266.749 54.6578 266.518L54.6597 266.512L54.5583 266.59C54.5965 266.557 54.6344 266.521 54.6726 266.485C54.6851 266.464 54.6956 266.44 54.7062 266.417C54.8625 266.151 55.0738 265.942 55.3379 265.785C55.6146 265.624 55.9104 265.544 56.2294 265.544ZM186.283 259.142C186.59 259.06 186.898 259.06 187.205 259.142C187.431 259.195 187.627 259.299 187.794 259.453C187.963 259.563 188.102 259.704 188.206 259.88L188.24 259.939C188.481 260.349 188.519 260.818 188.415 261.275C188.287 261.839 187.767 262.353 187.205 262.486L187.186 262.489V262.489L187.167 262.494C186.939 262.566 186.708 262.577 186.48 262.524C186.25 262.514 186.036 262.446 185.84 262.319C185.591 262.158 185.382 261.951 185.221 261.702C185.094 261.503 185.027 261.29 185.016 261.059C184.976 260.907 184.976 260.755 185.016 260.603C185.027 260.372 185.094 260.159 185.221 259.96L185.491 259.611V259.611L185.519 259.588V259.588C185.734 259.373 185.99 259.225 186.283 259.142ZM165.013 247.958C167.783 247.958 167.779 252.257 165.013 252.257C162.244 252.257 162.248 247.958 165.013 247.958ZM63.6088 247.415C63.9006 247.349 64.1922 247.362 64.4816 247.453C64.6569 247.527 64.8302 247.601 65.0034 247.672L65.4471 248.015V248.015C65.5295 248.085 65.5696 248.161 65.6457 248.26L65.7408 248.384C65.8782 248.568 65.8815 248.607 66.0323 249C66.1337 249.376 66.1337 249.752 66.0323 250.129C65.9835 250.31 65.9098 250.481 65.8147 250.64C65.7278 250.792 65.6238 250.925 65.5067 251.048L65.4471 251.109C65.2485 251.322 65.014 251.472 64.7436 251.561C64.5724 251.661 64.3886 251.709 64.1922 251.709C63.9006 251.775 63.6088 251.762 63.3196 251.671C63.1443 251.597 62.971 251.523 62.7976 251.451L62.3541 251.109L62.0119 250.665L61.9027 250.405V250.405L61.7922 250.143L61.714 249.562C61.7034 249.26 61.7647 248.981 61.9018 248.719C61.9546 248.535 62.0478 248.372 62.1828 248.237C62.2802 248.072 62.411 247.941 62.576 247.844C62.711 247.708 62.8738 247.615 63.0577 247.563C63.2288 247.463 63.4126 247.415 63.6088 247.415ZM200.599 244.344C200.829 244.335 201.045 244.384 201.243 244.489C201.313 244.513 201.381 244.542 201.446 244.576C201.702 244.726 201.905 244.929 202.055 245.183C202.177 245.377 202.245 245.586 202.255 245.812C202.301 246.016 202.297 246.222 202.242 246.426L202.224 246.487C202.177 246.654 202.107 246.808 202.015 246.949C202.006 246.966 201.995 246.983 201.983 246.998C201.841 247.222 201.653 247.406 201.421 247.544C201.163 247.691 200.886 247.767 200.586 247.77C199.988 247.77 199.473 247.446 199.158 246.949C199.114 246.88 199.088 246.791 199.057 246.719C199.029 246.651 198.985 246.565 198.961 246.487C198.881 246.187 198.881 245.887 198.961 245.586C199.014 245.366 199.114 245.174 199.264 245.011C199.384 244.828 199.542 244.682 199.739 244.576C199.983 244.434 200.245 244.358 200.523 244.345L200.599 244.344ZM83.6582 242.241C83.9507 242.161 84.2416 242.155 84.5322 242.222L84.6049 242.241C84.837 242.296 85.038 242.401 85.211 242.558C85.4032 242.685 85.5577 242.852 85.6694 243.058C85.8302 243.336 85.9105 243.636 85.9124 243.957C85.9105 244.278 85.8302 244.578 85.6694 244.855C85.511 245.124 85.2976 245.335 85.0295 245.493L84.7971 245.605V245.605C84.6028 245.728 84.3957 245.794 84.1716 245.804C84.0218 245.844 83.8716 245.844 83.7239 245.804C83.5716 245.804 83.43 245.766 83.2992 245.69C83.1556 245.65 83.0328 245.578 82.9272 245.472C82.7434 245.354 82.5999 245.198 82.4943 245.001L82.323 244.597V244.597L82.264 244.149V244.149L82.323 243.703V243.703L82.4161 243.483V243.483C82.5004 243.181 82.6527 242.919 82.8744 242.697C83.0962 242.477 83.3582 242.325 83.6582 242.241ZM188.43 238.675C188.738 238.578 189.045 238.565 189.351 238.633C189.558 238.633 189.752 238.686 189.932 238.792C190.129 238.846 190.297 238.943 190.441 239.087C190.692 239.25 190.889 239.466 191.035 239.734L191.267 240.286V240.286C191.407 240.643 191.356 241.169 191.272 241.529C191.202 241.824 191.067 242.082 190.866 242.302C190.765 242.473 190.629 242.609 190.458 242.71C190.262 242.888 190.037 243.015 189.781 243.09L189.71 243.109L189.685 243.116C189.681 243.118 189.677 243.118 189.672 243.118C189.67 243.12 189.666 243.12 189.664 243.12C189.562 243.145 189.459 243.16 189.351 243.164C189.045 243.232 188.738 243.219 188.43 243.122C188.248 243.046 188.065 242.968 187.881 242.89C187.724 242.771 187.57 242.651 187.414 242.53C187.293 242.374 187.173 242.217 187.053 242.063C186.883 241.799 186.793 241.512 186.78 241.205C186.725 241 186.725 240.797 186.78 240.592C186.78 240.383 186.833 240.191 186.936 240.011C187.029 239.724 187.188 239.476 187.414 239.267C187.57 239.146 187.724 239.026 187.881 238.908C188.065 238.829 188.248 238.751 188.43 238.675ZM53.6838 231.109C54.0026 231.022 54.3218 231.022 54.6408 231.109L55.0695 231.289V231.289C55.2808 231.403 55.4479 231.557 55.5746 231.753C55.7352 231.927 55.8427 232.132 55.8977 232.366C56.0225 232.688 56.0077 233.197 55.9085 233.525C55.7965 233.897 55.6232 234.192 55.3549 234.471C54.9092 234.932 54.2244 235.065 53.6183 234.926C53.4512 234.888 53.2928 234.814 53.1491 234.723C52.6909 234.44 52.3824 233.945 52.3845 233.398C52.3845 233.339 52.3887 233.279 52.3972 233.22C52.3676 233.1 52.3568 232.975 52.3613 232.844L52.4247 232.366V232.366L52.4287 232.354C52.5134 232.051 52.6655 231.789 52.8871 231.568C53.0921 231.365 53.3311 231.218 53.6042 231.13L53.6732 231.109H53.6838ZM213.104 183.65C212.527 178.917 210.357 173.824 203.739 176.604L203.247 176.788C201.609 177.408 199.701 178.223 198.704 179.656C198.018 180.643 198.25 182.555 198.155 183.707C197.724 187.452 197.955 191.192 198.405 194.922C198.985 203.663 197.148 212.72 193.49 220.664C197.151 226.589 202.05 232.116 208.733 234.585C209.016 227.849 210.334 221.235 211.737 214.662L211.793 214.375C212.354 211.411 212.635 208.368 214.581 205.903C218.539 201.604 223.984 204.037 226.589 197.13C226.042 196.853 226.344 195.906 227.004 196.088C229.289 196.494 229.66 192.257 228.096 191.236C226.466 190.242 228.107 188.408 227.413 187.084C227.027 186.514 226.192 186.495 225.814 185.837C224.811 183.418 229.829 181.867 223.928 179.139C222.72 178.709 221.37 178.976 220.152 178.971C218.36 179.138 216.936 180.402 215.297 180.799C217.082 185.421 212.579 189.872 208.515 186.18C206.304 188.271 203.831 193.037 209.207 190.815C211.837 189.059 214.102 186.788 217.157 185.706L217.221 185.686C218.355 185.315 223.316 182.903 223.07 184.99C221.212 186.785 218.147 186.763 215.995 188.22C213.011 189.6 211.103 192.945 207.531 192.899C206.707 197.901 212.381 194.857 214.494 193.478L215.08 193.16C218.06 191.549 221.086 190.057 224.561 190.037C225.52 190.031 225.516 191.51 224.561 191.523C220.032 191.551 216.345 194.384 212.551 196.49C212.177 199.409 216.451 198.131 218.073 197.7C219.774 197.461 222.505 195.621 223.993 196.593C224.575 198.089 222.014 197.978 221.122 198.432C225.193 200.388 221.626 201.62 220.534 198.614L220.215 198.723C217.488 199.639 210.877 201.526 211.664 196.906C210.666 197.348 209.449 197.612 208.346 197.367C205.597 201.435 201.211 199.861 207.586 197.088C206.149 196.419 205.669 193.838 207.049 192.878C202.031 192.571 205.757 187.304 207.834 185.549C207.638 185.351 207.448 185.148 207.271 184.944C206.073 185.514 204.814 185.861 203.468 185.983C202.18 186.1 201.892 183.906 203.164 183.726C204.527 183.534 205.782 183.17 206.982 182.485C208.8 181.7 209.421 185.076 211.241 185.195C212.234 185.392 212.905 184.521 213.104 183.65ZM170.855 227.207C171.295 227.207 171.685 227.391 172.004 227.683C172.323 227.974 172.461 228.412 172.48 228.83C172.488 229.054 172.442 229.264 172.34 229.458C172.275 229.659 172.163 229.832 172.004 229.98C171.708 230.274 171.271 230.456 170.855 230.456C170.416 230.456 170.025 230.272 169.706 229.98C169.387 229.686 169.249 229.251 169.23 228.83C169.222 228.609 169.268 228.399 169.37 228.205C169.429 228.024 169.525 227.864 169.659 227.727L169.706 227.683C170.002 227.387 170.439 227.207 170.855 227.207ZM184.17 217.184L184.241 217.185C184.613 217.187 184.957 217.28 185.278 217.466C185.417 217.574 185.557 217.68 185.694 217.788C185.95 218.045 186.125 218.347 186.223 218.696C186.322 219.06 186.322 219.425 186.223 219.789C186.189 219.998 186.111 220.201 185.988 220.377C185.806 220.679 185.566 220.922 185.261 221.101C184.946 221.285 184.606 221.376 184.241 221.378C183.875 221.376 183.535 221.285 183.22 221.101C182.916 220.922 182.675 220.679 182.496 220.377C182.371 220.201 182.293 219.998 182.259 219.789C182.16 219.425 182.16 219.06 182.259 218.696C182.349 218.372 182.507 218.089 182.734 217.843L182.787 217.788C182.973 217.587 183.193 217.445 183.448 217.362C183.673 217.244 183.914 217.185 184.17 217.184ZM82.5509 217.297C82.7075 217.255 82.8617 217.255 83.0181 217.297C83.2505 217.308 83.4679 217.377 83.6688 217.504C83.7871 217.597 83.9054 217.688 84.0237 217.779L84.1268 217.903C84.3473 218.172 84.3529 218.217 84.5221 218.627C84.592 218.855 84.6026 219.083 84.5519 219.311C84.5519 219.466 84.5117 219.609 84.4355 219.742C84.3934 219.888 84.3216 220.015 84.2138 220.121C84.1376 220.25 84.0364 220.353 83.9073 220.429C83.7427 220.579 83.5483 220.683 83.3244 220.736L82.87 220.797V220.797C82.811 220.789 82.7498 220.78 82.6906 220.774C82.6193 220.772 82.55 220.764 82.4822 220.751L82.4136 220.736V220.736L82.3512 220.719C82.2684 220.695 82.1879 220.663 82.1096 220.622C81.9617 220.579 81.8328 220.505 81.7228 220.396C81.5328 220.273 81.3807 220.108 81.2709 219.903L81.2413 219.835V219.835C81.2011 219.763 81.1673 219.69 81.1418 219.609C81.0702 219.483 81.0342 219.347 81.0321 219.201C80.9901 219.007 80.9929 218.815 81.0432 218.623L81.0617 218.559L81.2244 218.172C81.3089 218.041 81.3976 217.908 81.5115 217.8C81.5801 217.739 81.7479 217.608 81.8423 217.543L81.9002 217.504V217.504C82.1012 217.377 82.3188 217.308 82.5509 217.297ZM57.0808 214.275C57.3851 213.076 58.9569 212.698 59.8125 213.554C60.6679 214.41 60.29 215.983 59.0923 216.287L58.9548 216.321V216.321C57.797 216.614 56.7534 215.568 57.047 214.41L57.0808 214.275V214.275ZM202.089 204.5C202.08 204.381 202.232 204.339 202.308 204.409C203.327 205.322 203.975 206.417 205.211 207.125C206.454 207.835 207.734 207.778 209.029 208.236C209.468 208.393 209.47 208.981 209.029 209.135C206.578 209.991 202.275 207.089 202.089 204.5ZM86.9372 204.314C87.21 204.229 87.4846 204.217 87.7571 204.278C87.9431 204.278 88.1161 204.324 88.2745 204.417C88.4499 204.466 88.6001 204.555 88.7288 204.681C88.8832 204.773 89.0057 204.897 89.0985 205.051C89.2804 205.25 89.4029 205.483 89.4661 205.749L89.5379 206.296V206.296L89.4661 206.844V206.844C89.3964 207.006 89.3266 207.171 89.259 207.334L89.0703 207.59C88.9173 207.794 88.8928 207.796 88.5217 208.072C88.2853 208.222 88.0297 208.304 87.7571 208.315C87.5752 208.365 87.3935 208.365 87.21 208.315C87.0262 208.315 86.8527 208.268 86.6923 208.175C86.5189 208.127 86.367 208.038 86.2379 207.911C86.0142 207.765 85.8388 207.573 85.7097 207.334C85.64 207.171 85.5705 207.006 85.5029 206.844L85.4288 206.296V206.296L85.5029 205.749V205.749L85.5069 205.732V205.732C85.6041 205.39 85.7776 205.092 86.0266 204.84L86.4367 204.523V204.523C86.5971 204.42 86.764 204.367 86.9372 204.314ZM185.559 204.724C186.144 204.563 186.787 204.732 187.215 205.161C187.645 205.591 187.814 206.231 187.653 206.816C187.495 207.387 187.036 207.85 186.464 208.004C186.292 208.05 186.119 208.076 185.944 208.068C185.65 208.065 185.376 207.991 185.12 207.844L184.79 207.588V207.588C184.63 207.44 184.518 207.264 184.452 207.062C184.349 206.867 184.302 206.658 184.311 206.432L184.309 206.392C184.302 206.311 184.313 206.231 184.338 206.153C184.338 206.07 184.351 205.99 184.372 205.912C184.526 205.341 184.991 204.88 185.559 204.724ZM59.3985 199.001C59.5865 198.994 59.7619 199.032 59.9245 199.119C60.0957 199.174 60.2414 199.267 60.364 199.402C60.4992 199.525 60.5922 199.673 60.6471 199.842C60.7337 200.005 60.7717 200.18 60.7654 200.368C60.7654 200.615 60.702 200.846 60.5795 201.057C60.5076 201.15 60.4358 201.243 60.364 201.334C60.195 201.505 59.9943 201.621 59.7619 201.687L59.6267 201.733V201.733C59.4281 201.805 59.2337 201.809 59.0267 201.782C58.8091 201.752 58.6081 201.693 58.4309 201.558C58.2574 201.456 58.1203 201.319 58.0189 201.146L57.9027 200.871V200.871C57.8774 200.778 57.8668 200.639 57.8605 200.541C57.8605 200.526 57.8605 200.514 57.8584 200.499C57.8584 200.417 57.8837 200.216 57.9046 200.133C57.9513 199.96 58.0462 199.795 58.1541 199.656C58.2471 199.51 58.3738 199.396 58.5302 199.311L58.5441 199.301V199.301L58.5598 199.29C58.6081 199.256 58.6591 199.222 58.7098 199.186C58.921 199.064 59.1513 199.001 59.3985 199.001ZM168.495 197.5C168.833 197.5 169.148 197.587 169.439 197.756C169.45 197.76 169.46 197.764 169.469 197.769C169.748 197.933 169.969 198.155 170.134 198.434C170.303 198.724 170.388 199.037 170.388 199.371C170.388 199.706 170.303 200.017 170.134 200.307C169.969 200.586 169.748 200.808 169.469 200.973C169.46 200.979 169.45 200.983 169.439 200.987C169.148 201.156 168.833 201.241 168.495 201.243C168.159 201.241 167.844 201.156 167.552 200.987C166.982 200.653 166.625 200.03 166.625 199.371C166.625 198.711 166.982 198.087 167.552 197.756C167.844 197.587 168.159 197.5 168.495 197.5ZM80.7594 195.056L80.8169 195.055C81.0409 195.046 81.2498 195.093 81.4421 195.196C81.6428 195.262 81.8181 195.374 81.9662 195.532L82.2747 195.79V195.79L82.3642 195.863C82.3789 195.875 82.3935 195.887 82.4075 195.9C82.6148 196.109 82.7564 196.354 82.8366 196.638C82.862 196.801 82.8829 196.961 82.9 197.124C82.9463 197.546 82.6972 197.98 82.4225 198.28C82.2747 198.439 82.0991 198.55 81.8965 198.618C81.7021 198.72 81.4909 198.766 81.2667 198.757C80.8083 198.717 80.3733 198.62 80.0437 198.265C80.0054 198.223 79.9695 198.178 79.9317 198.134L79.6676 197.83V197.83C79.4669 197.627 79.3273 197.388 79.2514 197.113C79.2301 196.967 79.2113 196.824 79.1923 196.68C79.173 196.247 79.3843 195.841 79.6676 195.532C79.9292 195.247 80.3728 195.072 80.7594 195.056ZM70.0952 190.606C72.2921 190.606 72.2879 194.015 70.0952 194.015C67.8999 194.015 67.9041 190.606 70.0952 190.606ZM180.563 185.826L180.632 185.827C180.996 185.829 181.336 185.92 181.651 186.104L182.06 186.419V186.419C182.31 186.673 182.483 186.968 182.58 187.311C182.603 187.49 182.627 187.67 182.652 187.848C182.663 188.127 182.603 188.387 182.477 188.628C182.396 188.877 182.257 189.094 182.06 189.278C181.877 189.475 181.661 189.615 181.41 189.695C181.169 189.822 180.909 189.881 180.632 189.87C180.267 189.868 179.926 189.777 179.612 189.593C179.475 189.488 179.339 189.382 179.202 189.278C178.972 189.044 178.807 188.774 178.708 188.465L178.684 188.387L178.61 187.848C178.6 187.571 178.659 187.311 178.786 187.07C178.866 186.818 179.006 186.603 179.202 186.419C179.386 186.222 179.603 186.083 179.853 186.003C180.073 185.886 180.31 185.827 180.563 185.826ZM170.667 179.444C170.863 179.438 171.045 179.478 171.216 179.567C171.391 179.624 171.543 179.723 171.672 179.861C171.945 180.078 172.112 180.514 172.112 180.867C172.112 181.22 171.945 181.655 171.672 181.873C171.495 182.048 171.286 182.171 171.045 182.238L170.667 182.289V182.289C170.299 182.306 169.925 182.114 169.663 181.873C169.61 181.824 169.56 181.776 169.507 181.729C169.268 181.509 169.165 181.181 169.15 180.867C169.143 180.7 169.18 180.543 169.255 180.398C169.304 180.245 169.388 180.116 169.507 180.004C169.56 179.958 169.61 179.909 169.663 179.861C169.949 179.596 170.282 179.463 170.667 179.444ZM233.367 168.076C234.755 166.384 233.947 165.18 231.86 165.599C228.267 166.085 224.885 168.357 221.72 169.986C218.265 171.811 214.705 173.317 211.181 175.032C212.635 175.925 213.716 177.323 214.543 178.918C216.191 177.665 218.299 177.066 220.357 176.988C224.09 173.412 230.272 172.593 233.367 168.076ZM69.3559 173.692C69.7323 173.693 70.085 173.782 70.4155 173.959L70.4859 173.998L70.9381 174.349C71.1578 174.552 71.312 174.792 71.4028 175.069C71.5423 175.336 71.6057 175.625 71.5951 175.934C71.6057 176.242 71.5423 176.53 71.4028 176.796C71.312 177.075 71.1578 177.314 70.9381 177.517C70.8134 177.68 70.6528 177.806 70.4606 177.9C70.2808 177.973 70.1035 178.049 69.924 178.125C69.7233 178.189 69.4909 178.197 69.2733 178.208C68.8782 178.206 68.5108 178.106 68.1681 177.908L67.7247 177.566V177.566C67.5113 177.367 67.359 177.132 67.2702 176.859C67.1446 176.619 67.0808 176.363 67.0808 176.089L67.0824 176.014C67.0824 175.997 67.0824 175.978 67.0847 175.959C67.1099 175.76 67.1376 175.562 67.1646 175.363C67.2345 175.071 67.3676 174.816 67.5662 174.6C67.6169 174.499 67.6845 174.416 67.7714 174.349C68.05 174.07 68.3794 173.879 68.7599 173.771C68.9585 173.746 69.1571 173.719 69.3559 173.692ZM167.383 168.092L167.447 168.093C167.732 168.093 167.996 168.165 168.242 168.306C168.349 168.389 168.455 168.471 168.56 168.553C168.757 168.75 168.892 168.982 168.966 169.249L169.023 169.667V169.667C169.029 169.885 168.985 170.086 168.886 170.274C168.823 170.468 168.715 170.637 168.56 170.781C168.419 170.935 168.25 171.043 168.054 171.107C167.867 171.206 167.665 171.25 167.447 171.242C167.164 171.242 166.898 171.17 166.653 171.026C166.547 170.946 166.439 170.863 166.334 170.781C166.155 170.601 166.027 170.391 165.95 170.152L165.93 170.086L165.873 169.667C165.865 169.45 165.909 169.249 166.008 169.061C166.072 168.864 166.182 168.695 166.334 168.553C166.477 168.399 166.647 168.291 166.841 168.228C167.01 168.139 167.191 168.094 167.383 168.092V168.092ZM81.7044 165.803L81.7781 165.804C82.1985 165.806 82.5893 165.911 82.9527 166.123C83.1091 166.243 83.2656 166.364 83.4217 166.487C83.7112 166.776 83.9098 167.118 84.0219 167.514L84.1041 168.131V168.131C84.1168 168.452 84.0492 168.75 83.9034 169.027C83.8107 169.317 83.6499 169.566 83.4217 169.777C83.2128 170.003 82.9633 170.164 82.6738 170.257C82.3971 170.403 82.0992 170.471 81.7781 170.458C81.3577 170.458 80.9668 170.352 80.6034 170.141C80.4473 170.02 80.291 169.898 80.1325 169.777C79.845 169.485 79.6464 169.143 79.5344 168.75L79.452 168.131V168.131C79.4393 167.812 79.507 167.512 79.6527 167.235C79.7457 166.947 79.9062 166.696 80.1325 166.487C80.3438 166.258 80.5929 166.097 80.8823 166.004C81.1378 165.87 81.4112 165.804 81.7044 165.803ZM159.932 159.992C160.125 159.941 160.317 159.941 160.509 159.992C160.796 160.004 161.065 160.091 161.314 160.249L161.751 160.588V160.588C161.757 160.594 161.764 160.6 161.77 160.609C162.034 160.875 162.218 161.19 162.319 161.551L162.396 162.12V162.12C162.406 162.414 162.345 162.688 162.212 162.942C162.132 163.186 162.001 163.398 161.821 163.582L161.751 163.65C161.555 163.861 161.324 164.011 161.056 164.098C160.887 164.198 160.703 164.246 160.509 164.246C160.222 164.311 159.932 164.299 159.645 164.208C159.474 164.134 159.3 164.062 159.127 163.99L159.072 163.959C158.419 163.602 158.016 162.853 158.016 162.12C158.016 161.386 158.419 160.636 159.072 160.279C159.091 160.271 159.108 160.26 159.127 160.249C159.377 160.091 159.645 160.004 159.932 159.992Z" clip-rule="evenodd"/><path fill="#fff" fill-rule="evenodd" d="M157.905 48.8272C146.609 45.5105 107.76 48.9103 106.8 49.6286C105.228 50.9354 97.581 55.0818 96.3911 56.0284C85.6323 67.4359 95.8889 84.3761 95.0996 98.1376C95.1499 103.019 93.0706 107.476 92.1148 112.172C91.7113 114.633 91.8002 117.178 93.0824 119.388C95.3366 123.336 100.097 124.136 103.969 125.728C105.895 126.558 107.695 127.734 109.345 129.022C120.455 138.853 126.638 145.585 142.848 143.368C142.931 144.142 143.617 144.902 144.467 144.556C146.457 143.746 148.433 142.886 150.44 142.117C150.869 143.152 152.102 143.447 152.937 142.533L152.942 142.54C156.658 139.524 159.021 135.401 160.776 130.987C162.004 128.441 163.01 125.783 163.779 123.047C163.866 122.738 163.854 122.461 163.776 122.223C167.322 109.998 168.634 97.1129 167.701 84.4199C167.512 81.801 167.017 79.1475 167.139 76.5177C167.249 74.1417 168.272 71.8942 169.052 69.6814C173.074 60.2744 166.926 51.7891 157.905 48.8272Z" clip-rule="evenodd"/><path fill="#000" fill-rule="evenodd" d="M159.326 33.5531L159.446 33.4597C160.749 32.4375 161.977 31.0979 163.813 31.6002C165.32 32.0124 166.08 33.2593 166.403 34.7663C166.862 34.2865 167.308 33.7898 167.743 33.2762C168.926 31.8813 171.569 32.6041 171.922 34.3816C172.636 37.9619 172.672 41.6055 171.977 45.1922C171.871 45.7353 171.746 46.2764 171.601 46.8111C172.393 45.8241 173.13 44.7948 173.791 43.7106C174.508 42.5334 176.126 43.1167 176.238 44.3742C176.267 44.6997 176.284 45.0294 176.289 45.3612C176.794 45.5388 177.142 46.0587 177.009 46.697C176.274 50.2096 175.342 53.6736 174.222 57.0785C176.022 56.1232 178.04 55.5568 179.939 56.231C182.956 57.3046 183.675 60.5975 183.085 63.4317C182.344 66.9951 180.011 69.9772 177.003 71.9322C176.646 72.469 176.293 73.0101 175.957 73.5617C175.951 75.1194 175.667 76.6728 175.097 78.1163C174.455 79.7374 173.322 81.1386 171.928 82.2038C171.438 83.2714 170.14 84.0512 169.001 83.8351L168.941 83.8228L168.939 83.8249C169.23 84.8689 169.482 85.9236 169.699 86.9803C171.384 95.1676 170.531 103.69 168.994 111.831L168.945 112.091C167.565 119.336 165.96 126.839 162.839 133.566C160.017 139.649 155.232 144.998 148.393 146.325C140.348 147.887 131.443 145.412 124.524 141.285C122.016 139.788 124.315 135.845 126.812 137.366C130.416 139.56 134.331 141.092 138.472 141.9C142.342 142.652 146.671 142.908 150.383 141.348C155.553 139.175 158.625 133.868 160.568 128.872C161.713 125.924 162.571 122.88 163.37 119.824C164.398 115.895 165.358 111.941 166.078 107.942C167.42 100.484 167.855 92.7375 166.435 85.2578C165.983 82.8717 165.343 80.4707 164.508 78.1628C164.377 78.0001 164.253 77.8183 164.141 77.6196C163.268 76.0895 162.666 74.35 162.017 72.6952C161.449 71.7082 160.828 70.7592 160.169 69.8314C159.183 69.0737 158.245 68.2636 157.385 67.3797C159.882 65.762 162.086 63.7369 163.671 61.1571C163.933 60.7317 163.767 60.3251 163.457 60.0957C162.191 61.6802 160.552 63.0221 158.828 64.2109C157.945 64.9676 156.994 65.6473 155.997 66.2615C155.285 66.4024 154.565 66.4992 153.867 66.5787C151.879 66.8048 149.88 66.7203 147.903 66.4561C143.627 65.8855 125.543 60.9031 117.92 62.8399C116.332 63.2434 115.583 64.6681 114.742 66.0059C114.013 67.1696 113.085 68.1329 111.972 68.926L111.848 69.0135C109.672 70.5204 105.297 75.2876 103.457 79.5425C101.083 85.0359 98.802 101.498 99.852 101.64C102.598 102.012 104.12 103.457 106.357 105.009C106.505 105.11 106.418 105.385 106.228 105.315C104.751 104.782 103.154 104.467 101.605 104.21C100.205 103.975 98.7301 103.933 97.378 104.434C95.3034 105.203 94.2914 106.942 93.8752 108.904C93.7125 109.671 93.6407 110.472 93.6322 111.264L93.6311 111.494C93.6322 113.993 94.0979 116.763 95.9118 118.607C96.683 119.391 97.7287 119.919 98.8231 120.065C100.021 120.226 100.76 119.685 101.861 119.404C103.129 119.08 104.117 119.915 103.999 121.004C104.267 121.238 104.527 121.485 104.785 121.737L104.785 121.738L104.787 121.739C104.956 121.815 105.117 121.917 105.263 122.039C105.501 122.242 105.702 122.464 105.863 122.703C106.22 122.773 106.562 122.971 106.843 123.335C107.422 124.081 107.956 124.835 108.453 125.605C109.342 126.549 110.227 127.496 111.1 128.458C112.15 129.614 113.173 130.796 114.202 131.971L114.717 132.558C115.272 133.19 115.826 133.822 116.379 134.456L116.545 134.642C117.101 135.266 117.528 135.726 117.588 136.624C117.63 137.29 116.914 137.742 116.32 137.59C115.405 137.354 114.98 136.635 114.432 135.922L113.603 134.859V134.859L112.824 133.858C112.437 133.359 112.046 132.862 111.658 132.366C111.541 133.281 110.574 134.018 109.691 134.059L109.485 134.067C107.411 134.136 104.891 133.843 103.313 132.38C102.603 133.097 101.72 133.661 100.632 133.999C98.1597 134.769 95.633 133.406 94.6337 131.332C92.6963 132.163 90.5076 132.33 88.4139 131.719C87.2063 131.365 86.7887 129.859 87.6302 128.938L87.6682 128.897L87.6779 128.886C87.5042 128.661 87.4087 128.384 87.3933 128.083C87.3745 127.717 87.6409 127.33 87.586 126.988C87.3764 125.687 85.2544 126.651 84.5801 126.933C84.4512 126.987 84.3303 127.012 84.2175 127.016C83.1749 127.32 82.041 125.95 82.5872 124.818C83.8104 122.291 85.0041 119.744 86.2421 117.22C86.0858 117.273 85.9252 117.322 85.7668 117.362C83.5421 117.933 80.8442 116.838 81.3576 114.156C81.4759 113.526 82.0463 113.095 82.6125 112.9C83.7153 112.52 84.5435 112.795 85.3928 112.44C86.3499 112.042 87.3491 111.313 88.19 110.626C89.0879 109.895 89.8632 109.073 90.5499 108.181C90.8245 106.885 91.2999 105.647 92.0604 104.582C92.1069 104.518 92.1534 104.455 92.202 104.393C87.3245 103.23 87.9631 98.4314 85.8117 94.1787L85.6299 93.8262C84.1687 90.9815 82.8939 87.7743 83.6308 84.535C83.7618 83.9623 83.952 83.4149 84.197 82.9034C83.8062 82.952 83.4132 82.9964 83.0224 83.0408C82.1245 83.1422 81.2118 81.984 81.5689 81.1323C81.7569 80.6863 81.9639 80.2552 82.1879 79.8367C82.809 78.6827 83.5717 77.6344 84.4696 76.6876C82.9611 76.6474 81.4506 76.6474 79.959 76.4741C78.5499 76.3114 77.0689 75.5399 77.1123 73.9147C77.1559 72.365 78.515 71.192 79.7752 70.436C81.0156 68.7856 82.5889 67.414 84.3684 66.3946C84.0163 66.3154 83.6597 66.2568 83.2971 66.2207L83.1153 66.2046C82.0991 66.1243 81.1865 65.8453 80.2653 65.4205C79.4414 65.0401 79.4541 63.8861 79.9928 63.3049C81.7345 61.4213 84.3441 62.0347 86.3746 63.114C86.2332 62.9346 86.0783 62.7617 85.9096 62.5963L85.8067 62.4979C84.8091 61.5686 86.3063 60.0773 87.3006 61.0035C87.6147 61.2962 87.8961 61.6143 88.1471 61.9514L88.171 61.9015V61.9015C89.4846 59.236 91.4059 56.8502 93.6789 54.9384L94.2132 54.4941C98.3121 51.0688 99.5769 49.4453 105.028 49.9497C104.796 48.9591 104.818 47.8447 104.871 46.9284L104.878 46.8048C105.087 43.3598 106.357 39.2363 109.716 37.6892C110.589 37.2898 111.577 37.9428 111.345 38.9425C111.182 39.6506 110.984 40.3396 110.736 41.0095C111.47 40.2381 112.255 39.5174 113.088 38.8538C116.481 36.1485 121.015 33.8215 125.475 34.5824C127.925 35.003 129.848 36.5416 131.899 37.8266C133.961 39.1201 136.264 39.8873 138.679 40.1641C142.053 40.553 145.439 40.162 148.775 39.5449C151.067 38.5452 153.292 37.3743 155.464 36.1126C156.799 35.3369 158.098 34.4894 159.326 33.5531ZM99.4239 108.377C100.138 108.194 100.939 108.196 101.655 108.375C103.503 108.84 105.223 110.387 105.331 112.338C105.379 113.219 104.67 114.063 103.846 114.289C102.912 114.547 102.109 114.09 101.564 113.359C100.979 112.577 100.833 111.729 100.117 111.019L99.9517 110.858C99.3429 110.276 98.4223 109.523 97.5774 109.658C97.4527 109.677 97.3598 109.508 97.4865 109.44C98.1753 109.064 98.6274 108.58 99.4239 108.377ZM109.026 99.1901C109.352 98.9238 109.783 99.2362 109.629 99.6191L109.617 99.6466C109.231 100.462 109.685 101.42 110.154 102.103C110.557 102.692 109.795 103.252 109.258 102.999C107.75 102.282 107.828 100.162 109.026 99.1901ZM114.54 74.6797C114.512 74.481 114.777 74.3986 114.844 74.5951C115.97 77.8647 116.293 80.7602 116.11 84.2179L116.092 84.5247C115.893 87.8552 115.31 91.3802 113.296 94.1154C112.829 94.7474 111.874 94.3754 112.028 93.5807C112.647 90.3999 113.836 87.3797 114.299 84.1608C114.783 80.7961 115 78.0465 114.54 74.6797ZM104.022 86.564C104.187 85.6912 105.529 84.7929 106.207 85.67C106.435 85.968 106.167 86.3337 105.892 86.4436C105.634 86.545 105.404 86.4055 105.15 86.4562C104.945 86.4977 104.795 86.6256 104.696 86.8006L104.675 86.8388C104.476 87.2192 103.952 86.936 104.022 86.564ZM103.473 79.6106C103.955 78.7187 105.064 78.1502 106.012 78.706C106.325 78.8899 106.202 79.4246 105.822 79.4077L105.597 79.3986C104.921 79.3739 104.244 79.3876 103.676 79.8156C103.549 79.9107 103.41 79.7311 103.473 79.6106ZM105.166 55.2529C102.464 54.0376 99.7773 55.1347 97.571 56.8458C97.3885 56.9874 97.2999 57.1527 97.2805 57.3188C98.7535 56.745 100.322 56.3688 101.821 56.0583C103.047 55.8043 104.284 55.6329 105.523 55.5653C105.454 55.4408 105.34 55.3309 105.166 55.2529Z" clip-rule="evenodd"/><path fill="#000" fill-rule="evenodd" d="M143.152 128.274C141.732 127.695 140.465 126.728 139.538 125.493C139.216 125.064 139.133 124.61 139.2 124.196C139.276 123.729 139.552 123.307 139.928 123.023C140.305 122.739 140.777 122.599 141.233 122.67C141.63 122.732 142.024 122.949 142.337 123.4L142.402 123.49C142.953 124.235 143.67 124.847 144.488 125.241C145.276 125.621 146.158 125.798 147.07 125.695C148.808 125.499 150.005 124.559 151.278 123.282C151.436 123.121 151.594 122.955 151.752 122.786C151.852 122.633 151.991 122.535 152.146 122.483C152.317 122.426 152.511 122.429 152.689 122.491C152.86 122.551 153.013 122.664 153.116 122.815C153.213 122.958 153.269 123.135 153.251 123.339C153.134 124.662 152.443 125.842 151.461 126.769C150.37 127.799 148.924 128.511 147.563 128.761C146.064 129.036 144.536 128.839 143.152 128.274V128.274ZM148.271 107.866C149.866 108.837 152.297 111.099 150.581 113.504C148.56 115.624 145.652 113.193 144.219 112.093C142.89 111.241 141.396 113.433 142.629 114.428C152.987 122.099 157.19 108.12 149.078 106.726C148.184 106.572 147.853 107.566 148.271 107.866ZM129.711 98.9431C129.887 96.7543 133.219 96.2573 133.551 98.4232C133.847 100.363 133.498 102.146 132.624 103.893C131.79 105.561 129.692 104.783 129.533 103.263C129.32 101.226 129.601 100.305 129.711 98.9431ZM155.076 97.9741C155.541 97.3654 156.212 96.9499 157.015 97.1847C159.526 97.9187 158.786 101.485 157.904 103.221C157.425 104.163 155.876 104.402 155.176 103.572C154.036 102.219 153.489 99.5159 154.94 98.1827C154.979 98.1138 155.023 98.0443 155.076 97.9741ZM132.589 89.3656L132.986 89.2962C134.213 89.0839 135.738 88.8799 136.606 89.8667C137.067 90.39 137.225 91.3627 136.606 91.8636C135.518 92.7449 134.314 92.4033 133.01 92.4779C131.935 92.5397 130.902 92.7176 129.867 93.0137C127.595 93.6632 125.744 94.8489 123.804 96.1508C123.55 96.3216 123.29 95.9959 123.411 95.7577C124.531 93.5632 126.701 91.7606 128.875 90.6618C130.036 90.0753 131.305 89.5888 132.589 89.3656ZM152.787 88.3826L153.091 88.4447C156.395 89.1356 160.687 90.5155 162.251 93.7617C162.311 94.2208 162.248 94.3192 162.197 94.3834L162.18 94.4048C162.137 94.4597 162.104 94.5354 161.905 94.5978C161.85 94.5847 161.794 94.5708 161.737 94.556C161.02 94.368 160.453 94.109 159.904 93.8402L159.308 93.5467C158.617 93.2078 157.92 92.8812 157.181 92.6401C155.605 92.1257 153.983 91.7633 152.337 91.5698C151.98 91.5279 151.636 91.4074 151.365 91.2009C151.108 91.0049 150.911 90.7334 150.821 90.3727C150.705 89.9058 150.739 89.5523 150.989 89.1311C151.177 88.8148 151.447 88.5956 151.756 88.4697C152.071 88.3413 152.43 88.3111 152.787 88.3826Z" clip-rule="evenodd"/></svg>