<svg xmlns="http://www.w3.org/2000/svg" width="240" height="324" fill="none" viewBox="0 0 240 324"><path fill="#fff" fill-rule="evenodd" d="M140.038 286.761C122.893 286.809 112.625 286.608 93.2319 286.328C70.7866 285.734 64.7376 286.802 52.1633 284.332C50.2408 283.924 48.7782 283.305 47.2947 282.442C46.7629 283.043 45.8614 283.937 45.0054 283.345C43.4285 282.303 44.1514 278.661 43.7604 276.604C43.1131 258.495 42.0776 239.845 45.6172 221.955C43.4714 221.257 30.8976 216.083 30.2109 214.349C41.5816 184.606 66.5251 149.8 99.3432 151.11C100.003 151.924 100.59 153.129 101.323 153.958C105.785 152.287 111.978 150.612 112.284 144.176C113.057 139.881 113.613 135.872 113.986 131.924C114.053 131.473 114.594 131.318 114.927 131.125C115.068 130.105 115.393 129.062 116.097 128.362C121.848 127.845 134.978 130.218 138.423 131.195C143.123 132 142.634 137.046 143.51 140.872C144.898 145.601 145.864 150.509 147.927 155.129C148.394 155.193 149.701 155.421 150.183 155.505C150.208 154.981 149.962 153.428 150.442 153.111C151.331 152.217 151.537 153.917 151.734 154.472C171.156 150.803 183.857 167.29 188.113 185.707C191.195 194.969 195.28 204.343 200.612 214.395C203.955 220.637 194.349 221.797 190.322 224.288C194.478 240.461 194.978 256.933 195.66 273.234C195.84 275.742 196.085 279.151 195.197 280.399C194.775 280.727 194.482 280.718 194.055 280.742C193.231 281.631 191.817 281.572 190.627 281.826C186.865 282.511 183.01 282.968 179.387 283.037C169.22 289.332 153.546 285.812 140.038 286.761" clip-rule="evenodd"/><path fill="#000" fill-rule="evenodd" d="M112.571 131.912C113.105 129.238 117.518 129.857 117.318 132.555C115.09 142.594 116.446 154.815 102.366 153.827C111.304 169.555 138.905 179.12 147.826 158.471C143.43 157.946 142.56 147.55 142.029 143.913L142.008 143.588C141.89 141.717 141.929 139.983 143.054 138.383C144.175 139.223 144.626 140.745 145.006 142.132L145.284 143.243C146.214 146.947 147.187 150.633 148.663 154.167L148.715 154.176V154.176C148.641 151.779 151.718 150.683 152.48 153.251C173.294 150.383 184.68 167.566 189.172 185.536C192.448 195.373 196.72 204.837 201.572 213.985C205.233 221.132 196.341 222.768 191.638 225.146C195.255 239.645 195.965 254.666 196.636 269.537C196.413 272.711 197.848 279.221 195.932 281.497C193.095 283.717 191.567 279.911 192.004 277.471C192.411 260.215 190.615 243.037 190.099 225.809C186.548 227.31 182.953 228.693 179.319 229.977C179.504 246.143 181.425 262.31 182.111 278.393C183.01 279.102 183.506 280.331 182.739 281.402C178.627 287.139 171.192 287.996 164.651 288.078C149.084 288.273 133.501 288.213 117.933 288.166C102.641 287.82 87.2162 288.8 72.0049 287.046C69.0239 289.286 68.4142 284.458 68.8135 282.398L68.9651 278.273C69.0672 275.523 69.1752 272.773 69.3142 270.024L69.6608 263.323C70.2411 252.154 70.8562 240.992 71.8319 229.845C62.9958 228.637 54.2867 226.492 45.8553 223.597C46.5493 242.947 45.1255 262.505 47.4995 281.756C49.0661 283.883 45.9243 285.88 44.0903 284.548C41.8158 282.813 42.7912 279.418 42.337 276.921L42.2787 275.306C41.6421 257.892 40.7724 240.111 44.017 222.936L42.6214 222.394C38.3669 220.733 27.4259 216.289 28.8607 214.097C40.2829 184.156 65.8338 148.345 99.674 150.047C100.531 150.642 100.969 151.802 101.605 152.633L102.612 152.267C106.511 150.839 110.745 149.029 110.86 144.228C111.599 140.137 112.184 136.046 112.571 131.912ZM168.339 206.541C173.186 199.758 139.566 210.478 137.175 211.186L136.275 211.514C121.549 216.869 105.675 222.047 93.933 232.722C93.6862 232.992 93.9934 233.366 94.3126 233.214L94.3535 233.19C94.8207 232.93 96.8432 232.208 95.4103 232.481C112.376 221.778 132.087 215.898 151.347 210.756C154.146 210.079 156.958 209.457 159.781 208.89C162.629 208.198 165.842 208.205 168.339 206.541ZM115.212 204.333C115.627 202.643 118.413 187.104 113.786 191.367C112.552 193.603 112.078 196.194 111.856 198.711C111.259 201.646 112.766 204.81 111.301 207.516C109.99 211.05 105.17 215.179 104.848 208.612C112.733 208.343 110.366 198.348 104.997 201.438C102.058 203.955 101.549 208.694 103.021 212.167C100.644 209.579 96.7908 209.57 94.0401 207.617C89.0725 202.246 97.4161 196.656 101.959 194.721C102.215 194.439 105.94 193.141 105.151 192.984C101.584 193.017 98.0098 193.776 94.9318 195.652C88.5613 198.762 86.393 208.388 93.6805 211.761C95.2563 212.521 96.9809 212.929 98.5411 213.714C102.473 215.752 101.202 218.315 97.1436 218.39C95.4742 218.755 89.9649 217.226 90.5818 220.153C91.5784 221.983 93.7485 222.255 95.6497 222.307C100.731 222.655 107.05 219.784 104.178 213.804C107.644 216.758 111.973 212.628 113.459 209.418C115.269 212.97 119.82 211.9 122.388 209.799C126.312 212.89 131.236 209.454 132.984 205.616C133.02 206.415 133.055 207.213 133.094 208.012C133.173 209.648 135.708 210.173 136.083 208.416C136.653 205.745 137.439 203.103 138.52 200.592C141.007 193.991 142.528 196.967 142.614 202.14C142.921 204.082 143.893 205.823 146.039 205.953C146.637 205.99 147.417 205.458 147.51 204.833L147.634 204.005C147.895 202.272 148.198 200.487 148.852 198.859C149.483 204.25 156.54 204.224 158.507 199.754C162.59 202.205 166.873 198.781 168.776 195.24L168.833 195.132C169.498 193.921 167.808 192.457 166.842 193.596L166.507 193.945C164.685 195.832 161.786 198.567 159.39 196.237C159.47 195.187 159.438 194.113 159.373 193.08C159.295 191.847 157.595 190.751 156.628 191.853C155.265 190.695 153.572 190.861 152.146 191.669C148.453 192.713 146.127 196.31 145.326 199.884C145.241 197.028 144.307 193.929 141.17 193.661C137.957 193.634 136.727 197.227 135.631 199.646C135.568 198.562 135.506 197.479 135.451 196.396C135.357 194.532 132.772 194.552 132.561 196.341L132.555 196.396C132.148 200.263 130.006 209.527 124.604 207.714C126.882 205.204 131.003 197.553 127.085 195.17C121.055 193.652 117.962 203.167 120.534 207.595L120.4 207.689C118.931 208.703 116.504 209.831 115.684 207.559L115.591 207.349C115.169 206.388 114.798 205.348 115.212 204.333ZM106.586 203.261C107.728 202.594 108.134 204.802 107.843 205.543C107.376 206.732 106.103 207.394 104.833 207.847L104.838 207.713C104.894 206.355 105.346 203.986 106.586 203.261ZM125.805 197.75C125.83 197.909 125.788 198.103 125.783 198.251C125.588 200.853 124.431 203.352 122.821 205.383C121.894 202.624 123.089 198.978 125.805 197.75ZM153.253 194.495C153.993 194.3 154.777 194.355 155.54 194.561C155.484 195.429 155.672 196.296 156.05 197.092C154.081 203.007 149.453 198.454 153.253 194.495Z" clip-rule="evenodd"/><path fill="#fff" fill-rule="evenodd" d="M151.143 69.0517C137.248 57.7538 114.981 54.0854 100.107 65.4837C88.5501 76.1808 83.7674 106.578 85.8127 121.853C86.3814 131.65 93.8635 142.755 104.847 139.656C106.712 139.473 108.523 138.757 110.405 138.608C112.656 138.348 114.925 138.344 117.172 138.661C122.068 139.354 126.409 141.955 131.161 143.171C139.979 145.427 149.818 143.909 157.409 138.828C182.492 122.33 171.13 85.0192 151.143 69.0517V69.0517Z" clip-rule="evenodd"/><path fill="#000" fill-rule="evenodd" d="M149.292 143.442C149.55 143.353 149.808 143.26 150.063 143.165C150.08 143.225 150.108 143.281 150.139 143.337C150.175 143.425 150.211 143.512 150.251 143.598C149.93 143.601 149.609 143.543 149.292 143.442M148.777 33.9583C148.662 33.7028 148.531 33.4577 148.383 33.2207C148.743 33.3372 149.102 33.4978 149.427 33.7049C149.208 33.7789 148.992 33.8635 148.777 33.9583M93.8911 67.3856C93.8764 67.3831 93.8618 67.381 93.8472 67.3785C94.0357 66.8765 94.3714 66.4027 94.7421 66.0605C94.8087 65.999 94.8807 65.9421 94.9504 65.8834C94.5568 66.3524 94.1998 66.8526 93.8911 67.3856M194.317 119.874C194.131 118.112 193.895 116.356 193.588 114.61C193.295 112.938 193.048 111.15 192.196 109.666C191.351 108.189 190.504 106.754 189.498 105.454C189.642 104.79 189.832 104.167 189.997 103.664C190.948 100.768 191.884 97.091 189.908 94.4005C189.45 93.777 188.89 93.2994 188.25 92.8682C187.977 92.6843 187.525 92.5174 187.316 92.2637C187.168 92.0841 187.219 92.1813 187.212 92.0925C187.176 91.6149 188.296 90.6067 188.558 90.2284C189.048 89.5287 189.414 88.7405 189.693 87.9353C190.795 84.7481 190.045 81.2376 189.382 78.0439C189.032 76.3512 188.645 74.654 188.518 72.9252C188.4 71.302 188.621 69.7169 188.752 68.1022C188.879 66.5084 188.846 64.8643 188.163 63.3888C187.829 62.6703 187.324 62.0362 186.709 61.5416C186.11 61.0579 185.362 60.7768 184.777 60.2949C184.193 59.8149 184.36 59.1663 184.513 58.5026C184.721 57.6023 184.986 56.7083 185.011 55.7783C185.057 54.1573 184.396 52.5783 183.363 51.3527C182.298 50.0867 180.777 49.2305 179.133 49.0382C178.381 48.9494 177.642 49.0997 176.894 49.0468C176.155 48.9961 175.994 48.6262 175.855 47.9499C175.534 46.4007 175.664 44.8706 174.902 43.4249C174.226 42.1399 173.024 41.2689 171.695 40.7556C169.259 39.8129 166.426 40.0074 163.857 40.563C162.34 36.0995 157.605 33.1723 152.947 33.1364C152.22 31.9021 150.988 30.9806 149.584 30.4393C147.26 29.5411 144.798 30.0655 142.377 30.0655H142.367C142.124 30.0505 141.881 30.0443 141.638 30.0464C141.409 30.0335 141.181 30.0145 140.953 29.9894C138.198 29.6637 135.473 28.5351 132.743 29.6406C131.526 30.1331 130.559 30.8918 129.946 31.8598C129.023 32.1111 128.112 32.3988 127.219 32.7327C123.346 32.8339 119.509 34.9115 117.551 38.2785C114.794 37.9657 111.803 38.4962 109.979 40.7492C109.504 41.3355 109.136 42.0243 108.893 42.7556C107.034 43.3571 105.313 44.4288 104.187 46.0431C103.16 47.5162 102.963 49.4209 103.657 51.0022C101.998 52.205 100.701 53.9269 100.076 55.9601C99.6964 57.1954 99.64 58.4718 99.8842 59.6877C98.185 60.0647 96.5597 60.7637 95.1197 61.8126C93.6106 62.9114 91.7259 64.6603 91.6266 66.6732C91.6192 66.821 91.6249 66.9687 91.6367 67.116C88.3146 66.8825 84.9271 67.4455 82.6815 70.11C80.9954 72.1092 80.2625 74.6836 80.7125 77.0275C76.7597 77.8306 73.0222 79.8976 70.4151 82.9538C68.5203 85.175 66.8365 87.9987 66.9377 91.0229C66.9694 91.934 67.1829 92.8513 67.5527 93.6988V93.7007C67.3942 93.9989 67.2313 94.3307 67.075 94.6837C64.6264 96.3975 62.8475 99.084 61.8461 102.045C61.0372 104.444 60.528 107.559 61.3919 110C61.5231 110.372 61.69 110.723 61.8844 111.048C61.7215 111.222 61.5675 111.395 61.4175 111.571C59.7672 113.5 58.0961 115.931 58.2104 118.587C58.2569 119.657 58.6539 120.733 59.3027 121.616C57.0208 123.93 55.183 126.851 55.3644 130.112C55.5208 132.951 57.078 135.834 59.518 137.197C59.1104 139.384 59.6555 141.692 61.3581 143.4C62.2076 144.254 63.2088 144.816 64.2696 145.116C64.5062 147.692 66.7919 149.766 69.2194 150.362C69.6717 150.474 70.1238 150.541 70.5736 150.573C72.7581 151.645 75.363 151.522 77.5919 150.539C78.2489 151.374 79.1046 152.055 80.1018 152.543C80.5053 152.742 80.9322 152.906 81.3778 153.039C84.5257 153.971 87.7541 152.708 90.5067 151.233C90.5954 151.186 90.7581 151.127 90.9018 151.061C91.282 151.486 91.975 151.907 92.3363 152.114C93.5618 152.818 95.0597 153.145 96.4667 153.052C98.1167 152.942 99.5722 152.397 100.92 151.621C101.117 151.655 101.315 151.674 101.514 151.685C102.782 151.752 103.912 151.351 104.928 150.717C105.6 150.806 106.288 150.797 106.986 150.675C108.522 151.065 110.017 150.444 111.219 149.457C111.752 149.02 112.202 148.506 112.684 148.016C113.184 147.506 113.565 147.388 114.15 147.046C115.534 146.236 115.7 144.184 115.1 142.7C115.214 142.44 115.28 142.151 115.28 141.83C115.276 139.027 113.985 136.457 112.401 134.215C111.693 133.215 110.924 132.236 110.081 131.349C109.402 130.636 108.45 129.48 107.446 129.191C107.385 129.146 107.321 129.102 107.258 129.06C107.453 128.379 107.567 127.686 107.518 126.978C107.467 126.251 107.233 125.562 106.857 124.974C108.118 122.529 108.651 119.847 108.397 117.049C109.424 115.592 110.201 113.984 110.602 112.222C110.85 111.131 110.991 109.983 110.972 108.865C110.964 108.328 110.767 107.65 110.763 107.094C110.793 107.27 111.021 106.614 111.11 106.451C112.128 104.56 113.436 103.085 113.653 100.855C113.78 99.5509 113.471 98.1097 112.69 97.0403C113.19 95.0662 113.184 92.9462 112.396 91.0633C112.185 90.5603 111.942 90.0678 111.663 89.6007C111.792 89.2076 111.91 88.8103 112.062 88.4529C112.122 88.3113 112.181 88.1678 112.24 88.024C112.812 87.5187 113.345 86.9673 113.793 86.426C114.786 85.2279 115.544 83.8541 115.639 82.2709C115.686 81.4783 115.5 80.7196 115.27 79.9674C115.168 79.6271 115.107 79.2488 114.986 78.917C114.919 78.7329 114.756 78.545 114.699 78.3717C114.686 78.3336 114.676 78.3019 114.667 78.2766C114.676 78.2512 114.682 78.1984 114.682 78.0988C114.684 77.3401 114.783 76.5982 114.788 75.8672C115.483 76.5689 116.32 77.0928 117.27 77.3995C119.186 78.0145 121.185 77.7355 122.881 76.7866C124.707 78.0377 126.758 79.1704 128.909 79.625C130.187 79.8953 131.467 79.7835 132.75 79.9505C134.024 80.1174 135.255 80.6733 136.455 81.1066C139.126 82.0724 141.79 83.0634 144.469 84.0042C146.632 84.7629 148.973 85.3653 151.238 84.9383C151.874 85.9188 152.7 86.7475 153.758 87.3562C154.517 87.7894 155.349 88.083 156.209 88.2291C156.969 88.358 157.861 88.3073 158.478 88.8293C159.08 89.3365 159.456 90.093 159.997 90.6638C160.599 91.3021 161.343 91.8558 162.122 92.2532C162.748 92.5723 163.386 92.8025 164.034 92.9527C163.977 94.3963 163.922 95.8377 163.905 97.2833C163.874 100.424 163.886 103.564 163.844 106.705C163.802 109.835 163.703 112.965 163.538 116.091C163.381 119.025 163.162 121.969 162.462 124.831C160.143 134.327 151.453 141.126 141.726 141.472C138.839 141.576 135.98 141.17 133.219 140.32C130.358 139.439 127.804 137.626 124.871 137.068C124.105 136.924 123.382 137.696 123.821 138.437C124.578 139.712 125.497 140.49 126.754 141.257C128.07 142.058 129.536 142.652 130.983 143.172C133.645 144.127 136.462 144.681 139.286 144.835C141.441 144.953 143.605 144.805 145.715 144.4C145.863 144.854 146.125 145.296 146.324 145.716C146.353 145.778 146.453 145.735 146.434 145.672C146.402 145.566 146.381 145.473 146.372 145.397C147.082 146.323 148.179 146.963 149.305 147.274C150.099 147.494 150.942 147.561 151.76 147.468C152.024 147.439 152.275 147.394 152.524 147.34C153.357 148.069 154.421 148.555 155.49 148.798C155.307 149.914 155.858 151.131 157.136 151.448C157.673 151.581 158.188 151.583 158.704 151.535C159.12 151.729 159.568 151.881 160.043 151.985C160.662 152.12 161.402 151.947 161.869 151.499C162.124 151.679 162.363 151.803 162.6 152.088C163.574 153.264 165.674 152.327 165.767 150.968C166.075 150.968 166.386 150.973 166.696 150.983C166.77 151.017 166.844 151.051 166.92 151.087C168.279 151.718 169.686 152.27 171.188 151.774C171.464 151.683 171.718 151.567 171.948 151.431C173.007 151.526 174.05 151.528 175.124 151.182C175.758 150.977 176.353 150.651 176.85 150.224C178.506 150.711 180.253 150.93 181.901 150.328C183.135 149.878 184.128 149.168 184.827 148.231C185.896 148.269 186.982 148.012 187.96 147.502C189.633 146.636 190.806 144.989 191.624 143.339C193.424 139.697 194.489 135.785 194.907 131.75C195.319 127.777 194.731 123.825 194.317 119.874" clip-rule="evenodd"/><path fill="#000" fill-rule="evenodd" d="M143.152 128.274C141.732 127.695 140.465 126.728 139.538 125.493C139.216 125.064 139.133 124.61 139.2 124.196C139.276 123.729 139.552 123.307 139.928 123.023C140.305 122.739 140.777 122.599 141.233 122.67C141.63 122.732 142.024 122.949 142.337 123.4L142.402 123.49C142.953 124.235 143.67 124.847 144.488 125.241C145.276 125.621 146.158 125.798 147.07 125.695C148.808 125.499 150.005 124.559 151.278 123.282C151.436 123.121 151.594 122.955 151.752 122.786C151.852 122.633 151.991 122.535 152.146 122.483C152.317 122.426 152.511 122.429 152.689 122.491C152.86 122.551 153.013 122.664 153.116 122.815C153.213 122.958 153.269 123.135 153.251 123.339C153.134 124.662 152.443 125.842 151.461 126.769C150.37 127.799 148.924 128.511 147.563 128.761C146.064 129.036 144.536 128.839 143.152 128.274V128.274ZM148.271 107.866C149.866 108.837 152.297 111.099 150.581 113.504C148.56 115.624 145.652 113.193 144.219 112.093C142.89 111.241 141.396 113.433 142.629 114.428C152.987 122.099 157.19 108.12 149.078 106.726C148.184 106.572 147.853 107.566 148.271 107.866ZM129.711 98.9431C129.887 96.7543 133.219 96.2573 133.551 98.4232C133.847 100.363 133.498 102.146 132.624 103.893C131.79 105.561 129.692 104.783 129.533 103.263C129.32 101.226 129.601 100.305 129.711 98.9431ZM155.076 97.9741C155.541 97.3654 156.212 96.9499 157.015 97.1847C159.526 97.9187 158.786 101.485 157.904 103.221C157.425 104.163 155.876 104.402 155.176 103.572C154.036 102.219 153.489 99.5159 154.94 98.1827C154.979 98.1138 155.023 98.0443 155.076 97.9741ZM132.589 89.3656L132.986 89.2962C134.213 89.0839 135.738 88.8799 136.606 89.8667C137.067 90.39 137.225 91.3627 136.606 91.8636C135.518 92.7449 134.314 92.4033 133.01 92.4779C131.935 92.5397 130.902 92.7176 129.867 93.0137C127.595 93.6632 125.744 94.8489 123.804 96.1508C123.55 96.3216 123.29 95.9959 123.411 95.7577C124.531 93.5632 126.701 91.7606 128.875 90.6618C130.036 90.0753 131.305 89.5888 132.589 89.3656ZM152.787 88.3826L153.091 88.4447C156.395 89.1356 160.687 90.5155 162.251 93.7617C162.311 94.2208 162.248 94.3192 162.197 94.3834L162.18 94.4048C162.137 94.4597 162.104 94.5354 161.905 94.5978C161.85 94.5847 161.794 94.5708 161.737 94.556C161.02 94.368 160.453 94.109 159.904 93.8402L159.308 93.5467C158.617 93.2078 157.92 92.8812 157.181 92.6401C155.605 92.1257 153.983 91.7633 152.337 91.5698C151.98 91.5279 151.636 91.4074 151.365 91.2009C151.108 91.0049 150.911 90.7334 150.821 90.3727C150.705 89.9058 150.739 89.5523 150.989 89.1311C151.177 88.8148 151.447 88.5956 151.756 88.4697C152.071 88.3413 152.43 88.3111 152.787 88.3826Z" clip-rule="evenodd"/></svg>