<svg xmlns="http://www.w3.org/2000/svg" width="240" height="324" fill="none" viewBox="0 0 240 324"><path fill="#fff" fill-rule="evenodd" d="M49.162 285.363C50.276 287.057 52.4672 286.796 53.408 285.485C64.1205 287.982 75.1029 286.998 85.9643 286.386C116.571 285.14 147.351 289.045 177.834 284.96C181.068 284.313 184.831 284.622 187.477 282.378C191.709 277.417 190.798 269.885 190.124 263.842C184.72 229.78 177.038 195.406 173.206 161.125C172.992 157.859 174.337 153.802 175.543 150.733C175.841 150.161 177.723 149.602 178.7 148.943C181.698 146.79 181.212 142.932 178.613 140.668C170.198 134.735 158.484 136.808 149.557 138.997C147.846 132.57 145.923 128.342 142.666 127.923C136.467 127.127 121.428 124.691 116.795 127.923C114.579 129.47 113.157 134.918 111.562 137.572C99.9279 137.365 76.316 121.794 71.4617 139.328C67.5177 139.6 63.6114 143.045 64.3658 147.179C59.2508 151.7 63.2852 158.48 63.2144 164.108C62.542 176.049 56.0831 186.728 53.396 198.263C47.2538 220.636 40.3018 261.331 47.9199 283.169C47.756 283.083 47.3979 283.212 47.6298 283.394C48.4924 283.637 48.6046 284.724 49.162 285.363Z" clip-rule="evenodd"/><path fill="#000" fill-rule="evenodd" d="M182.916 279.674C181.487 268.199 180.493 254.347 180.482 242.776C180.481 241.686 182.171 241.688 182.172 242.776C182.184 254.347 183.177 268.199 184.606 279.674C184.74 280.753 183.049 280.74 182.916 279.674M172.332 208.524C170.124 209.875 167.225 208.938 165.04 208.043C164.045 207.636 164.483 206.001 165.489 206.413C167.152 207.094 169.582 208.096 171.337 207.147C173.089 206.199 173.168 203.592 173.181 201.872C173.189 200.783 174.879 200.784 174.871 201.872C174.853 204.212 174.54 207.172 172.332 208.524M168.245 261.036C166.018 259.893 164.117 258.332 162.588 256.35C161.923 255.488 163.392 254.647 164.047 255.497C165.393 257.241 167.147 258.575 169.098 259.576C170.067 260.073 169.211 261.531 168.245 261.036M157.539 202.026C153.717 217.347 151.152 232.943 149.895 248.684C149.639 251.88 149.46 255.071 149.358 258.265C149.257 259.097 149.16 259.932 149.069 260.767C148.725 263.924 148.461 267.133 148.484 270.311C148.494 271.738 148.539 273.158 148.636 274.581C148.467 274.105 148.311 273.628 148.158 273.152C147.848 272.178 147.643 271.167 147.326 270.199C147.064 269.398 146.726 268.631 146.411 267.856V267.853C146.506 264.677 146.291 261.471 146.181 258.309C146.039 254.213 145.864 250.121 145.773 246.023C145.592 237.827 145.682 229.624 145.978 221.433C146.572 204.926 148.072 188.498 149.585 172.059C150.005 167.487 150.457 162.918 150.77 158.338C151.085 153.71 151.211 149.072 151.247 144.431C151.249 144.097 150.742 144.009 150.649 144.332C150.567 143.231 150.421 142.132 150.178 141.069C153.823 143.394 157.666 145.403 161.432 147.517C163.416 148.631 165.392 149.764 167.437 150.761C168.561 151.31 169.695 151.816 170.853 152.293C172.053 152.788 173.2 153.469 174.52 153.124C174.635 153.094 174.742 153.052 174.846 152.997C174.696 153.282 174.546 153.566 174.402 153.853C173.904 154.844 173.428 155.84 172.968 156.844C172.845 156.935 172.737 157.06 172.653 157.222C172.429 157.66 172.211 158.101 172 158.549C171.958 158.509 171.916 158.469 171.873 158.429C171.696 158.262 171.451 158.513 171.607 158.695C171.679 158.777 171.749 158.858 171.818 158.94C170.441 161.906 169.321 165.023 168.168 168.067C166.75 171.807 165.406 175.576 164.141 179.37C161.646 186.832 159.444 194.392 157.539 202.026M102.899 257.627C95.8549 261.401 89.2726 265.911 82.9418 270.775C82.0788 271.438 81.2379 269.968 82.0887 269.315C88.4195 264.451 95.002 259.941 102.046 256.167C103.005 255.653 103.858 257.113 102.899 257.627M79.1078 213.43C78.7417 213.403 78.3859 213.191 78.2929 212.81C77.7223 210.473 77.2755 207.927 77.8062 205.543C78.0428 204.48 79.6719 204.932 79.4359 205.992C79.0174 207.872 79.3499 209.904 79.7845 211.778C85.9279 212.047 91.989 209.842 97.8667 208.361C98.9236 208.095 99.37 209.726 98.316 209.991C92.0811 211.562 85.6319 213.913 79.1078 213.43M201.411 275.771C201.417 275.756 201.423 275.739 201.427 275.724C201.789 274.629 201.797 273.357 201.837 272.21C201.907 270.168 201.833 268.122 201.649 266.087C201.261 261.803 200.424 257.588 199.425 253.41C197.445 245.133 194.648 237.081 193.129 228.692C190.148 212.226 190.856 195.081 185.006 179.199C182.574 172.596 179.101 166.249 174.381 161.003C174.725 159.955 175.061 158.905 175.389 157.85C175.961 156.015 176.546 154.122 176.899 152.232C176.908 152.181 176.918 152.129 176.925 152.076C178.934 151.209 180.761 149.576 181.074 147.403C181.209 146.464 181.053 145.425 180.647 144.518C181.475 143.753 182.008 142.759 181.881 141.428C181.644 138.921 178.718 138.277 176.682 137.786C174.366 137.231 171.964 137.076 169.596 137.338C168.4 137.469 167.217 137.689 166.061 138.019C165.058 138.304 163.966 138.598 163.161 139.287C163.066 139.367 163.144 139.524 163.258 139.524C164.887 139.518 166.509 138.919 168.155 138.841C169.879 138.761 171.599 138.902 173.289 139.257C174.941 139.604 176.589 140.111 178.091 140.895C178.513 141.117 179.132 141.267 178.636 141.715C178.273 142.043 177.558 142.071 177.092 142.119C176.058 142.227 175.167 142.831 175.036 143.935C174.92 144.909 175.501 146.012 176.536 146.232C176.593 146.245 176.646 146.259 176.692 146.278C176.72 146.331 176.762 146.376 176.758 146.304C176.758 146.304 176.76 146.302 176.76 146.304C176.785 146.458 176.794 146.519 176.794 146.53C176.787 146.517 176.777 146.464 176.768 146.422C176.775 146.46 176.787 146.522 176.804 146.612C176.781 146.513 176.8 146.756 176.781 146.794C176.232 147.809 174.607 148.094 173.661 148.531C173.477 148.616 173.318 148.715 173.183 148.827C172.959 148.749 172.731 148.671 172.501 148.584C171.366 148.159 170.234 147.747 169.085 147.365C166.866 146.623 164.62 145.961 162.402 145.217C158.202 143.81 154.142 142.032 150.02 140.422C149.889 139.936 149.737 139.46 149.557 138.997C149.521 138.9 149.348 138.869 149.329 138.997C149.265 139.407 149.215 139.82 149.173 140.234C149.156 140.272 149.151 140.314 149.16 140.354C148.921 142.764 148.985 145.23 148.862 147.637C148.71 150.639 148.285 153.619 148.165 156.622V156.677C147.721 159.241 147.32 161.813 146.956 164.393C146.549 164.266 146.082 164.292 145.604 164.548C142.228 166.35 138.434 167.354 134.616 167.578C132.694 167.69 130.79 167.627 128.878 167.405C127.621 167.261 126.383 166.999 125.143 166.75C125.796 164.013 126.497 161.289 127.289 158.592C127.942 156.375 128.669 154.168 129.567 152.036C130.473 149.882 131.601 147.826 132.651 145.737C133.135 144.772 132.565 143.294 131.308 143.396C130.936 143.425 130.564 143.448 130.19 143.465C126.552 143.639 122.768 143.233 119.177 142.871C115.089 142.457 110.946 142.028 106.894 141.354C106.594 141.305 106.471 141.713 106.767 141.813C108.689 142.459 110.589 143.19 112.56 143.675C114.588 144.176 116.629 144.632 118.687 144.989C120.658 145.33 122.637 145.615 124.623 145.856C125.918 146.014 127.228 146.095 128.532 146.2C126.776 149.007 125.566 152.173 124.511 155.29C123.157 159.293 122.162 163.413 121.188 167.523C119.105 176.335 117.387 185.235 116.044 194.189C115.08 200.61 114.301 207.056 113.716 213.52C113.542 211.556 113.331 209.599 113.092 207.644C112.294 201.153 111.127 194.705 109.568 188.354C109.708 188.109 109.773 187.815 109.727 187.53C109.446 185.784 108.706 184.264 108.058 182.646C107.413 180.384 106.718 178.137 105.97 175.908C105.121 172.871 104.168 169.88 102.949 166.959C102.018 164.734 100.955 162.565 99.7718 160.462C98.3585 157.522 96.8056 154.646 95.1007 151.896C95.012 151.64 94.8683 151.402 94.6634 151.201C94.3528 150.71 94.038 150.226 93.7169 149.747C93.5078 149.434 92.9078 149.624 93.0662 150.021C93.1401 150.208 93.2141 150.393 93.2901 150.578C86.3458 148.84 79.5366 151.497 72.9218 153.458C71.2528 153.955 69.5669 154.403 67.8556 154.726C66.5099 154.98 64.9423 155.288 63.6007 155.009C62.7028 154.823 62.3056 154.415 62.743 153.456C63.1951 152.463 64.4289 151.809 65.5 151.37C65.9035 151.283 66.3007 151.129 66.6831 150.896C67.5747 150.355 67.9655 149.227 67.5451 148.265C67.1627 147.396 66.0472 146.648 65.0606 147.046C64.919 147.103 64.7796 147.158 64.6401 147.213C64.6254 147.191 64.6085 147.162 64.5937 147.12C64.4521 146.733 64.3909 147.196 64.4521 146.642C64.5535 145.737 65.5106 144.915 66.1655 144.397C67.7944 143.106 70.1479 142.151 72.25 142.639C72.4085 142.675 72.5669 142.719 72.7232 142.774C74.8887 143.525 75.943 140.405 74.2127 139.243C74.107 139.173 73.9739 139.084 73.8282 138.981C73.1078 138.48 72.0535 137.636 72.3409 136.876C72.6958 135.931 74.7894 135.388 75.5817 135.066C78.4465 133.904 81.5416 133.244 84.6303 133.109C87.738 132.974 90.8859 133.316 93.8838 134.155C95.3542 134.565 96.8648 135.189 98.2549 135.819C99.5035 136.383 102.22 137.129 102.394 138.71C102.432 139.059 102.928 139.177 103.036 138.797C103.887 135.762 100.583 133.802 98.4028 132.549C96.9725 131.725 95.35 131.211 93.7803 130.706C92.2761 130.22 90.7402 129.863 89.1725 129.647C85.8071 129.187 82.4014 129.246 79.0634 129.892C76.0232 130.482 72.6409 131.488 70.1838 133.445C68.6754 134.646 67.993 136.556 68.5993 138.42C68.6204 138.482 68.6416 138.545 68.6627 138.606C65.9479 139.093 63.3789 140.648 61.6613 142.817C60.25 144.598 59.5106 147.077 60.7739 149.151C60.7211 149.189 60.6683 149.229 60.6176 149.271C59.4134 150.235 58.5176 151.634 58.2514 153.164C57.7296 156.182 59.5528 158.294 62.1028 159.101C61.4711 159.718 60.8648 160.373 60.2711 161.029C58.9423 162.497 57.6725 164.097 56.5528 165.729C54.2838 169.035 52.3444 172.634 50.6479 176.261C47.1599 183.709 44.9606 191.725 43.7944 199.854C43.207 203.95 42.8141 208.067 42.6641 212.201C42.4908 216.914 42.6662 221.629 42.5754 226.344C42.4866 230.876 41.9859 235.297 40.9739 239.715C40.0042 243.939 38.7113 248.08 37.5408 252.249C36.2204 256.946 34.7669 261.621 34.0697 266.463C33.7169 268.927 33.4634 271.398 33.6599 273.89C33.8585 276.428 34.7796 278.599 35.6289 280.959C35.8444 281.562 36.5014 281.805 37.0275 281.676C37.1458 282.807 37.5725 283.91 38.2085 284.865C39.5585 286.89 41.6373 288.181 44.0183 288.65C46.7014 289.177 49.4669 289.052 52.1838 288.955C55.131 288.849 58.0803 288.754 61.0275 288.631C64.113 288.504 67.1984 288.373 70.2839 288.241C70.1819 285.077 70.0602 281.915 69.9227 278.753C69.1788 261.658 68.0073 244.553 67.9763 227.435C67.9165 227.4 67.8578 227.359 67.8016 227.304C66.4125 225.961 64.7071 225.079 63.1049 224.028C62.1981 223.433 63.0457 221.969 63.958 222.568C65.3088 223.454 66.7165 224.242 67.9824 225.235C67.9898 223.453 68.0054 221.671 68.0407 219.889C68.0623 218.801 69.7524 218.801 69.7309 219.889C69.6248 225.26 69.6603 230.632 69.7818 236.002C70.1749 253.404 71.4108 270.774 71.9737 288.169C80.2554 287.815 88.5375 287.458 96.8204 287.156C103.558 286.911 110.295 286.666 117.032 286.421C118.446 286.37 119.24 285.359 119.413 284.038C119.73 281.608 119.135 279.095 117.787 277.051C117.647 276.84 117.482 276.652 117.299 276.491C117.33 275.035 117.389 273.577 117.307 272.121C117.185 269.897 117.001 267.674 116.84 265.453C116.515 261.004 116.263 256.546 116.164 252.087C115.961 243.168 116.109 234.24 116.614 225.334C117.626 207.54 119.982 189.861 123.837 172.456C124.118 171.188 124.401 169.92 124.695 168.654C127.693 170.212 131.339 170.772 134.616 170.793C138.723 170.818 142.739 169.873 146.449 168.156C146.424 168.348 146.399 168.538 146.375 168.73C145.34 176.973 144.468 185.232 143.707 193.503C142.19 209.99 141.261 226.545 141.389 243.106C141.425 247.695 141.601 252.269 141.818 256.851C142.04 261.511 142.38 266.435 143.677 270.931C143.821 271.427 144.14 271.713 144.508 271.816C144.527 272.471 144.569 273.129 144.615 273.776C144.765 275.878 145.194 280.247 146.111 282.153C147.005 284.013 148.494 285.489 150.394 286.3C152.806 287.329 155.415 287.034 157.963 286.869C169.042 286.146 180.113 285.178 191.185 284.328C192.727 284.21 194.27 284.094 195.81 283.973C197.181 283.867 198.599 283.774 199.816 283.062C201.199 282.253 202.279 278.277 201.801 276.633C201.715 276.333 201.584 276.037 201.411 275.771" clip-rule="evenodd"/><path fill="#fff" fill-rule="evenodd" d="M169.522 68.4446C169.451 65.9172 165.777 64.8679 164.715 67.3709C164.649 67.4379 164.578 67.5024 164.51 67.5601C164.843 67.2749 164.148 67.7467 164.035 67.805C163.938 67.8549 163.839 67.8999 163.74 67.9464C163.058 61.5438 160.74 54.6415 154.75 51.4277C146.395 47.3748 136.742 46.5837 127.577 46.9864C122.934 47.262 117.572 48.0047 113.447 45.6549C112.162 44.9227 111.131 43.7703 109.679 43.3178C105.094 42.0769 103.014 46.7871 103.638 50.6605C101.683 50.6759 99.7427 51.7591 98.8987 53.5425C98.403 54.5979 98.4117 55.7369 97.9843 56.7962C96.673 59.4825 94.7967 61.4134 95.8575 64.6703C93.9918 66.7941 95.0555 70.0094 96.561 72.0428C97.3044 73.1004 98.1899 74.1157 98.7345 75.2995C99.2631 76.433 98.4651 77.7772 98.0211 78.8517C94.738 86.6397 94.9256 95.2165 96.6922 103.34C93.1471 104.879 92.0832 109.689 94.3949 112.718C95.1903 113.789 96.1606 114.186 97.2611 114.845C98.6538 115.612 97.5163 118.683 97.9623 120.166C98.5682 123.787 101.864 126.017 105.123 123.666C107.191 123.353 108.859 129.372 110.36 130.883C111.285 132.1 112.313 133.193 113.429 134.202C116.757 142.767 133.807 147.11 142.237 146.614C151.065 145.69 157.021 138.19 161.98 131.533C164.526 127.987 166.182 124.017 166.784 119.688C167.389 115.336 167.125 110.977 166.716 106.621C165.857 97.3643 164.501 84.0289 163.626 74.6726C166.789 74.412 169.618 71.718 169.522 68.4446V68.4446Z" clip-rule="evenodd"/><path fill="#4F66AF" fill-rule="evenodd" d="M100.567 62.8792C100.564 62.8923 100.569 62.9022 100.572 62.9162 100.572 62.9121 100.573 62.91 100.574 62.9052 100.571 62.8946 100.569 62.8876 100.567 62.8792M100.566 63.0141C100.555 63.0018 100.538 62.9927 100.522 62.9805 100.521 62.9809 100.521 62.9813 100.521 62.9817 100.536 62.9919 100.551 63.0035 100.566 63.0141" clip-rule="evenodd"/><path fill="#000" fill-rule="evenodd" d="M169.019 69.6403C170.058 68.7768 171.694 69.5719 171.342 70.9936C170.959 72.542 169.3 73.6 167.931 74.2362C166.521 74.8907 165.148 75.0169 163.61 74.9455L163.591 74.9412V74.9412C164.018 76.6538 164.261 78.434 164.587 80.1569C165.002 82.3427 165.409 84.5296 165.811 86.7175C166.2 88.8322 166.691 90.9497 166.989 93.0751C167.29 95.2205 167.579 97.3674 167.875 99.5134C168.369 103.098 168.767 106.698 169.187 110.293L169.388 111.995C169.808 115.596 170.147 119.202 169.35 122.785C168.602 126.144 166.919 129.277 164.966 132.081C163.054 134.826 160.918 137.466 158.573 139.854C154.05 144.46 148.473 148.149 141.933 148.833C139.117 149.127 136.109 148.8 133.462 147.776L133.286 147.707C130.606 146.648 127.324 144.836 126.627 141.862C126.199 140.038 128.078 138.613 129.725 139.479C130.489 139.88 131.063 140.339 131.69 140.913L131.801 141.016C132.313 141.492 132.51 141.638 133.101 142.01C134.313 142.773 135.221 143.134 136.598 143.48C139.136 144.119 141.875 144.018 144.452 143.263C149.923 141.659 154.167 137.474 157.802 133.278C159.776 131 161.65 128.61 163.095 125.954C164.611 123.168 165.311 120.242 165.269 117.072C165.222 113.495 164.728 109.904 164.403 106.344C164.073 102.714 163.767 99.0861 163.498 95.4515C163.246 92.043 163.222 88.6192 163.134 85.2002L163.116 84.5591C163.065 82.7441 163.029 80.9284 162.987 79.1129C162.947 77.3026 162.803 75.4694 162.99 73.6668C163.003 73.5355 163.18 73.5023 163.223 73.6351C163.333 73.9728 163.429 74.3158 163.52 74.6608C163.534 74.6502 163.549 74.6407 163.568 74.6341C164.774 74.2199 165.883 73.3929 166.788 72.501C167.65 71.6499 168.101 70.4031 169.019 69.6403ZM103.088 44.2788C103.845 41.1685 107.251 40.4738 109.77 41.9717C110.982 42.6919 111.952 43.7307 113.083 44.5563C114.209 45.3772 115.452 46.0364 116.764 46.502C119.371 47.4268 122.121 47.7631 124.876 47.7751C131.582 47.8045 138.15 45.9193 144.866 46.1296C150.062 46.2923 155.578 47.8286 159.347 51.5864C161.377 53.6107 162.686 56.2133 163.388 58.9763C163.716 60.2676 163.96 61.5902 164.153 62.9098L164.2 63.2396C164.308 64.0109 164.481 64.8273 164.497 65.6068C164.512 66.3067 164.335 67.0393 164.239 67.7321C164.037 69.1925 161.776 69.0262 161.451 67.7321C160.711 64.7857 161.02 61.7448 160.116 58.8085C159.315 56.2046 157.761 53.928 155.509 52.3709C146.011 45.8022 133.83 51.303 123.365 50.7919C120.807 50.667 118.212 50.2716 115.799 49.3905C114.555 48.9361 113.33 48.3819 112.202 47.6849C111.168 47.0467 110.273 46.2448 109.316 45.5069L108.894 45.186C108.238 44.6924 107.122 43.9206 106.46 44.5736C106.172 44.8578 106.155 45.5005 106.16 45.9912L106.163 46.213C106.193 48.2965 106.618 50.3762 105.838 52.3891C105.483 53.3072 104.495 53.8861 103.555 53.3662L103.506 53.3383C101.519 52.1553 98.907 54.5324 100.434 56.4998L100.482 56.5593C101.341 57.6038 100.883 59.4432 99.345 59.4386L99.2896 59.4377C96.5499 59.3521 95.3343 62.7774 97.6958 64.274L97.7685 64.3188C99.6857 65.4666 98.004 68.2262 96.039 67.2787C96.2055 67.3591 95.9161 67.358 95.7504 67.5803C95.5913 67.7938 95.5795 67.9785 95.6173 68.2482C95.7321 69.0653 96.4504 69.7539 97.0322 70.2708C98.3539 71.4453 99.9923 72.2563 101.681 72.75C108.443 74.7278 115.381 72.3085 121.97 70.8474C128.84 69.3242 136.598 68.7106 142.589 73.033C142.66 73.0841 142.598 73.1985 142.519 73.1528C138.22 70.6551 132.954 70.8768 128.254 71.9008C122.092 73.2437 115.983 75.7433 109.671 76.4019C111.443 79.5311 112.185 83.227 111.711 86.8062C111.386 89.2701 110.405 91.4073 109.248 93.573L109.027 93.9858C107.995 95.9298 107.195 97.7663 107.182 100.018C107.17 102.256 103.845 102.728 103.281 100.547C102.001 95.5938 106.663 91.6925 108.565 87.6081C110.191 84.1166 110.241 80.0458 108.925 76.4708C107.441 76.5902 105.945 76.6027 104.434 76.4678C103.136 76.3518 101.801 76.1178 100.5 75.7476L99.9791 77.9371C99.2893 80.8536 98.6502 83.7681 98.4566 86.7974C98.314 89.0233 98.3216 91.2602 98.5385 93.4807C98.7261 95.3985 99.1221 97.248 99.5249 99.1204C99.8706 99.5765 100.047 100.275 99.95 100.831C102.194 101.477 103.958 103.248 104.603 105.594C104.642 105.737 104.443 105.817 104.368 105.693C102.838 103.154 98.8987 102.22 96.4068 103.897C94.0271 105.499 93.0885 108.732 94.4355 111.292C95.144 112.638 96.1946 113.584 97.5491 114.235L97.8215 114.363C98.5313 114.699 99.1829 115.066 99.6394 115.741C100.232 116.616 100.252 117.541 100.196 118.542L100.171 118.947C100.134 119.618 100.126 120.308 100.325 120.953L100.371 121.096C100.423 121.257 100.479 121.399 100.575 121.553C100.603 121.598 100.873 121.863 100.961 121.959L101.072 121.992V121.992L101.195 121.997V121.997C101.333 121.999 101.513 121.94 101.454 121.981L101.47 121.972C101.522 121.939 101.57 121.905 101.611 121.874L101.687 121.815C101.867 121.555 102.091 121.341 102.367 121.178L102.631 121.06V121.06C103.315 120.337 104.487 120.717 104.978 121.437C105.331 121.955 105.521 122.482 105.537 123.001C105.592 122.912 105.714 122.864 105.792 122.963L106.257 123.556C108.037 125.831 109.786 128.12 111.808 130.193C112.922 131.336 114.12 132.409 115.373 133.398C116.442 134.243 118.471 135.055 118.502 136.593C118.512 137.092 118.157 137.446 117.724 137.615C116.313 138.167 114.569 136.291 113.55 135.379L113.467 135.305C112.22 134.212 111.081 133.012 110.031 131.729C107.991 129.237 106.285 126.369 105.533 123.214C105.498 123.764 105.261 124.304 104.802 124.813C104.19 125.491 103.352 125.966 102.457 126.162C100.43 126.605 98.4511 125.875 97.2449 124.185C96.2255 122.757 95.9253 120.87 96.0569 119.145L96.0731 118.937C96.0916 118.661 96.1151 118.153 96.1867 117.937L95.5485 117.586V117.586C94.7659 117.169 94.0406 116.623 93.3897 116.023C90.7736 113.61 89.461 109.689 90.657 106.258C91.4051 104.111 92.9771 102.244 94.9901 101.273C94.6536 100.495 94.5411 99.5713 94.4142 98.754L94.3928 98.6188C94.1775 97.278 93.9973 95.9203 93.9287 94.5634C93.8002 92.0293 93.9563 89.4716 94.3544 86.9669C95.0009 82.8986 96.3392 78.5841 98.7925 75.1712C96.9209 74.4277 95.1982 73.3513 93.8685 71.8566C92.479 70.2947 91.5931 68.0586 92.6676 66.0751C92.9414 65.5696 93.2982 65.1445 93.7083 64.807C92.9972 63.4637 92.7671 61.876 93.2059 60.3585C93.7303 58.5443 95.154 57.1293 96.874 56.4686C96.4563 54.7497 96.7977 52.9008 98.074 51.4683C99.3399 50.0471 101.306 49.5296 103.125 49.8544C103.224 48.0262 102.649 46.0818 103.088 44.2788ZM97.9849 108.466C99.6531 107.649 101.63 107.779 103.296 108.553L103.409 108.606C105.229 109.489 107.638 111.551 107.06 113.744C106.721 115.026 105.297 115.464 104.192 114.911C103.27 114.448 103.059 113.621 102.597 112.79C102.269 112.203 101.865 111.743 101.39 111.271C100.388 110.276 99.2629 109.536 97.9849 108.945C97.8007 108.86 97.8071 108.553 97.9849 108.466ZM140.017 64.1394C139.861 64.0679 139.974 63.823 140.131 63.8678C144.323 65.0653 148.231 67.7533 150.567 71.4842C150.709 71.7119 150.731 72.0866 150.567 72.3119L150.491 72.4141C150.384 72.554 150.278 72.6573 150.077 72.6885C149.698 72.7473 149.369 72.6486 149.151 72.3119C146.851 68.7557 143.903 65.9177 140.017 64.1394ZM168.078 64.8436C168.433 64.2419 169.375 64.363 169.562 65.0376L169.589 65.0963C169.691 65.3263 169.645 65.3734 169.456 65.2433C169.923 65.6284 170.135 66.202 169.992 66.8187C169.22 70.1496 165.449 72.5281 162.161 72.2007C161.874 72.1722 161.835 71.8194 162.095 71.7142C163.36 71.2019 164.483 70.3698 165.386 69.3487C166.263 68.3562 166.632 67.2207 167.104 66.0221C167.281 65.5721 167.557 65.2481 167.945 65.0712C167.996 65.0002 168.041 64.9246 168.078 64.8436ZM149.382 62.7032L149.405 62.7046C151.094 62.9229 152.555 63.7569 153.741 64.979C154.884 66.1558 156.326 68.0976 156.202 69.8246C156.12 70.9695 154.493 71.624 153.886 70.4523C153.524 69.7532 153.442 68.9868 153.188 68.2475C152.955 67.5699 152.634 66.9266 152.249 66.3231C151.456 65.08 150.366 64.0268 149.251 63.0766C149.12 62.9654 149.211 62.7038 149.382 62.7032V62.7032ZM106.054 62.1958C105.679 61.839 106.069 61.2308 106.545 61.3512C109.058 61.9876 111.546 62.7616 114.158 62.8385C115.463 62.8768 116.761 62.7738 118.053 62.605L118.708 62.518C119.715 62.3864 120.741 62.2831 121.737 62.4902C122.401 62.6282 122.531 63.4842 122.117 63.9308C120.163 66.0398 116.393 65.8382 113.801 65.4827C110.986 65.0964 108.146 64.1897 106.054 62.1958ZM151.427 55.6218C151.255 55.3832 151.545 55.0066 151.819 55.1125C154.316 56.0779 156.932 58.5915 157.62 61.2213C157.802 61.916 156.926 62.4406 156.412 61.9249C155.454 60.9639 154.777 59.8287 153.967 58.7485C153.16 57.6717 152.216 56.7153 151.427 55.6218ZM110.514 56.7963C110.314 56.5962 110.515 56.1976 110.803 56.2994C112.429 56.8754 114.067 57.3737 115.775 57.6352C117.524 57.9028 119.29 57.6994 121.048 57.8079C121.76 57.8516 122.244 58.9587 121.453 59.3032C117.939 60.8336 113.167 59.4458 110.514 56.7963ZM115.004 53.3637C114.725 53.157 114.884 52.5897 115.264 52.748C116.812 53.3929 118.378 53.5514 120.039 53.485C120.653 53.4603 120.782 54.4251 120.184 54.5553C118.347 54.9549 116.505 54.4737 115.004 53.3637Z" clip-rule="evenodd"/><path fill="#000" fill-rule="evenodd" d="M132.525 123.613C132.547 121.284 134.564 120.883 136.481 121.193C139.725 121.718 142.981 122.088 146.269 122.154L146.835 122.164V122.164C146.927 122.031 147.079 121.93 147.286 121.908C149.109 121.711 150.971 121.743 152.803 121.688C154.402 121.642 156.045 121.482 157.643 121.607L157.77 121.618C159.724 121.808 161.786 122.805 161.55 125.099C161.333 127.222 159.303 129.103 157.683 130.283C157.355 130.519 157.02 130.741 156.675 130.943C156.567 131.081 156.409 131.177 156.227 131.197C154.631 132.059 152.87 132.569 151.047 132.739C147.183 133.099 142.69 132.71 138.978 131.034C137.771 130.49 136.646 129.81 135.651 128.974C134.116 127.686 132.508 125.732 132.525 123.613ZM147.751 128.23C146.202 128.183 144.655 128.4 143.18 128.878C142.18 129.201 141.269 129.822 140.31 130.253C143.539 131.485 147.291 131.754 150.603 131.53C152.057 131.431 153.466 131.096 154.779 130.519C154.574 130.372 154.367 130.221 154.15 130.091C153.495 129.694 152.81 129.356 152.096 129.088C150.705 128.565 149.237 128.277 147.751 128.23ZM148.27 107.867C147.852 107.567 148.184 106.572 149.077 106.726C157.189 108.12 152.986 122.099 142.629 114.428C141.396 113.433 142.889 111.241 144.218 112.093L144.69 112.457C146.224 113.634 148.762 115.412 150.58 113.504C152.296 111.099 149.866 108.837 148.27 107.867ZM153.762 97.2869C155.487 95.815 157.65 96.8997 158.919 98.3905L159.143 98.657C159.397 98.9612 159.678 99.3154 159.847 99.6942C161.254 98.4958 163.162 97.6525 164.987 98.1999C166.758 98.7327 167.767 100.424 167.463 102.239C167.118 104.303 165.557 105.691 163.879 106.763L163.404 107.066C161.388 108.351 159.501 109.647 157.842 111.414C157.571 111.701 156.986 111.663 156.809 111.281L156.666 110.973V110.973L156.522 110.665C155.345 108.155 154.084 105.661 153.048 103.091C152.281 101.186 152.032 98.7621 153.762 97.2869ZM134.105 98.6201L134.368 98.3163C135.631 96.8453 137.772 95.8604 139.46 97.287C141.257 98.8066 140.905 101.32 140.104 103.258C139.14 105.595 138.014 107.881 136.932 110.174L136.7 110.665C136.603 110.87 136.508 111.075 136.413 111.28C136.236 111.663 135.649 111.701 135.38 111.414C133.772 109.702 131.954 108.435 130.011 107.19L129.425 106.817C127.719 105.735 126.107 104.338 125.757 102.239C125.457 100.428 126.46 98.7263 128.233 98.1998C130.062 97.6568 131.966 98.4938 133.375 99.6943C133.543 99.3059 133.832 98.9401 134.105 98.6201V98.6201ZM136.417 88.067C137.034 88.8684 136.375 90.1782 135.474 90.3853C134.358 90.6421 133.231 90.4859 132.135 90.8044C131.131 91.0963 130.17 91.6811 129.309 92.264C128.328 92.9285 127.424 93.6703 126.593 94.5155C126.1 95.0183 125.477 96.2095 124.715 96.2316C123.958 96.2538 124.975 93.8844 125.059 93.6794C125.656 92.22 126.495 90.8771 127.544 89.7007C129.615 87.3795 134 84.9301 136.417 88.067ZM159.541 87.4255L160.058 87.5692C161.337 87.9249 162.702 88.3619 163.8 89.1289L163.886 89.19L164.019 89.2872C165.396 90.3146 167.345 92.3647 166.369 94.1531C166.302 94.2764 166.159 94.2886 166.044 94.2383C164.746 93.6696 163.783 92.5338 162.403 92.0587L162.148 91.9719C160.811 91.5213 159.157 91.0476 157.718 91.0907C156.706 91.4197 155.339 91.1472 155.076 89.9149L155.064 89.8545L155.041 89.7268C154.889 88.8848 155.115 87.8114 155.985 87.4056C157.177 86.8497 158.341 87.097 159.541 87.4255Z" clip-rule="evenodd"/><path fill="#000" fill-rule="evenodd" d="M129.449 129.599C131.16 125.59 134.893 122.644 139.191 121.566C142.348 120.778 145.66 120.803 148.878 121.116C150.563 121.279 152.372 121.412 153.96 122.039C155.317 122.574 156.422 123.585 157.254 124.772C158.243 126.179 158.916 127.789 159.389 129.439C159.456 129.674 159.519 129.91 159.578 130.148C159.372 131.393 158.936 132.453 157.783 133.236C156.658 134 155.316 134.313 153.978 134.424C153.847 134.361 153.72 134.296 153.604 134.23C151.518 133.035 150.051 130.213 147.419 130.595C145.07 130.936 143.524 133.893 142.127 135.626C137.644 136.149 133.164 134.801 129.516 132.236C129.331 131.359 129.32 130.473 129.449 129.599M162.625 126.558C162.266 125.551 161.815 124.576 161.279 123.657C159.509 120.619 156.792 118.198 153.566 116.814C145.934 113.546 136.06 115.85 129.897 121.211C127.792 123.044 125.663 125.737 125.019 128.634C124.827 128.672 124.646 128.772 124.496 128.913C120.044 126.108 115.458 123.41 111.87 119.523C109.265 116.698 107.452 113.355 106.342 109.682C106.252 109.38 105.764 109.424 105.779 109.759C105.783 109.837 105.787 109.915 105.792 109.993C105.745 109.849 105.526 109.923 105.509 110.063C104.912 114.525 104.165 119.256 104.853 123.742C105.264 126.418 106.48 128.377 108.104 130.493C109.845 132.761 111.815 134.87 113.83 136.893C115.109 138.177 116.444 139.658 118.01 140.6C119.831 141.694 121.896 142.525 123.84 143.369C125.816 144.231 127.823 145.026 129.867 145.716C133.954 147.1 138.178 148.056 142.476 148.475C145.917 148.809 149.85 149.173 153.148 147.878C155.675 146.886 157.716 145.092 159.334 142.934C161.096 140.583 162.488 137.905 163.258 135.082C164.058 132.149 162.794 127.03 162.625 126.558" clip-rule="evenodd"/></svg>