<svg xmlns="http://www.w3.org/2000/svg" width="259" height="324" fill="none" viewBox="0 0 259 324"><path fill="#fff" fill-rule="evenodd" d="M245.914 194.941C248.078 193.811 250.191 192.583 252.27 191.305C253.735 190.428 252.438 188.221 250.936 189.018C250.168 189.426 249.403 189.839 248.635 190.244C249.24 189.723 249.8 189.157 250.302 188.539L250.267 188.504C252.203 186.769 249.716 183.495 247.515 184.92C245.573 186.328 243.613 187.765 241.384 188.692C236.768 190.651 231.676 190.975 226.721 191.031C224.907 190.895 223.175 191.209 221.416 191.559C222.106 188.791 223.832 186.701 224.748 184.019C225.423 181.312 221.517 179.469 220.133 182.071C219.793 182.71 219.469 183.356 219.153 184.006C216.161 186.728 211.165 186.488 208.147 189.411C206.428 190.937 205.587 193.008 205.255 195.086C205.029 196.498 205.38 197.912 204.527 199.162C200.403 204.997 193.888 214.22 190.578 220.642C188.236 205.382 181.98 186.509 175.517 172.556C173.38 168.094 170.935 163.734 167.725 159.952C168.089 158.69 166.805 156.451 165.988 157.14C163.475 154.069 159.032 153.274 155.459 151.747C150.637 149.684 146.635 145.396 144.669 140.522C142.141 131.241 135.92 130.062 127.292 130.472C119.035 130.462 112.926 133.995 111.124 142.404C107.464 148.786 98.8218 147.731 92.6044 149.42C88.0477 150.462 83.6257 152.072 79.4232 154.116C74.748 149.679 58.004 168.298 56.482 173.09C57.378 173.263 58.2685 173.473 59.151 173.727C59.9369 173.955 59.6069 175.142 58.8142 174.952C57.8278 174.715 56.8351 174.552 55.8377 174.439C55.8072 174.534 55.7806 174.629 55.7608 174.723C55.6488 174.715 55.537 174.706 55.4251 174.698C55.6733 174.827 55.9122 174.977 56.1451 175.171C56.7079 175.638 55.9752 176.541 55.3771 176.168C54.8137 175.746 54.0757 175.813 53.3999 175.671C53.3597 177.062 48.4006 175.506 47.6303 175.046C44.2068 174.617 40.6847 175.077 37.4887 173.425C33.2361 172.529 28.9515 171.539 24.7467 170.398C23.6335 170.832 22.5873 172.385 23.4715 173.525C23.9688 174.044 23.3295 174.891 22.7033 174.522C20.6031 173.285 18.9789 171.355 17.6018 169.275C16.9537 168.621 15.8031 168.762 14.9323 168.49C14.8158 168.7 14.7472 168.933 14.7482 169.172C11.0542 169.78 13.6894 173.817 15.5464 175.074C14.5613 175.716 14.5239 176.972 14.6101 178.022C14.4013 178.396 14.3316 178.859 14.5133 179.278C15.208 180.879 16.7103 182.228 17.8526 183.525C19.1139 184.958 20.2384 186.399 21.7731 187.56C27.6227 192.021 34.6818 194.515 41.9236 195.49C44.4949 195.885 48.1936 196.49 49.7857 198.665C49.3951 201.246 48.6778 203.722 48.0271 206.239C47.1172 209.581 47.1791 213.079 47.167 216.485C47.0399 216.383 46.7956 216.404 46.7593 216.599C46.5476 218.011 46.3902 219.455 45.5323 220.642C44.7801 222.848 44.2796 225.201 43.9984 227.519C42.872 238.509 42.603 249.822 45.1429 260.64C46.123 264.653 47.717 268.467 49.8888 271.979C50.5363 273.027 51.5775 273.334 52.5123 273.128C55.6412 274.754 59.5828 275.275 62.9553 274.862C74.4527 271.606 70.4466 279.447 86.567 277.046C114.392 273.5 142.513 280.468 170.279 276.377C170.963 281.661 179.915 280.145 183.025 277.912C192.349 270.977 196.979 249.023 201.658 237.886C204.875 229.108 210.261 213.56 217.314 207.67C219.429 206.015 221.986 205.144 224.544 204.44C234.091 201.979 243.674 199.652 253.239 197.259C254.861 196.86 254.57 194.092 252.835 194.27C250.533 194.505 248.223 194.719 245.914 194.941Z" clip-rule="evenodd"/><path fill="#000" fill-rule="evenodd" d="M33.3896 193.294C32.7431 193.214 32.1093 192.983 31.4797 192.802C30.5184 192.52 29.5762 192.193 28.6487 191.819C26.7346 191.052 24.8776 190.145 23.1368 189.035C20.3248 187.241 17.8403 184.941 15.9663 182.173L15.8377 181.98C14.7679 180.349 12.7944 176.73 15.0072 175.492C13.5811 174.3 12.2332 172.159 12.3092 170.506C12.417 168.169 15.2818 168.2 16.7627 169.191C17.7325 169.84 18.4592 170.749 19.1881 171.643C19.9951 172.637 20.8571 173.583 21.7529 174.494C21.9906 174.735 22.2306 174.971 22.4748 175.204L22.7205 175.435C22.6825 175.344 22.6487 175.251 22.6191 175.156C22.1247 173.615 22.7142 171.609 24.2543 170.904C25.1968 170.471 26.1756 170.735 27.089 171.102L27.2289 171.159C28.4585 171.668 29.7029 172.119 30.9832 172.48C36.2015 173.953 41.648 174.198 46.9951 174.934C49.055 175.219 51.1529 175.578 53.2022 176.107C53.9838 172.787 55.9 169.604 57.9789 166.985C67.9338 154.458 84.3514 150.318 99.3704 147.638C100.739 147.395 101.874 149.208 102.671 148.779C104.181 147.968 105.51 146.818 106.676 145.569C109.163 142.904 110.927 139.769 112.999 136.8C114.024 135.333 116.382 136.646 115.431 138.22L114.965 138.99C113.048 142.142 110.924 145.39 108.174 147.835C106.712 149.132 105.09 150.157 103.235 150.798C101.83 151.282 99.8586 151.69 98.3205 151.22L98.136 150.951C98.197 151.041 98.2585 151.131 98.3205 151.22C102.335 157.039 107.371 161.963 112.678 166.611C118.035 171.299 123.814 175.498 129.627 179.603L130.112 179.945C139.583 173.034 147.584 164.02 153.197 153.721C152.021 153.579 150.856 152.825 149.851 152.262C148.64 151.582 147.502 150.77 146.614 149.688C144.681 147.332 144.933 144.294 144.584 141.435C144.563 141.257 144.797 141.213 144.905 141.302C145.953 142.172 146.321 143.599 146.758 144.831C147.24 146.186 147.785 147.302 148.89 148.255C149.918 149.143 151.173 149.796 152.392 150.377C153.021 150.675 156.142 151.442 156.497 152.076C161.889 150.81 167.141 152.998 171.136 156.688C174.996 160.254 177.829 164.888 180.33 169.464C182.999 174.346 185.185 179.436 187.07 184.666C188.98 189.976 190.444 195.401 191.249 200.989C191.928 205.7 192.345 210.486 192.614 215.25L192.647 215.845C196.636 209.583 200.724 203.386 204.897 197.244C203.948 194.71 204.998 192.123 206.775 190.166C208.744 188 211.467 186.994 214.072 185.823L214.414 185.668C215.67 185.095 216.921 184.464 218.006 183.606C219.049 182.777 219.816 181.636 220.915 180.873C222.512 179.761 225.411 179.998 225.485 182.426C225.523 183.76 224.95 185.222 224.426 186.421C223.832 187.776 223.032 189.004 222.081 190.132C222.037 190.185 221.989 190.226 221.94 190.259L221.904 190.282C223.218 190.5 224.542 190.675 225.892 190.737C228.616 190.861 231.368 190.661 234.035 190.086C236.764 189.498 239.409 188.543 241.864 187.211C243.962 186.074 245.906 184.603 248.289 184.257C248.508 184.223 248.73 184.202 248.958 184.189C249.339 184.168 249.719 184.616 249.569 184.992C249.487 185.199 249.4 185.404 249.305 185.611C248.481 187.427 247.217 189.188 245.641 190.525L245.519 190.627C246.075 190.434 246.622 190.219 247.161 189.976C250.328 188.549 253.201 186.393 256.596 185.527C256.756 185.485 256.919 185.446 257.082 185.411C258.132 185.184 258.685 186.326 258.068 187.108C257.969 187.235 257.87 187.359 257.766 187.484C256.252 189.365 254.58 191.111 252.738 192.679C252.106 193.216 251.456 193.736 250.792 194.232C250.513 194.443 250.232 194.649 249.948 194.852L249.808 194.951C250.139 194.716 250.467 194.478 250.792 194.232C252.871 193.602 254.92 192.856 256.925 192.03C257.722 191.702 258.341 192.51 258.425 193.173C258.709 195.397 256.241 197.005 254.635 198.075C253.025 199.148 251.253 199.964 249.438 200.619C245.949 201.881 242.284 202.454 238.625 202.967L236.848 203.215C229.813 204.199 222.466 205.375 217.418 210.851C214.589 213.92 212.675 217.732 210.924 221.484C209.175 225.231 207.639 229.078 206.181 232.946C204.67 236.948 203.354 241.025 201.956 245.068C200.671 248.781 199.137 252.446 197.617 256.074L197.378 256.646C194.151 264.356 190.298 271.618 184.928 278.056C184.042 279.119 182.612 277.61 183.43 276.557C189.047 269.312 192.956 260.763 196.182 252.235C197.65 248.355 198.88 244.381 200.291 240.48L201.131 238.162C202.252 235.073 203.383 231.987 204.563 228.921C206.056 225.043 207.698 221.211 209.576 217.504L209.775 217.114C211.614 213.537 213.799 210.013 216.806 207.306C222.218 202.433 229.419 201.264 236.383 200.338L238.573 200.049C241.517 199.658 244.469 199.226 247.332 198.438C248.984 197.986 250.598 197.407 252.115 196.608C252.719 196.291 253.309 195.942 253.879 195.562C252.252 196.04 250.602 196.43 248.923 196.737C248.101 196.887 247.287 196.999 246.476 197.077C244.387 197.284 242.314 197.276 240.174 197.164C239.992 197.153 239.933 196.868 240.128 196.832C241.618 196.567 243.11 196.235 244.596 195.876L245.042 195.767C245.05 195.52 245.147 195.257 245.35 195.008C246.09 194.108 247.494 193.647 248.468 193.011C249.489 192.345 250.478 191.627 251.42 190.857C252.282 190.153 253.11 189.409 253.906 188.632L254.145 188.397C254.066 188.475 253.986 188.554 253.906 188.632C251.756 189.625 249.717 190.899 247.471 191.686C245.686 192.313 243.814 192.736 241.925 192.886L241.808 192.895L241.691 192.903C239.72 193.045 237.736 192.988 235.794 193.414C235.577 193.463 235.509 193.171 235.704 193.089C237.4 192.383 239.164 192.11 240.947 191.781C240.985 191.641 241.082 191.516 241.251 191.436L241.708 191.218C243.066 190.565 244.333 189.907 245.462 188.847C246.459 187.911 247.29 186.816 247.913 185.603C245.418 186.15 243.227 188.042 240.958 189.105C238.486 190.265 235.87 191.098 233.183 191.572L232.877 191.624C227.855 192.462 221.816 192.355 217.317 189.743C217.173 189.659 217.277 189.467 217.425 189.49C218.701 189.699 219.964 189.946 221.228 190.166C220.98 189.94 220.87 189.534 221.156 189.209C222.29 187.908 223.188 186.421 223.761 184.794L223.871 184.476C224.135 183.721 224.582 182.549 224.126 181.868C223.691 181.219 222.666 181.308 222.054 181.583C220.78 182.158 219.932 183.593 218.859 184.459C217.689 185.406 216.358 186.108 214.995 186.736L214.707 186.867C212.35 187.927 209.832 188.82 207.979 190.692C206.982 191.698 206.124 192.956 205.837 194.365C205.706 195.012 205.706 195.678 205.879 196.318C206.016 196.819 206.304 197.128 206.139 197.637C205.923 198.294 205.161 199.081 204.768 199.666C204.311 200.343 203.857 201.021 203.403 201.699C202.497 203.056 201.594 204.417 200.692 205.776C198.888 208.498 197.103 211.233 195.332 213.977C194.756 214.87 194.182 215.764 193.61 216.659L192.753 218.003L192.3 218.711L191.528 219.926C191.555 220.038 191.553 220.157 191.517 220.26C191.385 220.635 191.139 220.892 190.832 221.078L190.778 221.11C186.269 228.239 181.832 235.414 177.351 242.56C177.113 244.741 176.889 246.924 176.694 249.107C176.253 254.049 175.951 259.003 175.854 263.963C175.807 266.364 175.999 268.78 176.103 271.179C176.154 272.323 176.223 273.467 176.314 274.61L176.38 275.42C176.469 276.534 176.52 277.639 176.12 278.701C175.765 279.633 174.683 279.842 174.043 279.132C165.692 278.796 157.334 278.54 148.976 278.381C134.016 278.094 119.05 278.138 104.088 278.428C96.5733 278.574 89.0564 278.779 81.5437 279.032C77.8423 279.155 74.1388 279.328 70.4353 279.379C68.4399 279.406 65.2995 278.679 65.1385 276.434L65.1346 276.365C64.8853 276.433 64.6275 276.488 64.3634 276.528C64.2459 276.546 64.133 276.541 64.0287 276.516L63.9768 276.503C61.0025 277.41 57.24 276.116 54.4137 275.361L54.1804 275.3C51.4825 274.596 49.3149 273.59 47.5466 271.354C44.4515 267.438 43.3952 262.179 42.8459 257.333C42.3304 252.772 42.3008 248.127 42.9283 243.574C42.5585 239.865 42.9198 236.038 43.3402 232.349C43.5473 230.525 43.7902 228.703 44.0818 226.89C44.2445 225.878 44.4578 224.876 44.6754 223.876C44.7623 223.477 44.8347 223.047 44.9448 222.631L44.9944 222.454C44.6564 222.498 44.2867 222.424 43.9296 222.228C43.0804 221.761 42.8332 220.816 42.8184 219.912C42.7719 217.185 43.0973 214.38 43.3846 211.671C43.674 208.966 44.0712 206.25 44.5909 203.578L44.7254 202.889C45.1192 200.891 45.5698 198.828 46.3635 196.95C43.3825 196.443 40.41 195.904 37.5177 194.987C36.1065 194.537 34.7163 193.977 33.3896 193.294ZM188.98 221.668C188.933 221.678 188.889 221.691 188.844 221.704C187.653 222.038 186.449 222.321 185.249 222.625C183.174 223.147 181.146 223.731 179.217 224.637C178.813 229.739 178.214 234.825 177.644 239.913L177.531 240.93C178.406 239.307 179.301 237.697 180.237 236.105C183.087 231.255 186.003 226.442 188.98 221.668ZM45.7211 222.173C45.7274 222.779 45.6007 223.409 45.5331 223.993C45.4232 224.94 45.3345 225.891 45.2225 226.837C44.9943 228.739 44.8 230.644 44.6584 232.554C44.5676 233.774 44.5084 234.998 44.4556 236.221C45.6535 231.743 47.2401 227.362 48.7486 222.974C48.4964 222.947 48.2387 222.886 47.9728 222.815L47.5252 222.694C47.2613 222.626 46.4051 222.416 45.7211 222.173ZM192.753 218.003L192.761 218.204C192.793 218.916 192.366 219.317 191.849 219.421C192.149 218.948 192.451 218.474 192.753 218.003ZM55.6826 184.246C56.9438 184.358 58.1798 184.627 59.3586 185.091L59.4724 185.136C60.3443 185.473 61.6192 185.896 61.9044 186.827C61.9847 187.091 61.7692 187.308 61.522 187.33C60.5755 187.406 59.46 186.391 58.5833 186.049C57.6072 185.668 56.5847 185.385 55.5495 185.235C53.2234 184.895 50.7981 185.153 48.6093 186C48.4805 186.051 48.4002 185.846 48.5164 185.785C50.722 184.584 53.1748 184.024 55.6826 184.246ZM28.9552 190.291C28.8093 190.162 28.6636 190.026 28.5199 189.891C27.3872 188.819 26.3842 187.568 25.6415 186.194L25.446 185.822C24.8411 184.65 24.0984 182.981 25.5199 182.137C26.3692 181.632 27.3917 181.758 28.3382 182.065C28.3995 182.084 28.4607 182.105 28.522 182.126C28.9446 182.274 29.3523 182.452 29.7157 182.621C31.2938 183.346 32.6861 184.4 34.1438 185.33C35.7234 186.339 37.283 186.983 39.106 187.36L39.2777 187.395C40.9889 187.733 42.8438 187.951 44.0375 189.359C44.3375 189.714 44.0629 190.379 43.5453 190.204C40.2453 189.09 36.753 188.845 33.7234 187.017C32.4685 186.26 31.2812 185.392 29.9988 184.675C29.3185 184.294 28.6161 183.961 27.8676 183.733L27.4587 183.613C27.2192 183.543 26.9333 183.474 26.741 183.542C26.3751 183.669 26.4919 183.865 26.6051 184.207L26.6164 184.242C27.5058 186.994 30.041 189.297 32.3903 190.821C32.9291 191.172 33.4805 191.493 34.0424 191.791C37.8464 193.82 42.1028 194.764 46.2832 195.884C46.2832 195.884 48.7002 196.559 49.501 196.813C50.3925 196.739 51.4087 197.054 52.0805 197.43C52.7333 197.796 53.2594 198.286 53.6566 198.863C53.6566 198.863 54.039 199.182 54.1087 199.677C54.3094 200.135 54.4446 200.63 54.5122 201.146C54.5502 201.448 54.4742 201.68 54.3305 201.845C54.7626 208.48 52.9712 215.077 50.9515 221.383L50.7514 222.005L50.6228 222.399C48.4446 229.084 45.9453 235.721 44.8298 242.691C44.0841 247.347 44.1073 252.165 44.6545 256.843L44.6931 257.165C45.2322 261.587 46.2695 266.548 49.0805 270.107C50.5143 271.923 52.213 272.731 54.3848 273.316L54.5038 273.347C56.4686 273.865 58.4967 274.598 60.5228 274.82C62.4031 275.025 63.9791 274.326 65.6714 273.67L65.6734 273.668C69.2376 270.513 70.8559 265.918 72.0516 261.281C75.1509 249.281 74.7664 236.824 73.0087 224.648C72.0918 218.286 70.8453 211.979 69.603 205.675C68.9819 202.524 68.3122 199.379 67.7566 196.217L67.4266 194.356C67.2445 193.322 67.0684 192.288 66.9178 191.248C66.715 189.851 66.6538 188.477 66.584 187.072C64.877 184.242 62.3988 181.911 59.5277 180.239C57.4721 179.041 55.296 178.21 53.0502 177.608C46.6298 175.877 39.6305 175.999 33.1699 174.668C30.9996 174.221 28.9394 173.558 26.8803 172.763L26.5995 172.653C25.6551 172.286 24.6918 172.081 24.2227 173.195C23.8889 173.987 24.0875 174.811 24.5882 175.477C25.8157 177.109 28.2833 177.865 30.1403 178.453C31.258 178.808 32.3988 179.089 33.5523 179.298C34.7058 179.508 35.8636 179.56 36.9706 179.968C37.3974 180.125 37.4819 180.803 36.9706 180.923C35.5678 181.251 34.1565 180.97 32.7622 180.697C31.2305 180.395 29.722 179.966 28.2558 179.423C27.9854 179.323 27.7055 179.218 27.4205 179.106L27.2058 179.021C27.4277 179.182 27.6495 179.341 27.8734 179.499C27.9326 179.541 27.8967 179.653 27.8185 179.626C24.371 178.339 21.2343 176.018 18.8042 173.271L18.6833 173.133C17.8277 172.153 15.8777 169.185 14.234 170.012C12.6906 170.787 15.3216 173.774 16.3215 174.996L16.4376 175.139C17.5742 175.169 18.6749 175.876 19.596 176.447C21.1953 177.439 22.8664 178.292 24.5693 179.091C27.9538 180.683 31.5474 181.805 34.896 183.477C34.9404 183.5 34.9066 183.557 34.8643 183.551C32.7326 183.21 30.6242 182.667 28.5643 181.993L28.4724 181.964L28.3805 181.934C27.0939 181.511 25.8242 181.034 24.5756 180.524C23.1876 179.958 21.8312 179.322 20.515 178.601C19.3235 177.95 18.001 176.777 16.6193 176.604C16.4714 176.585 16.3404 176.582 16.2263 176.593C14.6397 176.726 15.9517 179.355 16.3953 180.142C17.12 181.433 17.9946 182.625 18.9982 183.713C21.0327 185.924 23.4982 187.676 26.1665 189.039C27.077 189.504 28.0087 189.914 28.9552 190.291Z" clip-rule="evenodd"/><path fill="#fff" fill-rule="evenodd" d="M130.31 50.4502C139.769 50.4502 151.117 55.0375 152.082 55.1292L152.108 55.1306C152.616 55.1306 154.6 56.6424 158.059 59.6661L154.312 66.9776L154.615 67.2672C156.067 68.659 157.305 69.9276 158.283 70.9277C166.267 79.0931 167.702 111.153 165.821 122.333C163.939 133.513 160.454 144.453 144.229 144.453C128.004 144.453 109.953 134.694 107.173 131.654C105.319 129.628 103.237 128.658 100.926 128.742C100.831 128.622 100.737 128.503 100.643 128.384L100.303 128.336C97.1055 127.872 94.814 127.249 93.4293 126.465C90.7244 124.934 87.7514 116.886 87.7514 115.113C87.7514 113.358 83.312 100.59 83.2233 99.2384L83.2219 99.201C83.2219 98.0715 77.4224 92.8791 77.4224 91.2301C77.4224 89.5812 76.2534 89.6812 77.4224 83.8704L77.762 82.1634C79.006 75.9766 81.4408 65.7322 90.7244 61.2807C100.926 56.3889 120.756 50.4502 130.31 50.4502Z" clip-rule="evenodd"/><path fill="#000" fill-rule="evenodd" d="M89.1501 61.0507C94.238 55.6483 123.123 47.2919 137.737 49.0632L138.175 49.12C139.341 49.268 140.49 49.492 141.625 49.7963C145.291 50.6529 149.078 51.95 152.108 54.1166C154.637 55.8889 162.615 58.7834 160.263 63.42C161.135 65.0725 161.461 67.1142 160.871 68.7418C160.797 69.304 160.624 69.8218 160.402 70.3586C162.265 73.1085 163.74 76.2183 164.934 79.1761C167.02 86.6201 168.318 94.367 168.509 101.962C169.141 116.391 167.56 133.627 154.997 142.958C147.408 148.87 135.521 149.069 126.992 141.738C126.508 141.165 124.232 139.619 124.992 139.348C125.218 139.586 125.45 139.819 125.687 140.047C125.676 140.022 125.674 139.996 125.679 139.969L125.456 139.767C125.037 139.379 124.494 138.817 125.112 138.927C125.14 138.959 125.169 138.986 125.199 139.018C125.33 139.096 125.429 139.165 125.506 139.225L125.545 139.256L125.533 139.244C125.177 138.864 124.963 138.476 125.496 138.724L125.566 138.758C125.803 139.007 126.044 139.246 126.289 139.479C126.285 139.451 126.289 139.424 126.304 139.394L126.075 139.173C125.852 138.955 125.886 138.954 125.995 138.777C125.521 138.112 126.406 138.507 126.468 138.766C127.022 138.635 127.508 139.675 127.865 139.802C143.499 151.826 166.186 141.157 165.819 107.653L165.813 106.997C165.705 96.2839 164.804 85.2727 160.375 75.5747C159.944 74.6406 159.462 73.7318 158.932 72.8525C158.567 72.1931 158.176 71.5506 157.755 70.925C156.578 70.8299 155.416 70.6143 154.271 70.2804C153.878 70.1811 153.49 70.0712 153.101 69.9423C147.422 70.2521 141.87 70.5892 136.175 70.9088L134.396 71.0196C129.572 71.3298 124.583 71.8268 120.69 74.8118C116.871 77.5293 116.853 82.8881 113.583 85.8717C108.921 89.0375 108.887 91.8922 107.989 96.5576C108.055 100.074 110.493 105.184 106.02 106.664C106.775 107.741 105.723 107.224 105.64 106.846C105.631 106.848 105.623 106.85 105.617 106.85C106.289 108.101 105.3 107.313 105.213 106.912C105.16 106.897 105.107 106.859 105.055 106.806C105.732 107.902 104.637 107.134 104.702 106.935C103.393 104.922 100.698 104.609 98.7987 105.143C98.7755 105.215 98.6912 105.221 98.6384 105.183C90.5623 106.934 92.646 123.659 100.922 122.042C101.276 121.97 101.268 122.14 101.338 122.156C101.147 121.654 101.686 121.859 101.68 121.964L101.713 121.962C101.739 121.96 101.729 121.957 101.748 121.964C101.563 120.937 102.603 122.425 102.521 122.486C102.553 122.467 102.589 122.456 102.621 122.452L102.585 122.355C102.412 121.895 102.427 122.086 102.428 121.822C102.299 121.497 102.289 121.639 102.32 121.427C102.775 121.074 102.91 122.146 103.062 122.224C102.801 121.86 103.009 121.564 103.255 121.761C105.119 125.683 107.526 129.368 110.638 132.272C110.979 132.54 111.323 132.804 111.68 133.054C113.003 134.207 115.034 134.949 116.273 135.97C116.273 135.987 116.264 136.008 116.252 136.029L116.28 136.055V136.055L116.309 136.082L116.74 136.289C116.867 136.397 116.981 136.518 117.082 136.651C117.19 136.775 117.285 136.913 117.365 137.059C117.405 137.236 117.317 137.31 117.148 137.234C117.073 137.209 117 137.179 116.926 137.152C116.93 137.158 116.932 137.162 116.936 137.166C116.961 137.203 117.125 137.584 116.936 137.522L116.913 137.513C116.809 137.475 116.706 137.433 116.605 137.393C116.725 137.543 116.835 137.705 116.932 137.843C117.036 137.951 117.099 138.077 117.124 138.221C117.12 138.301 117.076 138.335 116.995 138.325C116.873 138.284 116.752 138.242 116.632 138.198L116.666 138.263C116.751 138.431 116.872 138.712 116.657 138.618C116.473 138.561 116.296 138.496 116.119 138.424C116.104 138.454 116.074 138.464 116.015 138.437C115.451 138.236 114.906 137.991 114.384 137.701C113.926 137.367 113.463 137.04 113.002 136.708C112.569 136.448 112.151 136.158 111.752 135.833C109.08 134.107 106.741 131.914 104.886 129.471C101.782 132.16 95.5775 129.591 91.7394 127.487C88.3446 125.606 87.0102 122.128 86.6652 118.378C85.948 113.33 81.824 111.602 82.1109 100.525C82.1046 100.527 82.098 100.527 82.0896 100.527C81.9396 100.482 81.794 100.423 81.6567 100.347C81.5151 100.279 81.382 100.199 81.2572 100.102L81.103 99.8885V99.8885C81.0229 99.8441 80.9511 99.7976 80.8961 99.7511L80.8676 99.7878C80.7775 99.8967 80.8381 99.7329 80.8433 99.7004L80.5754 99.3359C79.9401 98.4682 79.2432 97.4947 78.6755 96.7161L78.6576 96.7477C78.6448 96.7716 78.638 96.7889 78.644 96.7964C77.293 94.8545 76.0224 92.509 75.6694 90.2382C75.2525 88.4891 75.4154 86.6867 75.779 85.0665C77.338 79.3928 82.4447 66.5537 89.1501 61.0507ZM125.815 139.515L125.73 139.44L125.805 139.533C125.844 139.581 125.884 139.625 125.949 139.669C125.945 139.654 125.945 139.639 125.947 139.622C125.903 139.589 125.859 139.553 125.815 139.515ZM137.672 51.9141C127.762 51.0617 118.015 53.2458 108.558 55.8896L107.905 56.0771C102.528 57.6121 96.8424 58.9933 92.2983 62.2787C85.9495 67.1433 82.671 74.8821 79.81 82.0272C77.3118 87.3359 78.5889 93.322 82.3537 97.0289C82.7454 93.3453 83.4132 89.7694 84.4569 86.2223C84.6747 85.6682 84.5099 85.4866 84.9793 85.4143C85.6884 94.9733 82.1963 102.036 89.1069 113.365C92.1054 118.71 88.6343 122.621 97.1019 125.434L97.331 125.522C99.0951 126.188 101.022 126.713 102.749 126.341L102.595 126.089C102.437 125.83 102.389 125.704 102.618 125.593C102.612 125.58 102.604 125.568 102.595 125.553C102.41 125.202 102.23 124.847 102.059 124.488C101.989 124.511 101.919 124.528 101.847 124.547C101.894 124.633 101.9 124.72 101.769 124.75C101.304 124.909 100.826 124.973 100.336 124.943L100.231 124.936C99.6785 124.902 99.3301 124.801 99.0185 124.707C98.9152 124.69 98.8117 124.674 98.71 124.652C97.7076 124.43 96.6464 123.864 95.9596 123.304C88.1304 118.855 88.9396 103.712 98.5898 102.281C98.7878 92.7465 103.321 76.6611 110.844 67.5758C117.644 59.2188 136.209 55.5966 149.125 56.8738C149.314 56.9362 149.502 56.9991 149.69 57.0628C151.683 57.2399 153.582 58.128 155.576 58.5405C154.144 57.4671 152.52 56.7521 150.847 56.1444C147.514 54.1047 143.692 53.001 140 52.2226C139.236 52.0345 138.46 51.931 137.672 51.9141ZM98.1479 109.94C98.6668 109.658 98.6074 109.931 98.7268 109.852C102.459 109.547 106.483 112.816 108.57 115.541C108.405 115.712 107.959 115.205 107.881 115.125C107.87 115.135 107.858 115.144 107.845 115.148L107.903 115.23C108.749 116.444 107.072 115.015 106.916 114.721C106.888 114.736 106.861 114.744 106.829 114.738C106.962 114.868 107.368 115.208 107.437 115.45L107.545 115.54C108.56 116.409 108.475 117.063 107.323 115.828C107.351 115.886 107.361 115.938 107.342 115.981L107.382 116.007C107.948 116.403 108.414 117.507 107.23 116.374C107.353 117.201 106.057 115.602 106.016 115.613C103.772 113.851 100.47 112.138 97.6557 111.908L97.5588 111.897C97.0425 111.83 96.7983 111.677 96.9796 111.339C96.3437 111.188 96.4926 110.875 96.7937 110.885C96.3452 110.59 96.7489 110.308 97.0092 110.418C96.8302 109.922 97.5479 110.252 97.6134 110.183C97.9859 109.609 98.0862 110.088 98.1479 109.94ZM90.3247 79.2205C92.1173 78.5636 97.4123 80.53 96.9887 83.1343C96.7365 83.7322 95.9053 84.0748 95.3212 83.7373L94.5588 83.225C93.2319 82.3361 92.0353 81.5566 90.6108 80.7813C89.8354 80.3965 89.5016 79.5794 90.3247 79.2205ZM100.524 75.3504L99.8314 74.8997C96.0953 72.4536 90.8138 68.7472 100.18 72.582C101.248 73.04 102.666 73.3109 103.249 74.3279C104.164 76.2024 101.756 76.3284 100.524 75.3504ZM100.943 64.3752C100.644 63.2371 104.374 64.5726 105.46 64.9248L105.625 64.9872C106.682 65.381 107.893 65.7463 108.524 66.6582C109.265 67.9183 107.766 68.1793 106.838 67.6102C104.935 66.3662 102.849 65.4276 100.943 64.3752ZM110.43 59.0735C108.33 56.7797 113.949 58.9771 114.791 59.5871L114.815 59.6051C115.443 60.0474 115.316 61.0002 114.726 61.28C113.047 61.312 111.811 59.912 110.43 59.0735ZM119.985 56.5603C116.647 54.1604 121.044 55.3019 122.571 56.2425C123.612 57.1608 122.54 58.711 119.985 56.5603Z" clip-rule="evenodd"/><path fill="#000" fill-rule="evenodd" d="M152.125 125.777C153.46 125.466 154.509 126.597 154.247 127.9C153.969 129.279 152.487 129.751 151.244 129.708C149.835 129.659 148.427 129.368 147.011 129.31C145.557 129.25 144.097 129.239 142.641 129.278C141.295 129.314 139.913 129.552 138.578 129.339C138.058 129.255 138.107 128.569 138.445 128.324C139.45 127.6 140.752 127.304 141.937 127C143.144 126.69 144.379 126.452 145.617 126.307C146.873 126.16 148.139 126.087 149.403 126.072C149.978 126.066 150.683 126.194 151.244 126.09C151.53 126.037 151.821 125.848 152.125 125.777ZM148.271 107.867C149.866 108.837 152.297 111.099 150.581 113.504C148.561 115.625 145.652 113.193 144.219 112.094C142.89 111.241 141.397 113.433 142.63 114.428C152.987 122.099 157.19 108.12 149.078 106.726C148.185 106.572 147.853 107.567 148.271 107.867ZM136.702 100.623C138.837 100.268 139.21 103.311 137.095 103.524C136.651 103.568 136.21 103.607 135.769 103.646C135.812 103.784 135.841 103.925 135.856 104.071C135.876 104.195 135.891 104.327 135.905 104.477C135.972 105.226 135.441 106.004 134.821 106.367C134.176 106.745 133.251 106.795 132.612 106.367C132.282 106.147 131.952 105.898 131.77 105.533C131.526 105.158 131.393 104.725 131.379 104.28C130.407 104.532 129.416 104.874 128.433 105.055C128.469 105.091 128.505 105.129 128.539 105.17C128.566 105.202 128.53 105.262 128.491 105.233L127.998 105.123V105.123C127.847 105.143 127.695 105.159 127.544 105.169L127.547 105.156V105.156C127.295 105.151 127.087 104.852 127.314 104.613C128.182 103.695 129.536 103.085 130.772 102.575L131.961 102.087C133.483 101.468 135.089 100.891 136.702 100.623ZM153.871 101.564C155.269 101.405 156.653 101.468 158.053 101.553C160.409 101.697 159.421 105.134 157.529 104.341C157.549 104.466 157.554 104.592 157.539 104.71C157.465 105.314 157.268 105.825 156.714 106.149C156.199 106.451 155.547 106.45 155.032 106.149C154.48 105.827 154.232 105.374 154.091 104.785C153.982 104.328 154.026 103.946 154.089 103.494C154.11 103.344 154.175 103.204 154.265 103.079C154.133 103.046 154.001 103.014 153.869 102.984C152.693 102.717 151.533 102.77 150.361 102.601C150.236 102.583 150.216 102.381 150.325 102.329C151.379 101.834 152.718 101.696 153.871 101.564ZM136.487 90.9478C137.294 90.6399 138.307 91.152 138.719 91.8564C139.186 92.6557 138.987 93.5785 138.41 94.2521C137.525 95.2853 135.84 95.9219 134.598 96.5115L134.499 96.5592C133.223 97.1746 131.913 97.7398 130.586 98.2322C129.28 98.7168 127.921 99.0964 126.567 99.4223C125.854 99.5942 125.125 99.7362 124.395 99.8258C123.819 99.8964 123.375 99.7383 122.824 99.7383C122.744 99.7385 122.718 99.6318 122.784 99.5908C123.299 99.267 123.681 98.8407 124.243 98.5408C124.827 98.2286 125.414 97.9217 126.003 97.6178C127.194 97.0036 128.341 96.3201 129.49 95.6322C130.701 94.907 131.884 94.1434 133.035 93.3259C134.162 92.526 135.2 91.4392 136.487 90.9478ZM150.861 90.2901C151.869 90.0946 152.866 90.5714 153.164 91.5983C153.45 92.5822 153.151 92.7931 153.914 93.4971C154.522 94.0582 155.177 94.5589 155.838 95.0521L156.812 95.776C158.575 97.0816 160.352 98.3161 162.38 99.197C162.551 99.2714 162.452 99.5261 162.289 99.5295C159.067 99.5916 155.977 99.1552 153.068 97.7119C151.709 97.0377 150.344 96.1849 149.556 94.839C148.644 93.2805 148.671 90.7149 150.861 90.2901Z" clip-rule="evenodd"/></svg>