<svg width="160" height="160" viewBox="0 0 160 160" fill="none" xmlns="http://www.w3.org/2000/svg">
<path d="M109.414 126.298H84.9023V131.079H109.414H133.945V126.298H109.414Z" fill="#2D2D2D"/>
<path d="M109.412 93.4736H96.3887V126.298H109.412H122.454V93.4736H109.412Z" fill="#232323"/>
<path d="M101.78 91.8804H99.5156V124.724H101.78H104.025V91.8804H101.78Z" fill="#2D2D2D"/>
<path d="M159.6 47.0957V109.071C159.6 110.308 158.59 111.32 157.355 111.32H61.4954C60.2604 111.32 59.25 110.308 59.25 109.071V47.0957C59.25 45.8585 60.2604 44.8462 61.4954 44.8462H157.336C158.571 44.8462 159.6 45.8585 159.6 47.0957Z" fill="#2D2D2D"/>
<path d="M155.949 105.659C155.949 106.877 154.957 107.89 153.722 107.89H65.1232C63.9069 107.89 62.8965 106.896 62.8965 105.659V50.5262C62.8965 49.3077 63.8882 48.2954 65.1232 48.2954H153.722C154.939 48.2954 155.949 49.289 155.949 50.5262V105.659Z" fill="#F0F2F5"/>
<path d="M155.781 61.4742H150.916C150.692 61.4742 150.486 61.5866 150.374 61.7929L147.735 66.3482L143.469 55.2879C143.376 55.063 143.17 54.8942 142.908 54.8942C142.664 54.8942 142.421 55.0255 142.328 55.2504L138.548 63.2176L137.201 58.8122C137.126 58.5498 136.883 58.381 136.621 58.381C136.303 58.3435 136.115 58.5498 136.022 58.8122L131.7 71.4659L126.086 51.0513C126.011 50.7888 125.768 50.6014 125.487 50.6014C125.207 50.6014 124.963 50.7701 124.889 51.0513L120.342 65.9358L116.936 55.1754C116.861 54.913 116.581 54.7068 116.337 54.7443C116.057 54.7443 115.832 54.9317 115.739 55.1942L111.622 69.1789L108.609 54.4818C108.553 54.2006 108.31 53.9944 108.029 53.9757C107.749 53.9569 107.487 54.1257 107.393 54.4068L104.979 61.5117H91.2077C90.927 61.5117 90.6838 61.6991 90.6089 61.9803L88.6817 69.4601L85.7626 53.0009C85.7065 52.7197 85.482 52.5135 85.1826 52.4947C84.8832 52.476 84.6399 52.6634 84.5464 52.9259L80.617 65.5421L77.8477 59.1309C77.7541 58.9059 77.5296 58.756 77.2863 58.756C77.0431 58.7372 76.8185 58.8872 76.7062 59.0934L74.7041 63.1426L71.8412 55.2692C71.7477 55.0255 71.5044 54.8755 71.2425 54.8568C70.9805 54.8568 70.7373 55.0255 70.6624 55.2879L67.7621 64.0049L65.2361 50.039C65.1799 49.739 64.9367 49.5141 64.5999 49.5328C64.3005 49.5328 64.0385 49.7765 64.0011 50.0765L61.7183 69.2538L58.4063 55.4754C58.3315 55.1942 58.0882 55.0067 57.8076 55.0067C57.5456 55.0067 57.2649 55.1942 57.1901 55.4566L55.5061 61.4929H52.6058C52.269 61.4929 51.9883 61.7741 51.9883 62.1115C51.9883 62.449 52.269 62.7302 52.6058 62.7302H55.9738C56.2545 62.7302 56.4978 62.5427 56.5726 62.2803L57.7514 58.0998L61.3066 72.9281C61.3815 73.228 61.6622 73.4155 61.9428 73.3968C62.2422 73.378 62.4855 73.1531 62.5229 72.8531L64.7309 54.3506L66.9575 66.6481C67.0137 66.9293 67.2382 67.1355 67.5189 67.1543C67.7995 67.173 68.0615 67.0043 68.1551 66.7231L71.2612 57.3875L74.0118 64.9422C74.1053 65.1859 74.3112 65.3359 74.5544 65.3546C74.8164 65.3921 75.0409 65.2234 75.1532 65.0172L77.1928 60.8743L80.093 67.5854C80.1866 67.8291 80.4111 67.9791 80.6918 67.9604C80.9538 67.9416 81.1783 67.7729 81.2532 67.5292L84.9206 55.7378L87.9706 72.4782C88.0267 72.7594 88.27 72.9843 88.5507 72.9843C88.8313 72.9656 89.112 72.7969 89.1681 72.5157L91.6942 62.7114H105.428C105.69 62.7114 105.934 62.5427 106.027 62.2803L107.842 56.9188L110.911 71.8033C110.967 72.0845 111.21 72.2907 111.491 72.2907C111.79 72.2907 112.034 72.122 112.109 71.8408L116.356 57.425L119.743 68.1478C119.818 68.4103 120.024 68.6352 120.342 68.579C120.604 68.579 120.847 68.3915 120.94 68.1291L125.45 53.3758L131.045 73.678C131.119 73.9404 131.363 74.1279 131.625 74.1466H131.643C131.905 74.1466 132.149 73.9779 132.242 73.7154L136.583 60.968L137.837 65.0547C137.912 65.2984 138.136 65.4671 138.38 65.4859C138.623 65.5046 138.866 65.3546 138.978 65.1297L142.833 57.0313L147.043 67.9604C147.137 68.1853 147.342 68.3353 147.586 68.354C147.829 68.3728 148.053 68.2603 148.166 68.0541L151.272 62.6739H155.781C155.819 62.6739 155.856 62.6552 155.894 62.6552V61.4554C155.856 61.4929 155.819 61.4742 155.781 61.4742Z" fill="#67C0F8"/>
<path d="M155.78 94.4674H152.412C152.132 94.4674 151.888 94.6548 151.813 94.9173L150.541 99.4726L147.622 90.9056C147.529 90.6806 147.285 90.5119 147.023 90.5119C146.817 90.5307 146.518 90.6619 146.425 90.9056L144.142 96.9231L141.372 90.4369C141.26 90.1932 141.036 90.062 140.774 90.062C140.512 90.0808 140.287 90.2495 140.212 90.4932L137.162 99.6788L134.318 90.362C134.243 90.1183 134.019 89.9308 133.757 89.9308C133.514 89.912 133.252 90.062 133.139 90.3057L130.407 96.342L128.181 87.0064C128.125 86.7252 127.863 86.5377 127.582 86.519C127.283 86.519 127.039 86.7064 126.965 86.9689L123.334 99.5476L120.415 84.7381C120.359 84.4569 120.116 84.2507 119.817 84.2319C119.499 84.2132 119.274 84.4194 119.199 84.7006L116.673 94.5049H102.939C102.733 94.5049 102.546 94.5986 102.434 94.7673L100.263 97.7667L97.1944 90.6244C97.1009 90.3995 96.8763 90.2495 96.6144 90.2495C96.315 90.2307 96.1279 90.3995 96.0343 90.6244L92.0862 100.091L88.6058 89.0497C88.531 88.7873 88.269 88.5811 88.007 88.6186C87.7264 88.6186 87.5018 88.806 87.4083 89.0685L83.2356 103.166L79.0442 83.5571C78.9881 83.2946 78.7635 83.0884 78.5016 83.0697C78.2396 83.0322 77.9776 83.1822 77.8654 83.4259L71.859 96.5107L69.9504 90.3057C69.8755 90.0433 69.6323 89.8746 69.3703 89.8746C69.0897 89.8371 68.8651 90.0433 68.7716 90.3057L64.8608 101.891L61.4553 87.55C61.3992 87.2876 61.1747 87.1001 60.9127 87.0814C60.6507 87.0626 60.4075 87.1939 60.2765 87.4376L57.0394 94.5236H52.5673C52.5299 94.5236 52.4925 94.5424 52.4551 94.5424V95.7421C52.4925 95.7421 52.5299 95.7609 52.5673 95.7609H57.4324C57.6756 95.7609 57.9001 95.6109 57.9937 95.4047L60.6507 89.5934L64.1498 104.29C64.2059 104.553 64.4492 104.759 64.7299 104.759C65.0105 104.797 65.2538 104.59 65.3473 104.328L69.3329 92.5178L71.1479 98.4228C71.2228 98.6665 71.4473 98.854 71.7093 98.854C71.9712 98.8727 72.2145 98.7228 72.3081 98.4978L78.2022 85.6192L82.5059 105.771C82.562 106.053 82.8052 106.259 83.0859 106.259H83.1046C83.3853 106.259 83.6285 106.071 83.7034 105.809L88.007 91.318L91.3938 102.06C91.4687 102.303 91.6932 102.491 91.9552 102.491C92.1984 102.491 92.4604 102.341 92.554 102.116L96.5769 92.4428L99.4959 99.2289C99.5895 99.4351 99.7766 99.5851 100.001 99.6038C100.226 99.6226 100.45 99.5289 100.581 99.3601L103.201 95.7234H117.104C117.384 95.7234 117.627 95.5359 117.702 95.2547L119.779 87.6438L122.661 102.285C122.717 102.566 122.96 102.772 123.241 102.791C123.54 102.809 123.784 102.622 123.858 102.341L127.545 89.5746L129.64 98.3666C129.696 98.629 129.921 98.8165 130.183 98.854C130.445 98.854 130.707 98.7228 130.8 98.4791L133.588 92.2928L136.507 101.891C136.582 102.153 136.826 102.322 137.087 102.341C137.406 102.341 137.593 102.172 137.686 101.91L140.83 92.424L143.562 98.8165C143.655 99.0414 143.88 99.1727 144.142 99.1914C144.404 99.1914 144.628 99.0227 144.703 98.7977L146.93 92.9489L149.942 101.76C150.036 102.022 150.26 102.172 150.541 102.191C150.822 102.191 151.046 102.003 151.121 101.741L152.805 95.7046H155.705C155.743 95.7046 155.78 95.6859 155.818 95.6859V94.4861C155.855 94.4861 155.818 94.4674 155.78 94.4674Z" fill="#FF4A39"/>
<path d="M154.454 76.8085L152.078 80.4265L150.431 76.7335L147.849 79.5454L145.36 76.546L143.358 79.9578L140.626 76.7897L137.95 81.3076L134.769 76.4898L130.728 81.6075L126.854 77.5208L124.16 79.6766L121.185 77.2771L117.817 80.4452L115.085 76.771L110.519 81.4763L107.17 76.8835L104.251 81.495L100.901 75.59L97.5521 81.8512L96.0739 74.2402L93.8472 81.6637L91.5082 77.2209L89.1693 82.8073L86.8491 74.3152L83.2752 82.0012L79.6264 76.2086L76.67 79.5829L73.1709 76.9959L72.7967 77.5208C71.6927 79.0768 70.4765 80.7452 69.8403 81.57L66.4348 76.2836L63.4596 80.5015L59.9793 76.2461L57.4345 81.5138L55.1517 75.8524L52.8689 80.5015L52.5508 80.1265V82.1136L53.1308 82.826L55.0207 78.9643L57.3035 84.6444L60.2412 78.5706L63.5158 82.5636L66.3786 78.5331L69.5596 83.4821L70.1022 83.1634C70.2145 83.0884 70.4952 82.9197 73.4703 78.7768L76.8758 81.2701L79.4767 78.3082L83.4623 84.6444L86.5497 77.9895L88.926 86.6877L91.6579 80.1828L94.184 85.0006L95.8119 79.5454L96.972 85.5817L100.92 78.1957L104.176 83.9508L107.245 79.133L110.388 83.4259L114.973 78.7018L117.667 82.3011L121.26 78.9268L124.179 81.2701L126.761 79.208L130.84 83.5196L134.695 78.6268L138.025 83.6696L140.832 78.9268L143.583 82.0949L145.566 78.7206L147.83 81.4388L150.094 78.983L151.909 83.0322L154.697 78.7956L155.932 80.0703V78.2707L154.454 76.8085Z" fill="#004882"/>
<path opacity="0.3" d="M62.8965 105.659V50.5262C62.8965 49.3077 63.8882 48.2954 65.1232 48.2954H153.722L62.8965 105.659Z" fill="white"/>
<path d="M84.4559 66.0107C84.4559 76.3023 80.0213 85.563 72.967 91.9929C72.9109 92.1991 72.8547 92.4053 72.7799 92.6303V92.649C72.7425 92.7428 72.7238 92.8552 72.6863 92.9677V92.9865C72.6489 93.0989 72.6302 93.1927 72.5928 93.3051C72.5928 93.3239 72.5928 93.3239 72.5741 93.3426C72.5554 93.4364 72.5179 93.5301 72.4992 93.6238C72.4992 93.6426 72.4805 93.6801 72.4805 93.6988C72.4618 93.7925 72.4244 93.8863 72.4057 93.98C72.4057 94.0175 72.387 94.0363 72.387 94.0737C72.3682 94.1675 72.3308 94.2612 72.3121 94.3549C72.2934 94.3924 72.2934 94.4299 72.2934 94.4674C72.2747 94.5611 72.2373 94.6549 72.2186 94.7299C72.1998 94.7673 72.1998 94.8048 72.1811 94.8423C72.1624 94.9361 72.125 95.0298 72.1063 95.1048C72.0876 95.1423 72.0876 95.1985 72.0689 95.236C72.0501 95.3297 72.0127 95.4235 71.994 95.5172C71.9753 95.5547 71.9753 95.6109 71.9566 95.6484C71.9379 95.7422 71.9005 95.8171 71.8817 95.9109C71.863 95.9671 71.863 96.0233 71.8443 96.0608C71.8256 96.1546 71.8069 96.2296 71.7882 96.3045C71.7695 96.3608 71.7508 96.417 71.7508 96.4733C71.7321 96.5482 71.7133 96.6232 71.6946 96.717C71.6759 96.7732 71.6572 96.8482 71.6385 96.9044C71.6198 96.9794 71.6011 97.0544 71.5824 97.1294C71.5637 97.2044 71.5449 97.2793 71.5262 97.3356C71.5075 97.4106 71.4888 97.4855 71.4701 97.5605C70.31 102.285 69.1873 107.908 69.4492 111.32H59.345C58.11 111.32 57.0996 110.308 57.0996 109.071V47.0957C57.0996 45.8585 58.11 44.8462 59.345 44.8462H77.5139C77.832 45.3336 78.1314 45.821 78.4308 46.3271C82.248 51.951 84.4559 58.7184 84.4559 66.0107Z" fill="#8DA4BA"/>
<path d="M28.7715 132.016H69.5814C69.5814 132.016 66.9431 120.75 66.1198 111.471C65.521 104.778 70.4421 89.2564 70.4421 89.2564C70.4421 89.2564 28.7154 84.6823 30.2684 93.9804C31.8776 103.635 28.7715 132.016 28.7715 132.016Z" fill="white"/>
<path d="M54.0108 121.743C54.3663 124.593 55.0961 127.386 56.2749 130.01C56.5743 130.666 56.8737 131.341 57.1543 131.997H58.1648C57.7157 130.985 57.2292 129.992 56.8175 128.96C55.8632 126.598 55.2083 124.143 54.909 121.612C54.5909 118.931 54.5721 116.213 54.6283 113.495C54.6657 111.714 54.7218 109.933 54.9277 108.19C55.0212 107.309 55.1522 106.428 55.3393 105.546C55.8445 103.053 56.7053 100.747 57.9215 98.5354C58.3519 97.748 58.7823 96.942 59.2126 96.1359C59.3623 95.8547 59.9611 94.4112 60.3914 94.355C60.5037 94.3362 60.5224 94.1675 60.4289 94.1488C59.4372 93.8301 58.2022 96.5108 57.828 97.1107C56.5743 99.1728 55.5077 101.216 54.8715 103.578C54.4037 105.284 54.1231 107.046 53.9547 108.808C53.8237 110.196 53.7488 111.602 53.7301 112.989C53.6927 115.913 53.6553 118.856 54.0108 121.743Z" fill="#004882"/>
<path d="M60.582 126.861C60.582 128.492 62.0041 129.804 63.763 129.804C65.5219 129.804 66.9439 128.492 66.9439 126.861C66.9439 125.23 65.5219 123.918 63.763 123.918C62.0228 123.918 60.582 125.23 60.582 126.861Z" fill="#004882"/>
<path d="M58.8965 120.75C58.8965 122.381 60.3186 123.693 62.0774 123.693C63.8363 123.693 65.2584 122.381 65.2584 120.75C65.2584 119.119 63.8363 117.807 62.0774 117.807C60.3186 117.807 58.8965 119.119 58.8965 120.75Z" fill="#004882"/>
<path d="M58.3184 114.395C58.3184 116.026 59.7404 117.338 61.4993 117.338C63.2582 117.338 64.6803 116.026 64.6803 114.395C64.6803 112.764 63.2582 111.452 61.4993 111.452C59.7404 111.452 58.3184 112.783 58.3184 114.395Z" fill="#004882"/>
<path d="M58.5586 108.039C58.5586 109.67 59.9807 110.983 61.7396 110.983C63.4984 110.983 64.9205 109.67 64.9205 108.039C64.9205 106.408 63.4984 105.096 61.7396 105.096C59.9807 105.096 58.5586 106.427 58.5586 108.039Z" fill="#004882"/>
<path d="M59.7578 101.816C59.7578 103.447 61.1799 104.759 62.9388 104.759C64.6977 104.759 66.1197 103.447 66.1197 101.816C66.1197 100.185 64.6977 98.873 62.9388 98.873C61.1986 98.873 59.7578 100.185 59.7578 101.816Z" fill="#004882"/>
<path opacity="0.6" d="M29.9668 118.688C30.6217 109.952 31.1456 99.2103 30.2662 93.9614C28.7131 84.6632 70.4399 89.2373 70.4399 89.2373C70.4399 89.2373 69.2424 93.0428 68.101 97.7106C59.0071 106.634 47.8363 113.495 35.599 117.15C33.7278 117.713 31.838 118.219 29.9668 118.688Z" fill="#D7E0E9"/>
<path d="M61.4219 95.6673C61.4219 97.2982 62.8439 98.6104 64.6028 98.6104C66.3617 98.6104 67.7838 97.2982 67.7838 95.6673C67.7838 94.0364 66.3617 92.7241 64.6028 92.7241C62.8627 92.7241 61.4219 94.0364 61.4219 95.6673Z" fill="#004882"/>
<path d="M11.0117 66.0111C11.0117 85.3946 26.692 101.123 46.0585 101.123C52.8695 101.123 59.2314 99.1731 64.6016 95.7988C74.5001 89.5938 81.1052 78.571 81.1052 66.0111C81.1052 57.6503 78.1862 49.9831 73.3212 43.9655C66.9032 35.9984 57.0796 30.8994 46.0585 30.8994C26.7107 30.8994 11.0117 46.6275 11.0117 66.0111Z" fill="#D7E0E9"/>
<path d="M69.8231 77.596C71.1516 68.8227 80.7693 59.8808 77.5322 51.445C74.4635 43.4779 68.2887 36.0919 60.3176 33.1674C54.648 31.0679 47.7808 30.5805 41.1944 31.1054C37.5269 31.3866 33.9343 31.9864 30.6785 32.7925C22.0524 34.9296 15.9525 40.1598 11.8734 47.827C9.75895 51.8012 8.59883 56.5065 9.366 61.0618C9.98348 64.8111 9.75895 67.6042 7.62583 70.8473C6.09148 73.1719 2.0872 80.7641 2.04978 81.0078C1.78782 83.0136 7.47614 83.5198 8.56141 84.2884C11.2933 86.5942 7.30773 88.45 7.45742 90.8308C7.55098 92.4805 10.4326 92.0306 8.99177 93.5677C8.28073 94.3363 7.85037 94.7113 8.59883 95.5361C10.0022 96.136 9.96477 98.723 9.74023 99.8852C9.72152 102.528 8.18717 107.871 11.4991 109.802C17.5055 113.326 64.9768 109.371 69.8231 77.596Z" fill="#D7E0E9"/>
<path d="M24.3926 66.0106C24.3926 54.013 34.1039 44.2837 46.0793 44.2837C58.0547 44.2837 67.766 54.013 67.766 66.0106C67.766 78.0081 58.0547 87.7374 46.0793 87.7374C34.0852 87.7374 24.3926 78.0081 24.3926 66.0106Z" fill="#004882"/>
<path d="M26.9746 66.0108C26.9746 55.4567 35.5258 46.8896 46.0604 46.8896C56.595 46.8896 65.1462 55.4567 65.1462 66.0108C65.1462 76.5649 56.595 85.1319 46.0604 85.1319C35.5258 85.1319 26.9746 76.5837 26.9746 66.0108Z" fill="#D7E0E9"/>
<path d="M39.5469 66.011C39.5469 62.4117 42.4659 59.4873 46.0585 59.4873C49.6511 59.4873 52.5701 62.4117 52.5701 66.011C52.5701 69.6103 49.6511 72.5347 46.0585 72.5347C42.4659 72.5534 39.5469 69.629 39.5469 66.011Z" fill="white"/>
<path d="M42.3535 66.0111C42.3535 63.949 44.0188 62.2993 46.0584 62.2993C48.098 62.2993 49.7633 63.9677 49.7633 66.0111C49.7633 68.0544 48.098 69.7228 46.0584 69.7228C44.0188 69.7228 42.3535 68.0732 42.3535 66.0111Z" fill="#004882"/>
<path d="M11.0117 66.0111C11.0117 85.3946 26.692 101.123 46.0585 101.123C52.8695 101.123 59.2314 99.1731 64.6017 95.7988C64.7888 94.974 64.7701 94.1304 64.5081 93.2868C63.6474 90.5499 61.0277 89.1626 56.7054 89.1626C53.6928 89.1626 49.726 89.8188 44.6177 91.1497C42.8027 91.6184 41.0625 91.8621 39.4346 91.8621C30.6214 91.8621 26.3178 84.6073 22.8561 78.7772C19.9184 73.847 18.7209 64.3801 22.1077 55.8881C23.8853 51.4265 27.6276 45.6527 35.4116 43.4594C38.1061 42.6908 40.8567 42.3346 43.8692 42.3346C47.8361 42.3346 51.8591 42.972 56.1066 43.6656L57.4538 43.8718C58.1274 43.9843 58.9695 44.153 59.9425 44.3592C62.3188 44.8653 65.2753 45.5027 67.9323 45.5027C70.29 45.5027 72.2734 44.8841 73.5084 43.853C73.2838 43.4969 72.9844 43.0657 72.7038 42.747C66.267 35.361 56.6118 30.8994 46.0585 30.8994C26.7107 30.8994 11.0117 46.6275 11.0117 66.0111Z" fill="#004882"/>
<path d="M5.75276 91.993C5.86503 93.7364 8.91502 93.2677 7.38067 94.8986C6.6135 95.7047 6.16442 96.1171 6.96902 96.9795C7.5865 97.2232 7.94202 97.8418 8.12913 98.5541C8.22269 98.9103 8.27882 99.2852 8.29754 99.6602C8.33496 100.373 8.27882 101.085 8.18527 101.554C8.16656 104.347 6.55736 109.989 10.0377 112.033C11.4598 112.876 16.6242 112.726 22.799 112.014C23.1545 111.976 23.4913 111.939 23.8468 111.883C32.2858 110.852 42.3152 108.865 47.386 106.915C57.247 103.166 64.5632 97.823 63.2534 93.6614C61.9436 89.4997 55.17 89.7247 44.9535 92.4054C31.556 95.9297 25.9613 86.5378 21.7324 79.433C15.988 69.76 17.7282 47.0958 35.0738 42.1843C42.8204 39.991 49.7062 41.3032 57.6586 42.5592C61.6442 43.1966 70.7754 46.1585 73.2828 42.0156C71.4865 38.7725 62.9166 28.4808 44.9535 28.6495C44.598 28.6495 44.2612 28.6683 43.9056 28.6683C43.101 28.687 42.2777 28.7432 41.417 28.8182C37.5437 29.1369 33.7453 29.7555 30.3023 30.6179C21.1898 32.8674 14.753 38.3975 10.4119 46.5147C8.16656 50.7138 6.96902 55.6815 7.7549 60.4993C7.7549 60.5181 7.7549 60.5368 7.7549 60.5556C7.82975 61.0242 7.90459 61.4741 7.94202 61.9053C8.31625 65.1859 7.88588 67.8478 5.90246 70.8472C4.27455 73.303 0.0457384 81.3451 0.00831526 81.5888C-0.253647 83.7259 5.75276 84.2508 6.89417 85.0756C9.79446 87.5126 5.60307 89.4622 5.75276 91.993Z" fill="white"/>
<path d="M31.3346 66.873L34.4781 67.8853C34.7401 67.9228 34.9646 68.0915 35.0956 68.3165C35.264 69.1038 35.5073 69.8537 35.8254 70.5848C35.7692 70.6785 35.6944 70.7723 35.6008 70.8472L33.3742 73.303C33.0748 73.5279 33.0186 73.9779 33.2432 74.2778L35.264 76.9398C35.4886 77.2397 35.9376 77.2959 36.237 77.071L39.1747 75.5525C39.3993 75.3838 39.6612 75.3463 39.9045 75.4213C40.5594 75.8525 41.2704 76.2274 42.0189 76.5086C42.0563 76.6211 42.0563 76.7335 42.0376 76.846L42.1873 80.1454C42.1312 80.539 42.4118 80.8765 42.7861 80.9327L46.0793 81.3826C46.4535 81.4388 46.8091 81.1577 46.8652 80.7827L47.8756 77.6334C47.913 77.3709 48.0814 77.146 48.306 77.0147C49.0919 76.846 49.8403 76.6023 50.5701 76.2836C50.6636 76.3399 50.7572 76.4149 50.832 76.5086L53.2832 78.7394C53.5078 79.0393 53.9569 79.0956 54.2563 78.8706L56.9133 76.846C57.2127 76.6211 57.2688 76.1712 57.0443 75.8712L55.5473 72.9281C55.3789 72.7031 55.3415 72.4407 55.4164 72.1782C55.8467 71.5221 56.221 70.8097 56.5016 70.0599C56.6139 70.0224 56.7262 70.0224 56.8384 70.0412L60.1504 69.8912C60.5246 69.9474 60.8801 69.685 60.9363 69.2913L61.3854 65.992C61.4415 65.617 61.1608 65.2609 60.7866 65.2046L57.643 64.1923C57.3811 64.1548 57.1565 63.9861 57.0256 63.7612C56.8572 62.9738 56.6139 62.2052 56.2958 61.4929C56.3519 61.3991 56.4268 61.3054 56.5204 61.2304L58.747 58.7747C59.0464 58.531 59.1025 58.0998 58.878 57.7999L56.8572 55.1379C56.6326 54.838 56.1835 54.7817 55.8842 55.0067L52.9464 56.5064C52.7219 56.6751 52.4599 56.7126 52.198 56.6376C51.5431 56.2064 50.832 55.8503 50.0836 55.5503C50.0462 55.4379 50.0462 55.3254 50.0462 55.2129L49.8965 51.8948C49.9526 51.5199 49.6719 51.1637 49.2977 51.1075L45.9857 50.6576C45.6115 50.6013 45.256 50.8825 45.1999 51.2574L44.1894 54.4068C44.152 54.688 43.9836 54.8942 43.7591 55.0254C42.9732 55.1942 42.2247 55.4379 41.495 55.7565C41.4014 55.7003 41.3079 55.6253 41.233 55.5316L38.7818 53.3008C38.5573 53.0008 38.1082 52.9259 37.8088 53.1696L35.1518 55.1942C34.8524 55.4191 34.7962 55.869 35.0208 56.169L36.5177 59.1121C36.6861 59.3371 36.7235 59.5995 36.6487 59.862C36.2183 60.5181 35.8628 61.2304 35.5634 61.9803C35.4511 62.0178 35.3389 62.0178 35.2266 61.999L31.9147 62.149C31.5404 62.0928 31.1849 62.374 31.1288 62.7489L30.6797 66.067C30.6797 66.4606 30.9604 66.8168 31.3346 66.873ZM36.7422 66.0107C36.7422 60.8555 40.9149 56.6751 46.0606 56.6751C51.2063 56.6751 55.3789 60.8555 55.3789 66.0107C55.3789 71.1659 51.2063 75.3463 46.0606 75.3463C40.9149 75.3463 36.7422 71.1659 36.7422 66.0107Z" fill="#004882"/>
<path d="M8.11328 98.5356C8.20684 98.8918 8.26297 99.2667 8.28168 99.6416C9.53536 99.4729 10.789 99.4354 11.9866 99.6604C16.4025 100.485 20.0513 104.028 21.4733 108.209C21.885 109.427 22.147 110.852 22.8019 112.014C23.1574 111.977 23.4942 111.939 23.8497 111.883C23.5316 111.414 23.2696 110.833 23.0638 110.158C22.465 108.19 21.9598 106.24 20.7997 104.497C18.3859 100.879 14.2132 98.2169 9.79732 98.3669C9.23597 98.4044 8.67463 98.4606 8.11328 98.5356Z" fill="#004882"/>
<path d="M7.77539 60.5555C7.85024 61.0241 7.92508 61.474 7.96251 61.9052C9.02907 61.5115 10.0021 60.9304 10.8628 60.0868C12.9024 58.081 14.6051 55.569 15.7465 52.9258C17.075 49.8889 18.1603 46.7583 19.6572 43.8151C20.9296 41.2844 22.4265 39.0161 25.0649 37.7601C29.3872 35.698 34.3832 35.9417 38.7992 34.1608C41.1755 33.2047 43.1215 31.6676 44.4875 29.493C44.6559 29.2118 44.8243 28.9306 44.974 28.6494C44.6185 28.6494 44.2817 28.6682 43.9261 28.6682C43.87 28.7431 43.8139 28.8369 43.7577 28.9119C42.7473 30.3928 41.4749 31.7238 39.847 32.5486C35.4872 34.7607 30.3977 34.4045 25.8882 36.1104C23.7738 36.9165 21.8091 38.1725 20.4618 40.0284C18.6281 42.5404 17.468 45.5398 16.3079 48.4079C14.5303 52.7195 12.21 58.5871 7.77539 60.5555Z" fill="#004882"/>
</svg>
