<svg width="160" height="160" viewBox="0 0 160 160" fill="none" xmlns="http://www.w3.org/2000/svg">
<g clip-path="url(#clip0)">
<g opacity="0.61">
<g opacity="0.61">
<path opacity="0.74" d="M58.1332 53.4477L58.9634 122.064C58.9723 122.92 58.2903 123.618 57.4422 123.632L16.3918 124.132C15.5392 124.141 14.8437 123.456 14.8302 122.605L14.0001 53.9885C13.9911 53.1323 14.6732 52.4338 15.5213 52.4202L56.5716 51.92C57.4242 51.911 58.1198 52.596 58.1332 53.4477Z" fill="#6D6CD4"/>
<g opacity="0.61">
<path opacity="0.61" d="M58.2817 53.4183L58.331 57.4967L14.1979 58.0329L14.1485 53.8824C14.1396 53.0622 14.7902 52.3953 15.6069 52.3818L56.7111 51.8815C57.5682 51.868 58.2682 52.5575 58.2817 53.4183Z" fill="#3E479B"/>
</g>
</g>
<path opacity="0.61" d="M17.1869 56.0049C16.6844 56.0094 16.276 55.6038 16.2715 55.0991C16.267 54.5943 16.6709 54.1842 17.1735 54.1797C17.6761 54.1752 18.0844 54.5808 18.0889 55.0855C18.0934 55.5903 17.6895 56.0004 17.1869 56.0049ZM17.178 54.5448C16.8773 54.5493 16.635 54.7926 16.635 55.0945C16.6395 55.3965 16.8818 55.6398 17.1825 55.6398C17.4831 55.6353 17.7254 55.392 17.7254 55.09C17.7254 54.7881 17.4786 54.5448 17.178 54.5448Z" fill="white"/>
<path opacity="0.61" d="M20.2241 55.9824C19.7215 55.9869 19.3131 55.5813 19.3086 55.0766C19.3041 54.5719 19.708 54.1618 20.2106 54.1573C20.7132 54.1528 21.1215 54.5583 21.126 55.0631C21.126 55.5678 20.7221 55.9779 20.2241 55.9824ZM20.2106 54.5223C19.9099 54.5268 19.6676 54.7702 19.6676 55.0721C19.6721 55.374 19.9144 55.6174 20.2151 55.6174C20.5157 55.6129 20.758 55.3695 20.758 55.0676C20.758 54.7611 20.5112 54.5178 20.2106 54.5223Z" fill="white"/>
<path opacity="0.61" d="M23.1713 55.9599C22.6687 55.9644 22.2604 55.5589 22.2559 55.0541C22.2514 54.5494 22.6553 54.1393 23.1579 54.1348C23.6604 54.1303 24.0688 54.5359 24.0733 55.0406C24.0778 55.5453 23.6739 55.9554 23.1713 55.9599ZM23.1623 54.4998C22.8617 54.4998 22.6194 54.7477 22.6194 55.0496C22.6194 55.3516 22.8662 55.5949 23.1668 55.5949C23.4675 55.5904 23.7098 55.3471 23.7098 55.0451C23.7098 54.7387 23.463 54.4953 23.1623 54.4998Z" fill="white"/>
<path opacity="0.61" d="M38.3743 64.3648L17.9793 64.518C17.7774 64.518 17.6158 64.3558 17.6113 64.1575C17.6113 63.9547 17.7729 63.7925 17.9703 63.788L38.3653 63.6348C38.5673 63.6348 38.7288 63.797 38.7333 63.9953C38.7333 64.2026 38.5717 64.3648 38.3743 64.3648Z" fill="white"/>
<path opacity="0.61" d="M45.1679 64.315L40.9363 64.3466C40.7344 64.3466 40.5728 64.1843 40.5684 63.986C40.5684 63.7832 40.7299 63.621 40.9273 63.6165L45.1589 63.585C45.3609 63.585 45.5224 63.7472 45.5269 63.9455C45.5314 64.1483 45.3698 64.315 45.1679 64.315Z" fill="#3E479B"/>
<path opacity="0.61" d="M38.5013 81.3678L18.1062 81.521C17.9043 81.521 17.7428 81.3587 17.7383 81.1605C17.7383 80.9577 17.8998 80.7954 18.0973 80.7909L38.4923 80.6377C38.6942 80.6377 38.8558 80.7999 38.8603 80.9982C38.8647 81.2055 38.7032 81.3678 38.5013 81.3678Z" fill="white"/>
<path opacity="0.61" d="M45.2988 81.3179L41.0672 81.3495C40.8653 81.3495 40.7037 81.1872 40.6992 80.989C40.6992 80.7862 40.8608 80.6239 41.0582 80.6194L45.2898 80.5879C45.4917 80.5879 45.6533 80.7501 45.6578 80.9484C45.6622 81.1512 45.5007 81.3179 45.2988 81.3179Z" fill="#599AF2"/>
<path opacity="0.61" d="M38.4329 72.4809L18.0379 72.6386C17.836 72.6386 17.6744 72.4764 17.6699 72.2781C17.6699 72.0753 17.8315 71.9131 18.0289 71.9086L38.4239 71.7554C38.6259 71.7554 38.7874 71.9176 38.7919 72.1159C38.7964 72.3142 38.6348 72.4809 38.4329 72.4809Z" fill="#599AF2"/>
<path opacity="0.61" d="M45.2324 72.4312L41.0008 72.4628C40.7988 72.4628 40.6373 72.3005 40.6328 72.1022C40.6328 71.8995 40.7944 71.7372 40.9918 71.7327L45.2234 71.7012C45.4253 71.7012 45.5869 71.8634 45.5913 72.0617C45.5958 72.2645 45.4343 72.4267 45.2324 72.4312Z" fill="white"/>
<path opacity="0.61" d="M52.2011 72.377L47.9695 72.4086C47.7676 72.4086 47.606 72.2463 47.6016 72.0481C47.6016 71.8453 47.7631 71.683 47.9606 71.6785L52.1921 71.647C52.3941 71.647 52.5556 71.8092 52.5601 72.0075C52.5646 72.2103 52.403 72.377 52.2011 72.377Z" fill="#3E479B"/>
<path opacity="0.61" d="M31.6033 68.4117L18.0066 68.5153C17.8047 68.5153 17.6432 68.3531 17.6387 68.1548C17.6387 67.952 17.8002 67.7898 17.9977 67.7853L31.5943 67.6816C31.7963 67.6816 31.9578 67.8439 31.9623 68.0422C31.9668 68.245 31.8052 68.4117 31.6033 68.4117Z" fill="#3E479B"/>
<path opacity="0.61" d="M40.0719 68.3482L34.1082 68.3933C33.9063 68.3933 33.7447 68.2311 33.7402 68.0328C33.7402 67.83 33.9018 67.6677 34.0992 67.6632L40.0629 67.6182C40.2648 67.6182 40.4264 67.7804 40.4309 67.9787C40.4354 68.1815 40.2738 68.3437 40.0719 68.3482Z" fill="#F7A9B4"/>
<path opacity="0.61" d="M40.1346 76.8971L26.5379 77.0007C26.336 77.0007 26.1744 76.8385 26.1699 76.6402C26.1699 76.4374 26.3315 76.2751 26.5289 76.2706L40.1256 76.167C40.3275 76.167 40.4891 76.3292 40.4936 76.5275C40.498 76.7303 40.3365 76.8971 40.1346 76.8971Z" fill="#3E479B"/>
<path opacity="0.61" d="M24.0387 77.0191L18.075 77.0642C17.8731 77.0642 17.7115 76.9019 17.707 76.7037C17.707 76.5009 17.8686 76.3386 18.066 76.3341L24.0297 76.2891C24.2316 76.2891 24.3932 76.4513 24.3977 76.6496C24.4022 76.8569 24.2406 77.0191 24.0387 77.0191Z" fill="#F7A9B4"/>
<path opacity="0.61" d="M38.5462 87.1002L18.1512 87.2534C17.9492 87.2534 17.7877 87.0912 17.7832 86.8929C17.7832 86.6901 17.9447 86.5278 18.1422 86.5233L38.5372 86.3701C38.7391 86.3701 38.9007 86.5324 38.9052 86.7306C38.9052 86.9379 38.7436 87.1002 38.5462 87.1002Z" fill="#F7A9B4"/>
<path opacity="0.61" d="M45.3437 87.0504L41.1121 87.0819C40.9102 87.0819 40.7486 86.9197 40.7441 86.7214C40.7441 86.5186 40.9057 86.3564 41.1031 86.3519L45.3347 86.3203C45.5366 86.3203 45.6982 86.4825 45.7027 86.6808C45.7027 86.8836 45.5411 87.0504 45.3437 87.0504Z" fill="#3E479B"/>
<path opacity="0.61" d="M38.6712 104.103L18.2762 104.256C18.0742 104.256 17.9127 104.094 17.9082 103.896C17.9082 103.693 18.0697 103.531 18.2672 103.526L38.6622 103.373C38.8641 103.373 39.0257 103.535 39.0302 103.734C39.0347 103.941 38.8731 104.103 38.6712 104.103Z" fill="white"/>
<path opacity="0.61" d="M45.4687 104.053L41.2371 104.085C41.0352 104.085 40.8736 103.923 40.8691 103.724C40.8691 103.522 41.0307 103.359 41.2281 103.355L45.4597 103.323C45.6616 103.323 45.8232 103.485 45.8277 103.684C45.8322 103.887 45.6706 104.053 45.4687 104.053Z" fill="#599AF2"/>
<path opacity="0.61" d="M38.6028 95.2159L18.2078 95.3691C18.0059 95.3691 17.8443 95.2069 17.8398 95.0086C17.8398 94.8058 18.0014 94.6436 18.1988 94.6391L38.5938 94.4858C38.7958 94.4858 38.9573 94.6481 38.9618 94.8464C38.9663 95.0491 38.8048 95.2159 38.6028 95.2159Z" fill="#599AF2"/>
<path opacity="0.61" d="M45.4023 95.1666L41.1707 95.1981C40.9688 95.1981 40.8072 95.0359 40.8027 94.8376C40.8027 94.6348 40.9643 94.4726 41.1617 94.4681L45.3933 94.4365C45.5952 94.4365 45.7568 94.5988 45.7613 94.797C45.7658 94.9998 45.6042 95.1621 45.4023 95.1666Z" fill="white"/>
<path opacity="0.61" d="M52.3711 95.1123L48.1395 95.1439C47.9376 95.1439 47.7761 94.9817 47.7716 94.7834C47.7671 94.5851 47.9331 94.4184 48.1306 94.4139L52.3621 94.3823C52.5641 94.3823 52.7256 94.5446 52.7301 94.7428C52.7346 94.9456 52.573 95.1123 52.3711 95.1123Z" fill="#3E479B"/>
<path opacity="0.61" d="M31.7752 91.1466L18.1785 91.2502C17.9766 91.2502 17.815 91.088 17.8105 90.8897C17.8105 90.6869 17.9721 90.5247 18.1695 90.5202L31.7662 90.4165C31.9681 90.4165 32.1297 90.5787 32.1342 90.777C32.1387 90.9798 31.9771 91.1466 31.7752 91.1466Z" fill="#3E479B"/>
<path opacity="0.61" d="M40.2418 91.0836L34.2781 91.1286C34.0762 91.1286 33.9146 90.9664 33.9102 90.7681C33.9102 90.5653 34.0717 90.4031 34.2691 90.3986L40.2328 90.3535C40.4348 90.3535 40.5963 90.5157 40.6008 90.714C40.6053 90.9168 40.4437 91.0791 40.2418 91.0836Z" fill="#F7A9B4"/>
<path opacity="0.61" d="M40.3045 99.6324L26.7078 99.736C26.5059 99.736 26.3443 99.5738 26.3398 99.3755C26.3398 99.1727 26.5014 99.0105 26.6988 99.006L40.2955 98.9023C40.4974 98.9023 40.659 99.0646 40.6635 99.2629C40.668 99.4656 40.5064 99.6324 40.3045 99.6324Z" fill="#3E479B"/>
<path opacity="0.61" d="M24.2086 99.754L18.2449 99.799C18.043 99.799 17.8814 99.6368 17.877 99.4385C17.877 99.2357 18.0385 99.0735 18.2359 99.069L24.1996 99.0239C24.4016 99.0239 24.5631 99.1862 24.5676 99.3844C24.5721 99.5917 24.4105 99.754 24.2086 99.754Z" fill="#F7A9B4"/>
<path opacity="0.61" d="M38.7122 109.362L18.3172 109.515C18.1153 109.515 17.9537 109.353 17.9492 109.155C17.9492 108.952 18.1108 108.79 18.3082 108.785L38.7032 108.632C38.9052 108.632 39.0667 108.794 39.0712 108.992C39.0757 109.195 38.9141 109.362 38.7122 109.362Z" fill="#F7A9B4"/>
<path opacity="0.61" d="M45.5116 109.312L41.2801 109.344C41.0781 109.344 40.9166 109.181 40.9121 108.983C40.9121 108.78 41.0737 108.618 41.2711 108.614L45.5027 108.582C45.7046 108.582 45.8661 108.744 45.8706 108.943C45.8751 109.145 45.7136 109.308 45.5116 109.312Z" fill="#3E479B"/>
<path opacity="0.61" d="M45.5917 120.047L41.3601 120.078C41.1582 120.078 40.9967 119.916 40.9922 119.718C40.9922 119.515 41.1537 119.353 41.3512 119.348L45.5827 119.317C45.7847 119.317 45.9462 119.479 45.9507 119.677C45.9552 119.88 45.7936 120.047 45.5917 120.047Z" fill="white"/>
<path opacity="0.61" d="M52.5605 119.993L48.3289 120.024C48.127 120.024 47.9654 119.862 47.9609 119.664C47.9609 119.461 48.1225 119.299 48.3199 119.294L52.5515 119.263C52.7534 119.263 52.915 119.425 52.9195 119.623C52.924 119.831 52.7624 119.993 52.5605 119.993Z" fill="#3E479B"/>
<path opacity="0.61" d="M31.9451 113.409L18.3484 113.512C18.1465 113.512 17.985 113.35 17.9805 113.152C17.9805 112.949 18.142 112.787 18.3395 112.782L31.9361 112.679C32.1381 112.679 32.2996 112.841 32.3041 113.039C32.3086 113.242 32.147 113.404 31.9451 113.409Z" fill="#3E479B"/>
<path opacity="0.61" d="M40.4078 113.346L34.4441 113.391C34.2422 113.391 34.0807 113.229 34.0762 113.03C34.0762 112.828 34.2377 112.665 34.4352 112.661L40.3988 112.616C40.6008 112.616 40.7623 112.778 40.7668 112.976C40.7713 113.179 40.6097 113.341 40.4078 113.346Z" fill="#F7A9B4"/>
</g>
<path d="M51.4766 20.4849L51.4811 29.5565V31.6655L51.49 56.8478L51.5125 106.126L51.5214 131.309V133.418L51.5259 139.547C51.5259 142.314 53.267 144.666 55.7037 145.585C56.4082 145.851 57.162 146 57.9563 146H62.5379L112.989 145.977C114.34 145.977 115.587 145.558 116.619 144.846C118.307 143.684 119.415 141.732 119.415 139.52L119.361 20.4578C119.361 18.475 118.468 16.6994 117.064 15.5187C115.951 14.5678 114.51 14 112.935 14L57.9025 14.0225C54.353 14.027 51.4766 16.9157 51.4766 20.4849Z" fill="#4A6C82"/>
<path d="M51.9492 22.7379L51.9537 31.5166V33.5535L51.9627 57.9202L51.9851 105.599L51.9941 129.966V132.003L51.9986 137.929C51.9986 140.606 53.7127 142.881 56.118 143.769C56.809 144.026 57.5584 144.17 58.3392 144.17H62.858L112.609 144.148C113.938 144.148 115.172 143.742 116.19 143.053C117.855 141.926 118.945 140.038 118.945 137.902L118.896 22.7109C118.896 20.7911 118.012 19.0741 116.63 17.9295C115.526 17.0191 114.108 16.4648 112.555 16.4648L58.2854 16.4919C54.7852 16.4919 51.9492 19.2904 51.9492 22.7379Z" fill="#004882"/>
<path d="M116.673 30.1181L116.713 125.805C116.713 126.661 116.022 127.355 115.174 127.355L57.4624 127.382C56.6098 127.382 55.9232 126.688 55.9187 125.836L55.8828 30.1451C55.8828 29.2889 56.5739 28.5949 57.422 28.5949L115.134 28.5679C115.982 28.5724 116.673 29.2664 116.673 30.1181Z" fill="white"/>
<path d="M116.674 30.0793L116.678 36.2847L55.8834 36.3073L55.8789 30.0297C55.8789 29.2095 56.5385 28.5471 57.3552 28.5471L115.121 28.52C115.978 28.52 116.674 29.2185 116.674 30.0793Z" fill="#599AF2"/>
<path d="M109.17 31.5351C109.044 31.5351 108.945 31.436 108.945 31.3098C108.945 31.1836 109.044 31.0845 109.17 31.0845H113.729C113.854 31.0845 113.953 31.1836 113.953 31.3098C113.953 31.436 113.854 31.5351 113.729 31.5351H109.17Z" fill="white"/>
<path d="M109.17 32.707C109.044 32.707 108.945 32.6079 108.945 32.4817C108.945 32.3555 109.044 32.2563 109.17 32.2563H113.729C113.854 32.2563 113.953 32.3555 113.953 32.4817C113.953 32.6079 113.854 32.707 113.729 32.707H109.17Z" fill="white"/>
<path d="M109.17 33.874C109.044 33.874 108.945 33.7748 108.945 33.6487C108.945 33.5225 109.044 33.4233 109.17 33.4233H113.729C113.854 33.4233 113.953 33.5225 113.953 33.6487C113.953 33.7748 113.854 33.874 113.729 33.874H109.17Z" fill="white"/>
<path d="M61.3171 34.6217C61.2587 34.6217 61.2004 34.5992 61.16 34.5541L59.5042 32.8912C59.3606 32.747 59.3606 32.5127 59.5042 32.373L61.0972 30.7732C61.1869 30.683 61.326 30.683 61.4158 30.7732C61.5055 30.8588 61.5055 31.003 61.4158 31.0931L59.8811 32.6343L61.4786 34.2387C61.5684 34.3243 61.5684 34.4685 61.4786 34.5586C61.4337 34.5992 61.3754 34.6217 61.3171 34.6217Z" fill="white"/>
<path d="M86.3304 22.8463C85.424 22.8463 84.6836 22.1073 84.6836 21.1925C84.6836 20.2821 85.4195 19.5386 86.3304 19.5386C87.2369 19.5386 87.9773 20.2776 87.9773 21.1925C87.9773 22.1028 87.2414 22.8418 86.3304 22.8463C86.3349 22.8463 86.3304 22.8463 86.3304 22.8463ZM86.3304 20.2371C85.8054 20.2371 85.3836 20.6652 85.3836 21.1925C85.3836 21.7152 85.8099 22.1433 86.3304 22.1433C86.5817 22.1433 86.8196 22.0442 86.9991 21.8639C87.1785 21.6837 87.2773 21.4448 87.2773 21.188C87.2773 20.9356 87.1785 20.6967 86.9991 20.5165C86.824 20.3362 86.5862 20.2371 86.3304 20.2371Z" fill="white"/>
<path d="M84.7694 139.254C84.186 139.254 83.7148 138.776 83.7148 138.195V135.063C83.7148 134.477 84.186 134.004 84.7694 134.004H87.8881C88.4715 134.004 88.9426 134.482 88.9426 135.063V138.195C88.9426 138.781 88.4715 139.254 87.8881 139.254H84.7694ZM87.8836 134.45H84.7649C84.4283 134.45 84.1591 134.725 84.1591 135.058V138.19C84.1591 138.528 84.4328 138.799 84.7649 138.799H87.8836C88.2202 138.799 88.4894 138.524 88.4894 138.19V135.058C88.4939 134.725 88.2202 134.45 87.8836 134.45Z" fill="white"/>
<path d="M65.9802 134.959C65.8546 134.959 65.7559 134.86 65.7559 134.734C65.7559 134.607 65.8546 134.508 65.9802 134.508H68.9823C69.1079 134.508 69.2066 134.607 69.2066 134.734C69.2066 134.86 69.1079 134.959 68.9823 134.959H65.9802Z" fill="white"/>
<path d="M65.9802 136.59C65.8546 136.59 65.7559 136.491 65.7559 136.365C65.7559 136.239 65.8546 136.14 65.9802 136.14H68.9823C69.1079 136.14 69.2066 136.239 69.2066 136.365C69.2066 136.491 69.1079 136.59 68.9823 136.59H65.9802Z" fill="white"/>
<path d="M65.9802 138.24C65.8546 138.24 65.7559 138.141 65.7559 138.014C65.7559 137.888 65.8546 137.789 65.9802 137.789H68.9823C69.1079 137.789 69.2066 137.888 69.2066 138.014C69.2066 138.141 69.1079 138.24 68.9823 138.24H65.9802Z" fill="white"/>
<path d="M107.435 139.245C107.377 139.245 107.319 139.222 107.278 139.177L104.918 136.807L107.216 134.495C107.305 134.405 107.444 134.405 107.534 134.495C107.624 134.585 107.624 134.725 107.534 134.815L105.551 136.807L107.592 138.857C107.682 138.947 107.682 139.087 107.592 139.177C107.552 139.222 107.494 139.245 107.435 139.245Z" fill="white"/>
<path opacity="0.36" d="M116.683 36.3926H55.9824V56.3564H116.683V36.3926Z" fill="#599AF2"/>
<path opacity="0.43" d="M83.377 45.3695L61.5819 45.3785C61.2319 45.3785 60.9492 45.0946 60.9492 44.7431V41.0658C60.9492 40.7143 61.2319 40.4304 61.5819 40.4304L83.377 40.4214C83.727 40.4214 84.0097 40.7053 84.0097 41.0568V44.7341C84.0097 45.0856 83.727 45.3695 83.377 45.3695Z" fill="white"/>
<path opacity="0.43" d="M95.3532 50.6108L61.5858 50.6243C61.2358 50.6243 60.9531 50.3404 60.9531 49.9889V48.7857C60.9531 48.4341 61.2358 48.1502 61.5858 48.1502L95.3532 48.1367C95.7032 48.1367 95.9859 48.4206 95.9859 48.7721V49.9754C95.9859 50.3269 95.7032 50.6108 95.3532 50.6108Z" fill="white"/>
<path opacity="0.43" d="M109.207 50.2048C107.964 50.2048 106.793 49.7181 105.914 48.8349C105.034 47.9516 104.545 46.7754 104.545 45.5271C104.545 44.2788 105.03 43.1026 105.909 42.2148C106.789 41.3315 107.96 40.8448 109.203 40.8403C110.446 40.8403 111.617 41.327 112.497 42.2103C113.376 43.0936 113.861 44.2698 113.865 45.5181C113.865 46.7664 113.381 47.9426 112.501 48.8304C111.626 49.7136 110.455 50.2048 109.207 50.2048ZM109.207 41.7416C108.198 41.7416 107.255 42.1337 106.546 42.8502C105.837 43.5668 105.442 44.5131 105.447 45.5226C105.447 46.532 105.837 47.4829 106.551 48.1949C107.26 48.907 108.207 49.299 109.212 49.299C110.217 49.299 111.164 48.907 111.873 48.1904C112.582 47.4739 112.977 46.5275 112.972 45.5181C112.972 44.5086 112.582 43.5578 111.868 42.8457C111.155 42.1337 110.212 41.7416 109.207 41.7416Z" fill="white"/>
<path d="M73.443 77.7847L63.4003 77.7892C62.2695 77.7892 61.3541 76.8699 61.3541 75.7388L61.3496 65.6532C61.3496 64.5176 62.265 63.5983 63.3914 63.5983L73.4341 63.5938C74.5649 63.5938 75.4803 64.5131 75.4803 65.6442L75.4848 75.7297C75.4893 76.8654 74.5738 77.7847 73.443 77.7847Z" fill="#4C65BA"/>
<g opacity="0.36">
<path opacity="0.36" d="M71.4694 70.7635C71.4694 72.4535 70.1052 73.828 68.4225 73.828C66.7397 73.828 65.3711 72.458 65.3711 70.768C65.3711 69.0781 66.7352 67.7036 68.418 67.7036C70.1052 67.6991 71.4694 69.0691 71.4694 70.7635Z" fill="#599AF2"/>
</g>
<g opacity="0.26">
<path opacity="0.26" d="M86.402 68.3479L78.4549 68.3524C78.1722 68.3524 77.9434 68.1226 77.9434 67.8387V66.32C77.9434 66.0361 78.1722 65.8063 78.4549 65.8063L86.402 65.8018C86.6847 65.8018 86.9136 66.0316 86.9136 66.3155V67.8342C86.9136 68.1181 86.6847 68.3479 86.402 68.3479Z" fill="#3E479B"/>
<path opacity="0.26" d="M77.9487 72.2643C77.7019 72.2643 77.5 72.0615 77.5 71.8137C77.5 71.5658 77.7019 71.363 77.9487 71.363L93.2506 71.354C93.4974 71.354 93.6994 71.5568 93.6994 71.8047C93.6994 72.0525 93.4974 72.2553 93.2506 72.2553L77.9487 72.2643Z" fill="#3E479B"/>
<path opacity="0.26" d="M77.9487 75.4816C77.7019 75.4816 77.5 75.2788 77.5 75.0309C77.5 74.7831 77.7019 74.5803 77.9487 74.5803L102.903 74.5713C103.15 74.5713 103.352 74.7741 103.352 75.0219C103.352 75.2698 103.15 75.4726 102.903 75.4726L77.9487 75.4816Z" fill="#3E479B"/>
<path opacity="0.26" d="M96.6616 72.2549C96.4148 72.2549 96.2129 72.0522 96.2129 71.8043C96.2129 71.5564 96.4148 71.3536 96.6616 71.3536L111.964 71.3491C112.21 71.3491 112.412 71.5519 112.412 71.7998C112.412 72.0476 112.21 72.2504 111.964 72.2504L96.6616 72.2549Z" fill="#3E479B"/>
</g>
<path d="M73.4606 119.069L63.4179 119.073C62.2871 119.073 61.3717 118.154 61.3717 117.023L61.3672 106.937C61.3672 105.802 62.2826 104.882 63.4089 104.882L73.4516 104.878C74.5824 104.878 75.4978 105.797 75.4978 106.928L75.5023 117.014C75.5068 118.15 74.5914 119.069 73.4606 119.069Z" fill="#599AF2"/>
<g opacity="0.57">
<path opacity="0.57" d="M71.487 112.043C71.487 113.733 70.1228 115.108 68.4401 115.108C66.7573 115.108 65.3887 113.738 65.3887 112.048C65.3887 110.358 66.7528 108.983 68.4356 108.983C70.1228 108.983 71.487 110.353 71.487 112.043Z" fill="#3E479B"/>
</g>
<g opacity="0.26">
<path opacity="0.26" d="M86.4196 109.632L78.4725 109.637C78.1898 109.637 77.9609 109.407 77.9609 109.123V107.604C77.9609 107.32 78.1898 107.09 78.4725 107.09L86.4196 107.086C86.7023 107.086 86.9311 107.316 86.9311 107.6V109.118C86.9311 109.402 86.7023 109.632 86.4196 109.632Z" fill="#3E479B"/>
<path opacity="0.26" d="M77.9663 113.548C77.7195 113.548 77.5176 113.346 77.5176 113.098C77.5176 112.85 77.7195 112.647 77.9663 112.647L93.2682 112.643C93.515 112.643 93.7169 112.845 93.7169 113.093C93.7169 113.341 93.515 113.544 93.2682 113.544L77.9663 113.548Z" fill="#3E479B"/>
<path opacity="0.26" d="M77.9663 116.761C77.7195 116.761 77.5176 116.559 77.5176 116.311C77.5176 116.063 77.7195 115.86 77.9663 115.86L102.92 115.851C103.167 115.851 103.369 116.054 103.369 116.302C103.369 116.55 103.167 116.752 102.92 116.752L77.9663 116.761Z" fill="#3E479B"/>
<path opacity="0.26" d="M96.6792 113.539C96.4324 113.539 96.2305 113.336 96.2305 113.088C96.2305 112.841 96.4324 112.638 96.6792 112.638L111.981 112.633C112.228 112.633 112.43 112.836 112.43 113.084C112.43 113.332 112.228 113.535 111.981 113.535L96.6792 113.539Z" fill="#3E479B"/>
</g>
<path d="M73.4508 98.3795L63.4081 98.384C62.2773 98.384 61.3619 97.4646 61.3619 96.3335L61.3574 86.248C61.3574 85.1123 62.2728 84.193 63.3992 84.193L73.4419 84.1885C74.5727 84.1885 75.4881 85.1078 75.4881 86.2389L75.4926 96.3245C75.4971 97.4601 74.5817 98.3795 73.4508 98.3795Z" fill="#F7A9B4"/>
<path opacity="0.43" d="M68.4303 94.4228C70.1155 94.4228 71.4817 93.0508 71.4817 91.3584C71.4817 89.6659 70.1155 88.2939 68.4303 88.2939C66.7451 88.2939 65.3789 89.6659 65.3789 91.3584C65.3789 93.0508 66.7451 94.4228 68.4303 94.4228Z" fill="white"/>
<g opacity="0.26">
<path opacity="0.26" d="M86.4098 88.9431L78.4627 88.9476C78.18 88.9476 77.9512 88.7178 77.9512 88.4339V86.9152C77.9512 86.6313 78.18 86.4015 78.4627 86.4015L86.4098 86.397C86.6925 86.397 86.9214 86.6268 86.9214 86.9107V88.4294C86.9214 88.7133 86.6925 88.9431 86.4098 88.9431Z" fill="#3E479B"/>
<path opacity="0.26" d="M77.9565 92.8594C77.7097 92.8594 77.5078 92.6566 77.5078 92.4088C77.5078 92.1609 77.7097 91.9581 77.9565 91.9581L85.0331 91.9536C85.2799 91.9536 85.4818 92.1564 85.4818 92.4043C85.4818 92.6521 85.2799 92.8549 85.0331 92.8549L77.9565 92.8594Z" fill="#3E479B"/>
<path opacity="0.26" d="M77.9565 96.0723C77.7097 96.0723 77.5078 95.8695 77.5078 95.6217C77.5078 95.3738 77.7097 95.171 77.9565 95.171L92.4821 95.1665C92.7289 95.1665 92.9309 95.3693 92.9309 95.6172C92.9309 95.865 92.7289 96.0678 92.4821 96.0678L77.9565 96.0723Z" fill="#3E479B"/>
<path opacity="0.26" d="M87.9956 92.855C87.7488 92.855 87.5469 92.6522 87.5469 92.4044C87.5469 92.1565 87.7488 91.9537 87.9956 91.9537L102.131 91.9492C102.378 91.9492 102.58 92.152 102.58 92.3999C102.58 92.6477 102.378 92.8505 102.131 92.8505L87.9956 92.855Z" fill="#3E479B"/>
<path opacity="0.26" d="M104.759 92.8457C104.512 92.8457 104.311 92.6429 104.311 92.3951C104.311 92.1472 104.512 91.9445 104.759 91.9445L111.836 91.9399C112.083 91.9399 112.285 92.1427 112.285 92.3906C112.285 92.6384 112.083 92.8412 111.836 92.8412L104.759 92.8457Z" fill="#3E479B"/>
</g>
<path opacity="0.22" d="M145.408 63.9821L146 122.044C146.009 122.9 145.327 123.599 144.474 123.608L109.917 123.959C109.065 123.968 108.369 123.283 108.36 122.427L107.768 64.3651C107.759 63.5089 108.441 62.8104 109.293 62.8013L143.85 62.4453C144.703 62.4408 145.399 63.1258 145.408 63.9821Z" fill="#3E479B"/>
<path d="M143.353 61.2935L143.945 119.355C143.954 120.212 143.272 120.91 142.42 120.919L107.862 121.275C107.01 121.284 106.314 120.599 106.305 119.743L105.713 61.6811C105.704 60.8249 106.386 60.1263 107.239 60.1173L141.796 59.7613C142.644 59.7523 143.344 60.4373 143.353 61.2935Z" fill="white"/>
<path opacity="0.42" d="M143.353 61.2935L143.945 119.355C143.954 120.212 143.272 120.91 142.42 120.919L107.862 121.275C107.01 121.284 106.314 120.599 106.305 119.743L105.713 61.6811C105.704 60.8249 106.386 60.1263 107.239 60.1173L141.796 59.7613C142.644 59.7523 143.344 60.4373 143.353 61.2935Z" fill="#599AF2"/>
<path d="M143.48 61.2689L143.512 64.518L105.872 64.9056L105.836 61.5798C105.827 60.7596 106.482 60.0927 107.294 60.0836L141.905 59.7276C142.767 59.7186 143.472 60.4081 143.48 61.2689Z" fill="#599AF2"/>
<path d="M138.836 61.7106C138.715 61.7106 138.611 61.6114 138.611 61.4853C138.611 61.3591 138.71 61.26 138.836 61.26L141.658 61.2329C141.761 61.2329 141.883 61.3321 141.883 61.4582C141.883 61.5844 141.784 61.6835 141.658 61.6835L138.836 61.7106Z" fill="white"/>
<path d="M138.84 62.4362C138.718 62.4362 138.615 62.3371 138.615 62.2109C138.615 62.0847 138.714 61.9855 138.84 61.9855L141.662 61.9585C141.783 61.9585 141.887 62.0576 141.887 62.1838C141.887 62.31 141.788 62.4092 141.662 62.4092L138.84 62.4362C138.844 62.4362 138.84 62.4362 138.84 62.4362Z" fill="white"/>
<path d="M138.849 63.1569C138.728 63.1569 138.625 63.0578 138.625 62.9316C138.625 62.8054 138.724 62.7062 138.849 62.7062L141.672 62.6792C141.793 62.6792 141.896 62.7783 141.896 62.9045C141.896 63.0307 141.798 63.1299 141.672 63.1299L138.849 63.1569Z" fill="white"/>
<path d="M109.228 63.9097C109.17 63.9097 109.116 63.8871 109.071 63.8466L108.035 62.8281C107.913 62.7064 107.909 62.5082 108.03 62.3865L109.008 61.386C109.098 61.2959 109.237 61.2959 109.327 61.3815C109.417 61.4672 109.417 61.6114 109.331 61.7015L108.452 62.6028L109.39 63.5266C109.479 63.6123 109.479 63.7565 109.394 63.8466C109.34 63.8871 109.287 63.9097 109.228 63.9097Z" fill="white"/>
<g opacity="0.36">
<path opacity="0.36" d="M142.335 121.021L107.661 121.22C106.826 121.224 106.144 120.548 106.14 119.706L106.072 107.637L143.775 107.425L143.842 119.494C143.847 120.332 143.174 121.017 142.335 121.021Z" fill="white"/>
<path opacity="0.36" d="M107.652 121.444C107.189 121.444 106.759 121.264 106.431 120.94C106.099 120.611 105.919 120.173 105.915 119.709L105.848 107.416L143.999 107.199L144.066 119.493C144.071 120.457 143.295 121.242 142.339 121.251L107.665 121.449C107.661 121.444 107.656 121.444 107.652 121.444ZM106.296 107.862L106.364 119.705C106.364 120.052 106.503 120.376 106.745 120.62C106.987 120.863 107.311 120.994 107.652 120.994C107.652 120.994 107.656 120.994 107.661 120.994L142.334 120.795C143.043 120.791 143.622 120.205 143.618 119.493L143.55 107.65L106.296 107.862Z" fill="white"/>
</g>
<path d="M139.483 73.8646L112.303 73.8286C111.818 73.8286 111.428 73.432 111.428 72.9498L111.432 70.2279C111.432 69.7412 111.827 69.3491 112.307 69.3491L139.487 69.3852C139.972 69.3852 140.362 69.7817 140.362 70.2639L140.358 72.9859C140.362 73.4681 139.967 73.8646 139.483 73.8646Z" fill="white"/>
<path d="M139.615 77.3347L112.166 77.2987C111.758 77.2987 111.426 76.9652 111.426 76.5551C111.426 76.145 111.758 75.8115 112.166 75.8115L139.615 75.8476C140.024 75.8476 140.356 76.1811 140.356 76.5912C140.356 77.0012 140.024 77.3347 139.615 77.3347Z" fill="white"/>
<path d="M139.611 80.7595L112.162 80.7235C111.754 80.7235 111.422 80.39 111.422 79.9799C111.422 79.5698 111.754 79.2363 112.162 79.2363L139.611 79.2724C140.02 79.2724 140.352 79.6059 140.352 80.016C140.352 80.4261 140.02 80.7595 139.611 80.7595Z" fill="white"/>
<path d="M115.136 85.7799C115.136 86.8119 114.301 87.6456 113.274 87.6456C112.246 87.6456 111.416 86.8074 111.416 85.7754C111.416 84.7434 112.251 83.9097 113.278 83.9097C114.306 83.9097 115.136 84.7479 115.136 85.7799Z" fill="#F7A9B4"/>
<path d="M115.128 94.252C115.128 95.284 114.294 96.1178 113.266 96.1178C112.238 96.1178 111.408 95.2795 111.408 94.2475C111.408 93.2156 112.243 92.3818 113.27 92.3818C114.294 92.3818 115.128 93.2201 115.128 94.252Z" fill="#F7A9B4"/>
<path d="M115.115 102.472C115.115 103.504 114.28 104.337 113.252 104.337C112.225 104.337 111.395 103.499 111.395 102.467C111.395 101.435 112.229 100.602 113.257 100.602C114.284 100.606 115.119 101.44 115.115 102.472Z" fill="#F7A9B4"/>
<path d="M133.997 85.1129L116.191 85.0903C116.066 85.0903 115.967 84.9912 115.967 84.865C115.967 84.7388 116.066 84.6396 116.191 84.6396L133.997 84.6622C134.123 84.6622 134.221 84.7613 134.221 84.8875C134.221 85.0137 134.123 85.1129 133.997 85.1129Z" fill="white"/>
<path d="M125.094 87.0056L116.191 86.9966C116.066 86.9966 115.967 86.8974 115.967 86.7712C115.967 86.645 116.066 86.5459 116.191 86.5459L125.094 86.5549C125.22 86.5549 125.318 86.6541 125.318 86.7802C125.318 86.9064 125.215 87.0056 125.094 87.0056Z" fill="white"/>
<path d="M133.989 93.8643L116.183 93.8418C116.058 93.8418 115.959 93.7426 115.959 93.6164C115.959 93.4903 116.058 93.3911 116.183 93.3911L133.989 93.4136C134.115 93.4136 134.214 93.5128 134.214 93.639C134.214 93.7652 134.11 93.8643 133.989 93.8643Z" fill="white"/>
<path d="M125.08 95.757L116.177 95.748C116.052 95.748 115.953 95.6489 115.953 95.5227C115.953 95.3965 116.052 95.2974 116.177 95.2974L125.08 95.3064C125.206 95.3064 125.305 95.4055 125.305 95.5317C125.305 95.6579 125.206 95.757 125.08 95.757Z" fill="white"/>
<path d="M133.975 101.855L116.17 101.832C116.044 101.832 115.945 101.733 115.945 101.607C115.945 101.48 116.044 101.381 116.17 101.381L133.975 101.404C134.101 101.404 134.2 101.503 134.2 101.629C134.2 101.755 134.101 101.855 133.975 101.855Z" fill="white"/>
<path d="M125.073 103.747L116.17 103.738C116.044 103.738 115.945 103.639 115.945 103.513C115.945 103.387 116.044 103.288 116.17 103.288L125.073 103.297C125.198 103.297 125.297 103.396 125.297 103.522C125.297 103.644 125.198 103.747 125.073 103.747Z" fill="white"/>
<path d="M114.648 112.611C114.401 112.611 114.199 112.413 114.199 112.165C114.199 111.917 114.397 111.714 114.643 111.71L135.249 111.593C135.249 111.593 135.249 111.593 135.254 111.593C135.501 111.593 135.703 111.791 135.703 112.039C135.703 112.287 135.505 112.49 135.258 112.494L114.648 112.611Z" fill="white"/>
<path d="M118.837 115.726C118.591 115.726 118.389 115.527 118.389 115.28C118.389 115.032 118.586 114.829 118.833 114.824L131.083 114.757C131.083 114.757 131.083 114.757 131.088 114.757C131.335 114.757 131.537 114.955 131.537 115.203C131.537 115.451 131.339 115.654 131.092 115.658L118.837 115.726C118.842 115.726 118.842 115.726 118.837 115.726Z" fill="white"/>
</g>
<defs>
<clipPath id="clip0">
<rect width="132" height="132" fill="white" transform="translate(14 14)"/>
</clipPath>
</defs>
</svg>
