<svg width="160" height="160" viewBox="0 0 160 160" fill="none" xmlns="http://www.w3.org/2000/svg">
<g clip-path="url(#clip0_788:1768)">
<path d="M131.797 21.5931L136.683 13.7985L113.088 3.47592C110.575 2.31727 107.783 1.47461 104.851 0.842613C103.873 0.631948 102.896 0.526615 101.779 0.31595C96.753 -0.316044 91.5872 -0.210712 86.561 0.631948C84.746 0.947945 82.7914 1.26394 80.9764 1.7906C79.0217 2.31727 77.2067 2.84393 75.2521 3.47592C72.8786 4.31858 70.5052 5.26658 68.1317 6.3199C65.479 7.47856 62.9659 8.74255 60.4528 10.1119C58.6378 11.1652 56.6832 12.2185 54.8682 13.3772C27.9223 30.5464 6.84024 61.1981 1.39522 90.5859C0.976368 92.5872 0.697136 94.5885 0.55752 96.5898C0.278288 99.4338 0.138672 102.278 0.138672 105.016C0.138672 107.334 0.278288 109.546 0.55752 111.652C0.697136 113.548 0.976368 115.234 1.39522 117.024C1.81406 118.815 2.23291 120.395 2.65176 121.975C3.90831 126.399 6.14216 130.612 8.93448 134.615C9.49295 135.457 10.191 136.195 10.7495 136.932C13.2626 139.987 16.6134 142.62 20.383 144.727C21.4999 145.359 22.7565 145.991 23.8734 146.412L46.3516 156.208L50.8193 149.045C52.0759 148.835 53.1928 148.624 54.4493 148.308C59.4755 147.149 64.2224 145.569 68.6902 143.568C71.6221 142.304 74.4144 140.829 77.0671 139.355C80.6971 137.353 84.1875 135.141 87.3987 132.719C109.877 116.392 127.608 90.9019 134.03 65.4114C135.008 61.7248 135.706 57.9328 136.125 54.1408C136.544 50.9809 136.683 47.9262 136.683 44.8716C136.683 40.4476 136.264 36.0237 135.287 31.705C134.589 28.3344 133.332 24.8584 131.797 21.5931Z" fill="#67C0F8"/>
<path opacity="0.25" d="M6.42188 73.2061L52.3556 93.2192L58.2194 80.5793L12.2857 60.5662C9.91228 64.6741 7.95765 68.8874 6.42188 73.2061Z" fill="white"/>
<path opacity="0.25" d="M113.088 3.47592C110.575 2.31727 107.783 1.47461 104.851 0.842613C103.873 0.631948 102.896 0.526615 101.779 0.31595C96.753 -0.316044 91.5872 -0.210712 86.561 0.631948C85.863 0.73728 85.1649 0.842613 84.4668 0.947945L131.657 21.4878V21.3824L136.544 13.5878L113.088 3.47592Z" fill="white"/>
<path opacity="0.25" d="M110.296 52.8769L116.16 47.6103L48.1665 18.1172C46.0723 19.6972 43.9781 21.3825 42.0234 23.0678L110.296 52.8769Z" fill="white"/>
<path opacity="0.25" d="M28.0625 37.0771L87.1201 62.7782L93.4028 50.3489L38.2545 26.4385C34.6245 29.8091 31.1341 33.3904 28.0625 37.0771Z" fill="white"/>
<path opacity="0.4" d="M113.088 3.47592C110.575 2.31727 107.782 1.47461 104.85 0.842613C103.873 0.631948 102.896 0.526615 101.779 0.31595C96.7526 -0.316044 91.5868 -0.210712 86.5607 0.631948C84.7456 0.947945 82.791 1.26394 80.976 1.7906C79.0214 2.31727 77.2064 2.84393 75.2518 3.47592C72.8783 4.31858 70.5048 5.26658 68.1313 6.3199C65.4786 7.47856 62.9655 8.74255 60.4524 10.1119C58.6374 11.1652 56.6828 12.2185 54.8678 13.3772C29.7369 29.3877 9.77182 56.9848 2.79102 84.4766L96.4734 125.346C114.623 109.23 128.445 87.3206 134.03 65.4114C135.007 61.7248 135.706 57.9328 136.124 54.1408C136.543 50.9809 136.683 47.9262 136.683 44.8716C136.683 40.4476 136.264 36.0237 135.287 31.705C134.589 28.2291 133.332 24.8584 131.796 21.5931L136.683 13.7985L113.088 3.47592Z" fill="white"/>
<path opacity="0.1" d="M46.212 156.208L50.6797 149.045C51.9362 148.835 53.0532 148.624 54.3097 148.308C59.3359 147.149 64.0828 145.569 68.5505 143.568C71.4825 142.304 74.2748 140.829 76.9275 139.355C80.5575 137.353 84.0479 135.141 87.2591 132.719C90.4703 130.402 93.5418 127.874 96.3341 125.346L2.79138 84.4766C2.23291 86.4779 1.81406 88.4792 1.39522 90.5858C0.976368 92.5872 0.697136 94.5885 0.55752 96.5898C0.278288 99.4338 0.138672 102.278 0.138672 105.016C0.138672 107.334 0.278288 109.546 0.55752 111.652C0.697136 113.548 0.976368 115.234 1.39522 117.024C1.81406 118.815 2.23291 120.395 2.65176 121.975C3.90831 126.399 6.14216 130.612 8.93448 134.615C9.49295 135.457 10.191 136.195 10.7495 136.932C13.2626 139.987 16.6134 142.62 20.383 144.727C21.4999 145.359 22.7565 145.991 23.8734 146.412L46.212 156.208Z" fill="black"/>
<path opacity="0.1" d="M8.79376 134.615C9.35222 135.458 10.0503 136.195 10.6088 136.932C13.1219 139.987 16.4726 142.62 20.2423 144.727C21.3592 145.359 22.6157 145.991 23.7327 146.412L46.2109 156.208L50.6786 149.046H50.8182L51.0974 146.096L3.76758 125.346C5.02412 128.611 6.69952 131.666 8.79376 134.615Z" fill="black"/>
<path d="M158.463 41.817C157.485 37.2877 155.81 32.969 153.437 28.7557C150.505 23.5945 146.037 18.9598 140.173 15.4839C136.683 13.3772 132.494 11.9026 128.166 11.0599C127.189 10.8492 126.211 10.7439 125.095 10.5332C120.068 9.90124 114.903 10.0066 109.876 10.8492C108.061 11.1652 106.107 11.4812 104.292 12.0079C102.337 12.4292 100.522 13.0612 98.5675 13.6932C96.0544 14.5359 93.6809 15.4839 91.3075 16.5372C88.6548 17.6958 86.1417 18.9598 83.6286 20.3292C81.8136 21.3825 79.859 22.4358 78.0439 23.5945C51.2377 40.6583 30.016 71.3101 24.571 100.698C24.1521 102.699 23.8729 104.7 23.7333 106.702C23.4541 109.546 23.3145 112.284 23.3145 115.128C23.3145 117.446 23.4541 119.658 23.7333 121.764C23.8729 123.66 24.1521 125.346 24.571 127.136C24.9898 128.927 25.4087 130.507 25.8275 132.087C27.0841 136.511 29.3179 140.724 32.1103 144.727C32.6687 145.464 33.3668 146.307 33.9253 146.939C36.4384 149.993 39.7891 152.627 43.5588 154.733C49.0038 157.893 55.7054 159.684 62.5466 159.895C67.7124 160.105 72.8782 159.579 77.7647 158.42C82.7909 157.261 87.5378 155.681 92.0056 153.68C94.9375 152.416 97.7298 150.941 100.383 149.467C104.013 147.465 107.503 145.253 110.714 142.831C133.192 126.504 150.924 100.908 157.346 75.5234C158.323 71.7314 159.021 67.9394 159.44 64.2528C159.859 61.0928 159.999 58.0382 159.999 54.9835C159.999 50.5596 159.44 46.2409 158.463 41.817Z" fill="#67C0F8"/>
<path opacity="0.05" d="M25.9672 94.5886C25.4087 96.5899 24.9898 98.6966 24.571 100.698C24.1521 102.699 23.8729 104.701 23.7333 106.702C23.4541 109.546 23.3145 112.284 23.3145 115.128C23.3145 117.446 23.4541 119.658 23.7333 121.764C23.8729 123.66 24.1521 125.346 24.571 127.136C24.9898 128.927 25.4087 130.507 25.8275 132.087C27.0841 136.511 29.3179 140.724 32.1103 144.727C32.6687 145.464 33.3668 146.307 33.9253 146.939C36.4384 149.993 39.7891 152.627 43.5588 154.733C49.0038 157.893 55.7054 159.684 62.5466 159.895C67.7124 160.105 72.8782 159.579 77.7647 158.42C82.7909 157.261 87.5378 155.681 92.0055 153.68C94.5186 152.521 97.0317 151.363 99.4052 149.993L25.9672 94.5886Z" fill="black"/>
<path opacity="0.05" d="M27.084 135.668C28.3405 138.828 30.0159 141.883 32.1102 144.727C32.6686 145.464 33.3667 146.307 33.9252 146.939C36.4383 149.993 39.789 152.627 43.5587 154.733C48.0264 157.261 53.3318 158.947 58.9164 159.579L27.084 135.668Z" fill="black"/>
<path opacity="0.25" d="M35.3219 70.678C33.0881 74.7859 31.273 79.1046 29.5977 83.3179L109.598 143.673L110.715 142.936C114.205 140.408 117.416 137.775 120.488 134.931L35.3219 70.678Z" fill="white"/>
<path opacity="0.25" d="M61.4303 36.5503C57.8002 40.0263 54.4495 43.5022 51.2383 47.2942L139.196 113.654C141.989 109.651 144.641 105.438 147.015 101.224L61.4303 36.5503Z" fill="white"/>
<path opacity="0.25" d="M71.483 28.229C69.3887 29.809 67.2945 31.4943 65.3398 33.1796L149.389 96.5898C150.506 94.2724 151.623 91.8498 152.739 89.4272L71.483 28.229Z" fill="white"/>
<path opacity="0.25" d="M159.72 50.4543C159.581 49.1903 159.441 48.0316 159.302 46.873C159.302 46.4516 159.162 46.0303 159.162 45.7143C159.162 45.3983 159.022 44.8716 159.022 44.5556C158.883 43.713 158.743 42.8703 158.464 42.0277C157.487 37.4984 155.811 33.1797 153.438 28.9664C150.506 23.8052 146.038 19.1705 140.174 15.6946C136.684 13.5879 132.495 12.1133 128.167 11.2706C127.19 11.0599 126.213 10.9546 125.096 10.7439C120.069 10.1119 114.904 10.2173 109.877 11.0599C109.179 11.1653 108.481 11.2706 107.783 11.4813L159.72 50.4543Z" fill="white"/>
<path d="M142.547 62.8835C142.547 90.0592 121.604 121.343 95.0772 134.72C93.9603 135.247 92.8434 135.879 91.5868 136.3C63.524 148.519 40.627 135.563 40.627 107.228C40.627 78.894 63.3844 46.0303 91.5868 33.8117C92.7037 33.285 93.8207 32.8637 95.0772 32.4424C121.604 22.6465 142.547 35.7077 142.547 62.8835Z" fill="#67C0F8"/>
<path opacity="0.4" d="M142.547 62.8835C142.547 90.0592 121.604 121.343 95.0772 134.72C93.9603 135.247 92.8434 135.879 91.5868 136.3C63.524 148.519 40.627 135.563 40.627 107.228C40.627 78.894 63.3844 46.0303 91.5868 33.8117C92.7037 33.285 93.8207 32.8637 95.0772 32.4424C121.604 22.6465 142.547 35.7077 142.547 62.8835Z" fill="black"/>
<path d="M140.313 63.8315C140.313 64.6741 140.313 65.6221 140.174 66.4648C138.917 91.7446 119.371 120.079 94.7985 132.403L94.1004 132.719C93.2627 133.14 92.425 133.562 91.4477 133.878C86.7008 135.984 81.535 137.459 76.2296 138.091C64.781 139.25 55.2872 135.458 49.2837 127.768C45.7933 123.239 43.5594 117.34 43.0009 110.283C42.8613 108.914 42.8613 107.544 42.8613 106.175C42.8613 104.806 42.8613 103.542 43.0009 102.278C43.1406 99.4338 43.5594 96.6952 44.2575 93.9565C48.5856 74.3647 62.4076 54.4569 79.9992 42.5543C82.5123 40.869 85.0254 39.289 87.8177 37.9197C89.0742 37.2877 90.3308 36.6557 91.5873 36.129C92.8439 35.6024 93.8212 35.181 94.7985 34.865L95.7758 34.549C103.036 32.0211 109.877 31.2837 115.881 32.1264C126.072 33.601 134.031 39.8157 137.8 49.6116C139.476 54.2462 140.313 59.0915 140.313 63.8315Z" fill="#67C0F8"/>
<path opacity="0.7" d="M140.313 63.8315C140.313 64.6741 140.313 65.6221 140.174 66.4648C138.917 91.7446 119.371 120.079 94.7985 132.403L94.1004 132.719C93.2627 133.14 92.425 133.562 91.4477 133.878C86.7008 135.984 81.535 137.459 76.2296 138.091C64.781 139.25 55.2872 135.458 49.2837 127.768C45.7933 123.239 43.5594 117.34 43.0009 110.283C42.8613 108.914 42.8613 107.544 42.8613 106.175C42.8613 104.806 42.8613 103.542 43.0009 102.278C43.1406 99.4338 43.5594 96.6952 44.2575 93.9565C48.5856 74.3647 62.4076 54.4569 79.9992 42.5543C82.5123 40.869 85.0254 39.289 87.8177 37.9197C89.0742 37.2877 90.3308 36.6557 91.5873 36.129C92.8439 35.6024 93.8212 35.181 94.7985 34.865L95.7758 34.549C103.036 32.0211 109.877 31.2837 115.881 32.1264C126.072 33.601 134.031 39.8157 137.8 49.6116C139.476 54.2462 140.313 59.0915 140.313 63.8315Z" fill="black"/>
<path d="M132.076 62.9888C132.076 62.1461 132.076 61.1981 132.076 60.3555C132.216 55.5102 131.378 50.6649 129.563 46.0303C127.329 40.3423 123.699 35.813 119.092 32.7584C117.975 32.4424 116.858 32.2317 115.741 32.1264C109.737 31.2837 102.896 32.0211 95.6362 34.549L94.7985 34.7597C93.6816 35.181 92.7043 35.6024 91.5873 36.0237C90.4704 36.445 89.0742 37.1823 87.8177 37.8143C85.0254 39.1837 82.5123 40.7636 79.9992 42.449C62.4076 54.5622 48.5856 74.47 44.2575 93.9565C43.699 96.6952 43.2802 99.5392 43.0009 102.278C42.8613 103.542 42.8613 104.911 42.8613 106.175C42.8613 107.439 42.8613 108.914 43.0009 110.283C43.5594 117.34 45.7933 123.239 49.2837 127.768C50.9591 129.98 53.1929 131.982 55.706 133.667C59.7549 134.72 63.9433 134.931 68.1318 134.51C73.5769 133.878 78.7427 132.403 83.4896 130.296C84.3273 129.875 85.165 129.454 86.1423 129.138L86.8404 128.822C111.273 116.603 130.819 88.2686 132.076 62.9888Z" fill="#67C0F8"/>
<path opacity="0.6" d="M132.076 62.9888C132.076 62.1461 132.076 61.1981 132.076 60.3555C132.216 55.5102 131.378 50.6649 129.563 46.0303C127.329 40.3423 123.699 35.813 119.092 32.7584C117.975 32.4424 116.858 32.2317 115.741 32.1264C109.737 31.2837 102.896 32.0211 95.6362 34.549L94.7985 34.7597C93.6816 35.181 92.7043 35.6024 91.5873 36.0237C90.4704 36.445 89.0742 37.1823 87.8177 37.8143C85.0254 39.1837 82.5123 40.7636 79.9992 42.449C62.4076 54.5622 48.5856 74.47 44.2575 93.9565C43.699 96.6952 43.2802 99.5392 43.0009 102.278C42.8613 103.542 42.8613 104.911 42.8613 106.175C42.8613 107.439 42.8613 108.914 43.0009 110.283C43.5594 117.34 45.7933 123.239 49.2837 127.768C50.9591 129.98 53.1929 131.982 55.706 133.667C59.7549 134.72 63.9433 134.931 68.1318 134.51C73.5769 133.878 78.7427 132.403 83.4896 130.296C84.3273 129.875 85.165 129.454 86.1423 129.138L86.8404 128.822C111.273 116.603 130.819 88.2686 132.076 62.9888Z" fill="black"/>
<path d="M125.095 10.5332C120.767 10.0065 116.3 10.1119 111.972 10.6385C109.877 10.9545 107.643 11.3759 105.549 11.7972C104.991 11.9025 104.432 12.0078 104.013 12.2185L102.478 12.6398L99.4061 13.5878C95.3572 14.9572 91.5876 16.5371 87.9576 18.3278C86.1426 19.2758 84.3276 20.2238 82.6522 21.2771C80.9768 22.3304 79.1618 23.2784 77.626 24.4371C76.0902 25.5957 74.2752 26.6491 72.7394 27.8077C71.2036 28.9664 69.6679 30.125 68.1321 31.389L63.804 35.0757L59.6155 38.973L55.7063 42.9756C54.4497 44.3449 53.1932 45.7142 52.0762 47.0836C49.7028 49.8222 47.4689 52.6662 45.3747 55.6155L43.8389 57.8275L42.4427 60.0395C41.4654 61.5141 40.4881 62.9888 39.6504 64.4634C37.8354 67.5181 36.16 70.5727 34.6242 73.6273L32.3904 78.262C31.6923 79.842 31.1338 81.4219 30.4358 83.0019C29.7377 84.5819 29.3188 86.1619 28.7604 87.7419C28.2019 89.3219 27.783 90.9019 27.2246 92.5872L26.5265 95.1152L25.968 97.5378C25.6888 99.2231 25.27 100.803 24.9907 102.383C24.7115 103.963 24.4323 105.648 24.2926 107.334C24.153 109.019 24.0134 110.599 23.8738 112.284C23.8738 113.127 23.8738 113.97 23.8738 114.812C23.8738 115.655 23.8738 116.498 24.0134 117.235C24.153 118.92 24.153 120.606 24.2926 122.186L24.9907 127.136L26.2473 131.982V132.087V131.982C27.5038 136.3 29.5981 140.619 32.3904 144.516C33.0885 145.464 33.7865 146.517 34.6242 147.36C35.4619 148.203 36.2996 149.151 37.2769 150.099C39.0919 151.784 41.3258 153.364 43.6993 154.733C41.3258 153.364 39.0919 151.889 37.1373 150.204C36.16 149.361 35.1827 148.519 34.345 147.571C33.5073 146.623 32.8092 145.675 31.9715 144.727C29.0396 140.829 26.9453 136.511 25.5492 132.192V132.087V132.192L24.2926 127.347L23.4549 122.396C23.3153 120.711 23.1757 119.026 23.0361 117.446C23.0361 116.603 22.8965 115.76 22.8965 114.918C22.8965 114.075 22.8965 113.232 22.8965 112.39C22.8965 110.704 23.0361 109.019 23.1757 107.439C23.3153 105.859 23.5946 104.174 23.8738 102.488C24.153 100.803 24.4323 99.2231 24.8511 97.5378L25.4096 95.1152L26.1077 92.6925C26.5265 91.0072 26.9453 89.4272 27.6434 87.8472C28.3415 86.2672 28.6207 84.5819 29.3188 83.0019C30.0169 81.4219 30.5754 79.842 31.2734 78.262L33.5073 73.522L35.8808 68.8874C36.7185 67.3074 37.6958 65.8327 38.5335 64.2527C39.3712 62.6728 40.4881 61.1981 41.4654 59.7235L43.0012 57.5115L44.6766 55.2995C46.7708 52.3502 49.1443 49.5062 51.5178 46.7676C52.7743 45.3982 53.8912 44.0289 55.2874 42.6596L59.1967 38.657L63.3851 34.7597C64.7813 33.4957 66.3171 32.2317 67.8529 31.073C69.3886 29.9144 70.9244 28.7557 72.5998 27.4917C74.2752 26.2277 75.9506 25.2797 77.4864 24.1211C79.0221 22.9624 80.9768 22.0144 82.6522 21.0664C84.3276 20.0131 86.1426 19.0651 88.0972 18.1171C91.8668 16.3265 95.7761 14.7465 99.8249 13.4825L102.896 12.6398L104.432 12.2185C104.991 12.1132 105.549 12.0078 105.968 11.9025C108.062 11.4812 110.296 11.0599 112.39 10.7439C116.3 9.9012 120.767 10.0065 125.095 10.5332Z" fill="#F5F5F5"/>
<path d="M80.2773 45.7143L88.6543 49.4009L100.801 44.1343L92.4239 40.553L80.2773 45.7143Z" fill="#67C0F8"/>
<path opacity="0.2" d="M80.2773 45.7143L88.6543 49.4009L100.801 44.1343L92.4239 40.553L80.2773 45.7143Z" fill="black"/>
<path d="M84.466 51.297L76.089 47.6104L64.082 52.877L72.459 56.5636L84.466 51.297Z" fill="#67C0F8"/>
<path opacity="0.2" d="M84.466 51.297L76.089 47.6104L64.082 52.877L72.459 56.5636L84.466 51.297Z" fill="black"/>
<path d="M64.083 59.4075L72.46 63.0941L64.083 66.7807L55.5664 63.0941L64.083 59.4075Z" fill="#67C0F8"/>
<path opacity="0.2" d="M64.083 59.4075L72.46 63.0941L64.083 66.7807L55.5664 63.0941L64.083 59.4075Z" fill="black"/>
<path d="M55.5664 75.2075L64.083 78.8941V66.7809L55.5664 63.0942V75.2075Z" fill="#67C0F8"/>
<path opacity="0.35" d="M55.5664 75.2075L64.083 78.8941V66.7809L55.5664 63.0942V75.2075Z" fill="black"/>
<path d="M64.082 52.877V59.4076L72.459 63.0942V56.5636L64.082 52.877Z" fill="#67C0F8"/>
<path opacity="0.35" d="M64.082 52.877V59.4076L72.459 63.0942V56.5636L64.082 52.877Z" fill="black"/>
<path d="M80.2773 45.7144V49.401L84.4658 51.297V57.8276L88.6543 55.9316V49.401L80.2773 45.7144Z" fill="#67C0F8"/>
<path opacity="0.35" d="M80.2773 45.7144V49.401L84.4658 51.297V57.8276L88.6543 55.9316V49.401L80.2773 45.7144Z" fill="black"/>
<path d="M55.5664 112.811L64.083 116.498L69.8073 113.97L61.2907 110.283L55.5664 112.811Z" fill="#67C0F8"/>
<path opacity="0.2" d="M55.5664 112.811L64.083 116.498L69.8073 113.97L61.2907 110.283L55.5664 112.811Z" fill="black"/>
<path d="M61.291 110.283L69.8076 113.97V76.366L64.0833 78.8939L61.291 77.7353V110.283Z" fill="#67C0F8"/>
<path opacity="0.45" d="M61.291 110.283L69.8076 113.97V76.366L64.0833 78.8939L61.291 77.7353V110.283Z" fill="black"/>
<path d="M55.5664 112.811L64.083 116.498V128.611L55.5664 124.924V112.811Z" fill="#67C0F8"/>
<path opacity="0.35" d="M55.5664 112.811L64.083 116.498V128.611L55.5664 124.924V112.811Z" fill="black"/>
<path d="M72.4595 124.924V130.296L66.3164 127.663L72.4595 124.924Z" fill="#67C0F8"/>
<path opacity="0.45" d="M72.4595 124.924V130.296L66.3164 127.663L72.4595 124.924Z" fill="black"/>
<path d="M88.6553 117.867V123.239L84.4668 121.343V119.763L88.6553 117.867Z" fill="#67C0F8"/>
<path opacity="0.45" d="M88.6553 117.867V123.239L84.4668 121.343V119.763L88.6553 117.867Z" fill="black"/>
<path d="M104.712 49.8222C105.27 49.7168 105.689 49.7168 106.248 49.7168C107.784 49.7168 109.459 49.9275 110.855 50.5595L102.618 46.9782C102.059 46.7675 101.501 46.5569 100.803 46.3462V50.7702C101.501 50.4542 102.339 50.2435 103.037 50.1382C103.455 50.0328 103.874 50.0328 104.154 49.9275L104.712 49.8222Z" fill="#67C0F8"/>
<path opacity="0.2" d="M104.712 49.8222C105.27 49.7168 105.689 49.7168 106.248 49.7168C107.784 49.7168 109.459 49.9275 110.855 50.5595L102.618 46.9782C102.059 46.7675 101.501 46.5569 100.803 46.3462V50.7702C101.501 50.4542 102.339 50.2435 103.037 50.1382C103.455 50.0328 103.874 50.0328 104.154 49.9275L104.712 49.8222Z" fill="black"/>
<path d="M107.085 90.4806V91.5339C107.085 94.9045 104.293 98.9072 100.942 100.382L84.0483 107.755L81.8145 108.703V101.33L92.5649 96.6952C95.9157 95.2205 98.708 91.3232 98.708 87.9526L99.4061 87.6366L100.942 87.0046C104.293 85.5299 107.085 87.1099 107.085 90.4806Z" fill="#67C0F8"/>
<path opacity="0.45" d="M107.085 90.4806V91.5339C107.085 94.9045 104.293 98.9072 100.942 100.382L84.0483 107.755L81.8145 108.703V101.33L92.5649 96.6952C95.9157 95.2205 98.708 91.3232 98.708 87.9526L99.4061 87.6366L100.942 87.0046C104.293 85.5299 107.085 87.1099 107.085 90.4806Z" fill="black"/>
<path d="M104.991 66.5702V67.5182C104.991 70.5728 102.478 74.1541 99.4061 75.4181L81.8145 83.1074V75.7341L91.0291 71.7315C94.1007 70.0462 96.0553 67.5182 96.4741 64.6742L99.4061 63.4102C102.478 62.1462 104.991 63.5156 104.991 66.5702Z" fill="#67C0F8"/>
<path opacity="0.45" d="M104.991 66.5702V67.5182C104.991 70.5728 102.478 74.1541 99.4061 75.4181L81.8145 83.1074V75.7341L91.0291 71.7315C94.1007 70.0462 96.0553 67.5182 96.4741 64.6742L99.4061 63.4102C102.478 62.1462 104.991 63.5156 104.991 66.5702Z" fill="black"/>
<path d="M113.506 74.4699C115.74 70.6779 116.997 66.4647 116.997 62.3567V61.4087C116.997 52.1394 109.876 47.6101 100.661 50.8754V44.2395L88.6545 49.5061V56.0367L84.466 57.8274V51.2968L72.459 56.5634V63.094L64.082 66.7806V78.8939L69.8063 76.3659V113.97L64.082 116.498V128.611L72.459 124.924V130.296L84.466 125.029V119.658L88.6545 117.867V123.239L100.661 117.972V112.6L100.801 112.495C110.853 108.071 119.091 96.2737 119.091 86.1618V85.1085C119.23 80.2632 117.136 76.2606 113.506 74.4699ZM104.99 66.57V67.518C104.99 70.5726 102.476 74.1539 99.4049 75.4179L81.8133 83.2125V71.0993L84.0471 70.1513L99.5445 63.41C102.476 62.146 104.99 63.5153 104.99 66.57ZM81.8133 95.3257L99.4049 87.6365L100.941 87.0045C104.291 85.5298 107.084 87.1098 107.084 90.4805V91.5338C107.084 94.9044 104.291 98.9071 100.941 100.382L84.0471 107.755L81.8133 108.703V95.3257V95.3257Z" fill="#67C0F8"/>
<path opacity="0.3" d="M100.801 50.7703V47.2943L98.1485 45.293L90.0508 48.8743L116.019 68.4661C116.717 66.4648 116.997 64.3581 116.997 62.2515V61.3035C116.997 60.6715 116.997 60.1448 116.857 59.5129L104.152 49.9276C103.035 50.0329 101.918 50.3489 100.801 50.7703Z" fill="white"/>
<path opacity="0.3" d="M104.991 66.3594C104.991 66.4647 104.991 66.4647 104.991 66.57V67.518C104.991 70.5727 102.478 74.154 99.4062 75.418L95.0781 77.314L117.556 94.2725C118.534 91.6392 119.092 88.9005 119.092 86.1619V85.1086C119.092 80.1579 116.998 76.1553 113.368 74.2593C113.507 73.838 113.787 73.522 113.926 73.1007L104.991 66.3594Z" fill="white"/>
<path opacity="0.3" d="M86.8398 106.597L84.0475 107.755L81.8136 108.703V102.699L69.8066 93.6406V110.599L84.4663 121.764V119.763L88.6548 117.867V123.239L100.801 117.972V117.024L86.8398 106.597Z" fill="white"/>
<path opacity="0.25" d="M85.0254 69.7302L99.5455 63.4102C99.9644 63.3049 100.244 63.0942 100.662 62.9889L88.7951 54.0356V55.9316L84.6066 57.7223V51.1917L72.5996 56.4583V60.1449L85.0254 69.7302Z" fill="white"/>
<path d="M69.8063 76.366V113.97C69.9459 112.39 69.9459 110.81 70.0855 109.23C70.2251 107.65 70.2251 106.07 70.2251 104.49C70.3648 101.33 70.3648 98.2752 70.3648 95.1152C70.3648 91.9552 70.3648 88.7952 70.3648 85.7406C70.3648 84.1606 70.3648 82.5806 70.2251 81.0006L70.0855 76.2607V75.8394L69.6667 76.05C67.8517 76.998 65.897 77.8407 64.082 78.7887L69.8063 76.366Z" fill="#F5F5F5"/>
<path d="M75.6702 55.5103C76.7871 55.089 77.7644 54.773 78.7417 54.3517C79.719 53.9303 80.8359 53.509 81.8133 53.0877C82.5113 52.7717 83.2094 52.4557 83.9075 52.1397C83.9075 52.9823 84.0471 53.7197 84.0471 54.5623C84.0471 55.089 84.1867 55.6156 84.1867 56.2476C84.1867 56.8796 84.3263 57.301 84.466 57.933V51.4023L72.459 56.669C73.0174 56.5636 73.5759 56.353 74.1344 56.1423C74.6928 55.9316 75.1117 55.6156 75.6702 55.5103Z" fill="#F5F5F5"/>
<path d="M92.0051 48.3476C93.122 47.9262 94.0993 47.6102 95.0766 47.1889C96.752 46.5569 98.567 45.8196 100.103 44.9769C100.103 45.8196 100.103 46.5569 100.242 47.3996C100.242 47.9262 100.382 48.4529 100.382 49.0849C100.382 49.7169 100.522 50.1382 100.661 50.7702V44.1343L88.6543 49.4009C89.2128 49.2956 89.7712 49.0849 90.3297 48.8742C90.8881 48.6636 91.4466 48.5582 92.0051 48.3476Z" fill="#F5F5F5"/>
<path d="M104.991 66.5701V67.5181C104.991 70.5728 102.478 74.1541 99.4061 75.4181L81.8145 83.1073L83.4898 82.4753C84.4672 82.054 86.0029 81.5273 87.8179 80.79C89.633 80.0527 91.7272 79.3154 93.8214 78.3674L97.1722 76.8927L98.8476 76.1554L99.6853 75.7341C99.9645 75.6287 100.244 75.4181 100.523 75.3127C101.64 74.6807 102.617 73.8381 103.315 72.8901C104.013 72.0474 104.572 71.0994 104.851 70.0461C105.13 69.0981 105.27 68.1501 105.27 67.2021C105.27 66.3595 105.13 65.5168 104.851 64.6742C104.572 63.9368 104.013 63.3048 103.176 62.8835C102.478 62.5675 101.78 62.4622 100.942 62.6728C100.523 62.7782 100.104 62.8835 99.6853 63.0942L99.2665 63.3048C102.478 62.1462 104.991 63.5155 104.991 66.5701Z" fill="#F5F5F5"/>
<path d="M107.643 91.2178C107.643 90.2698 107.504 89.3218 107.085 88.4792C106.806 87.6365 106.108 87.0045 105.13 86.5832C104.432 86.2672 103.595 86.1619 102.757 86.3725C102.198 86.4779 101.78 86.5832 101.361 86.7939L100.942 87.0045H101.082C104.432 85.6352 107.225 87.1099 107.225 90.5858V91.6392C107.225 95.0098 104.432 99.0124 101.082 100.487L84.188 107.86L82.0938 108.808L83.9088 108.176C85.0257 107.755 86.7011 107.123 88.6557 106.28C90.6103 105.438 92.8442 104.595 95.3573 103.542L99.1269 101.962C100.523 101.435 101.78 100.803 103.036 100.171C105.27 98.5911 106.945 96.5898 107.643 94.3778C107.504 93.4298 107.643 92.2712 107.643 91.2178Z" fill="#F5F5F5"/>
<path d="M119.231 86.2673V85.214C119.231 80.2634 117.137 76.2607 113.507 74.3647L114.065 74.6807C114.484 74.9967 114.903 75.3127 115.322 75.7341C116.578 76.9981 117.556 78.578 117.975 80.158C118.254 81.2114 118.533 82.2647 118.673 83.4233C118.812 84.6873 118.812 85.846 118.673 87.11C118.673 87.742 118.533 88.374 118.533 89.006C118.393 89.638 118.393 90.2699 118.114 91.0073C117.835 91.7446 117.835 92.2713 117.556 93.0086C117.276 93.7459 117.137 94.2726 116.858 95.0099C116.578 95.7472 116.299 96.2739 116.02 96.9059C115.741 97.5379 115.461 98.1699 115.043 98.8019C114.624 99.4339 114.345 100.066 113.926 100.593C113.507 101.225 113.228 101.751 112.669 102.278C112.25 102.805 111.831 103.436 111.413 103.963C110.994 104.49 110.575 105.016 110.156 105.438C109.318 106.386 108.481 107.228 107.503 108.071C106.666 108.808 105.828 109.546 104.99 110.072C104.292 110.599 103.594 111.02 102.896 111.547C101.639 112.284 100.941 112.706 100.941 112.706C110.994 108.176 119.231 96.3792 119.231 86.2673Z" fill="#F5F5F5"/>
<path d="M78.1832 127.242C76.2286 128.19 74.274 129.138 72.459 130.296L84.466 125.03V119.658C84.1867 121.343 83.9075 123.028 83.7679 124.714C81.9529 125.556 79.9982 126.399 78.1832 127.242Z" fill="#F5F5F5"/>
<path d="M100.802 112.6C100.523 114.286 100.383 115.971 100.243 117.656C98.2888 118.394 96.3342 119.236 94.5192 120.184C92.5646 121.132 90.6099 122.08 88.7949 123.239L100.802 117.972V112.6Z" fill="#F5F5F5"/>
</g>
<defs>
<clipPath id="clip0_788:1768">
<rect width="160" height="160" fill="white"/>
</clipPath>
</defs>
</svg>
