<svg width="453" height="431" viewBox="0 0 453 431" fill="none" xmlns="http://www.w3.org/2000/svg">
<g clip-path="url(#clip0)">
<path d="M400.5 135.5C400.5 135.5 393.3 129.9 382.7 147.5C372.1 165 367.9 175.3 367.9 175.3C367.9 175.3 365.2 178.9 362.7 176.3C360.3 173.6 357.2 166.3 352.6 167.3C347.9 168.3 346 173.3 346.3 181C346.6 188.6 346.8 205.4 346.8 206.9C346.8 208.4 345.8 210.5 343.8 208.9C341.8 207.3 331 193.3 324.6 198.9C318.3 204.5 322.7 225.6 323.1 227.9C323.5 230.2 323 231.2 321.9 231.6C320.8 232.1 317.6 227 314.3 223.2C311 219.3 306.6 215.4 303.2 219C299.8 222.5 297.7 238 310.7 264.2L317.5 276L331.2 276.2C360.5 274.9 373 265.6 374.4 260.9C375.8 256.2 370.3 254.2 365.3 253.2C360.3 252.2 354.4 251.8 354.3 250.6C354.2 249.4 354.8 248.5 357 247.7C359.2 247 379.9 240.7 381.7 232.4C383.5 224.2 366 221.4 363.7 220.4C361.4 219.4 362.8 217.5 364.1 216.8C365.4 216.1 380.2 208.1 387 204.7C393.8 201.3 397.4 197.2 395.9 192.6C394.5 188.2 386.6 189 383.1 188.2C379.6 187.4 381.4 183.2 381.4 183.2C381.4 183.2 388.3 174.5 398.6 156.8C408.9 139.1 400.2 135.4 400.2 135.4" fill="#515151"/>
<path d="M391 151.2C391 151.2 390.9 151.3 390.8 151.6C390.7 151.9 390.4 152.2 390.2 152.7C389.6 153.7 388.8 155.1 387.8 156.9C385.7 160.6 382.7 165.8 378.9 172.3C371.3 185.3 360.7 203.1 348.9 222.8C337.1 242.5 326.4 260.3 318.8 273.3C315 279.8 311.9 285 309.8 288.6C308.7 290.4 307.9 291.8 307.3 292.8C307 293.3 306.8 293.6 306.7 293.9C306.6 294.1 306.5 294.3 306.5 294.3C306.5 294.3 306.6 294.2 306.7 293.9C306.8 293.6 307.1 293.3 307.3 292.8C307.9 291.8 308.7 290.4 309.7 288.6C311.8 284.9 314.8 279.7 318.6 273.2C326.2 260.2 336.8 242.4 348.6 222.7C360.4 203 371.1 185.2 378.7 172.2C382.5 165.7 385.6 160.5 387.7 156.9C388.8 155.1 389.6 153.7 390.2 152.7C390.5 152.2 390.7 151.9 390.8 151.6C390.9 151.3 391 151.2 391 151.2Z" fill="#3F3F3F"/>
<path d="M356.5 177.5C356.5 177.5 356.6 177.8 356.8 178.4C357 179 357.1 179.9 357.4 181C357.9 183.2 358.4 186.3 359 189.7C359.5 193.1 360 196.1 360.4 198.4C360.6 199.4 360.7 200.3 360.8 201C360.9 201.6 361 202 360.9 202C360.9 202 360.8 201.7 360.6 201.1C360.4 200.5 360.3 199.6 360 198.5C359.6 196.3 359 193.2 358.5 189.8C357.9 186.4 357.4 183.4 357.1 181.1C356.9 180.1 356.8 179.2 356.7 178.5C356.5 177.9 356.5 177.5 356.5 177.5Z" fill="#3F3F3F"/>
<path d="M362.1 202.4C362.1 202.3 368.4 200.9 376.1 199.2C383.9 197.6 390.2 196.3 390.2 196.4C390.2 196.5 383.9 197.9 376.2 199.6C368.5 201.3 362.1 202.6 362.1 202.4Z" fill="#3F3F3F"/>
<path d="M342.6 231.8C342.6 231.8 343 231.8 343.6 231.8C344.3 231.9 345.2 231.9 346.3 232C348.6 232.2 351.8 232.4 355.3 232.5C358.8 232.6 362 232.6 364.3 232.6C365.4 232.6 366.3 232.6 367 232.6C367.6 232.6 368 232.6 368 232.6C368 232.6 367.6 232.7 367 232.7C366.4 232.8 365.4 232.8 364.3 232.9C362 233 358.8 233 355.3 232.9C351.8 232.8 348.6 232.5 346.3 232.3C345.2 232.2 344.2 232.1 343.6 232C343 231.9 342.6 231.9 342.6 231.8Z" fill="#3F3F3F"/>
<path d="M332.6 210.4C332.6 210.4 332.8 210.7 333.1 211.2C333.4 211.8 333.8 212.6 334.3 213.4C335.3 215.3 336.6 217.9 338 220.9C339.4 223.8 340.7 226.5 341.6 228.4C342 229.3 342.4 230.1 342.6 230.7C342.8 231.2 343 231.6 342.9 231.6C342.9 231.6 342.7 231.3 342.4 230.8C342.1 230.2 341.7 229.4 341.2 228.6C340.2 226.7 338.9 224.1 337.5 221.1C336.1 218.2 334.8 215.5 333.9 213.6C333.5 212.7 333.1 211.9 332.9 211.3C332.7 210.8 332.6 210.4 332.6 210.4Z" fill="#3F3F3F"/>
<path d="M312.1 234.2C312.1 234.2 312.3 234.6 312.7 235.2C313.1 235.9 313.6 236.9 314.2 238.1C315.4 240.5 317.1 243.9 319 247.6C320.9 251.3 322.5 254.7 323.7 257.2C324.3 258.4 324.7 259.4 325.1 260.1C325.4 260.8 325.6 261.2 325.6 261.2C325.6 261.2 325.4 260.8 325 260.2C324.6 259.5 324.1 258.5 323.5 257.3C322.3 254.9 320.6 251.5 318.7 247.8C316.8 244.1 315.2 240.7 314 238.2C313.4 237 313 236 312.6 235.3C312.3 234.6 312.1 234.2 312.1 234.2Z" fill="#3F3F3F"/>
<path d="M325.4 260.5C325.4 260.5 325.9 260.5 326.7 260.5C327.6 260.5 328.8 260.6 330.2 260.6C333.1 260.7 337.2 260.8 341.6 260.9C346.1 260.9 350.1 260.9 353 260.8C354.4 260.8 355.6 260.7 356.5 260.7C357.3 260.7 357.8 260.7 357.8 260.7C357.8 260.7 357.4 260.8 356.5 260.8C355.7 260.9 354.5 260.9 353 261C350.1 261.2 346 261.3 341.6 261.2C337.1 261.2 333.1 261 330.2 260.8C328.7 260.7 327.6 260.6 326.7 260.5C325.8 260.6 325.4 260.5 325.4 260.5Z" fill="#3F3F3F"/>
<path d="M37.5145 168.989L31.8145 169.02L33.1836 424.52L38.8836 424.489L37.5145 168.989Z" fill="#3F3F3F"/>
<path d="M51.3152 168.889L45.6152 168.919L46.9844 424.419L52.6844 424.389L51.3152 168.889Z" fill="#3F3F3F"/>
<path d="M171.516 168.289L165.816 168.32L167.185 423.82L172.885 423.789L171.516 168.289Z" fill="#3F3F3F"/>
<path d="M185.319 168.189L179.619 168.219L180.984 423.719L186.684 423.689L185.319 168.189Z" fill="#3F3F3F"/>
<path d="M185.385 168.191L31.7852 169.014L31.8162 174.814L185.416 173.991L185.385 168.191Z" fill="#3F3F3F"/>
<path d="M185.696 220.691L32.0957 221.514L32.1048 223.214L185.705 222.391L185.696 220.691Z" fill="#3F3F3F"/>
<path d="M185.996 270.092L32.3965 270.915L32.4056 272.615L186.006 271.792L185.996 270.092Z" fill="#3F3F3F"/>
<path d="M186.196 319.593L32.5957 320.416L32.6048 322.116L186.205 321.293L186.196 319.593Z" fill="#3F3F3F"/>
<path d="M186.496 368.994L32.8965 369.816L32.9056 371.516L186.506 370.694L186.496 368.994Z" fill="#3F3F3F"/>
<path d="M122.223 340.432L95.0234 340.578L95.1782 369.478L122.378 369.332L122.223 340.432Z" fill="#515151"/>
<path d="M149.323 340.332L122.123 340.478L122.278 369.378L149.478 369.232L149.323 340.332Z" fill="#686868"/>
<path d="M95.0992 348.5C113.199 348.7 131.299 348.5 149.399 348.2C149.699 348.2 149.699 347.8 149.399 347.8C131.299 347.7 113.199 347.7 95.0992 348.1C94.8992 348.2 94.8992 348.5 95.0992 348.5Z" fill="#3F3F3F"/>
<path d="M114.345 231.85L94.4453 231.957L94.5583 253.057L114.458 252.95L114.345 231.85Z" fill="#515151"/>
<path d="M134.246 231.75L114.346 231.856L114.459 252.956L134.359 252.85L134.246 231.75Z" fill="#686868"/>
<path d="M94.4996 237.8C107.7 237.9 121 237.8 134.3 237.6C134.6 237.6 134.6 237.2 134.3 237.2C121.1 237.1 107.8 237.2 94.4996 237.4C94.2996 237.4 94.2996 237.8 94.4996 237.8Z" fill="#3F3F3F"/>
<path d="M118.255 252.606L82.0547 252.8L82.1468 270L118.347 269.806L118.255 252.606Z" fill="#515151"/>
<path d="M154.255 252.407L118.055 252.601L118.147 269.801L154.347 269.607L154.255 252.407Z" fill="#686868"/>
<path d="M82.0992 257.6C106.099 257.9 130.299 257.6 154.299 257.2C154.599 257.2 154.599 256.8 154.299 256.8C130.299 256.7 106.099 256.7 82.0992 257.2C81.8992 257.3 81.8992 257.6 82.0992 257.6Z" fill="#3F3F3F"/>
<path d="M92.1059 185.779L83.0059 185.828L83.196 221.328L92.296 221.279L92.1059 185.779Z" fill="#515151"/>
<path d="M82.9301 195.379L73.8301 195.427L73.9683 221.227L83.0683 221.179L82.9301 195.379Z" fill="#3F3F3F"/>
<path d="M106.424 192.365L92.3242 192.441L92.478 221.141L106.578 221.065L106.424 192.365Z" fill="#3F3F3F"/>
<path d="M110.725 192.29L106.225 192.314L106.378 221.014L110.878 220.99L110.725 192.29Z" fill="#515151"/>
<path d="M115.242 198.99L110.742 199.015L110.861 221.115L115.361 221.09L115.242 198.99Z" fill="#3F3F3F"/>
<path d="M90.2631 289.577L81.8438 286.124L69.2477 316.841L77.667 320.293L90.2631 289.577Z" fill="#3F3F3F"/>
<path d="M98.1059 284.779L89.0059 284.828L89.196 320.328L98.296 320.279L98.1059 284.779Z" fill="#515151"/>
<path d="M116.924 291.366L102.824 291.442L102.978 320.142L117.078 320.066L116.924 291.366Z" fill="#3F3F3F"/>
<path d="M102.694 280.796L99.5938 280.812L99.8054 320.213L102.905 320.196L102.694 280.796Z" fill="#515151"/>
<path d="M99.6113 286.9L98.1113 286.908L98.2896 320.108L99.7896 320.1L99.6113 286.9Z" fill="#686868"/>
<path d="M117.164 318.579L117.172 320.079L150.372 319.901L150.364 318.401L117.164 318.579Z" fill="#686868"/>
<path d="M153.177 309.207L116.977 309.401L117.026 318.601L153.226 318.407L153.177 309.207Z" fill="#515151"/>
<path d="M146.077 300.026L116.977 300.182L117.026 309.382L146.126 309.226L146.077 300.026Z" fill="#3F3F3F"/>
<path d="M224.2 39.2C225.5 33.1 224.7 26.1 224.8 19.9C224.9 13.7 225.7 6.7 224.6 0.6C224.5 -0.2 223.1 -0.2 223 0.6C221.9 6.8 222.5 13.7 222.5 19.9C222.4 26.1 221.5 33.1 222.8 39.2C222.8 40 224 40 224.2 39.2Z" fill="#3F3F3F"/>
<path d="M169.199 87.7H279.299C279.299 87.7 269.099 39 223.399 39C182.699 39 169.199 87.7 169.199 87.7Z" fill="#686868"/>
<path d="M452.7 424.6C452.7 424.7 351.4 424.9 226.4 424.9C101.4 424.9 0.0996094 424.8 0.0996094 424.6C0.0996094 424.5 101.4 424.3 226.4 424.3C351.3 424.3 452.7 424.4 452.7 424.6Z" fill="#263238"/>
<path d="M306.5 424.2H142C135.6 424.2 130.5 419 130.5 412.7V146.2C130.5 139.8 135.7 134.7 142 134.7H306.5C312.9 134.7 318 139.9 318 146.2V412.7C318 419.1 312.9 424.2 306.5 424.2Z" fill="#455A64"/>
<path d="M230 410.8C230 415.1 226.8 418.5 222.8 418.5C218.8 418.5 215.6 415 215.6 410.8C215.6 406.6 218.8 403.1 222.8 403.1C226.8 403 230 406.5 230 410.8Z" fill="#263238"/>
<path d="M251.3 146.2H197.2C196.5 146.2 196 145.7 196 145V144.2C196 143.5 196.5 143 197.2 143H251.3C252 143 252.5 143.5 252.5 144.2V145C252.5 145.6 251.9 146.2 251.3 146.2Z" fill="#263238"/>
<path d="M312.601 151.2H136.801V395.5H312.601V151.2Z" fill="#263238"/>
<path d="M267 370.4C267 370.4 267.2 370.4 267.6 370.3C268 370.3 268.7 370.2 269.5 370.1C270.3 369.9 271.3 369.6 272.4 369.1C273.5 368.6 274.7 367.8 275.8 366.7C276.9 365.6 278 364.1 278.7 362.3C279.4 360.5 279.7 358.4 279.5 356.2C279.3 354 278.5 351.6 276.9 349.7C275.4 347.7 273.1 346.1 270.4 345.3C269.7 345.1 269 345 268.3 344.9C267.6 344.9 266.9 344.8 266.1 344.8C264.6 344.8 263.1 344.8 261.5 344.8C258.4 344.8 255.2 344.8 251.8 344.8C245.1 344.8 238 344.8 230.5 344.8C215.5 344.8 198.9 344.8 181.6 344.8C179.5 344.8 177.4 345.4 175.5 346.4C173.7 347.4 172.1 348.9 171 350.7C169.9 352.5 169.2 354.5 169.1 356.5C169 358.5 169.2 360.6 170 362.4C170.8 364.3 172 365.9 173.5 367.2C175 368.5 176.8 369.3 178.7 369.8C180.6 370.3 182.5 370.1 184.5 370.1C186.4 370.1 188.3 370.1 190.2 370.1C205.2 370.1 218.8 370.1 230.1 370.2C241.5 370.2 250.7 370.3 257 370.3C260.2 370.3 262.6 370.3 264.3 370.3C265.1 370.3 265.8 370.3 266.2 370.3C266.8 370.4 267 370.4 267 370.4C267 370.4 266.8 370.4 266.4 370.4C266 370.4 265.3 370.4 264.5 370.4C262.8 370.4 260.3 370.4 257.2 370.4C250.8 370.4 241.6 370.4 230.3 370.5C218.9 370.5 205.4 370.5 190.4 370.6C188.5 370.6 186.6 370.6 184.7 370.6C183.7 370.6 182.8 370.6 181.8 370.6C181.3 370.6 180.8 370.6 180.3 370.5C179.8 370.4 179.3 370.4 178.8 370.2C176.9 369.7 175 368.8 173.4 367.5C171.8 366.2 170.6 364.5 169.8 362.5C169 360.6 168.7 358.4 168.9 356.3C169 354.2 169.7 352.1 170.8 350.3C171.9 348.5 173.6 346.9 175.5 345.9C177.4 344.8 179.6 344.3 181.8 344.3C199.1 344.3 215.7 344.3 230.7 344.3C238.2 344.3 245.4 344.3 252 344.3C255.3 344.3 258.6 344.3 261.7 344.3C263.3 344.3 264.8 344.3 266.3 344.3C267 344.3 267.8 344.3 268.5 344.4C269.2 344.5 270 344.6 270.6 344.8C273.4 345.6 275.7 347.3 277.3 349.3C278.9 351.4 279.7 353.8 279.9 356C280.1 358.3 279.8 360.4 279 362.2C278.3 364 277.2 365.5 276.1 366.6C275 367.7 273.7 368.5 272.6 369C271.5 369.5 270.5 369.8 269.7 370C268.9 370.1 268.2 370.2 267.8 370.2C267.2 370.4 267 370.4 267 370.4Z" fill="white"/>
<path d="M202.2 355.8L201.6 356.6C201.1 356.1 200.5 355.8 199.8 355.8C198.5 355.8 197.5 356.8 197.5 358C197.5 359.2 198.5 360.2 199.8 360.2C200.4 360.2 201.1 359.9 201.6 359.5L202.2 360.2C201.6 360.8 200.7 361.2 199.8 361.2C198 361.2 196.5 359.8 196.5 358C196.5 356.2 197.9 354.8 199.8 354.8C200.7 354.8 201.5 355.2 202.2 355.8Z" fill="white"/>
<path d="M209.299 358C209.299 359.8 207.799 361.2 205.999 361.2C204.099 361.2 202.699 359.8 202.699 358C202.699 356.2 204.199 354.8 205.999 354.8C207.799 354.8 209.299 356.2 209.299 358ZM203.699 358C203.699 359.3 204.699 360.2 205.999 360.2C207.299 360.2 208.199 359.2 208.199 358C208.199 356.7 207.199 355.8 205.999 355.8C204.699 355.8 203.699 356.7 203.699 358Z" fill="white"/>
<path d="M214.801 361.1L211.401 356.6V361.1H210.301V354.8H211.301L214.701 359.3V354.8H215.701V361.1H214.801Z" fill="white"/>
<path d="M218.6 355.8V357.6H221.5V358.5H218.6V361.1H217.5V354.8H221.7V355.8H218.6Z" fill="white"/>
<path d="M222.699 361.1V354.8H223.799V361.1H222.699Z" fill="white"/>
<path d="M228.3 359.2C228.2 359.2 228.1 359.2 228 359.2H226.5V361.1H225.4V354.8H228C229.6 354.8 230.5 355.6 230.5 357C230.5 358 230 358.7 229.2 359L230.6 361.1H229.4L228.3 359.2ZM228 358.3C229 358.3 229.5 357.9 229.5 357C229.5 356.2 228.9 355.8 228 355.8H226.5V358.3H228Z" fill="white"/>
<path d="M237.6 361.1V356.4L235.6 360.5H234.9L232.9 356.4V361.1H231.9V354.8H233.2L235.3 359L237.4 354.8H238.7V361.1H237.6Z" fill="white"/>
<path d="M241.299 355.8V357.5H244.399V358.5H241.299V360.2H244.799V361.2H240.199V354.9H244.699V355.9H241.299V355.8Z" fill="white"/>
<path d="M248.7 354.8C250.6 354.8 252 356.1 252 358C252 359.8 250.6 361.2 248.7 361.2H246.1V354.9H248.7V354.8ZM247.2 360.2H248.7C249.9 360.2 250.9 359.3 250.9 358C250.9 356.7 249.9 355.8 248.7 355.8H247.2V360.2Z" fill="white"/>
<path d="M156.799 236.4L289.899 235.5L293.699 326L155.799 324.7L156.799 236.4Z" fill="#67C0F8"/>
<path d="M156.799 236.4L224.399 181.7L289.899 235.5" fill="#67C0F8"/>
<g opacity="0.3">
<g opacity="0.3">
<path opacity="0.3" d="M156.799 236.4L224.399 181.7L289.899 235.5" fill="black"/>
</g>
</g>
<path d="M155.8 324.7C155.6 324.5 166.3 312.9 179.6 298.7C192.9 284.5 203.8 273.1 204 273.3C204.2 273.5 193.5 285.1 180.2 299.3C166.9 313.5 155.9 324.9 155.8 324.7Z" fill="#263238"/>
<path d="M293.699 326C293.499 326.2 283.099 314.7 270.499 300.5C257.899 286.3 247.799 274.6 247.899 274.5C248.099 274.3 258.399 285.8 271.099 300C283.699 314.2 293.799 325.8 293.699 326Z" fill="#263238"/>
<g opacity="0.5">
<g opacity="0.5">
<path opacity="0.5" d="M289.899 235.5L223.099 288.9L156.799 236.4" fill="black"/>
</g>
</g>
<path d="M163.499 241.4L163.299 202.6L279.899 199.8L281.199 242.2L223.099 288.2L163.499 241.4Z" fill="#FAFAFA"/>
<path d="M224.699 274.3C223.599 274.3 222.499 274.2 221.399 274.1C213.699 273.2 206.799 269.4 201.999 263.3C197.199 257.2 194.999 249.7 195.899 242C197.699 226.1 212.099 214.6 227.999 216.4C235.699 217.3 242.599 221.1 247.399 227.2C252.199 233.3 254.399 240.8 253.499 248.5C252.599 256.2 248.799 263.1 242.699 267.9C237.499 272.1 231.199 274.3 224.699 274.3ZM224.599 217.2C210.599 217.2 198.399 227.8 196.799 242.1C195.999 249.5 198.099 256.9 202.699 262.7C207.399 268.6 213.999 272.2 221.499 273.1C228.899 273.9 236.299 271.8 242.099 267.2C247.999 262.5 251.599 255.9 252.499 248.4C253.299 241 251.199 233.6 246.599 227.8C241.899 221.9 235.299 218.3 227.799 217.4C226.699 217.3 225.699 217.2 224.599 217.2Z" fill="#67C0F8"/>
<path d="M204.898 249.3L209.798 243.3L221.098 251.5L239.498 229.8L245.098 234.7L221.398 262L204.898 249.3Z" fill="#67C0F8"/>
<path d="M350.201 288.5C350.301 289.2 351.301 289.6 352.001 289.2C352.601 288.8 352.901 288 352.801 287.2C352.701 286.5 352.301 285.8 351.901 285.1C353.101 285.8 354.801 285 355.101 283.8C355.401 282.5 354.301 281 353.001 281C353.901 280.8 354.901 280.5 355.601 279.9C356.301 279.3 356.701 278.2 356.301 277.3C355.901 276.4 354.501 276.1 353.901 276.8C354.401 276.5 354.901 276.1 355.201 275.6C355.501 275.1 355.601 274.4 355.301 273.9C354.901 273.4 354.101 273.3 353.401 273.6C352.701 273.9 352.201 274.3 351.601 274.6C350.201 275.4 348.301 275.3 347.001 274.4L343.301 277.5L350.201 288.5Z" fill="#263238"/>
<path d="M330.201 271.6C328.101 272.2 326.501 274.2 326.301 276.4C326.201 277.2 326.301 278 326.901 278.7C327.501 279.4 328.601 279.6 329.501 279.4C330.401 279.2 331.201 278.7 332.001 278.1C333.101 277.3 334.201 276.3 334.401 275C334.601 273.7 333.701 272.4 332.401 271.9C331.201 271.4 329.801 271.5 328.601 272.1" fill="#263238"/>
<path d="M333.5 290.1C333.1 291.4 332.7 292.7 331.8 293.8C331 294.9 329.8 295.8 328.4 295.9C327 296 325.6 295.2 325.2 294C325 294.8 324.3 295.4 323.5 295.6C322.7 295.8 321.8 295.4 321.4 294.7C321 294 321.3 293 322 292.6C321.2 293.1 320.2 293.5 319.4 293C319.1 292.8 318.8 292.4 318.7 292.1C318.3 290.8 319.1 289.5 319.9 288.5C320.8 287.5 321.8 286.5 322 285.2C322.2 284.2 321.8 283.1 321.5 282.1C321.2 281 321.1 279.7 321.4 278.6C321.7 277.4 322.3 276.4 323.4 275.8C324.4 275.2 325.8 275.2 326.7 276L326.9 277.7L333.5 290.1Z" fill="#263238"/>
<path d="M349 309.9C349 309.9 351.3 334.6 349.4 337.8C347.4 341 323.4 374.6 323.4 374.6H323.5C323 374.8 322.5 375 322 375.2C321.2 375.5 320.3 375.7 319.4 375.7C318.3 375.7 316.9 375.7 316.1 375.4C315.1 375.1 314.3 376.1 314.8 376.8C315.3 377.6 317.9 378.5 321.2 378.2C324.5 377.9 320.8 381.5 319.5 382.8C318.2 384.1 314.3 388.5 314.4 389.2C314.5 390.3 315.7 390.3 317 388.9C318.3 387.5 322.4 383.7 323.1 384.4C323.8 385.1 317 391.9 317 391.9C317 391.9 315.3 393.1 316.1 394C317.5 395.6 324.1 387.9 324.7 387.1C325.1 386.6 325.9 387.3 325.4 387.9C324.9 388.4 318.5 394.5 319.9 396.1C320.9 397.3 325.4 389.8 327.5 389.3C329.5 388.8 323.5 394.7 324.6 395.8C325 396.2 325.3 396.5 328.3 392.6C330 390.4 332.7 385.8 334.8 382.1C338 378.7 369 345 369.2 338.7C369.5 332.1 370.6 309.6 370.6 309.6L349 309.9Z" fill="#EB996E"/>
<path d="M312.002 419.6L311.702 410.4L328.802 409.8L329.402 423.2L328.302 423.3C323.602 423.7 304.302 425.2 301.102 424.4C297.502 423.5 312.002 419.6 312.002 419.6Z" fill="#67C0F8"/>
<g opacity="0.4">
<g opacity="0.4">
<g opacity="0.4">
<path opacity="0.4" d="M304.901 421.7C304.901 421.7 299.901 423.4 300.501 424.2C301.201 425 320.701 424.3 329.301 423.2V422.8L306.501 423.9C306.501 423.9 305.901 421.8 304.901 421.7Z" fill="white"/>
</g>
</g>
</g>
<path d="M329.602 422.8C329.602 422.8 329.502 422.8 329.302 422.8C329.002 422.8 328.802 422.9 328.502 422.9C327.702 423 326.602 423.1 325.402 423.2C322.802 423.4 319.102 423.6 315.102 423.8C311.102 424 307.402 424 304.802 424C303.602 424 302.502 424 301.702 424C301.402 424 301.102 424 300.902 424C300.702 424 300.602 424 300.602 424C300.602 424 300.702 424 300.902 424C301.202 424 301.402 424 301.702 424C302.502 424 303.602 424 304.802 423.9C307.402 423.9 311.102 423.8 315.102 423.6C319.102 423.4 322.702 423.2 325.402 423.1C326.602 423 327.702 423 328.502 422.9C328.802 422.9 329.102 422.9 329.302 422.9C329.502 422.8 329.602 422.8 329.602 422.8Z" fill="#263238"/>
<path d="M306.501 424.201C306.401 424.201 306.401 423.501 305.901 422.701C305.401 422.001 304.801 421.6 304.801 421.5C304.801 421.4 305.601 421.7 306.101 422.5C306.601 423.4 306.601 424.201 306.501 424.201Z" fill="#263238"/>
<path d="M311.502 421.4C311.502 421.4 311.202 421.1 310.902 420.8C310.602 420.4 310.502 420.1 310.502 420C310.502 420 310.802 420.3 311.102 420.6C311.402 421 311.502 421.4 311.502 421.4Z" fill="#263238"/>
<path d="M312.901 420.6C312.901 420.6 312.601 420.5 312.301 420.2C312.001 419.9 311.801 419.7 311.801 419.7C311.801 419.7 312.101 419.8 312.401 420.1C312.701 420.3 312.901 420.6 312.901 420.6Z" fill="#263238"/>
<path d="M313.7 419C313.7 419.1 313.3 419.1 312.8 419.1C312.3 419.1 311.9 419.1 311.9 419C311.9 418.9 312.3 418.9 312.8 418.9C313.3 418.9 313.7 418.9 313.7 419Z" fill="#263238"/>
<path d="M313.9 417.8C313.9 417.9 313.5 418.1 312.9 418.1C312.3 418.2 311.9 418.1 311.9 418C311.9 417.9 312.4 418 312.9 417.9C313.5 417.9 313.9 417.8 313.9 417.8Z" fill="#263238"/>
<path d="M310.902 419.9C310.902 419.9 310.502 420 309.802 419.9C309.502 419.9 309.102 419.8 308.602 419.7C308.402 419.6 308.202 419.6 307.902 419.4C307.802 419.3 307.702 419.2 307.602 419.1C307.502 418.9 307.602 418.7 307.802 418.7C308.802 418.1 309.902 418.7 310.302 419.2C310.502 419.5 310.602 419.7 310.702 419.9C310.802 420.1 310.802 420.2 310.702 420.2C310.702 420.2 310.602 419.8 310.202 419.3C310.002 419.1 309.702 418.8 309.202 418.7C308.802 418.6 308.302 418.6 307.902 418.8C307.702 418.9 307.802 419.1 308.002 419.2C308.202 419.3 308.402 419.4 308.602 419.4C309.002 419.5 309.402 419.6 309.702 419.7C310.402 419.9 310.902 419.9 310.902 419.9Z" fill="#263238"/>
<path d="M310.6 420C310.6 420 310.4 419.7 310.4 419.2C310.4 419 310.5 418.7 310.7 418.4C310.9 418.1 311.1 417.8 311.6 417.8C311.9 417.8 312 418.1 312 418.3C312 418.5 311.9 418.7 311.8 418.8C311.6 419.1 311.5 419.3 311.3 419.5C311 419.9 310.7 420 310.6 420C310.7 420 310.9 419.8 311.2 419.4C311.3 419.2 311.5 419 311.6 418.7C311.7 418.5 311.8 418 311.6 418C311.3 418 311.1 418.3 310.9 418.5C310.7 418.7 310.6 419 310.6 419.2C310.5 419.7 310.6 420 310.6 420Z" fill="#263238"/>
<path d="M329.101 418.1C329.101 418.1 328.601 418.1 327.801 418.2C327.001 418.3 326.001 418.7 325.101 419.4C324.201 420.2 323.701 421.2 323.501 421.9C323.301 422.6 323.301 423.1 323.201 423.1C323.201 423.1 323.201 423 323.201 422.8C323.201 422.6 323.301 422.3 323.401 421.9C323.601 421.1 324.101 420.1 325.001 419.3C325.901 418.5 327.001 418.1 327.801 418.1C328.201 418.1 328.501 418.1 328.701 418.1C329.001 418.1 329.101 418.1 329.101 418.1Z" fill="#263238"/>
<path d="M327.002 411.1C327.102 411.1 327.202 412.7 327.302 414.6C327.402 416.5 327.402 418.1 327.402 418.1C327.302 418.1 327.202 416.5 327.102 414.6C327.002 412.7 327.002 411.1 327.002 411.1Z" fill="#263238"/>
<path d="M320.9 421.7C320.9 421.8 319.8 422 318.4 422C317 422.1 315.9 421.9 315.9 421.9C315.9 421.8 317 421.9 318.4 421.8C319.8 421.8 320.9 421.7 320.9 421.7Z" fill="#263238"/>
<path d="M324.301 421.6C324.301 421.6 324.201 421.8 324.101 422.1C324.001 422.4 323.901 422.6 323.901 422.6C323.801 422.6 323.801 422.3 323.901 422C324.001 421.7 324.301 421.6 324.301 421.6Z" fill="#263238"/>
<path d="M325.5 420C325.5 420 325.4 420.2 325.3 420.4C325.1 420.6 325 420.7 324.9 420.7C324.9 420.7 325 420.5 325.1 420.3C325.3 420.1 325.5 419.9 325.5 420Z" fill="#263238"/>
<path d="M327.301 419.2C327.301 419.3 327.101 419.3 326.801 419.4C326.501 419.5 326.401 419.6 326.301 419.6C326.301 419.6 326.401 419.3 326.701 419.2C327.001 419 327.301 419.1 327.301 419.2Z" fill="#263238"/>
<path d="M328.602 418.8C328.602 418.9 328.502 418.9 328.402 419C328.302 419.1 328.102 419.1 328.102 419C328.102 418.9 328.202 418.9 328.302 418.8C328.402 418.7 328.502 418.7 328.602 418.8Z" fill="#263238"/>
<g opacity="0.3">
<path opacity="0.3" d="M329 417.701L311.9 418V416L329.1 416.6L329 417.701Z" fill="black"/>
</g>
<path d="M376.501 357.5L322.301 356.8C322.301 356.8 307.201 358.2 307.201 377.8L309.101 416.5H332.201L330.601 379.4C331.901 379.4 349.401 380 349.401 380L376.501 357.5Z" fill="#263238"/>
<path d="M309.1 416.5C309.1 416.5 309.1 416.3 309 415.8C309 415.3 308.9 414.7 308.9 413.9C308.8 412.2 308.7 409.8 308.5 406.8C308.1 400.8 307.5 392.6 307 383.5C306.8 378.9 306.5 374.6 307 370.6C307.1 369.6 307.3 368.7 307.6 367.7C307.9 366.8 308.3 365.9 308.7 365.2C309.6 363.7 310.7 362.4 311.8 361.4C312.9 360.4 314.1 359.7 315.2 359.2C316.3 358.7 317.3 358.4 318.1 358.2C318.5 358.1 318.9 358 319.2 357.9C319.5 357.9 319.8 357.8 320 357.8C320.4 357.7 320.7 357.7 320.7 357.7C320.7 357.7 320.5 357.8 320 357.9C319.8 358 319.5 358 319.2 358.1C318.9 358.2 318.5 358.3 318.1 358.4C317.3 358.6 316.4 359 315.3 359.5C314.3 360 313.1 360.8 312 361.7C310.9 362.7 309.8 363.9 309 365.4C308.6 366.2 308.2 367 308 367.9C307.7 368.8 307.6 369.7 307.4 370.7C306.9 374.6 307.2 378.9 307.4 383.5C307.8 392.6 308.5 400.8 308.7 406.8C308.8 409.8 308.9 412.2 308.9 413.9C308.9 414.7 308.9 415.3 308.9 415.8C309.2 416.3 309.2 416.5 309.1 416.5Z" fill="#455A64"/>
<path d="M412.601 419.6L403.501 420.2L402.301 403.1L415.701 402.1L415.801 403.2C416.401 407.9 418.501 427.1 417.801 430.4C416.901 433.9 412.601 419.6 412.601 419.6Z" fill="#67C0F8"/>
<g opacity="0.4">
<g opacity="0.4">
<g opacity="0.4">
<path opacity="0.4" d="M414.9 426.6C414.9 426.6 416.7 431.6 417.5 430.9C418.3 430.2 416.9 410.7 415.5 402.1L415.1 402.2L417 425C417 424.9 414.9 425.6 414.9 426.6Z" fill="white"/>
</g>
</g>
</g>
<path d="M415.102 401.9C415.102 401.9 415.102 402 415.202 402.2C415.202 402.5 415.302 402.7 415.302 403C415.402 403.8 415.502 404.9 415.702 406.1C416.002 408.7 416.302 412.3 416.602 416.4C416.902 420.4 417.102 424 417.202 426.7C417.202 427.9 417.302 429 417.302 429.8C417.302 430.1 417.302 430.4 417.302 430.6C417.302 430.8 417.302 430.9 417.302 430.9C417.302 430.9 417.302 430.8 417.302 430.6C417.302 430.3 417.302 430.1 417.202 429.8C417.202 429 417.102 427.9 417.002 426.7C416.902 424.1 416.602 420.4 416.402 416.4C416.102 412.4 415.802 408.8 415.502 406.1C415.402 404.9 415.302 403.8 415.202 403C415.202 402.7 415.102 402.4 415.102 402.2C415.102 402 415.102 401.9 415.102 401.9Z" fill="#263238"/>
<path d="M417.3 424.9C417.3 425 416.6 425.1 415.9 425.6C415.2 426.1 414.8 426.8 414.8 426.7C414.7 426.7 415 425.9 415.8 425.4C416.5 424.9 417.3 424.9 417.3 424.9Z" fill="#263238"/>
<path d="M414.3 420.1C414.3 420.1 414.1 420.4 413.7 420.7C413.3 421 413 421.2 413 421.1C413 421.1 413.2 420.8 413.6 420.5C414 420.2 414.3 420 414.3 420.1Z" fill="#263238"/>
<path d="M413.502 418.7C413.502 418.7 413.402 419 413.102 419.3C412.902 419.6 412.602 419.8 412.602 419.8C412.602 419.8 412.702 419.5 413.002 419.2C413.202 418.9 413.502 418.7 413.502 418.7Z" fill="#263238"/>
<path d="M411.801 418C411.901 418 411.901 418.4 412.001 418.9C412.001 419.4 412.001 419.8 412.001 419.8C411.901 419.8 411.901 419.4 411.801 418.9C411.801 418.4 411.801 418 411.801 418Z" fill="#263238"/>
<path d="M410.701 417.7C410.701 417.7 411.001 418.1 411.101 418.7C411.201 419.3 411.101 419.7 411.001 419.7C410.901 419.7 410.901 419.2 410.901 418.7C410.801 418.2 410.601 417.8 410.701 417.7Z" fill="#263238"/>
<path d="M412.902 420.7C412.902 420.7 413.002 421.1 413.002 421.8C413.002 422.1 412.902 422.5 412.802 423C412.702 423.2 412.702 423.4 412.602 423.7C412.502 423.8 412.402 423.9 412.302 424C412.102 424.1 411.902 424 411.802 423.9C411.202 422.9 411.702 421.8 412.202 421.4C412.502 421.2 412.702 421 412.902 421C413.102 420.9 413.202 420.9 413.202 420.9C413.202 420.9 412.802 421 412.302 421.5C412.102 421.7 411.902 422.1 411.802 422.5C411.702 422.9 411.702 423.5 412.002 423.8C412.102 424 412.302 423.9 412.402 423.7C412.502 423.5 412.602 423.3 412.602 423.1C412.702 422.7 412.802 422.3 412.802 421.9C412.902 421.2 412.902 420.7 412.902 420.7Z" fill="#263238"/>
<path d="M413.001 421C413.001 421 412.701 421.2 412.201 421.2C412.001 421.2 411.701 421.1 411.401 421C411.101 420.8 410.801 420.6 410.801 420.1C410.801 419.8 411.101 419.7 411.301 419.7C411.501 419.7 411.701 419.8 411.801 419.9C412.101 420 412.301 420.2 412.501 420.4C412.801 420.7 413.001 420.9 413.001 421C412.901 420.9 412.801 420.7 412.401 420.4C412.201 420.3 412.001 420.1 411.701 420C411.501 419.9 411.001 419.8 411.001 420.1C411.001 420.4 411.301 420.6 411.501 420.8C411.801 421 412.001 421 412.201 421.1C412.701 421.1 413.001 421 413.001 421Z" fill="#263238"/>
<path d="M410.501 402.6C410.501 402.6 410.501 403.1 410.601 403.9C410.701 404.7 411.101 405.7 411.901 406.6C412.701 407.5 413.701 407.9 414.501 408.1C415.301 408.3 415.701 408.3 415.701 408.3C415.701 408.3 415.601 408.3 415.401 408.3C415.201 408.3 414.901 408.3 414.501 408.2C413.701 408 412.701 407.6 411.801 406.7C411.001 405.8 410.601 404.7 410.501 403.9C410.401 403.5 410.401 403.2 410.501 403C410.401 402.7 410.501 402.6 410.501 402.6Z" fill="#263238"/>
<path d="M403.5 404.9C403.5 404.8 405.1 404.7 407 404.5C408.9 404.3 410.5 404.2 410.5 404.3C410.5 404.4 408.9 404.5 407 404.7C405.1 404.9 403.5 404.9 403.5 404.9Z" fill="#263238"/>
<path d="M414.301 410.6C414.401 410.6 414.601 411.7 414.701 413.1C414.801 414.5 414.701 415.6 414.701 415.6C414.601 415.6 414.601 414.5 414.501 413.1C414.401 411.7 414.301 410.6 414.301 410.6Z" fill="#263238"/>
<path d="M414.1 407.3C414.1 407.3 414.3 407.4 414.6 407.5C414.9 407.6 415.1 407.6 415.1 407.7C415.1 407.8 414.8 407.8 414.5 407.7C414.2 407.5 414 407.3 414.1 407.3Z" fill="#263238"/>
<path d="M412.4 406.1C412.4 406.1 412.6 406.2 412.8 406.3C413 406.5 413.1 406.6 413.1 406.7C413.1 406.7 412.9 406.6 412.7 406.5C412.5 406.3 412.4 406.1 412.4 406.1Z" fill="#263238"/>
<path d="M411.6 404.3C411.7 404.3 411.7 404.5 411.8 404.8C411.9 405 412.1 405.2 412 405.3C412 405.3 411.7 405.2 411.6 404.9C411.4 404.6 411.5 404.3 411.6 404.3Z" fill="#263238"/>
<path d="M411.102 403.1C411.202 403.1 411.202 403.2 411.302 403.3C411.402 403.4 411.402 403.6 411.302 403.6C411.202 403.6 411.202 403.5 411.102 403.4C411.102 403.2 411.102 403.1 411.102 403.1Z" fill="#263238"/>
<g opacity="0.3">
<path opacity="0.3" d="M410 402.7L411 419.8L408.9 419.9V402.6L410 402.7Z" fill="black"/>
</g>
<path d="M356.5 402.7C356.5 402.7 402.7 377.5 407.9 369.3C413.3 360.8 409.4 352.9 409.4 352.9L370.5 358.1L343 385.8C337 390.6 326.1 400.5 326.1 410.4C326.1 427.2 347.8 424.5 363.5 424.5C384.8 424.5 408.8 424.6 408.8 424.6L408.9 401.7L356.5 402.7Z" fill="#263238"/>
<path d="M345.601 407.5C345.601 407.6 348.201 406.6 351.301 405.3C354.401 404 356.901 402.8 356.801 402.7C356.801 402.6 354.201 403.6 351.101 404.9C348.001 406.2 345.501 407.4 345.601 407.5Z" fill="#455A64"/>
<path d="M349.199 401.9C349.199 402 350.999 402.2 353.199 402.3C355.399 402.4 357.199 402.3 357.299 402.2C357.299 402.1 355.499 401.9 353.299 401.8C350.999 401.7 349.199 401.8 349.199 401.9Z" fill="#455A64"/>
<path d="M367.599 362C367.599 362 367.499 362.2 367.199 362.5C366.899 362.8 366.399 363.3 365.899 363.8C364.699 365 362.999 366.6 360.999 368.5C356.799 372.5 350.999 377.9 344.699 384C341.499 387 338.399 389.8 335.699 392.5C332.999 395.2 330.799 397.8 329.299 400.3C327.799 402.7 326.999 405 326.699 406.5C326.599 406.9 326.499 407.2 326.499 407.5C326.499 407.8 326.399 408 326.399 408.3C326.299 408.7 326.299 408.9 326.299 408.9C326.299 408.9 326.299 408.7 326.299 408.3C326.299 408.1 326.299 407.8 326.399 407.5C326.399 407.2 326.499 406.8 326.599 406.4C326.899 404.8 327.599 402.5 329.099 400C330.599 397.5 332.799 394.8 335.399 392.1C338.099 389.4 341.199 386.6 344.399 383.6C350.799 377.6 356.599 372.2 360.799 368.3C362.899 366.4 364.599 364.8 365.799 363.7C366.399 363.2 366.799 362.8 367.199 362.5C367.399 362.1 367.599 362 367.599 362Z" fill="#455A64"/>
<path d="M353.701 311.9C349.601 314.1 344.401 312.3 342.601 308C341.601 305.6 340.801 303.7 340.801 303.7C340.801 303.7 334.801 305.8 331.801 300.4C330.101 297.3 327.701 292.1 325.901 288.1C324.401 284.7 324.801 280.8 326.901 277.7C331.801 271.5 335.701 272.6 343.401 273.8L344.601 274L357.101 301.7C358.901 305.5 357.401 309.9 353.701 311.9Z" fill="#FFBE9D"/>
<path d="M329.8 290.7C330 290.2 329.7 289.7 329.2 289.5C328.7 289.3 328.2 289.6 328 290.1C327.8 290.6 328.1 291.1 328.6 291.3C329.1 291.4 329.6 291.2 329.8 290.7Z" fill="#263238"/>
<path d="M327.301 289.8C327.401 289.8 327.801 289.1 328.501 288.7C329.201 288.3 330.001 288.4 330.001 288.2C330.001 288.1 329.801 288 329.501 288C329.201 287.9 328.701 288 328.201 288.2C327.701 288.5 327.401 288.9 327.301 289.2C327.301 289.5 327.301 289.8 327.301 289.8Z" fill="#263238"/>
<path d="M336.402 286.2C336.102 286.6 336.302 287.2 336.702 287.4C337.102 287.7 337.702 287.5 337.902 287.1C338.202 286.7 338.002 286.1 337.602 285.9C337.202 285.7 336.602 285.8 336.402 286.2Z" fill="#263238"/>
<path d="M335.602 286C335.702 286 336.102 285.3 336.802 284.9C337.502 284.5 338.302 284.6 338.302 284.4C338.302 284.3 338.102 284.2 337.802 284.2C337.502 284.1 337.002 284.2 336.502 284.4C336.002 284.7 335.702 285.1 335.602 285.4C335.602 285.8 335.602 286 335.602 286Z" fill="#263238"/>
<path d="M336.301 294.1C336.301 294 335.801 294.2 334.901 294.5C334.701 294.6 334.501 294.6 334.401 294.5C334.301 294.4 334.301 294.1 334.201 293.9C334.101 293.3 334.001 292.7 334.001 292C333.601 289.4 333.201 287.2 333.101 287.3C333.001 287.3 333.101 289.5 333.501 292.1C333.601 292.7 333.701 293.4 333.801 294C333.901 294.3 333.901 294.6 334.101 294.9C334.201 295 334.501 295.1 334.601 295C334.801 295 334.901 294.9 335.001 294.9C335.801 294.4 336.301 294.1 336.301 294.1Z" fill="#263238"/>
<path d="M340.801 303.6C340.801 303.6 344.401 302 346.901 297.7C346.901 297.7 347.301 302.6 341.601 305L340.801 303.6Z" fill="#EB996E"/>
<path d="M347.201 280.1C347.301 280 351.601 277.4 352.901 282.2C354.001 286.3 349.401 287 349.401 286.8C349.201 286.7 347.201 280.1 347.201 280.1Z" fill="#FFBE9D"/>
<path d="M350.1 284.4C350.1 284.4 350.2 284.4 350.3 284.4C350.4 284.4 350.6 284.4 350.8 284.2C351.2 283.9 351.3 283.1 351 282.4C350.9 282 350.7 281.7 350.5 281.5C350.3 281.3 350 281.1 349.8 281.2C349.6 281.2 349.5 281.4 349.5 281.5C349.5 281.6 349.5 281.7 349.5 281.7C349.5 281.7 349.4 281.7 349.4 281.5C349.4 281.4 349.4 281.3 349.5 281.2C349.6 281.1 349.7 281 349.8 281C350.1 280.9 350.5 281.1 350.7 281.3C351 281.6 351.2 281.9 351.3 282.3C351.6 283.1 351.4 284 350.9 284.3C350.7 284.5 350.4 284.5 350.2 284.4C350.2 284.5 350.1 284.4 350.1 284.4Z" fill="#EB996E"/>
<path d="M345.2 311.2C345.2 311.2 356 293.2 372.6 308.3C383.4 318.2 401.1 338.6 407.5 346.6C408.9 348.4 411.1 351.1 409.6 352.8C404.9 357.9 391.9 369.4 368 360.8L345.3 329.2C341.4 323.9 341.3 316.7 345.2 311.2Z" fill="#67C0F8"/>
<path d="M358.9 302.6L355.9 297.7L340.4 310L343.3 314.6L358.9 302.6Z" fill="#67C0F8"/>
<g opacity="0.3">
<g opacity="0.3">
<path opacity="0.3" d="M358.3 303.3C358.3 303.3 346.1 313.8 345.9 313.7C345.7 313.5 341 310.1 341 310.1L345.3 312.5L358.3 303.3Z" fill="black"/>
</g>
</g>
<path d="M359.1 302.6C359.1 302.6 358.8 302.7 358.3 303C357.8 303.3 357.1 303.7 356.3 304.3C354.6 305.4 352.4 307.1 349.9 309C348.2 310.3 346.6 311.4 345.3 312.3H345.5C344.1 311.5 342.8 310.9 342 310.4C341.1 310 340.7 309.7 340.6 309.8C340.6 309.8 341 310.1 341.9 310.6C342.7 311.1 343.9 311.8 345.3 312.6L345.4 312.7L345.5 312.6C346.9 311.7 348.5 310.6 350.2 309.3C352.6 307.5 354.8 305.8 356.5 304.5C357.2 303.9 357.9 303.5 358.4 303.1C358.8 302.8 359.1 302.6 359.1 302.6Z" fill="#263238"/>
<path d="M293.001 349.9L290.101 348.7C290.101 348.7 288.201 348.3 285.101 346.8C284.301 346.4 283.601 345.9 282.901 345.3C282.101 344.5 281.201 343.5 280.801 342.7C280.401 341.8 279.001 341.9 278.901 342.8C278.701 343.7 279.901 346.3 282.401 348.4C284.901 350.5 279.801 350.4 277.901 350.4C276.001 350.4 270.201 350.7 269.801 351.3C269.101 352.1 269.901 353 271.801 353C273.701 352.9 279.301 353.2 279.301 354.2C279.301 355.2 269.701 355.1 269.701 355.1C269.701 355.1 267.701 354.7 267.601 355.9C267.401 358 277.601 357.3 278.601 357.2C279.301 357.1 279.301 358.2 278.501 358.2C277.801 358.2 269.001 357.9 268.801 360C268.701 361.6 277.201 359.5 278.901 360.6C280.701 361.7 272.301 361.5 272.201 363.1C272.201 363.7 272.201 364.1 277.101 363.5C282.101 362.9 295.201 359.1 295.201 359.1L293.001 349.9Z" fill="#FFBE9D"/>
<path d="M350.4 317.5C350.4 317.5 334.6 339.3 330.9 340.2C327.2 341.1 286.5 347.5 286.5 347.5L288.5 360.8C288.5 360.8 339.1 359.4 344 354.9C348.9 350.4 363.7 327.7 363.7 327.7L350.4 317.5Z" fill="#FFBE9D"/>
<path d="M339.301 354.4C339.301 354.4 339.401 354.6 339.701 354.8C340.001 355 340.501 355.2 341.201 355.1C341.901 355.1 342.701 354.7 343.101 353.9C343.601 353.2 343.801 352 343.201 351.1C342.901 350.6 342.501 350.3 342.001 350.1C341.501 350 341.001 350 340.601 350.2C339.701 350.7 339.601 351.8 340.001 352.3C340.401 352.9 341.101 352.9 341.501 352.7C341.901 352.6 341.901 352.3 341.901 352.3C341.901 352.3 341.701 352.4 341.401 352.5C341.101 352.6 340.501 352.5 340.301 352.1C340.001 351.7 340.201 350.8 340.801 350.5C341.101 350.3 341.501 350.3 341.901 350.4C342.301 350.5 342.601 350.8 342.801 351.2C343.201 352 343.101 352.9 342.701 353.5C342.301 354.2 341.601 354.5 341.101 354.6C340.001 354.9 339.301 354.3 339.301 354.4Z" fill="#EB996E"/>
<path d="M368.501 324.1L353.501 349.9L336.201 335.6C336.201 335.6 348.201 316 353.801 309.9L368.501 324.1Z" fill="#67C0F8"/>
<path d="M325.4 373.3C325.4 373.2 327.4 373.9 328.9 375.9C330.4 377.9 330.6 380 330.5 379.9C330.3 379.9 330 378 328.5 376.2C327.1 374.3 325.4 373.4 325.4 373.3Z" fill="#455A64"/>
<path d="M343.4 282.4C343.6 282.8 344 283.1 344.5 283.2C344.9 283.3 345.4 283.3 345.9 283.4C346.6 283.5 347.3 283.9 347.7 284.5C347.9 284.7 348.1 285 348.3 285.2C348.6 285.4 348.9 285.5 349.2 285.3C349.6 285 349.4 284.4 349.2 283.9C348.3 282 347.3 280.2 346.4 278.3L341.1 279.5L343.4 282.2" fill="#263238"/>
<path d="M326.001 276.1C326.601 275.4 327.501 274.8 328.201 275.4C328.901 276 329.201 277 329.401 277.9C329.601 278.8 329.801 279.8 330.301 280.6C331.001 281.6 332.201 282.2 333.401 282C334.601 281.9 335.701 281 336.101 279.9C336.801 281 337.601 282.1 338.601 282.9C339.601 283.7 341.101 284.1 342.301 283.6C343.501 283.1 344.301 281.6 343.701 280.4C344.401 280.9 345.201 281.3 346.101 281.3C347.001 281.3 347.901 280.8 348.201 280C348.501 279.2 348.101 278.1 347.201 277.9C348.201 278.5 349.601 278.5 350.501 277.8C351.401 277.1 351.701 275.7 351.101 274.7C350.501 273.7 349.001 273.4 348.101 274.1C348.801 273.7 349.401 273.3 349.801 272.6C350.201 271.9 350.001 270.9 349.301 270.6C348.501 270.2 347.601 271 346.701 271.2C345.201 271.5 344.001 270.1 342.801 269.2C340.601 267.6 337.701 267.1 335.101 267.7C332.401 268.2 330.001 269.7 328.001 271.5C326.801 272.7 325.501 274.4 326.001 276.1Z" fill="#263238"/>
<path d="M329.201 286.9C329.201 287.3 328.801 287.7 328.301 287.9C327.801 288.1 327.201 288.1 326.901 287.8C326.601 287.5 326.901 286.8 327.701 286.5C328.501 286.1 329.201 286.5 329.201 286.9Z" fill="#263238"/>
<path d="M337.1 283.1C337 283.5 336.5 283.8 336 284.1C335.5 284.3 334.9 284.5 334.5 284.3C334.3 284.2 334.3 283.9 334.4 283.6C334.5 283.3 334.9 282.9 335.3 282.7C335.8 282.5 336.3 282.5 336.6 282.6C337 282.7 337.1 282.9 337.1 283.1Z" fill="#263238"/>
<path d="M339.4 292.3C339.5 292.2 339.9 293.3 339.4 294.4C338.9 295.5 337.9 296 337.9 295.9C337.8 295.8 338.5 295.2 338.9 294.2C339.3 293.2 339.3 292.3 339.4 292.3Z" fill="#263238"/>
<path d="M350.901 276.3C350.901 276.3 350.801 276.4 350.701 276.4C350.501 276.5 350.301 276.5 349.901 276.6C349.301 276.6 348.101 276.4 347.501 275.2L347.801 275.3C347.101 276 345.901 276.6 344.501 276.6C343.101 276.6 341.601 276.2 340.501 274.9L340.901 274.7C340.901 275.4 340.501 276 340.001 276.4C339.401 276.8 338.801 277 338.101 276.9C336.901 276.7 336.101 276 335.401 275.2C334.701 274.5 334.201 273.7 333.501 273.1C332.901 272.5 332.201 272 331.401 271.9C330.701 271.8 329.901 271.9 329.301 272.2C328.101 272.7 327.301 273.5 326.701 274.1C326.201 274.7 325.901 275 325.801 274.9C325.801 274.9 326.001 274.5 326.501 273.9C327.001 273.3 327.801 272.4 329.101 271.8C329.801 271.5 330.601 271.3 331.401 271.5C332.301 271.6 333.101 272.1 333.801 272.8C334.501 273.4 335.101 274.2 335.701 274.9C336.401 275.6 337.201 276.3 338.101 276.4C339.201 276.6 340.501 275.8 340.401 274.8V274.1L340.901 274.7C341.901 275.8 343.301 276.3 344.501 276.3C345.801 276.3 346.901 275.8 347.601 275.2L347.801 275L347.901 275.2C348.401 276.2 349.401 276.6 350.001 276.6C350.601 276.5 350.901 276.3 350.901 276.3Z" fill="#455A64"/>
<path d="M371.001 320.1C370.901 320.1 371.001 319.5 370.801 318.5C370.601 317.5 370.201 315.9 369.201 314.3C368.201 312.7 366.601 311 364.301 310.1C362.001 309.1 359.101 308.9 356.401 309.8C355.001 310.3 353.801 311 352.801 311.8C351.701 312.6 350.801 313.6 350.001 314.5C348.401 316.4 347.201 318.4 346.201 320C345.201 321.6 344.401 323 343.801 323.9C343.501 324.3 343.301 324.7 343.101 324.9C342.901 325.1 342.801 325.2 342.801 325.2C342.801 325.2 343.101 324.7 343.601 323.7C344.201 322.7 345.001 321.4 345.901 319.8C346.901 318.1 348.001 316.1 349.601 314.2C351.201 312.2 353.401 310.2 356.201 309.2C359.101 308.2 362.101 308.5 364.501 309.5C366.901 310.5 368.601 312.3 369.601 314C370.601 315.7 371.001 317.2 371.101 318.3C371.201 318.8 371.201 319.3 371.201 319.5C371.001 320 371.001 320.1 371.001 320.1Z" fill="#263238"/>
<path d="M366.601 329.6C366.601 329.6 366.701 329.2 366.201 328.8C366.001 328.6 365.601 328.5 365.201 328.4C364.801 328.3 364.201 328.4 363.601 328.1C362.401 327.6 361.701 326.2 361.301 324.8C361.101 324.1 360.901 323.3 360.701 322.5C360.401 321.8 360.001 321 359.301 320.6C358.601 320.1 357.801 319.9 357.001 319.8C356.201 319.7 355.401 319.7 354.701 319.8C353.201 319.9 351.701 319.8 350.701 319.2C349.601 318.6 349.101 317.7 348.901 317.1C348.801 316.8 348.801 316.5 348.901 316.3C348.901 316.1 349.001 316 349.001 316C349.101 316 349.001 316.4 349.201 317C349.401 317.6 350.001 318.4 350.901 318.8C351.901 319.3 353.301 319.3 354.801 319.2C356.301 319.1 358.101 319 359.701 320.1C360.501 320.7 360.901 321.5 361.201 322.3C361.501 323.1 361.601 323.9 361.801 324.6C362.201 326 362.801 327.3 363.801 327.7C364.301 327.9 364.801 327.9 365.301 328C365.801 328.1 366.201 328.3 366.401 328.5C366.601 328.7 366.701 329 366.701 329.2C366.601 329.5 366.601 329.6 366.601 329.6Z" fill="#FAFAFA"/>
<path d="M360.6 338.1C360.5 338.1 360.5 337.8 360.2 337.3C359.9 336.8 359.2 336.3 358.2 336C357.2 335.7 355.9 335.7 354.5 335.2C353.8 335 353.1 334.5 352.6 333.9C352.1 333.2 351.9 332.5 351.4 331.8C350.5 330.5 348.9 330.1 347.6 329.8C346.2 329.5 344.9 329.1 344 328.4C343.1 327.7 342.7 326.9 342.6 326.2C342.5 325.6 342.7 325.2 342.7 325.3C342.7 325.3 342.7 325.6 342.8 326.2C342.9 326.8 343.4 327.5 344.2 328.1C345 328.7 346.3 329 347.7 329.3C348.4 329.5 349.1 329.6 349.9 330C350.6 330.3 351.4 330.8 351.9 331.5C352.4 332.2 352.6 333 353.1 333.6C353.5 334.2 354.1 334.6 354.7 334.8C356 335.3 357.3 335.3 358.3 335.7C359.3 336.1 360.1 336.7 360.4 337.2C360.6 337.5 360.6 337.7 360.7 337.9C360.6 338 360.6 338.1 360.6 338.1Z" fill="#FAFAFA"/>
<path d="M388.2 324.6C388.2 324.6 388.2 324.7 388.2 325C388.1 325.3 388 325.7 387.8 326.1C387.3 327 386.1 328.1 384.4 328.9C383.6 329.3 382.6 329.6 381.6 330.1C380.6 330.5 379.6 331.1 378.8 331.9C377.1 333.6 376.3 336.2 375.1 338.7C374.5 340 373.8 341.2 372.8 342.2C372.5 342.4 372.3 342.7 372 342.8C371.7 343 371.4 343.2 371.1 343.3C370.5 343.6 369.9 343.8 369.3 343.9C366.9 344.4 364.7 344.3 362.9 344.8C361.2 345.3 360 346.4 359.6 347.2C359.1 348.1 359.1 348.7 359.1 348.7C359.1 348.7 359.1 348.6 359.1 348.3C359.1 348 359.2 347.6 359.4 347.1C359.8 346.2 361 345 362.8 344.4C364.6 343.8 366.8 343.9 369.2 343.3C369.8 343.2 370.4 343 370.9 342.7C371.2 342.6 371.4 342.4 371.7 342.2C372 342 372.2 341.8 372.4 341.6C373.3 340.7 374 339.5 374.6 338.3C375.8 335.8 376.6 333.1 378.5 331.4C379.4 330.5 380.5 329.9 381.5 329.5C382.5 329.1 383.5 328.7 384.3 328.4C386 327.7 387.1 326.7 387.6 325.8C388.1 325.2 388.1 324.6 388.2 324.6Z" fill="#FAFAFA"/>
<path d="M398.301 336.9C398.301 336.9 398.301 337.5 397.701 338.5C397.101 339.4 395.801 340.5 394.001 341.3C392.201 342.1 389.901 342.5 387.701 343.7C386.601 344.3 385.601 345.2 385.001 346.4C384.301 347.6 383.901 348.9 383.301 350.3C382.101 353.1 380.001 355.2 377.801 356.5C375.501 357.8 373.201 358.2 371.201 358.2C369.201 358.2 367.701 357.7 366.701 357.3C366.201 357.1 365.801 356.9 365.601 356.8C365.401 356.7 365.201 356.6 365.201 356.6C365.201 356.6 365.701 356.8 366.801 357.2C367.801 357.6 369.301 357.9 371.201 357.9C373.101 357.9 375.401 357.4 377.501 356.2C379.701 354.9 381.701 352.9 382.801 350.2C383.401 348.9 383.801 347.5 384.501 346.2C385.201 344.9 386.301 344 387.401 343.4C389.701 342.2 392.001 341.9 393.801 341.1C395.601 340.4 396.801 339.4 397.401 338.6C398.101 337.5 398.201 336.9 398.301 336.9Z" fill="#FAFAFA"/>
<path d="M407.3 346.7C407.4 346.8 405.5 347.3 403.3 349.1C402.2 350 401 351.3 400.1 353C399.6 353.8 399.3 354.8 398.9 355.8C398.5 356.8 397.9 357.8 396.9 358.5C395.9 359.2 394.7 359.4 393.7 359.5C392.6 359.6 391.6 359.7 390.7 359.8C388.8 360.1 387.2 360.7 385.9 361.3C383.3 362.6 382 363.9 381.9 363.8C381.9 363.8 382.2 363.4 382.8 362.9C383.4 362.4 384.4 361.6 385.7 360.9C387 360.2 388.7 359.6 390.6 359.2C391.6 359 392.6 359 393.6 358.9C394.6 358.8 395.7 358.6 396.6 358C397.5 357.4 398 356.5 398.4 355.5C398.8 354.5 399.2 353.6 399.6 352.7C400.6 351 401.8 349.6 403 348.7C404.2 347.8 405.3 347.2 406 346.9C406.4 346.7 406.7 346.6 406.9 346.6C407.2 346.7 407.3 346.7 407.3 346.7Z" fill="#FAFAFA"/>
<path d="M367.201 328.2C367.201 328.1 368.301 328 369.501 326.8C370.101 326.2 370.701 325.4 371.101 324.3C371.501 323.3 371.801 322.1 372.201 320.8C372.501 319.5 372.901 318.3 373.401 317.2C373.901 316.2 374.601 315.3 375.301 314.8C376.001 314.2 376.701 313.9 377.101 313.8C377.601 313.7 377.901 313.7 377.901 313.7C377.901 313.8 376.801 313.8 375.501 315C374.901 315.6 374.301 316.4 373.801 317.4C373.301 318.4 373.001 319.6 372.701 320.9C372.401 322.2 372.101 323.4 371.601 324.5C371.101 325.6 370.501 326.4 369.801 327C369.101 327.6 368.501 327.9 368.001 328.1C367.501 328.2 367.201 328.2 367.201 328.2Z" fill="#FAFAFA"/>
<path d="M364.301 310.2C364.201 310.2 364.501 308.7 365.701 307.3C366.901 305.9 368.401 305.5 368.401 305.6C368.501 305.7 367.201 306.4 366.101 307.6C365.001 309 364.501 310.3 364.301 310.2Z" fill="#FAFAFA"/>
<path d="M357.301 300C357.401 300 356.801 300.9 355.701 302.4C355.201 303.1 354.601 304 353.801 304.8C353.401 305.2 352.901 305.7 352.301 305.9C351.701 306.2 351.001 306.2 350.301 306.2C349.601 306.2 349.001 306.2 348.401 306.2C347.801 306.3 347.301 306.5 346.801 306.7C345.801 307.2 345.201 308.1 344.901 308.8C344.201 310.4 344.601 311.5 344.501 311.5C344.501 311.5 344.401 311.3 344.301 310.8C344.201 310.3 344.301 309.6 344.601 308.7C344.901 307.9 345.601 306.9 346.601 306.3C347.101 306 347.701 305.8 348.401 305.7C349.101 305.6 349.701 305.6 350.401 305.6C351.101 305.6 351.701 305.6 352.201 305.3C352.701 305.1 353.201 304.7 353.601 304.3C354.401 303.5 355.001 302.6 355.501 302C356.601 300.7 357.301 299.9 357.301 300Z" fill="#FAFAFA"/>
<g opacity="0.2">
<path opacity="0.2" d="M370.6 323.4L363 354.1L356.4 344.9L370.6 323.4Z" fill="black"/>
</g>
<path d="M403.501 424.6C403.401 424.6 403.201 419.5 403.201 413.2C403.201 406.9 403.301 401.8 403.501 401.8C403.601 401.8 403.801 406.9 403.801 413.2C403.801 419.5 403.701 424.6 403.501 424.6Z" fill="#455A64"/>
<path d="M65.3996 367.9C68.3996 368 71.1996 369.7 73.1996 372C75.1996 374.3 76.3996 377.1 77.0996 380.1C78.5996 385.7 77.5996 392.4 75.8996 398C69.7996 395.8 66.0996 389.2 64.3996 385.8C61.8996 380.3 60.3996 368.9 65.3996 367.9Z" fill="#67C0F8"/>
<path d="M84.7001 404.9C82.8001 402.1 82.8001 398.3 84.3001 395.3C85.8001 392.3 88.8001 390.2 92.0001 389.2C93.5001 388.8 95.2001 388.6 96.5001 389.5C97.7001 390.3 98.2001 391.9 98.0001 393.4C97.8001 394.8 97.1001 396.2 96.2001 397.3C93.3001 401.2 89.6001 404.5 84.7001 404.9Z" fill="#67C0F8"/>
<path d="M85.2 423.7C85.2 423.7 85.1 423.3 84.9 422.5C84.7 421.7 84.5 420.6 84.3 419.3C83.8 416.6 83.1 412.8 83.7 408.5C84.3 404.3 86 400.7 87.8 398.5C88.7 397.4 89.5 396.7 90.1 396.2C90.4 396 90.7 395.8 90.8 395.7C91 395.6 91.1 395.5 91.1 395.5C91.2 395.6 89.7 396.5 88 398.7C86.3 400.8 84.7 404.4 84.1 408.5C83.5 412.7 84.2 416.5 84.6 419.2C84.8 420.6 85 421.7 85.1 422.4C85.2 423.3 85.2 423.7 85.2 423.7Z" fill="#263238"/>
<path d="M67.2988 376.5C67.2988 376.5 67.3988 376.7 67.4988 377C67.6988 377.4 67.8988 377.8 68.0988 378.4C68.5988 379.6 69.3988 381.3 70.2988 383.5C72.0988 387.8 74.4988 393.7 76.9988 400.4C79.4988 407 81.5988 413.1 83.0988 417.5C83.7988 419.7 84.3988 421.5 84.7988 422.7C84.9988 423.3 85.0988 423.8 85.1988 424.1C85.2988 424.4 85.2988 424.6 85.2988 424.6C85.2988 424.6 85.1988 424.4 85.0988 424.1C84.9988 423.7 84.7988 423.3 84.5988 422.7C84.0988 421.4 83.4988 419.7 82.7988 417.5C81.1988 413.1 79.0988 407.1 76.5988 400.5C74.0988 393.9 71.6988 387.9 69.9988 383.6C69.1988 381.5 68.4988 379.7 67.9988 378.5C67.7988 377.9 67.5988 377.5 67.4988 377.1C67.3988 376.7 67.2988 376.5 67.2988 376.5Z" fill="#263238"/>
<path d="M77.9992 411.2C74.4992 405 67.7992 400.8 60.6992 400.2C58.8992 400.1 56.6992 400.3 55.8992 402C55.0992 403.6 56.0992 405.5 57.3992 406.9C62.4992 412.5 71.0992 414.5 78.0992 411.7" fill="#67C0F8"/>
<path d="M63.3984 405.1C63.3984 405.1 63.7984 405.1 64.4984 405.2C64.8984 405.2 65.2984 405.3 65.7984 405.4C66.2984 405.5 66.8984 405.6 67.4984 405.7C68.0984 405.9 68.7984 406 69.5984 406.3C70.2984 406.5 71.0984 406.8 71.8984 407.2C73.4984 407.9 75.0984 408.9 76.6984 410.1C78.2984 411.3 79.5984 412.7 80.6984 414.1C81.1984 414.8 81.6984 415.5 82.0984 416.1C82.4984 416.7 82.7984 417.4 83.0984 418C83.3984 418.6 83.5984 419.1 83.7984 419.6C83.9984 420.1 84.0984 420.5 84.1984 420.9C84.3984 421.6 84.4984 422 84.4984 422C84.3984 422 83.9984 420.5 82.7984 418.2C82.4984 417.6 82.1984 417 81.6984 416.4C81.2984 415.7 80.7984 415.1 80.2984 414.4C79.1984 413.1 77.8984 411.7 76.3984 410.5C74.8984 409.3 73.1984 408.4 71.6984 407.6C70.8984 407.3 70.1984 406.9 69.4984 406.7C68.7984 406.4 68.0984 406.2 67.4984 406.1C64.9984 405.3 63.3984 405.2 63.3984 405.1Z" fill="#263238"/>
</g>
<defs>
<clipPath id="clip0">
<rect width="452.7" height="431" fill="white"/>
</clipPath>
</defs>
</svg>
