<svg width="456" height="411" viewBox="0 0 456 411" fill="none" xmlns="http://www.w3.org/2000/svg">
<g clip-path="url(#clip0)">
<path d="M252.533 24.5464H84.6801V147.83H252.533V24.5464Z" fill="#022140"/>
<path d="M377.016 150.763H214.334V270.255H377.016V150.763Z" fill="#022140"/>
<path d="M413.363 12.5913H292.461V101.394H413.363V12.5913Z" fill="#022140"/>
<path d="M400.422 52.2329H313.295V105.531H400.422V52.2329Z" fill="#012240"/>
<path d="M397.864 54.6958H315.839V103.068H397.864V54.6958Z" fill="#01528C"/>
<path d="M356.596 80.5979C351.578 80.5979 347.485 76.5022 347.485 71.4796C347.485 66.4569 351.564 62.3613 356.596 62.3613C361.615 62.3613 365.707 66.4569 365.707 71.4796C365.707 76.5161 361.615 80.5979 356.596 80.5979ZM356.596 62.9701C351.896 62.9701 348.08 66.789 348.08 71.4934C348.08 76.1978 351.896 80.0167 356.596 80.0167C361.297 80.0167 365.112 76.1978 365.112 71.4934C365.112 66.789 361.297 62.9701 356.596 62.9701Z" fill="#D2E4FF"/>
<path d="M365.403 71.189H347.789V71.7839H365.403V71.189Z" fill="#D2E4FF"/>
<path d="M365.707 71.4799H365.112C365.112 69.8056 363.702 68.7817 362.527 68.2283C360.965 67.4949 358.863 67.0798 356.596 67.0798C352.366 67.0798 348.08 68.588 348.08 71.4799H347.485C347.485 68.0484 352.2 66.4849 356.596 66.4849C360.993 66.4849 365.707 68.0484 365.707 71.4799Z" fill="#D2E4FF"/>
<path d="M356.596 76.9314C354.246 76.9314 352.048 76.461 350.402 75.6169C348.494 74.6207 347.485 73.1955 347.485 71.4937H348.08C348.08 74.8283 352.49 76.3364 356.596 76.3364C360.702 76.3364 365.112 74.8144 365.112 71.4937H365.707C365.707 75.2295 360.993 76.9314 356.596 76.9314Z" fill="#D2E4FF"/>
<path d="M356.596 80.5979C351.578 80.5979 347.485 76.5022 347.485 71.4796C347.485 66.4569 351.564 62.3613 356.596 62.3613C361.615 62.3613 365.707 66.4569 365.707 71.4796C365.707 76.5161 361.615 80.5979 356.596 80.5979ZM356.596 62.9701C351.896 62.9701 348.08 66.789 348.08 71.4934C348.08 76.1978 351.896 80.0167 356.596 80.0167C361.297 80.0167 365.112 76.1978 365.112 71.4934C365.112 66.789 361.297 62.9701 356.596 62.9701Z" fill="#D2E4FF"/>
<path d="M356.9 62.6655H356.306V80.2932H356.9V62.6655Z" fill="#D2E4FF"/>
<path d="M356.596 80.5979V80.0029C358.269 80.0029 359.292 78.5916 359.845 77.4155C360.578 75.8519 360.992 73.7488 360.992 71.4796C360.992 67.2456 359.485 62.9563 356.596 62.9563V62.3613C360.025 62.3613 361.587 67.0796 361.587 71.4796C361.587 75.8796 360.025 80.5979 356.596 80.5979Z" fill="#D2E4FF"/>
<path d="M356.596 80.5979C352.863 80.5979 351.163 75.8796 351.163 71.4796C351.163 69.1274 351.633 66.9274 352.476 65.2808C353.472 63.3714 354.896 62.3613 356.596 62.3613V62.9563C353.264 62.9563 351.757 67.3701 351.757 71.4796C351.757 75.589 353.278 80.0029 356.596 80.0029V80.5979Z" fill="#D2E4FF"/>
<path d="M329.969 80.5979C324.951 80.5979 320.858 76.5022 320.858 71.4796C320.858 66.4569 324.937 62.3613 329.969 62.3613C334.988 62.3613 339.08 66.4569 339.08 71.4796C339.066 76.5161 334.988 80.5979 329.969 80.5979ZM329.969 62.9701C325.269 62.9701 321.453 66.789 321.453 71.4934C321.453 76.1978 325.269 80.0167 329.969 80.0167C334.67 80.0167 338.486 76.1978 338.486 71.4934C338.486 66.789 334.656 62.9701 329.969 62.9701Z" fill="#D2E4FF"/>
<path d="M330.259 62.6655H329.665V80.2932H330.259V62.6655Z" fill="#D2E4FF"/>
<path d="M329.969 80.5979V80.0029C331.642 80.0029 332.665 78.5916 333.218 77.4155C333.95 75.8519 334.365 73.7488 334.365 71.4796C334.365 67.2456 332.858 62.9563 329.969 62.9563V62.3613C333.397 62.3613 334.96 67.0796 334.96 71.4796C334.96 75.8796 333.397 80.5979 329.969 80.5979Z" fill="#D2E4FF"/>
<path d="M329.969 80.5979C326.236 80.5979 324.536 75.8796 324.536 71.4796C324.536 69.1274 325.006 66.9274 325.849 65.2808C326.844 63.3714 328.268 62.3613 329.969 62.3613V62.9563C326.637 62.9563 325.13 67.3701 325.13 71.4796C325.13 75.589 326.651 80.0029 329.969 80.0029V80.5979Z" fill="#D2E4FF"/>
<path d="M329.969 80.5979C324.951 80.5979 320.858 76.5022 320.858 71.4796C320.858 66.4569 324.937 62.3613 329.969 62.3613C334.988 62.3613 339.08 66.4569 339.08 71.4796C339.066 76.5161 334.988 80.5979 329.969 80.5979ZM329.969 62.9701C325.269 62.9701 321.453 66.789 321.453 71.4934C321.453 76.1978 325.269 80.0167 329.969 80.0167C334.67 80.0167 338.486 76.1978 338.486 71.4934C338.486 66.789 334.656 62.9701 329.969 62.9701Z" fill="#D2E4FF"/>
<path d="M338.761 71.189H321.148V71.7839H338.761V71.189Z" fill="#D2E4FF"/>
<path d="M329.969 76.4745C327.618 76.4745 325.42 76.0455 323.789 75.2707C321.881 74.3575 320.872 73.0569 320.872 71.4795H321.466C321.466 74.3713 325.752 75.8795 329.983 75.8795C334.213 75.8795 338.499 74.3713 338.499 71.4795H339.093C339.066 74.9109 334.351 76.4745 329.969 76.4745Z" fill="#D2E4FF"/>
<path d="M339.066 71.4798H338.471C338.471 68.1451 334.061 66.637 329.955 66.637C325.849 66.637 321.438 68.159 321.438 71.4798H320.844C320.844 67.7439 325.558 66.042 329.955 66.042C334.351 66.042 339.066 67.7439 339.066 71.4798Z" fill="#D2E4FF"/>
<path d="M384.523 80.5979C379.505 80.5979 375.412 76.5022 375.412 71.4796C375.412 66.4569 379.491 62.3613 384.523 62.3613C389.542 62.3613 393.634 66.4569 393.634 71.4796C393.634 76.5161 389.542 80.5979 384.523 80.5979ZM384.523 62.9701C379.823 62.9701 376.007 66.789 376.007 71.4934C376.007 76.1978 379.823 80.0167 384.523 80.0167C389.224 80.0167 393.04 76.1978 393.04 71.4934C393.04 66.789 389.21 62.9701 384.523 62.9701Z" fill="#D2E4FF"/>
<path d="M393.33 71.189H375.717V71.7839H393.33V71.189Z" fill="#D2E4FF"/>
<path d="M393.634 71.4799H393.04C393.04 69.8056 391.629 68.7817 390.454 68.2283C388.892 67.4949 386.79 67.0798 384.523 67.0798C380.293 67.0798 376.007 68.588 376.007 71.4799H375.412C375.412 68.0484 380.127 66.4849 384.523 66.4849C388.906 66.4849 393.634 68.0484 393.634 71.4799Z" fill="#D2E4FF"/>
<path d="M384.523 76.9314C382.173 76.9314 379.975 76.461 378.329 75.6169C376.421 74.6207 375.412 73.1955 375.412 71.4937H376.007C376.007 74.8283 380.417 76.3364 384.523 76.3364C388.629 76.3364 393.04 74.8144 393.04 71.4937H393.634C393.634 75.2295 388.906 76.9314 384.523 76.9314Z" fill="#D2E4FF"/>
<path d="M384.523 80.5979C379.505 80.5979 375.412 76.5022 375.412 71.4796C375.412 66.4569 379.491 62.3613 384.523 62.3613C389.542 62.3613 393.634 66.4569 393.634 71.4796C393.634 76.5161 389.542 80.5979 384.523 80.5979ZM384.523 62.9701C379.823 62.9701 376.007 66.789 376.007 71.4934C376.007 76.1978 379.823 80.0167 384.523 80.0167C389.224 80.0167 393.04 76.1978 393.04 71.4934C393.04 66.789 389.21 62.9701 384.523 62.9701Z" fill="#D2E4FF"/>
<path d="M384.814 62.6655H384.219V80.2932H384.814V62.6655Z" fill="#D2E4FF"/>
<path d="M384.523 80.5979V80.0029C386.196 80.0029 387.219 78.5916 387.772 77.4155C388.505 75.8519 388.92 73.7488 388.92 71.4796C388.92 67.2456 387.413 62.9563 384.523 62.9563V62.3613C387.952 62.3613 389.514 67.0796 389.514 71.4796C389.514 75.8796 387.952 80.5979 384.523 80.5979Z" fill="#D2E4FF"/>
<path d="M384.523 80.5979C380.79 80.5979 379.09 75.8796 379.09 71.4796C379.09 69.1274 379.56 66.9274 380.403 65.2808C381.399 63.3714 382.823 62.3613 384.523 62.3613V62.9563C381.191 62.9563 379.684 67.3701 379.684 71.4796C379.684 75.589 381.205 80.0029 384.523 80.0029V80.5979Z" fill="#D2E4FF"/>
<path d="M338.803 86.1187H320.609V87.7375H338.803V86.1187Z" fill="#D2E4FF"/>
<path d="M332.277 89.0244H320.609V90.6433H332.277V89.0244Z" fill="#D2E4FF"/>
<path d="M337.157 91.9297H320.609V93.5486H337.157V91.9297Z" fill="#D2E4FF"/>
<path d="M337.157 97.0635H320.609V98.6824H337.157V97.0635Z" fill="#012240"/>
<path d="M365.956 86.1187H347.761V87.7375H365.956V86.1187Z" fill="#D2E4FF"/>
<path d="M359.43 89.0244H347.761V90.6433H359.43V89.0244Z" fill="#D2E4FF"/>
<path d="M364.31 91.9297H347.761V93.5486H364.31V91.9297Z" fill="#D2E4FF"/>
<path d="M364.31 97.0635H347.761V98.6824H364.31V97.0635Z" fill="#012240"/>
<path d="M393.62 86.1187H375.426V87.7375H393.62V86.1187Z" fill="#D2E4FF"/>
<path d="M387.094 89.0244H375.426V90.6433H387.094V89.0244Z" fill="#D2E4FF"/>
<path d="M391.975 91.9297H375.426V93.5486H391.975V91.9297Z" fill="#D2E4FF"/>
<path d="M391.975 97.0635H375.426V98.6824H391.975V97.0635Z" fill="#012240"/>
<path d="M403.464 165.858H327.148V212.543H403.464V165.858Z" fill="#012240"/>
<path d="M401.238 168.017H329.388V210.384H401.238V168.017Z" fill="#01528C"/>
<path d="M383.141 194.472H349.034C347.707 194.472 346.629 193.393 346.629 192.065C346.629 190.736 347.707 189.657 349.034 189.657H383.141C384.469 189.657 385.547 190.736 385.547 192.065C385.547 193.379 384.455 194.472 383.141 194.472Z" fill="white"/>
<path d="M383.141 203.521H349.034C347.707 203.521 346.629 202.442 346.629 201.114C346.629 199.785 347.707 198.706 349.034 198.706H383.141C384.469 198.706 385.547 199.785 385.547 201.114C385.547 202.442 384.455 203.521 383.141 203.521Z" fill="white"/>
<path d="M354.8 201.335C354.8 201.806 354.426 202.179 353.956 202.179C353.486 202.179 353.113 201.806 353.113 201.335C353.113 200.865 353.486 200.491 353.956 200.491C354.426 200.491 354.8 200.865 354.8 201.335Z" fill="#023B73"/>
<path d="M357.704 201.335C357.704 201.806 357.33 202.179 356.86 202.179C356.39 202.179 356.017 201.806 356.017 201.335C356.017 200.865 356.39 200.491 356.86 200.491C357.33 200.491 357.704 200.865 357.704 201.335Z" fill="#023B73"/>
<path d="M360.606 201.335C360.606 201.806 360.233 202.179 359.763 202.179C359.293 202.179 358.92 201.806 358.92 201.335C358.92 200.865 359.293 200.491 359.763 200.491C360.233 200.491 360.606 200.865 360.606 201.335Z" fill="#023B73"/>
<path d="M363.509 201.335C363.509 201.806 363.136 202.179 362.666 202.179C362.196 202.179 361.823 201.806 361.823 201.335C361.823 200.865 362.196 200.491 362.666 200.491C363.136 200.491 363.509 200.865 363.509 201.335Z" fill="#023B73"/>
<path d="M366.413 201.335C366.413 201.806 366.04 202.179 365.57 202.179C365.1 202.179 364.726 201.806 364.726 201.335C364.726 200.865 365.1 200.491 365.57 200.491C366.04 200.491 366.413 200.865 366.413 201.335Z" fill="#023B73"/>
<path d="M369.316 201.335C369.316 201.806 368.943 202.179 368.473 202.179C368.003 202.179 367.629 201.806 367.629 201.335C367.629 200.865 368.003 200.491 368.473 200.491C368.943 200.491 369.316 200.865 369.316 201.335Z" fill="#023B73"/>
<path d="M372.22 201.335C372.22 201.806 371.846 202.179 371.376 202.179C370.906 202.179 370.533 201.806 370.533 201.335C370.533 200.865 370.906 200.491 371.376 200.491C371.846 200.491 372.22 200.865 372.22 201.335Z" fill="#023B73"/>
<path d="M375.123 201.335C375.123 201.806 374.749 202.179 374.279 202.179C373.809 202.179 373.436 201.806 373.436 201.335C373.436 200.865 373.809 200.491 374.279 200.491C374.749 200.491 375.123 200.865 375.123 201.335Z" fill="#023B73"/>
<path d="M378.026 201.335C378.026 201.806 377.653 202.179 377.183 202.179C376.713 202.179 376.34 201.806 376.34 201.335C376.34 200.865 376.713 200.491 377.183 200.491C377.653 200.491 378.026 200.865 378.026 201.335Z" fill="#023B73"/>
<path d="M365.031 184.164C367.802 184.164 370.049 181.915 370.049 179.141C370.049 176.367 367.802 174.119 365.031 174.119C362.259 174.119 360.012 176.367 360.012 179.141C360.012 181.915 362.259 184.164 365.031 184.164Z" fill="white"/>
<path d="M365.044 178.934C365.528 178.934 365.984 178.699 366.274 178.325C366.482 178.062 366.62 177.716 366.62 177.343C366.62 176.471 365.915 175.751 365.044 175.751C364.159 175.751 363.454 176.471 363.454 177.343C363.454 177.716 363.578 178.062 363.8 178.325C364.09 178.699 364.546 178.934 365.044 178.934Z" fill="#023B73"/>
<path d="M367.823 181.77C367.823 182.767 362.238 182.767 362.238 181.77V180.608C362.459 179.017 367.367 178.948 367.823 180.608V181.77Z" fill="#023B73"/>
<path d="M351.039 200.671V200.546C351.039 200.021 350.61 199.605 350.099 199.605C349.587 199.605 349.158 200.034 349.158 200.546V200.671H349.02V202.373C349.02 202.663 351.205 202.663 351.205 202.373V200.671H351.039ZM349.476 200.546C349.476 200.214 349.684 199.924 350.085 199.924C350.486 199.924 350.707 200.2 350.707 200.546V200.671H349.476V200.546ZM350.251 201.543V202.041C350.251 202.124 350.181 202.193 350.085 202.193C350.002 202.193 349.933 202.124 349.933 202.041V201.543C349.85 201.487 349.781 201.404 349.781 201.294C349.781 201.128 349.919 200.989 350.085 200.989C350.251 200.989 350.389 201.128 350.389 201.294C350.389 201.404 350.32 201.487 350.251 201.543Z" fill="#4D4D4D"/>
<path d="M350.1 191.885C350.294 191.885 350.474 191.788 350.584 191.65C350.667 191.553 350.722 191.414 350.722 191.262C350.722 190.93 350.446 190.64 350.114 190.64C349.768 190.64 349.492 190.916 349.492 191.262C349.492 191.414 349.547 191.539 349.63 191.65C349.727 191.788 349.893 191.885 350.1 191.885Z" fill="#023B73"/>
<path d="M351.178 192.992C351.178 193.379 348.994 193.379 348.994 192.992L349.008 192.535C349.091 191.912 351.012 191.885 351.192 192.535L351.178 192.992Z" fill="#023B73"/>
<path d="M362.68 192.77H353.818C353.431 192.77 353.113 192.452 353.113 192.065C353.113 191.677 353.431 191.359 353.818 191.359H362.68C363.067 191.359 363.385 191.677 363.385 192.065C363.385 192.452 363.067 192.77 362.68 192.77Z" fill="#023B73"/>
<path d="M357.191 187.609H348.634C348.246 187.609 347.928 187.291 347.928 186.903C347.928 186.516 348.246 186.198 348.634 186.198H357.191C357.579 186.198 357.896 186.516 357.896 186.903C357.896 187.291 357.579 187.609 357.191 187.609Z" fill="#023B73"/>
<path d="M374.348 192.77H365.486C365.099 192.77 364.781 192.452 364.781 192.065C364.781 191.677 365.099 191.359 365.486 191.359H374.348C374.735 191.359 375.053 191.677 375.053 192.065C375.053 192.452 374.735 192.77 374.348 192.77Z" fill="#023B73"/>
<path d="M176.327 174.506H76.3428V235.664H176.327V174.506Z" fill="#012240"/>
<path d="M173.397 177.329H79.26V232.841H173.397V177.329Z" fill="#01528C"/>
<path d="M147.557 184.538H87.6105V184.8H147.557V184.538Z" fill="white"/>
<path d="M147.557 192.909H87.6105V193.172H147.557V192.909Z" fill="white"/>
<path d="M147.557 201.003H87.6105V201.266H147.557V201.003Z" fill="white"/>
<path d="M147.557 209.098H87.6105V209.361H147.557V209.098Z" fill="white"/>
<path d="M147.557 217.178H87.6105V217.441H147.557V217.178Z" fill="white"/>
<path d="M147.681 225.84H87.6105V225.577H147.419V184.663H147.681V225.84Z" fill="white"/>
<path d="M87.735 184.663H87.4723V225.702H87.735V184.663Z" fill="white"/>
<path d="M96.3758 184.663H96.1132V225.702H96.3758V184.663Z" fill="white"/>
<path d="M105.017 184.663H104.754V225.702H105.017V184.663Z" fill="white"/>
<path d="M113.643 184.663H113.38V225.702H113.643V184.663Z" fill="white"/>
<path d="M122.284 184.663H122.021V225.702H122.284V184.663Z" fill="white"/>
<path d="M130.925 184.663H130.662V225.702H130.925V184.663Z" fill="white"/>
<path d="M139.553 184.663H139.29V225.702H139.553V184.663Z" fill="white"/>
<path d="M86.4077 190.156H86.145V183.279H92.7259V183.542H86.4077V190.156Z" fill="white"/>
<path d="M148.719 226.891H142.152V226.628H148.456V220.015H148.719V226.891Z" fill="white"/>
<path opacity="0.8" d="M87.6105 201.128C87.6105 201.128 90.2926 212.432 91.9793 212.432C93.6521 212.432 95.5739 198.236 97.7721 198.208C99.9703 198.167 100.371 211.962 102.155 211.962C103.938 211.962 105.169 200.616 107.394 200.491C109.62 200.367 111.058 212.654 113.256 212.654C115.455 212.654 116.45 206.068 118.662 206.068C120.874 206.068 120.708 218.009 122.201 218.009C123.681 218.009 124.427 200.007 125.741 200.007C127.054 200.007 128.796 210.786 129.999 210.786C131.202 210.786 132.847 195.413 134.796 195.317C136.746 195.234 137.852 218.078 139.442 217.787C141.031 217.497 142.801 199.44 144.115 199.398C146.022 199.329 147.557 212.681 147.557 212.681V225.702H87.6105V201.128Z" fill="#40B0FF"/>
<path d="M150.198 54.3359H43.6741V117.264H150.198V54.3359Z" fill="#012240"/>
<path d="M146.713 56.9927H84.6793V112.449H146.713V56.9927Z" fill="#024280"/>
<path d="M84.6793 56.9927H47.1713V112.449H84.6793V56.9927Z" fill="#023566"/>
<path d="M74.5313 59.8984H53.5168V61.545H74.5313V59.8984Z" fill="#0178CC"/>
<path d="M69.5818 62.707H53.5168V64.3536H69.5818V62.707Z" fill="#0178CC"/>
<path d="M72.7202 65.5298H53.5168V67.1763H72.7202V65.5298Z" fill="#0178CC"/>
<path d="M69.0565 68.3389H53.5168V69.9854H69.0565V68.3389Z" fill="#0178CC"/>
<path d="M76.0933 71.1475H58.5352V72.794H76.0933V71.1475Z" fill="#0178CC"/>
<path d="M74.531 74.5376H58.5352V76.1841H74.531V74.5376Z" fill="#0178CC"/>
<path d="M69.5818 77.3462H53.5168V78.9927H69.5818V77.3462Z" fill="#0178CC"/>
<path d="M72.7202 80.1689H53.5168V81.8155H72.7202V80.1689Z" fill="#0178CC"/>
<path d="M69.0565 82.978H53.5168V84.6246H69.0565V82.978Z" fill="#0178CC"/>
<path d="M76.0936 85.8003H53.5168V87.4468H76.0936V85.8003Z" fill="#0178CC"/>
<path d="M79.6048 89.0244H60.4015V90.6709H79.6048V89.0244Z" fill="#0178CC"/>
<path d="M76.0936 92.248H53.5168V93.8946H76.0936V92.248Z" fill="#0178CC"/>
<path d="M74.5313 96.9526H53.5168V98.5992H74.5313V96.9526Z" fill="#0178CC"/>
<path d="M69.5818 99.7617H53.5168V101.408H69.5818V99.7617Z" fill="#0178CC"/>
<path d="M72.7202 102.584H53.5168V104.231H72.7202V102.584Z" fill="#0178CC"/>
<path d="M69.0565 105.393H53.5168V107.04H69.0565V105.393Z" fill="#0178CC"/>
<path d="M76.0933 108.216H58.5352V109.862H76.0933V108.216Z" fill="#0178CC"/>
<path d="M110.92 74.7866H89.9054V76.4332H110.92V74.7866Z" fill="#0178CC"/>
<path d="M105.97 77.5957H89.9054V79.2422H105.97V77.5957Z" fill="#0178CC"/>
<path d="M109.109 80.418H89.9054V82.0645H109.109V80.418Z" fill="#0178CC"/>
<path d="M105.445 83.2271H89.9054V84.8736H105.445V83.2271Z" fill="#0178CC"/>
<path d="M112.468 86.0498H94.91V87.6963H112.468V86.0498Z" fill="#0178CC"/>
<path d="M110.906 89.4258H94.91V91.0723H110.906V89.4258Z" fill="#0178CC"/>
<path d="M105.97 92.2344H89.9054V93.8809H105.97V92.2344Z" fill="#0178CC"/>
<path d="M109.109 95.0571H89.9054V96.7037H109.109V95.0571Z" fill="#0178CC"/>
<path d="M105.445 97.8657H89.9054V99.5123H105.445V97.8657Z" fill="#0178CC"/>
<path d="M112.482 100.688H89.9054V102.335H112.482V100.688Z" fill="#0178CC"/>
<path d="M115.993 103.913H96.79V105.559H115.993V103.913Z" fill="#0178CC"/>
<path d="M112.482 107.137H89.9054V108.783H112.482V107.137Z" fill="#0178CC"/>
<path d="M110.92 59.8984H89.9054V61.545H110.92V59.8984Z" fill="#0178CC"/>
<path d="M105.97 62.707H89.9054V64.3536H105.97V62.707Z" fill="#0178CC"/>
<path d="M109.109 65.5298H89.9054V67.1763H109.109V65.5298Z" fill="#0178CC"/>
<path d="M105.445 68.3389H89.9054V69.9854H105.445V68.3389Z" fill="#0178CC"/>
<path d="M112.468 71.1475H94.91V72.794H112.468V71.1475Z" fill="#0178CC"/>
<path d="M138.805 59.8984H117.791V61.545H138.805V59.8984Z" fill="#023566"/>
<path d="M133.856 62.707H117.791V64.3536H133.856V62.707Z" fill="#023566"/>
<path d="M136.994 65.5298H117.791V67.1763H136.994V65.5298Z" fill="#023566"/>
<path d="M133.33 68.3389H117.791V69.9854H133.33V68.3389Z" fill="#023566"/>
<path d="M140.367 71.1475H122.809V72.794H140.367V71.1475Z" fill="#023566"/>
<path d="M138.805 74.5376H122.809V76.1841H138.805V74.5376Z" fill="#023566"/>
<path d="M133.856 77.3462H117.791V78.9927H133.856V77.3462Z" fill="#023566"/>
<path d="M136.994 80.1689H117.791V81.8155H136.994V80.1689Z" fill="#023566"/>
<path d="M133.33 82.978H117.791V84.6246H133.33V82.978Z" fill="#023566"/>
<path d="M140.367 85.8003H117.791V87.4468H140.367V85.8003Z" fill="#023566"/>
<path d="M143.879 89.0244H124.675V90.6709H143.879V89.0244Z" fill="#023566"/>
<path d="M140.367 92.248H117.791V93.8946H140.367V92.248Z" fill="#023566"/>
<path d="M138.805 96.9526H117.791V98.5992H138.805V96.9526Z" fill="#023566"/>
<path d="M133.856 99.7617H117.791V101.408H133.856V99.7617Z" fill="#023566"/>
<path d="M136.994 102.584H117.791V104.231H136.994V102.584Z" fill="#023566"/>
<path d="M133.33 105.393H117.791V107.04H133.33V105.393Z" fill="#023566"/>
<path d="M140.367 108.216H122.809V109.862H140.367V108.216Z" fill="#023566"/>
<path d="M280.087 0H185.688V57.7398H280.087V0Z" fill="#012240"/>
<path d="M277.322 2.67041H188.453V55.0693H277.322V2.67041Z" fill="#01528C"/>
<path d="M239.676 8.08057H194.757V33.8995H239.676V8.08057Z" fill="#0178CC"/>
<path d="M216.076 36.8882H195.255V50.7524H216.076V36.8882Z" fill="#0178CC"/>
<path d="M239.855 36.8882H219.034V50.7524H239.855V36.8882Z" fill="#0178CC"/>
<path d="M271.833 8.08057H244.832V52.1776H271.833V8.08057Z" fill="#023B73"/>
<path d="M264.824 11.1245H246.657V12.9648H264.824V11.1245Z" fill="#0178CC"/>
<path d="M260.538 14.2515H246.657V16.0917H260.538V14.2515Z" fill="#0178CC"/>
<path d="M263.261 17.3926H246.657V19.2328H263.261V17.3926Z" fill="#0178CC"/>
<path d="M260.082 20.5332H246.657V22.3735H260.082V20.5332Z" fill="#0178CC"/>
<path d="M266.179 23.6743H246.657V25.5146H266.179V23.6743Z" fill="#0178CC"/>
<path d="M264.824 27.438H246.657V29.2783H264.824V27.438Z" fill="#0178CC"/>
<path d="M260.538 30.5786H246.657V32.4189H260.538V30.5786Z" fill="#0178CC"/>
<path d="M263.261 33.7197H246.657V35.56H263.261V33.7197Z" fill="#0178CC"/>
<path d="M260.082 36.8604H246.657V38.7006H260.082V36.8604Z" fill="#0178CC"/>
<path d="M266.179 40.0015H246.657V41.8417H266.179V40.0015Z" fill="#0178CC"/>
<path d="M269.219 43.585H252.615V45.4252H269.219V43.585Z" fill="#0178CC"/>
<path d="M266.179 47.1826H246.657V49.0229H266.179V47.1826Z" fill="#0178CC"/>
<path d="M196.085 31.5058L196.5 16.1057C196.5 16.1057 199.196 25.5146 202.085 25.5146C204.975 25.5146 205.763 14.6529 209.067 15.1787C212.371 15.7045 213.712 28.3649 216.933 28.3649C220.943 28.3649 219.975 20.99 223.279 20.99C226.583 20.99 226.418 25.5146 229.431 25.5146C234.229 25.5146 237.796 12.9648 237.796 12.9648V31.9209L196.085 31.5058Z" fill="#023B73"/>
<path d="M344.734 135.805V149.96C344.734 151.537 363.965 151.537 363.965 149.96V135.805H344.734Z" fill="#2C70D9"/>
<path d="M354.342 143.526C355.655 143.526 356.72 142.46 356.72 141.146C356.72 139.832 355.655 138.766 354.342 138.766C353.029 138.766 351.964 139.832 351.964 141.146C351.964 142.46 353.029 143.526 354.342 143.526Z" fill="#001E4D"/>
<path d="M354.342 148.3C353.802 148.3 353.374 147.857 353.374 147.331V141.879H355.323V147.331C355.323 147.871 354.881 148.3 354.342 148.3Z" fill="#001E4D"/>
<path d="M362.279 134.947H360.329V130.063C360.329 126.756 357.647 124.072 354.343 124.072C351.039 124.072 348.357 126.756 348.357 130.063V131.018H346.407V130.063C346.407 125.691 349.96 122.135 354.329 122.135C358.698 122.135 362.251 125.691 362.251 130.063V134.947H362.279Z" fill="#2C70D9"/>
<path d="M364.504 155.965C368.116 155.965 371.043 153.035 371.043 149.42C371.043 145.806 368.116 142.875 364.504 142.875C360.892 142.875 357.965 145.806 357.965 149.42C357.965 153.035 360.892 155.965 364.504 155.965Z" fill="#01528C"/>
<path d="M364.504 155.08C361.38 155.08 358.85 152.534 358.85 149.42C358.85 146.293 361.394 143.761 364.504 143.761C367.629 143.761 370.159 146.307 370.159 149.42C370.159 152.534 367.629 155.08 364.504 155.08ZM364.504 144.232C361.642 144.232 359.32 146.556 359.32 149.42C359.32 152.285 361.642 154.609 364.504 154.609C367.366 154.609 369.689 152.285 369.689 149.42C369.689 146.556 367.366 144.232 364.504 144.232Z" fill="black"/>
<path d="M364.504 151.441C364.09 151.441 363.744 151.122 363.716 150.707L363.468 147.165C363.426 146.57 363.896 146.058 364.504 146.058C365.099 146.058 365.583 146.57 365.541 147.165L365.292 150.707C365.265 151.122 364.919 151.441 364.504 151.441Z" fill="black"/>
<path d="M365.292 152.852C365.292 153.281 364.947 153.627 364.518 153.627C364.09 153.627 363.744 153.281 363.744 152.852C363.744 152.423 364.09 152.077 364.518 152.077C364.933 152.077 365.292 152.423 365.292 152.852Z" fill="black"/>
<path d="M114.584 157.722H85.3434C84.7212 157.722 84.2235 157.224 84.2235 156.602V139.998C84.2235 139.375 84.7212 138.877 85.3434 138.877H114.584C115.206 138.877 115.704 139.375 115.704 139.998V156.602C115.69 157.224 115.192 157.722 114.584 157.722Z" fill="#01528C"/>
<path d="M115.704 142.447H84.2378V145.698H115.704V142.447Z" fill="#0178CC"/>
<path d="M91.4403 154.097H86.8088C86.5185 154.097 86.2697 154.332 86.2697 154.637C86.2697 154.927 86.5047 155.176 86.8088 155.176H91.4403C91.7306 155.176 91.9795 154.941 91.9795 154.637C91.9657 154.346 91.7306 154.097 91.4403 154.097Z" fill="#0178CC"/>
<path d="M98.5468 154.097H93.9153C93.6249 154.097 93.3761 154.332 93.3761 154.637C93.3761 154.927 93.6111 155.176 93.9153 155.176H98.5468C98.8371 155.176 99.086 154.941 99.086 154.637C99.086 154.346 98.8509 154.097 98.5468 154.097Z" fill="#0178CC"/>
<path d="M105.667 154.097H101.036C100.746 154.097 100.497 154.332 100.497 154.637C100.497 154.927 100.732 155.176 101.036 155.176H105.667C105.958 155.176 106.207 154.941 106.207 154.637C106.193 154.346 105.958 154.097 105.667 154.097Z" fill="#0178CC"/>
<path d="M112.787 154.097H108.155C107.865 154.097 107.616 154.332 107.616 154.637C107.616 154.927 107.851 155.176 108.155 155.176H112.787C113.077 155.176 113.326 154.941 113.326 154.637C113.312 154.346 113.077 154.097 112.787 154.097Z" fill="#0178CC"/>
<path d="M86.6014 139.846C86.2835 139.846 86.007 140.109 86.007 140.441V140.648C86.007 140.966 86.2696 141.243 86.6014 141.243C86.9194 141.243 87.1959 140.98 87.1959 140.648V140.441C87.1821 140.109 86.9194 139.846 86.6014 139.846Z" fill="#0178CC"/>
<path d="M87.8597 140.538C87.8597 140.925 88.1639 141.229 88.551 141.229H90.9981C91.3852 141.229 91.6893 140.925 91.6893 140.538C91.6893 140.15 91.3852 139.846 90.9981 139.846H88.551C88.1777 139.846 87.8597 140.15 87.8597 140.538Z" fill="#0178CC"/>
<path d="M87.5414 147.442H90.7074C91.2189 147.442 91.6198 147.857 91.6198 148.355V151.081C91.6198 151.593 91.2051 151.994 90.7074 151.994H87.5414C87.0298 151.994 86.6289 151.579 86.6289 151.081V148.355C86.6289 147.857 87.0298 147.442 87.5414 147.442Z" fill="#0178CC"/>
<path d="M328.268 38.7425H301.101C300.534 38.7425 300.064 38.272 300.064 37.7047V22.277C300.064 21.7097 300.534 21.2393 301.101 21.2393H328.268C328.835 21.2393 329.305 21.7097 329.305 22.277V37.7047C329.305 38.2859 328.835 38.7425 328.268 38.7425Z" fill="#01528C"/>
<path d="M329.305 24.5459H300.064V27.5623H329.305V24.5459Z" fill="#0178CC"/>
<path d="M306.77 35.394H302.47C302.194 35.394 301.973 35.6154 301.973 35.8922C301.973 36.1689 302.194 36.3903 302.47 36.3903H306.77C307.046 36.3903 307.268 36.1689 307.268 35.8922C307.254 35.6154 307.033 35.394 306.77 35.394Z" fill="#0178CC"/>
<path d="M313.378 35.394H309.078C308.802 35.394 308.581 35.6154 308.581 35.8922C308.581 36.1689 308.802 36.3903 309.078 36.3903H313.378C313.654 36.3903 313.876 36.1689 313.876 35.8922C313.876 35.6154 313.654 35.394 313.378 35.394Z" fill="#0178CC"/>
<path d="M319.987 35.394H315.687C315.41 35.394 315.189 35.6154 315.189 35.8922C315.189 36.1689 315.41 36.3903 315.687 36.3903H319.987C320.263 36.3903 320.484 36.1689 320.484 35.8922C320.484 35.6154 320.263 35.394 319.987 35.394Z" fill="#0178CC"/>
<path d="M326.594 35.394H322.295C322.018 35.394 321.797 35.6154 321.797 35.8922C321.797 36.1689 322.018 36.3903 322.295 36.3903H326.594C326.871 36.3903 327.092 36.1689 327.092 35.8922C327.092 35.6154 326.871 35.394 326.594 35.394Z" fill="#0178CC"/>
<path d="M302.262 22.1387C301.958 22.1387 301.723 22.3877 301.723 22.6783V22.872C301.723 23.1764 301.972 23.4116 302.262 23.4116C302.566 23.4116 302.801 23.1626 302.801 22.872V22.6783C302.815 22.3739 302.566 22.1387 302.262 22.1387Z" fill="#0178CC"/>
<path d="M303.438 22.7752C303.438 23.1349 303.728 23.4116 304.074 23.4116H306.355C306.714 23.4116 306.991 23.1211 306.991 22.7752C306.991 22.4154 306.7 22.1387 306.355 22.1387H304.074C303.728 22.1387 303.438 22.4292 303.438 22.7752Z" fill="#0178CC"/>
<path d="M303.147 29.1953H306.092C306.562 29.1953 306.949 29.5827 306.949 30.0532V32.5853C306.949 33.0557 306.562 33.4431 306.092 33.4431H303.147C302.677 33.4431 302.29 33.0557 302.29 32.5853V30.0532C302.29 29.5827 302.677 29.1953 303.147 29.1953Z" fill="#0178CC"/>
<path d="M162.571 16.0918H126.335V37.7736H162.571V16.0918Z" fill="#0178CC"/>
<path d="M150.281 27.0363H147.295C147.087 24.8639 145.249 23.1482 143.023 23.1482V20.1733C146.894 20.1733 150.06 23.2035 150.281 27.0363Z" fill="#0196FF"/>
<path d="M150.295 27.4377C150.295 31.4503 147.046 34.7157 143.023 34.7157C139.014 34.7157 135.751 31.4641 135.751 27.4377C135.751 23.4251 139 20.1597 143.023 20.1597V23.1345C140.645 23.1345 138.723 25.0578 138.723 27.4377C138.723 29.8176 140.645 31.7408 143.023 31.7408C145.401 31.7408 147.323 29.8176 147.323 27.4377C147.323 27.2993 147.309 27.1609 147.309 27.0226H150.295C150.281 27.1609 150.295 27.2993 150.295 27.4377Z" fill="#023B73"/>
<path d="M383.846 254.343H360.923V225.895H383.846V254.343ZM361.656 253.596H383.099V226.628H361.656V253.596Z" fill="#2865C4"/>
<path d="M387.634 230.35H365.444V258.065H387.634V230.35Z" fill="#2865C4"/>
<path d="M368.895 236.713H380.37V234.915H368.895V236.713Z" fill="#022B52"/>
<path d="M368.902 240.949H383.764V239.15H368.902V240.949Z" fill="#022B52"/>
<path d="M368.902 245.184H383.764V243.385H368.902V245.184Z" fill="#022B52"/>
<path d="M368.902 249.419H383.764V247.621H368.902V249.419Z" fill="#022B52"/>
<path d="M368.902 253.641H383.764V251.842H368.902V253.641Z" fill="#022B52"/>
<path d="M71.2973 219.572L56.8637 244.602C56.1171 245.903 57.0572 247.521 58.5504 247.521H87.4314C88.9245 247.521 89.8647 245.903 89.1181 244.602L74.6845 219.572C73.9241 218.271 72.0439 218.271 71.2973 219.572Z" fill="#0178CC"/>
<path d="M87.4178 246.276H58.5505C58.2878 246.276 58.0666 246.152 57.9422 245.916C57.8178 245.695 57.8178 245.432 57.9422 245.211L72.3758 220.181C72.5002 219.959 72.7215 219.821 72.9841 219.821C73.2468 219.821 73.468 219.945 73.5924 220.181L88.0261 245.211C88.1505 245.432 88.1505 245.695 88.0261 245.916C87.9016 246.152 87.6804 246.276 87.4178 246.276ZM58.7441 245.46H87.2242L72.9841 220.776L58.7441 245.46Z" fill="black"/>
<path d="M73.0256 238.638C72.1961 238.638 71.5049 238.002 71.4496 237.172L70.9657 230.115C70.8827 228.925 71.8228 227.915 73.0256 227.915C74.2146 227.915 75.1686 228.925 75.0856 230.115L74.6017 237.172C74.5464 238.002 73.8552 238.638 73.0256 238.638Z" fill="black"/>
<path d="M74.1248 242.552C74.7349 241.941 74.7349 240.951 74.1248 240.341C73.5147 239.73 72.5256 239.73 71.9155 240.341C71.3054 240.951 71.3054 241.941 71.9155 242.552C72.5256 243.162 73.5147 243.162 74.1248 242.552Z" fill="black"/>
<path d="M24.3193 278.792V365.104C24.3193 426.303 415.354 426.303 415.354 365.104V278.792H24.3193V278.792Z" fill="#025899"/>
<path d="M415.34 278.764C415.34 297.153 343.034 312.387 248.773 315.002C239.33 315.265 229.666 315.403 219.823 315.403C111.847 315.403 24.3051 298.993 24.3051 278.764C24.3051 258.535 111.833 242.125 219.823 242.125C229.666 242.125 239.33 242.263 248.773 242.526C343.034 245.141 415.34 260.375 415.34 278.764Z" fill="#014373"/>
<path d="M282.963 244.076V313.439C359.956 308.513 415.34 294.842 415.34 278.75C415.34 262.672 359.97 249.002 282.963 244.076Z" fill="#01528C"/>
<g opacity="0.5">
<mask id="mask0" style="mask-type:alpha" maskUnits="userSpaceOnUse" x="59" y="267" width="45" height="54">
<g opacity="0.5">
<g opacity="0.5">
<path opacity="0.5" d="M59.4213 271.085V320.025H103.04V267.349L59.4213 271.085Z" fill="url(#paint0_linear)"/>
</g>
</g>
</mask>
<g mask="url(#mask0)">
<path opacity="0.5" d="M59.4213 271.085V320.025H103.04V267.349L59.4213 271.085Z" fill="url(#paint1_linear)"/>
</g>
<mask id="mask1" style="mask-type:alpha" maskUnits="userSpaceOnUse" x="139" y="267" width="44" height="54">
<g opacity="0.5">
<g opacity="0.5">
<path opacity="0.5" d="M182.867 271.085V320.025H139.248V267.349L182.867 271.085Z" fill="url(#paint2_linear)"/>
</g>
</g>
</mask>
<g mask="url(#mask1)">
<path opacity="0.5" d="M182.867 271.085V320.025H139.248V267.349L182.867 271.085Z" fill="url(#paint3_linear)"/>
</g>
<mask id="mask2" style="mask-type:alpha" maskUnits="userSpaceOnUse" x="141" y="295" width="50" height="57">
<g opacity="0.5">
<g opacity="0.5">
<path opacity="0.5" d="M190.222 295.936V351.877H141.447L142.483 297.707L190.222 295.936Z" fill="url(#paint4_linear)"/>
</g>
</g>
</mask>
<g mask="url(#mask2)">
<path opacity="0.5" d="M190.222 295.936V351.877H141.447L142.483 297.707L190.222 295.936Z" fill="url(#paint5_linear)"/>
</g>
<mask id="mask3" style="mask-type:alpha" maskUnits="userSpaceOnUse" x="252" y="296" width="50" height="55">
<g opacity="0.5">
<g opacity="0.5">
<path opacity="0.5" d="M301.351 297.568V350.382H252.575L253.612 296.226L301.351 297.568Z" fill="url(#paint6_linear)"/>
</g>
</g>
</mask>
<g mask="url(#mask3)">
<path opacity="0.5" d="M301.351 297.568V350.382H252.575L253.612 296.226L301.351 297.568Z" fill="url(#paint7_linear)"/>
</g>
<mask id="mask4" style="mask-type:alpha" maskUnits="userSpaceOnUse" x="349" y="270" width="27" height="55">
<g opacity="0.5">
<g opacity="0.5">
<path opacity="0.5" d="M375.426 270.324V324.342H349.863L350.416 270.186L352.476 270.199L355.601 276.426L361.352 270.241L375.426 270.324Z" fill="url(#paint8_linear)"/>
</g>
</g>
</mask>
<g mask="url(#mask4)">
<path opacity="0.5" d="M375.426 270.324V324.342H349.863L350.416 270.186L352.476 270.199L355.601 276.426L361.352 270.241L375.426 270.324Z" fill="url(#paint9_linear)"/>
</g>
<mask id="mask5" style="mask-type:alpha" maskUnits="userSpaceOnUse" x="289" y="270" width="20" height="55">
<g opacity="0.5">
<g opacity="0.5">
<path opacity="0.5" d="M308.912 270.781L308.65 324.937H289.875L290.276 270.781H291.963L294.078 277.021L296.912 270.628L308.912 270.781Z" fill="url(#paint10_linear)"/>
</g>
</g>
</mask>
<g mask="url(#mask5)">
<path opacity="0.5" d="M308.912 270.781L308.65 324.937H289.875L290.276 270.781H291.963L294.078 277.021L296.912 270.628L308.912 270.781Z" fill="url(#paint11_linear)"/>
</g>
</g>
<path d="M162.558 108.16C162.558 108.16 172.761 98.2392 185.812 100.135C198.863 102.03 200.771 116.877 200.771 116.877L162.558 108.16Z" fill="#94D2FF"/>
<path d="M175.526 153.157L192.531 246.484C193.125 249.362 203.95 248.726 202.955 245.958L195.918 153.171H175.526V153.157Z" fill="#011A26"/>
<path d="M160.746 153.156L159.488 246.843C159.986 248.518 167.562 250.053 169.221 246.843L181.54 153.156H160.746Z" fill="#011A26"/>
<path d="M148.912 251.604L155.59 246.304C157.456 242.513 165.668 242.984 164.59 247.591C167.811 248.075 169.484 246.47 169.484 246.47L170.576 255.187L162.281 257.567L148.912 251.604Z" fill="#011A26"/>
<path d="M162.364 257.567C162.364 257.526 162.364 257.484 162.364 257.443C162.295 253.015 158.645 249.417 154.221 249.417C149.797 249.417 146.258 253.015 146.327 257.443C146.327 257.484 146.327 257.526 146.327 257.567C147.668 259.781 151.967 260.362 162.364 257.567Z" fill="#011A26"/>
<path d="M213.587 251.604L206.909 246.304C205.043 242.513 196.831 242.984 197.909 247.591C194.688 248.075 193.015 246.47 193.015 246.47L191.923 255.187L200.218 257.567L213.587 251.604Z" fill="#011A26"/>
<path d="M200.121 257.567C200.121 257.526 200.121 257.484 200.121 257.443C200.191 253.015 203.84 249.417 208.265 249.417C212.689 249.417 216.228 253.015 216.159 257.443C216.159 257.484 216.159 257.526 216.159 257.567C214.818 259.781 210.518 260.362 200.121 257.567Z" fill="#011A26"/>
<path d="M195.793 134.934C195.517 141.893 195.572 147.982 195.932 153.156C191.037 160.282 161.645 155.633 160.622 153.156C161.078 145.989 161.631 139.029 162.391 132.457C162.848 128.541 163.359 124.75 163.981 121.139C164.382 118.773 164.825 116.49 165.322 114.29C168.129 103.4 175.65 100.301 183.281 100.398C190.968 100.481 197.162 105.254 197.162 114.29C196.775 118.441 196.471 122.398 196.222 126.161C196.028 129.205 195.876 132.139 195.793 134.934Z" fill="#014363"/>
<path opacity="0.4" d="M196.222 126.162C196.028 129.22 195.876 132.153 195.793 134.948C192.185 133.232 185.715 130.963 176.756 131.074C169.221 131.184 164.825 131.835 162.377 132.457C162.834 128.542 163.345 124.75 163.967 121.139L196.222 126.162Z" fill="#012B40"/>
<path d="M188.272 123.311C187.111 124.072 185.535 124.806 183.71 125.428C178.47 127.269 171.101 128.389 164.935 127.947C159.626 127.587 155.188 126.037 153.736 122.813C151.566 114.677 167.119 103.318 174.212 102.238C169.912 107.316 168.419 111.896 167.921 114.733C167.576 116.628 167.672 117.749 167.672 117.749C167.672 117.749 169.511 117.348 172.249 117.14C175.857 116.877 181.028 116.946 185.618 118.69C187.484 119.741 189.24 121.582 188.272 123.311Z" fill="#025880"/>
<path opacity="0.4" d="M183.71 125.428C178.47 127.269 171.101 128.389 164.935 127.947C167.521 127.282 168.322 125.082 166.525 123.256C162.571 118.939 166.415 115.729 167.908 114.719C167.562 116.614 167.659 117.735 167.659 117.735C167.659 117.735 169.498 117.334 172.235 117.126L183.71 125.428Z" fill="#012B40"/>
<path d="M171.143 115.591C171.143 115.591 170.134 114.968 169.788 114.788C167.355 113.211 165.018 116.615 166.525 119.783C166.525 119.783 169.788 120.987 171.143 119.188C172.498 117.389 171.143 115.591 171.143 115.591Z" fill="#F7A58E"/>
<path d="M193.748 104.646C188.232 105.739 189.697 120.959 189.697 120.959C189.697 120.959 178.623 115.909 171.157 115.591C169.25 116.089 166.153 118.676 166.581 120.018C174.807 128.044 201.006 136.996 201.684 125.816C201.988 110.513 193.748 104.646 193.748 104.646Z" fill="#025880"/>
<path d="M188.203 120.973C189.185 120.876 190.761 120.309 190.982 120.253C191.784 120.073 191.936 119.243 191.535 119.381L188.825 119.52C188.825 119.52 189.821 118.842 190.277 118.261C190.733 117.68 190.222 117.417 190.222 117.417L187.719 118.62C188.162 118.219 189.489 116.614 188.48 116.337C187.788 117.375 186.572 118.192 185.797 118.828C186.309 118.966 187.719 119.866 188.203 120.973Z" fill="#F7A58E"/>
<path d="M177.516 101.021C177.516 101.021 172.664 106.043 180.088 107.579C187.512 109.115 190.554 103.829 189.531 101.643C185.978 100.052 181.07 99.7754 177.516 101.021Z" fill="#025880"/>
<path d="M189.697 90.4078L188.01 103.041C187.388 106.569 175.982 106.915 177.683 102.363L177.821 101.809L179.093 97.0216L181.236 88.8027L189.697 90.4078Z" fill="#F7A58E"/>
<path d="M188.218 95.6382C188.218 95.6382 187.637 103.151 177.821 101.809L179.093 97.0218L188.218 95.6382Z" fill="#E67A5C"/>
<path d="M174.336 82.5214C169.428 88.9138 173.604 97.1604 179.936 98.5579C186.268 99.9554 193.913 95.4862 195.655 88.056C197.397 80.6258 193.692 73.4723 187.36 72.0748C181.028 70.6634 174.972 74.344 174.336 82.5214Z" fill="#F7A58E"/>
<path d="M177.917 83.3372C177.931 83.6555 177.682 83.9322 177.364 83.946C177.046 83.9599 176.77 83.7108 176.756 83.3926C176.742 83.0743 176.991 82.7976 177.309 82.7838C177.627 82.7699 177.903 83.019 177.917 83.3372Z" fill="#723917"/>
<path d="M188.23 85.6483C188.244 85.9665 187.995 86.2432 187.677 86.2571C187.359 86.2709 187.083 86.0218 187.069 85.7036C187.055 85.3854 187.304 85.1086 187.622 85.0948C187.94 85.081 188.217 85.33 188.23 85.6483Z" fill="#723917"/>
<path d="M197.881 86.8935C197.217 88.0834 196.374 89.1073 195.627 89.813C193.346 86.4369 193.858 79.7815 193.858 79.7815C193.858 79.7815 189.627 82.4105 180.89 80.8331C172.926 79.3941 170.714 76.4331 172.511 71.8255C172.525 71.8255 172.525 71.8394 172.539 71.8394C174.212 72.5589 176.88 70.6909 180.281 69.5148C184.609 68.0205 195.005 66.3462 195.683 77.0419C200.107 80.0029 199.512 83.974 197.881 86.8935Z" fill="#723917"/>
<path d="M172.208 89.3564C172.208 89.3564 173.259 94.9741 180.42 95.4722C185.646 95.832 190.402 93.4521 192.42 91.9162C192.628 92.2898 192.835 92.6634 193.029 92.9955C190.291 100.066 175.775 99.6508 175.775 99.6508C173.286 96.9804 171.53 93.715 172.208 89.3564Z" fill="#723917"/>
<path d="M193.858 82.8945C193.858 82.8945 194.452 87.8065 193.429 89.9097C195.42 88.3461 196.733 88.5952 196.747 88.5814C196.761 88.5675 198.531 83.2543 193.858 82.8945Z" fill="#723917"/>
<path d="M184.816 96.1089C185.051 95.9844 184.166 91.2108 179.839 89.8963C175.511 88.5819 173.175 91.197 172.94 92.7743C172.566 95.2787 177.986 99.6649 184.816 96.1089ZM174.889 91.8473C175.221 90.9617 176.603 90.2837 179.189 91.1001C181.774 91.9303 182.12 93.051 181.898 94.3793C181.691 95.7215 173.811 94.7668 174.889 91.8473Z" fill="#723917"/>
<path d="M174.765 78.8823C174.765 78.8823 176.01 80.266 183.171 83.0609C190.25 85.8282 195.365 86.8798 196.042 87.9867C197.466 90.2974 195.766 90.4496 195.047 88.8999C193.208 88.1804 186.171 90.8232 182.756 88.6647C180.572 87.2811 181.249 84.9704 181.249 84.9704C181.249 84.9704 178.415 87.4333 176.493 86.2987C174.572 85.1641 174.226 81.8295 174.226 81.8295C174.226 81.8295 174.171 79.9892 174.765 78.8823Z" fill="black"/>
<path d="M197.199 92.2608C197.698 90.8812 197.002 89.3645 195.645 88.8731C194.288 88.3818 192.784 89.1019 192.285 90.4815C191.786 91.8611 192.482 93.3778 193.839 93.8691C195.196 94.3605 196.7 93.6404 197.199 92.2608Z" fill="#F7A58E"/>
<path d="M193.029 91.4596C193.015 91.4596 192.987 91.4596 192.973 91.4457C192.932 91.4181 192.932 91.3627 192.959 91.3212C192.987 91.2797 193.775 90.3388 195.006 90.1451C195.42 90.0759 195.752 90.1451 195.973 90.3526C196.291 90.6432 196.278 91.0721 196.278 91.086C196.278 91.1275 196.236 91.169 196.195 91.169C196.153 91.169 196.112 91.1275 196.112 91.086C196.112 91.086 196.125 90.7124 195.863 90.4772C195.683 90.3111 195.393 90.2558 195.033 90.3111C193.872 90.491 193.098 91.4181 193.098 91.4181C193.084 91.4457 193.056 91.4596 193.029 91.4596Z" fill="#723917"/>
<path d="M178.982 89.2456C178.968 89.2456 178.954 89.2456 178.941 89.2456C178.526 89.0795 177.834 88.5814 178.111 87.8204C178.457 86.9072 180.295 86.6166 180.378 86.6028C180.434 86.5889 180.475 86.6304 180.475 86.6858C180.489 86.7411 180.447 86.7827 180.392 86.7827C180.378 86.7827 178.581 87.0594 178.277 87.8896C177.987 88.6783 178.954 89.0795 178.996 89.0934C179.037 89.1072 179.065 89.1625 179.051 89.2041C179.051 89.2317 179.023 89.2456 178.982 89.2456Z" fill="#723917"/>
<path d="M209.647 265.592L208.845 274.572L219.256 278.128L220.638 265.758L209.647 265.592Z" fill="#B55C41"/>
<path d="M196.25 280.314L204.725 273.576C207.421 269.37 212.688 269.937 213.227 274.406C214.955 275.79 220.098 273.313 220.098 273.313L220.873 283.262L205.305 286.278L196.25 280.314Z" fill="#0B80C0"/>
<path d="M206.909 285.904C206.909 285.877 206.909 285.835 206.909 285.808C206.854 282.099 203.799 279.083 200.094 279.083C196.388 279.083 193.596 280.951 193.651 284.659C193.651 284.687 193.651 284.728 193.651 284.756C193.651 286.486 201.31 287.606 206.909 285.904Z" fill="#3996D2"/>
<path d="M242.551 164.129C235.97 202.789 229.735 258.328 221.081 265.593L220.431 271.902L208.845 270.574L209.218 265.593C203.979 257.803 213.311 203.66 217.168 164.129H242.551Z" fill="#011E33"/>
<path d="M268.059 265.592L268.874 274.572L258.45 278.128L257.068 265.758L268.059 265.592Z" fill="#B55C41"/>
<path d="M236.412 164.129C240.422 204.795 247.998 258.508 256.653 265.772L257.441 271.847L268.86 270.588L268.515 265.427C273.754 257.637 263.966 203.674 260.109 164.143H236.412V164.129Z" fill="#011E33"/>
<path d="M262.75 174.618C263.496 177.44 263.413 179.322 262.736 180.554C256.376 184.013 220.873 184.303 213.933 181.37C213.629 179.668 213.269 177.911 214.292 175.088C211.9 173.898 211.665 166.302 212.495 157.239C213.117 150.044 214.444 141.963 215.882 135.419C216.629 131.973 217.417 128.957 218.163 126.743C221.689 116.324 224.385 106.75 238.486 106.75C252.796 106.75 256.197 117.625 259.114 125.041C259.957 127.186 260.856 130.922 261.658 135.419C262.778 141.562 263.718 149.131 264.188 156.008C264.796 164.987 264.575 172.791 262.75 174.618Z" fill="#01528C"/>
<path d="M212.052 120.309C212.052 120.309 218.384 103.844 238.334 104.217C258.243 104.591 262.598 120.309 262.598 120.309C262.598 120.309 255.588 106.666 239.15 106.639C225.505 106.625 216.435 112.671 212.052 120.309Z" fill="#026FBF"/>
<path opacity="0.4" d="M264.188 155.994C258.312 154.541 247.929 152.465 236.136 152.327C224.481 152.202 216.642 155.108 212.495 157.225C213.117 150.03 214.444 141.949 215.882 135.405H261.671C262.764 141.548 263.718 149.131 264.188 155.994Z" fill="#012B40"/>
<path d="M247.888 142.351C234.795 149.338 220.458 151.123 214.043 147.512C210.684 145.63 208.776 142.586 208.029 138.989C205.679 127.684 214.873 110.956 226.597 107.87C230.731 106.777 223.058 133.675 223.058 133.675C236.413 130.147 242.289 129.829 246.436 131.226C248.275 131.849 249.63 133.855 250.086 136.041C250.57 138.435 250.003 141.023 247.888 142.351Z" fill="#01528C"/>
<path d="M223.044 133.828C223.016 133.828 222.974 133.814 222.947 133.786C222.878 133.731 222.878 133.634 222.933 133.579C222.947 133.551 224.329 131.794 224.716 124.958C224.716 124.875 224.786 124.806 224.882 124.82C224.965 124.82 225.034 124.903 225.021 124.986C224.62 131.96 223.223 133.703 223.168 133.772C223.127 133.814 223.085 133.828 223.044 133.828Z" fill="#012B40"/>
<path d="M247.888 142.351C234.796 149.338 220.459 151.123 214.044 147.512C210.684 145.63 208.776 142.586 208.03 138.989C210.435 141.521 214.929 145.187 220.901 145.063C228.671 144.925 245.33 138.075 250.073 136.042C250.57 138.435 250.003 141.023 247.888 142.351Z" fill="#012B40"/>
<path d="M223.043 133.675C225.297 135.377 229.583 144.025 222.186 145.063C236.495 149.366 244.832 139.376 244.832 139.376C244.832 139.376 230.91 131.296 223.043 133.675Z" fill="#012B40"/>
<path d="M228.255 136.968C228.048 136.885 223.043 133.689 223.043 133.689C223.043 133.689 224.44 126.992 232.375 128.943C240.339 130.88 234.034 139.445 228.255 136.968Z" fill="#F7A58E"/>
<path d="M267.409 143.098C266.925 145.243 265.971 146.862 264.492 147.678C258.049 151.248 239.578 150.943 228.463 140.995C226.679 138.823 226.666 135.336 227.937 132.624C228.905 130.521 230.633 128.874 232.901 128.611C237.256 128.099 247.68 130.701 252.837 134.367C252.837 134.367 244.555 106.667 248.745 107.511C261.146 109.987 269.759 132.707 267.409 143.098Z" fill="#01528C"/>
<path d="M252.823 134.519C252.768 134.519 252.713 134.492 252.685 134.422C251.524 131.78 250.597 127.49 250.141 125.166C250.127 125.083 250.113 125.027 250.113 125.014C250.1 124.931 250.141 124.848 250.224 124.834C250.307 124.82 250.39 124.861 250.404 124.944C250.404 124.958 250.418 125.014 250.431 125.11C250.888 127.421 251.814 131.697 252.961 134.312C252.989 134.395 252.961 134.478 252.878 134.505C252.865 134.505 252.851 134.519 252.823 134.519Z" fill="#012B40"/>
<path d="M252.588 134.215C254.399 134.326 255.256 134.201 255.671 134.173C257.178 134.077 257.703 132.665 256.943 132.804L251.966 132.25C251.966 132.25 253.984 131.337 254.993 130.451C256.003 129.566 255.159 128.943 255.159 128.943L250.237 130.341C251.15 129.773 254.053 127.31 252.311 126.536C250.735 128.155 247.058 129.926 245.468 130.811C246.339 131.199 249.864 132.222 252.588 134.215Z" fill="#F7A58E"/>
<path d="M267.409 143.098C266.925 145.242 265.971 146.861 264.492 147.678C258.049 151.247 239.578 150.943 228.463 140.995C226.679 138.822 226.666 135.335 227.937 132.624C228.366 134.893 229.279 138.283 231.09 139.694C233.786 141.783 259.169 150.044 267.409 143.098Z" fill="#012B40"/>
<path d="M234.187 177.647C222.09 177.647 214.32 175.295 214.237 175.268C214.126 175.24 214.071 175.115 214.099 175.018C214.126 174.908 214.251 174.852 214.347 174.88C214.472 174.922 226.528 178.561 244.058 176.72C244.169 176.707 244.265 176.79 244.279 176.9C244.293 177.011 244.21 177.108 244.1 177.122C240.56 177.509 237.228 177.647 234.187 177.647Z" fill="#012B40"/>
<path d="M259.086 98.0324C258.893 104.522 252.284 110.07 247.017 113.28C240.878 117.016 238.044 117.113 228.104 110.568C223.472 107.51 220.044 103.014 219.062 98.8488C216.905 89.8273 228.256 70.6914 239.288 70.6914C250.335 70.6776 259.459 86.5204 259.086 98.0324Z" fill="black"/>
<path d="M246.976 110.029C246.077 115.259 234.27 115.259 232.888 110.029L233.717 101.049H246.146L246.976 110.029Z" fill="#B3644F"/>
<path d="M252.242 92.5947C252.159 93.7155 251.993 94.7947 251.758 95.8325C250.583 100.703 247.666 104.48 244.555 106.5C242.91 107.594 241.21 108.161 239.675 108.161C239.509 108.161 239.33 108.147 239.164 108.133C235.334 107.718 229.486 102.972 227.647 95.8601C227.371 94.8224 227.177 93.7293 227.108 92.5947C227.039 91.7092 227.025 90.8513 227.053 89.9935C227.343 81.0136 232.624 74.7456 239.675 74.7456C246.712 74.7456 252.007 81.0136 252.298 89.9658C252.325 90.8236 252.311 91.6953 252.242 92.5947Z" fill="#F7A58E"/>
<path d="M228.284 95.7216C228.09 95.8185 227.855 95.86 227.648 95.86C226.694 95.8738 225.671 95.0852 225.173 93.8122C224.551 92.2625 224.938 90.616 226.03 90.104C226.348 89.9656 226.707 89.938 227.053 90.0072C227.869 90.1732 228.712 90.9065 229.155 92.0135C229.763 93.5631 229.39 95.2097 228.284 95.7216Z" fill="#F7A58E"/>
<path d="M253.971 93.8122C253.501 94.9745 252.616 95.7216 251.759 95.8323C251.455 95.8877 251.151 95.8462 250.86 95.7216C250.266 95.4588 249.879 94.8223 249.754 94.0613C249.63 93.4525 249.699 92.7468 249.975 92.055C249.975 92.0411 249.989 92.0273 249.989 92.0135C250.473 90.8235 251.399 90.0487 252.298 89.9795C252.575 89.9518 252.851 89.9933 253.114 90.104C254.206 90.616 254.593 92.2625 253.971 93.8122Z" fill="#F7A58E"/>
<path d="M253.971 93.8127C253.501 94.9749 252.616 95.7221 251.759 95.8328C250.584 100.703 247.667 104.481 244.556 106.501C246.699 104.19 250.003 97.2718 249.326 96.0403C248.634 94.8089 244.335 97.507 242.897 95.9573C240.63 93.5083 240.408 93.5913 238.141 95.8605C235.528 98.4617 232.749 95.141 230.261 95.6114C227.772 96.0818 233.98 107.013 239.164 108.133C235.334 107.718 229.486 102.972 227.648 95.8605C226.694 95.8743 225.671 95.0856 225.173 93.8127C224.551 92.263 224.938 90.6164 226.03 90.1045C226.348 89.9661 226.707 89.9384 227.053 90.0076C227.343 81.0277 232.625 74.7598 239.676 74.7598C246.713 74.7598 252.008 81.0277 252.298 89.9799C252.575 89.9523 252.851 89.9938 253.114 90.1045C254.206 90.6164 254.593 92.263 253.971 93.8127Z" fill="#B3644F"/>
<path d="M252.519 89.7995V90.7403C252.505 91.7781 252.021 92.6775 251.192 93.4108C249.602 94.8221 246.781 95.7077 243.602 96.0536C242.357 95.9706 241.362 92.2624 240.325 92.2624C239.288 92.2624 239.012 95.7907 236.827 96.0536C233.094 95.6523 229.693 94.5731 227.993 92.8712C227.232 92.1102 226.804 91.2246 226.831 90.2146V88.9416C226.914 85.8561 252.616 86.7001 252.519 89.7995Z" fill="black"/>
<path d="M238.555 97.1743C238.555 97.1743 238.666 98.9316 240.422 98.9316C242.177 98.9316 242.288 97.2435 242.288 97.2435C242.288 97.2435 241.666 98.4196 240.353 98.4196C239.039 98.4196 238.555 97.1743 238.555 97.1743Z" fill="#F7CEC3"/>
<path d="M237.298 101.824C238.1 102.516 242.372 102.28 242.552 101.824C242.704 101.45 239.164 102.114 237.298 101.824Z" fill="#B3644F"/>
<path d="M237.837 102.502C237.837 102.502 239.828 102.931 241.763 102.502C242.137 102.502 241.404 102.903 241.003 102.972C238.888 103.318 237.837 102.502 237.837 102.502Z" fill="#F7CEC3"/>
<path d="M251.193 93.4109C249.603 94.8222 246.782 95.7078 243.602 96.0537C242.358 95.9707 241.363 92.2625 240.326 92.2625C239.289 92.2625 239.012 95.7908 236.828 96.0537C233.095 95.6524 229.694 94.5732 227.994 92.8713C230.04 90.9895 234.339 89.7027 239.317 89.7027C244.791 89.6889 249.437 91.2386 251.193 93.4109Z" fill="#F0F0F0"/>
<path d="M260.482 93.0097C258.74 82.1481 250.722 69.5015 240.104 69.5015C229.832 69.9027 215.633 87.3091 219.076 98.8349C222.712 111.025 231.712 117.874 239.579 119.188C240.546 119.617 264.934 106.044 260.482 93.0097ZM238.79 117.805C227.412 112.782 223.818 101.367 224.564 98.3506C226.486 90.699 232.776 87.1292 239.855 87.5166C247.86 87.9456 254.137 92.7883 254.524 96.8424C255.602 107.676 250.376 113.834 238.79 117.805Z" fill="#01528C"/>
<path d="M281.677 280.315L273.202 273.577C270.506 269.37 265.239 269.938 264.7 274.407C262.972 275.79 257.829 273.314 257.829 273.314L257.054 283.262L272.622 286.279L281.677 280.315Z" fill="#0B80C0"/>
<path d="M271.018 285.905C271.018 285.877 271.018 285.836 271.018 285.808C271.073 282.1 274.129 279.083 277.834 279.083C281.539 279.083 284.332 280.951 284.277 284.66C284.277 284.687 284.277 284.729 284.277 284.756C284.277 286.486 276.617 287.607 271.018 285.905Z" fill="#3996D2"/>
<path d="M240.809 71.7707C254.275 73.265 257.648 84.7355 259.1 87.4474C255.989 78.2461 248.952 69.5015 240.104 69.5015C230.26 69.8889 216.836 85.8562 218.73 97.3406C220.389 81.9128 234.187 71.0512 240.809 71.7707Z" fill="#026FBF"/>
<path d="M290.594 93.964C290.594 93.964 287.663 90.6156 282.313 92.608C269.386 97.4093 280.723 119.16 270.105 137.3C279.396 148.065 291.659 137.314 291.659 137.314C291.659 137.314 293.898 101.643 290.594 93.964Z" fill="#0E0E0E"/>
<path d="M291.783 160.725L314.678 247.065L321.051 247.314L311.747 159.162C308.221 138.102 287.843 147.179 291.783 160.725Z" fill="#0D0D0D"/>
<path d="M276.285 158.926C276.271 187.554 278.566 244.09 278.566 244.09L285.963 243.675L297.756 159.673C298.309 147.912 278.856 142.101 276.285 158.926Z" fill="#0D0D0D"/>
<path d="M326.458 257.276C326.306 255.962 322.311 254.495 322.311 254.495L320.665 243.205V242.9H313.158L312.412 247.425L318.398 257.263H326.458V257.276Z" fill="#011A26"/>
<path d="M313.448 257.276L316.973 246.83L312.397 247.397V257.276H313.448Z" fill="#011A26"/>
<path d="M288.577 257.747C290.222 256.515 286.876 254.966 286.876 254.966L285.977 243.675V243.371H278.692L277.945 247.895L281.733 257.733H288.577V257.747Z" fill="#011A26"/>
<path d="M278.995 257.747L282.52 247.314L277.93 247.881L277.944 257.747H278.995Z" fill="#011A26"/>
<path d="M307.488 121.748C307.309 124.556 307.004 127.891 306.714 130.811C306.299 134.823 305.898 138.033 305.898 138.033H284.87C284.76 137.397 284.414 136.414 283.93 135.155C282.603 131.834 280.183 126.687 278.58 121.678C277.169 117.334 276.368 113.1 277.349 110.222C279.257 104.175 298.82 103.082 301.557 106.099C304.295 109.129 306.548 112.948 307.405 115.784C307.696 116.628 307.668 118.925 307.488 121.748Z" fill="#014363"/>
<path opacity="0.4" d="M307.488 121.747C307.309 124.556 307.004 127.891 306.714 130.81C306.438 130.81 306.133 130.81 305.829 130.796C296.179 130.298 287.538 133.55 283.944 135.155C282.617 131.834 280.197 126.687 278.594 121.678L307.488 121.747Z" fill="#012B40"/>
<path d="M297.382 105.158C297.327 107.122 287.262 108.755 286.294 105.919L285.147 92.6079C287.248 92.6771 291.949 92.8293 294.023 92.8985C294.147 93.4381 294.507 94.628 294.963 96.067C295.502 97.8105 296.152 99.9275 296.636 101.685C297.064 103.276 297.396 104.618 297.382 105.158Z" fill="#FF9C80"/>
<path d="M296.968 102.958C290.65 103.124 287.843 97.1879 287.843 97.1879C290.276 95.5828 292.834 95.4583 294.949 96.0533C295.489 97.7967 296.484 101.187 296.968 102.958Z" fill="#E67A5C"/>
<path d="M284.898 138.033C284.898 138.033 275.815 147.359 276.299 158.926C286.806 161.763 311.609 158.304 311.609 158.304C310.876 150.624 310.35 145.726 305.913 138.033C290.636 138.033 284.898 138.033 284.898 138.033Z" fill="#0D0D0D"/>
<path d="M306.286 121.249C305.705 121.748 304.724 122.675 303.466 123.768C302.111 124.944 300.466 126.314 298.627 127.545C295.032 129.98 290.774 132 287.041 131.253C279.589 129.773 273.824 114.359 277.391 110.194C280.958 106.015 285.562 107.095 287.843 113.183C289.046 116.365 289.944 122.564 289.944 122.564C290.221 122.467 290.47 122.398 290.719 122.315C291.507 122.066 292.253 121.831 292.945 121.595C299.871 119.451 302.263 118.98 304.392 118.371C306.687 117.721 308.18 119.132 306.286 121.249Z" fill="#FF9C80"/>
<path d="M303.466 123.782C302.111 124.958 300.466 126.328 298.627 127.559C296.927 124.654 291.134 122.758 290 122.578C290.788 122.329 292.254 121.859 292.959 121.623L295.987 120.862L303.466 123.782Z" fill="#E67A5C"/>
<path d="M313.696 125.221C308.871 130.299 291.796 122.938 291.796 122.938C289.612 122.26 289.999 118.51 293.068 118.87L302.317 119.119L307.101 119.243C307.101 119.243 307.875 116.96 306.424 113.224C306.424 113.224 306.424 113.224 306.424 113.211C305.635 111.218 304.17 108.797 301.585 106.099C304.142 106.984 317.567 121.125 313.696 125.221Z" fill="#FF9C80"/>
<path d="M309.368 119.561C307.93 119.52 307.598 119.188 302.331 119.105L307.114 119.229C307.114 119.229 307.889 116.946 306.437 113.21C307.944 115.77 308.594 117.638 309.368 119.561Z" fill="#E67A5C"/>
<path d="M309.77 119.727C309.756 119.727 309.756 119.727 309.77 119.727C302.387 118.939 292.377 118.897 292.281 118.897C292.225 118.897 292.184 118.856 292.198 118.8C292.198 118.745 292.239 118.717 292.294 118.717C292.391 118.717 302.415 118.759 309.797 119.547C309.853 119.547 309.88 119.603 309.88 119.644C309.853 119.686 309.811 119.727 309.77 119.727Z" fill="#DE7759"/>
<path d="M302.663 126.466C301.087 126.203 297.645 125.165 295.046 124.321C293.414 123.795 291.99 123.325 291.299 123.09C289.654 122.536 289.654 122.536 289.64 122.467L289.419 120.004L289.599 119.99L289.82 122.384C290.525 122.633 299.76 125.815 302.691 126.286L302.663 126.466Z" fill="#DE7759"/>
<path d="M292.268 123.131C292.42 123.214 289.724 122.44 289.724 122.44L289.35 119.216C289.35 119.216 291.701 118.524 293.595 118.787C289.986 118.814 289.447 121.526 292.268 123.131Z" fill="#E67A5C"/>
<path d="M304.612 118.33C304.612 118.33 308.331 117.334 309.12 119.437C306.631 119.216 304.377 119.105 304.377 119.105L304.612 118.33Z" fill="#FFA88F"/>
<path d="M303.174 87.4193C304.764 94.13 301.64 101.657 298.308 102.598C292.874 104.134 284.883 98.8344 283.293 92.1237C281.704 85.413 284.87 78.9237 290.358 77.623C295.847 76.3362 301.584 80.7086 303.174 87.4193Z" fill="#FF9C80"/>
<path d="M298.654 79.3113C298.654 79.3113 287.593 88.0144 285.686 98.9591C284.234 97.3956 283.031 95.8736 282.091 94.3931C278.455 88.7063 278.538 83.6283 282.506 79.3666C286.985 74.5653 294.451 75.0911 298.654 79.3113Z" fill="#0E0E0E"/>
<path d="M297.34 80.3902C297.34 80.3902 301.128 82.1336 303.105 87.1424C302.483 81.7462 297.229 72.0053 286.266 76.7512C275.302 81.511 297.34 80.3902 297.34 80.3902Z" fill="#0E0E0E"/>
<path d="M279.893 90.2695C280.446 86.9764 300.935 81.843 302.815 85.5512C302.815 85.5512 301.087 71.9499 287.704 75.5889C274.432 79.2141 279.893 90.2695 279.893 90.2695Z" fill="#038CCC"/>
<path d="M279.893 90.2693C280.446 86.9762 300.838 81.829 302.815 85.551C302.815 85.551 301.433 72.9736 288.313 76.3359C275.87 79.5183 279.893 90.2693 279.893 90.2693Z" fill="#025880"/>
<path d="M281.317 93.0921C280.446 93.8116 273.298 96.0254 274.432 93.3965C275.828 90.1587 282.202 87.5298 284.87 87.4053C283.736 88.3738 280.183 90.2141 281.317 93.0921Z" fill="#038CCC"/>
<path d="M292.764 83.31C292.764 83.31 296.428 81.9402 300.921 83.2547C300.119 80.432 297.479 79.3113 295.585 79.5465C292.253 79.9616 292.764 83.31 292.764 83.31Z" fill="#0E0E0E"/>
<path d="M289.097 93.6974C289.659 92.484 289.132 91.0447 287.919 90.4825C286.707 89.9203 285.269 90.4481 284.707 91.6615C284.145 92.8748 284.673 94.3142 285.885 94.8764C287.097 95.4386 288.536 94.9107 289.097 93.6974Z" fill="#FFA88F"/>
<path d="M287.22 94.6138C287.207 94.6138 287.193 94.6138 287.179 94.6138C287.082 94.5861 287.027 94.4893 287.054 94.3924C287.234 93.7144 287.193 93.1748 286.93 92.7597C286.571 92.1924 285.907 92.0817 285.893 92.0817C285.796 92.0679 285.727 91.971 285.741 91.8742C285.755 91.7773 285.852 91.7081 285.948 91.722C285.976 91.722 286.778 91.8603 287.22 92.566C287.538 93.0641 287.594 93.7144 287.386 94.4893C287.372 94.5585 287.289 94.6138 287.22 94.6138Z" fill="#C2674E"/>
<path d="M291.534 94.1019C291.562 94.0189 297.037 96.8001 300.078 94.6692C300.078 94.6692 301.599 96.4126 303.12 95.5548C302.829 98.2252 300.645 102.515 297.88 102.847C291.562 103.58 288.299 97.2982 288.299 97.2982C288.299 97.2982 290.414 97.5887 291.534 94.1019Z" fill="#025880"/>
<path d="M292.363 95.0984C292.321 95.0846 292.294 95.0708 292.266 95.0431L288.533 90.8091C288.464 90.7399 288.478 90.6292 288.547 90.56C288.616 90.4909 288.74 90.4909 288.796 90.5739L292.529 94.8079C292.598 94.877 292.584 94.9877 292.515 95.0569C292.473 95.0984 292.418 95.0984 292.363 95.0984Z" fill="#025880"/>
<path d="M289.903 99.1524C289.861 99.1385 289.833 99.1247 289.806 99.097L286.598 95.458C286.529 95.3888 286.543 95.2781 286.612 95.209C286.681 95.1398 286.806 95.1398 286.861 95.2228L290.069 98.8618C290.138 98.931 290.124 99.0417 290.055 99.1109C290.013 99.1385 289.958 99.1524 289.903 99.1524Z" fill="#025880"/>
<path d="M300.299 94.0193C299.967 94.0193 299.704 93.9363 299.691 93.9363C299.594 93.9086 299.552 93.7979 299.58 93.7149C299.608 93.6181 299.718 93.5765 299.801 93.6042C299.843 93.6181 300.769 93.9086 301.239 93.2306C301.294 93.1476 301.308 93.0646 301.28 92.9677C301.142 92.4696 300.036 91.9162 299.621 91.7363C299.525 91.6948 299.483 91.5979 299.525 91.5011C299.566 91.4042 299.663 91.3627 299.76 91.4042C299.926 91.4734 301.405 92.1237 301.612 92.8709C301.668 93.0646 301.64 93.2583 301.516 93.4382C301.184 93.9086 300.686 94.0193 300.299 94.0193Z" fill="#C2674E"/>
<path d="M298.184 91.2936C297.575 92.0823 293.898 92.1791 293.428 91.598C292.64 90.6433 292.557 88.8999 293.234 88.4848C293.898 88.0697 297.728 88.0143 298.267 88.6508C298.806 89.3011 298.585 90.7678 298.184 91.2936Z" fill="#F0F0F0"/>
<path d="M300.686 91.0163C301.281 91.5836 304.087 91.3761 304.405 90.8503C304.931 89.9924 304.723 88.5811 304.17 88.2491C302.94 87.5019 300.7 88.0138 300.341 88.5811C299.967 89.1484 300.285 90.6289 300.686 91.0163Z" fill="#F0F0F0"/>
<path d="M288.313 90.6982C288.23 90.6982 288.147 90.629 288.133 90.546C288.119 90.4492 288.188 90.3523 288.285 90.3385L292.488 89.702C292.515 88.8026 293.276 88.1108 294.548 87.8341C296.096 87.502 298.087 87.8756 298.599 88.9133C298.972 88.9271 299.525 88.9133 299.926 88.8718C300.299 88.0001 301.571 87.6542 302.719 87.6957C303.852 87.7372 304.682 88.1523 304.82 88.7473C304.848 88.8441 304.779 88.941 304.682 88.9687C304.585 88.9963 304.488 88.9272 304.461 88.8303C304.364 88.4014 303.631 88.0831 302.691 88.0416C301.668 88.0001 300.451 88.3045 300.202 89.0794C300.175 89.1485 300.119 89.19 300.05 89.2039C299.58 89.2592 298.861 89.2731 298.447 89.2592C298.377 89.2592 298.308 89.2039 298.281 89.1485C297.935 88.2076 296.041 87.8617 294.589 88.18C294.036 88.3045 292.737 88.7058 292.82 89.8404C292.82 89.9372 292.764 90.0202 292.668 90.0341L288.313 90.6844C288.34 90.6982 288.326 90.6982 288.313 90.6982Z" fill="#282828"/>
<path d="M197.881 86.8936C198.42 84.9565 199.084 80.0031 195.061 77.9553C194.397 74.0949 193.015 70.442 186.42 70.1238C180.198 69.8194 172.94 74.9942 172.553 71.8257C174.226 72.5452 176.894 70.6772 180.295 69.5011C184.623 68.0068 195.019 66.3326 195.697 77.0282C200.107 80.0031 199.512 83.9741 197.881 86.8936Z" fill="#B35A24"/>
</g>
<defs>
<linearGradient id="paint0_linear" x1="81.234" y1="372.775" x2="81.234" y2="237.158" gradientUnits="userSpaceOnUse">
<stop/>
<stop offset="1" stop-color="white"/>
</linearGradient>
<linearGradient id="paint1_linear" x1="81.234" y1="372.775" x2="81.234" y2="237.158" gradientUnits="userSpaceOnUse">
<stop stop-color="white"/>
<stop offset="1"/>
</linearGradient>
<linearGradient id="paint2_linear" x1="161.057" y1="372.775" x2="161.057" y2="237.158" gradientUnits="userSpaceOnUse">
<stop/>
<stop offset="1" stop-color="white"/>
</linearGradient>
<linearGradient id="paint3_linear" x1="161.057" y1="372.775" x2="161.057" y2="237.158" gradientUnits="userSpaceOnUse">
<stop stop-color="white"/>
<stop offset="1"/>
</linearGradient>
<linearGradient id="paint4_linear" x1="165.832" y1="366.86" x2="165.832" y2="258.837" gradientUnits="userSpaceOnUse">
<stop/>
<stop offset="1" stop-color="white"/>
</linearGradient>
<linearGradient id="paint5_linear" x1="165.832" y1="366.86" x2="165.832" y2="258.837" gradientUnits="userSpaceOnUse">
<stop stop-color="white"/>
<stop offset="1"/>
</linearGradient>
<linearGradient id="paint6_linear" x1="276.959" y1="366.86" x2="276.959" y2="258.837" gradientUnits="userSpaceOnUse">
<stop/>
<stop offset="1" stop-color="white"/>
</linearGradient>
<linearGradient id="paint7_linear" x1="276.959" y1="366.86" x2="276.959" y2="258.837" gradientUnits="userSpaceOnUse">
<stop stop-color="white"/>
<stop offset="1"/>
</linearGradient>
<linearGradient id="paint8_linear" x1="363.104" y1="344.569" x2="362.396" y2="270.934" gradientUnits="userSpaceOnUse">
<stop/>
<stop offset="1" stop-color="white"/>
</linearGradient>
<linearGradient id="paint9_linear" x1="363.104" y1="344.569" x2="362.396" y2="270.934" gradientUnits="userSpaceOnUse">
<stop stop-color="white"/>
<stop offset="1"/>
</linearGradient>
<linearGradient id="paint10_linear" x1="299.846" y1="345.138" x2="299.137" y2="271.474" gradientUnits="userSpaceOnUse">
<stop/>
<stop offset="1" stop-color="white"/>
</linearGradient>
<linearGradient id="paint11_linear" x1="299.846" y1="345.138" x2="299.137" y2="271.474" gradientUnits="userSpaceOnUse">
<stop stop-color="white"/>
<stop offset="1"/>
</linearGradient>
<clipPath id="clip0">
<rect width="456" height="411" fill="white"/>
</clipPath>
</defs>
</svg>
