<svg width="249" height="269" viewBox="0 0 249 269" fill="none" xmlns="http://www.w3.org/2000/svg">
<path d="M136.199 189.452C138.848 189.452 141.056 187.236 141.056 184.578V176.157C141.056 173.498 138.848 171.283 136.199 171.283H128.915C128.694 169.732 128.253 167.959 127.811 166.408L133.992 163.749C136.42 162.641 137.745 159.76 136.641 157.323L133.33 149.346C132.226 146.909 129.356 145.579 126.928 146.687L120.085 149.568C119.202 148.017 118.098 146.687 116.995 145.136L122.513 139.596C124.5 137.602 124.5 134.5 122.513 132.506L116.553 126.523C114.566 124.529 111.476 124.529 109.489 126.523L103.529 132.506C102.205 131.619 100.66 130.733 99.3351 130.068L102.205 122.978C103.309 120.54 101.984 117.66 99.5558 116.552L91.609 113.228C89.1809 112.12 86.3112 113.45 85.2074 115.887L81.8963 123.643C81.0133 123.421 80.1303 123.199 79.2473 123.199V116.33C79.2473 113.671 77.0399 111.456 74.391 111.456H66.0027C63.3537 111.456 61.1463 113.671 61.1463 116.33V123.421C59.6011 123.643 57.8351 124.086 56.2899 124.529L53.641 118.103C52.5372 115.666 49.6676 114.336 47.2394 115.444L39.2926 118.768C36.8644 119.876 35.5399 122.756 36.6436 125.194L39.2926 131.619C38.1888 132.284 37.0851 132.949 36.2021 133.614L30.9043 128.074C28.9176 126.08 25.8271 126.08 23.8404 128.074L17.8803 134.057C15.8936 136.051 15.8936 139.153 17.8803 141.148L22.9574 146.244C22.0745 147.573 20.9707 148.903 20.0878 150.232L13.2447 147.573C10.8165 146.465 7.94681 147.795 6.84308 150.232L3.53191 158.209C2.42819 160.647 3.75266 163.527 6.18085 164.635L12.8032 167.516C12.5824 168.845 12.141 169.953 11.9202 171.283H4.85638C2.20745 171.283 0 173.498 0 176.157V184.578C0 187.236 2.20745 189.452 4.85638 189.452H11.4787C11.6995 191.003 11.9202 192.776 12.3617 194.327L5.51862 197.208C3.09043 198.316 1.76596 201.196 2.86968 203.634L6.18085 211.61C7.28457 214.048 10.1543 215.377 12.5824 214.269L18.7633 211.61C19.4255 212.94 20.3085 214.269 20.9707 215.377L16.5559 219.809C14.5691 221.803 14.5691 224.905 16.5559 226.9L22.516 232.882C24.5027 234.877 27.5931 234.877 29.5798 232.882L33.5532 228.894C34.8777 230.002 36.2021 230.888 37.5266 231.774L35.0984 237.535C33.9947 239.973 35.3191 242.853 37.7473 243.961L45.6942 247.285C48.1223 248.393 50.992 247.064 52.0957 244.626L54.3032 239.53C56.5106 240.194 58.9388 240.638 61.1463 241.081V248.171C61.1463 250.83 63.3537 253.046 66.0027 253.046H74.391C77.0399 253.046 79.2473 250.83 79.2473 248.171V241.302C80.7926 241.081 82.5585 240.638 84.1037 240.416L86.7527 246.842C87.8564 249.279 90.7261 250.609 93.1543 249.501L101.101 246.177C103.529 245.069 104.854 242.189 103.75 239.751L101.101 233.325C102.867 232.218 104.412 231.11 106.178 230.002L110.593 234.433C112.58 236.428 115.67 236.428 117.657 234.433L123.617 228.229C125.604 226.235 125.604 223.133 123.617 221.138L118.981 216.485C119.864 215.156 120.747 213.826 121.63 212.275L127.59 214.713C130.019 215.821 132.888 214.491 133.992 212.054L137.303 204.077C138.407 201.639 137.082 198.759 134.654 197.651L128.473 194.992C128.915 192.998 129.356 191.003 129.577 189.009H136.199V189.452ZM70.6383 206.292C57.3936 206.292 46.5771 195.435 46.5771 182.14C46.5771 168.845 57.3936 157.988 70.6383 157.988C83.883 157.988 94.6995 168.845 94.6995 182.14C94.6995 195.435 83.883 206.292 70.6383 206.292Z" fill="#004882"/>
<g opacity="0.28">
<path opacity="0.28" d="M58.4973 127.188C60.0425 126.745 61.5877 126.523 63.3537 126.08V118.989C63.3537 116.33 65.5611 114.114 68.2101 114.114H76.5984C77.4814 114.114 78.3643 114.336 79.0266 114.779C78.3643 112.563 76.5984 111.012 74.3909 111.012H66.0026C63.3537 111.012 61.1463 113.228 61.1463 115.887V122.978C59.8218 123.199 58.4973 123.421 57.1729 123.864L58.4973 127.188Z" fill="#B92431"/>
<path opacity="0.28" d="M122.292 152.448L129.135 149.568C130.681 148.903 132.226 149.124 133.55 150.011L133.33 149.346C132.226 146.909 129.356 145.579 126.928 146.687L120.306 149.568C120.968 150.454 121.63 151.34 122.292 152.448Z" fill="#B92431"/>
<path opacity="0.28" d="M81.6753 126.08C82.5583 126.301 83.4413 126.301 84.3242 126.523L87.6354 118.768C88.7391 116.33 91.6088 115.001 94.037 116.109L101.984 119.432C102.205 119.432 102.425 119.654 102.646 119.875C102.205 118.546 101.322 117.216 99.7764 116.552L91.8295 113.228C89.4014 112.12 86.5317 113.45 85.428 115.887L82.1168 123.642C81.896 123.642 81.6753 123.642 81.6753 123.642V126.08Z" fill="#B92431"/>
<path opacity="0.28" d="M102.205 131.619L101.542 132.949C102.867 133.835 104.412 134.5 105.737 135.386L111.697 129.403C113.683 127.409 116.774 127.409 118.761 129.403L123.617 134.278C123.396 133.614 122.955 132.949 122.513 132.284L116.553 126.301C114.566 124.307 111.476 124.307 109.489 126.301L103.529 132.284C103.088 132.284 102.646 132.062 102.205 131.619Z" fill="#B92431"/>
<path opacity="0.28" d="M96.9078 185.02C96.9078 178.816 94.7003 173.276 90.9477 169.066C93.3759 172.833 94.7003 177.265 94.7003 182.14C94.7003 195.435 83.8838 206.292 70.6392 206.292C63.3546 206.292 56.953 203.19 52.5381 198.094C56.7322 204.741 64.2376 209.394 72.8466 209.394C86.0913 209.394 96.9078 198.537 96.9078 185.02Z" fill="#B92431"/>
<path opacity="0.28" d="M137.523 201.196C137.082 199.867 136.199 198.537 134.654 197.872L131.122 196.321C130.901 196.986 130.901 197.651 130.68 198.094L136.861 200.753C137.082 200.974 137.303 201.196 137.523 201.196Z" fill="#B92431"/>
<path opacity="0.28" d="M130.459 171.061C130.68 171.947 130.901 173.055 131.122 173.942H138.406C139.289 173.942 140.172 174.163 140.834 174.606C140.172 172.39 138.406 170.839 136.199 170.839H130.459V171.061Z" fill="#B92431"/>
<path opacity="0.28" d="M121.41 219.144C121.41 219.366 121.189 219.366 121.189 219.587L124.721 223.132C124.501 222.468 124.059 221.803 123.618 221.138L121.41 219.144Z" fill="#B92431"/>
<path opacity="0.28" d="M18.9849 142.255C18.3226 140.483 18.7641 138.488 20.0886 137.159L26.0487 131.176C28.0354 129.182 31.1258 129.182 33.1125 131.176L38.4104 136.494C39.5141 135.829 40.3971 135.165 41.5008 134.5L38.8519 128.074C37.7482 125.637 39.0726 122.756 41.5008 121.648L49.4476 118.324C50.9928 117.66 52.5381 117.881 53.8625 118.768L53.6418 118.103C52.5381 115.665 49.6684 114.336 47.2402 115.444L39.2934 118.768C36.8652 119.875 35.5407 122.756 36.6444 125.193L39.2934 131.619C38.1896 132.284 37.0859 132.949 36.2029 133.614L30.9051 128.074C28.9184 126.08 25.8279 126.08 23.8412 128.074L17.8811 134.057C15.8944 136.051 15.8944 139.153 17.8811 141.147L18.9849 142.255Z" fill="#B92431"/>
<path opacity="0.28" d="M63.353 251.052V243.961C62.6907 243.74 61.8077 243.74 61.1455 243.518V247.95C61.1455 249.722 62.0285 251.273 63.5737 252.16C63.353 251.938 63.353 251.495 63.353 251.052Z" fill="#B92431"/>
<path opacity="0.28" d="M37.3046 240.416L39.7328 234.654C38.8498 233.99 37.9668 233.325 37.0839 232.66L35.0972 237.535C34.2142 239.751 35.0972 242.41 37.0839 243.739C36.8631 242.631 36.8631 241.523 37.3046 240.416Z" fill="#B92431"/>
<path opacity="0.28" d="M86.5329 243.075C86.3121 243.075 85.8706 243.297 85.6499 243.297L86.9744 246.621C87.4159 247.507 88.0781 248.393 88.9611 248.836L86.5329 243.075Z" fill="#B92431"/>
<path opacity="0.28" d="M2.20745 187.458V179.038C2.20745 176.379 4.41489 174.163 7.06383 174.163H14.3484C14.5691 172.833 14.7899 171.725 15.2314 170.396L12.5824 169.288C12.3617 169.953 12.3617 170.618 12.141 171.061H4.85638C2.20745 171.061 0 173.277 0 175.936V184.356C0 186.128 0.882979 187.679 2.42819 188.566C2.20745 188.344 2.20745 187.901 2.20745 187.458Z" fill="#B92431"/>
<path opacity="0.28" d="M5.74014 164.192C5.5194 163.084 5.5194 161.976 5.96089 161.089L9.27206 153.112C10.155 150.675 13.0247 149.346 15.4529 150.454L22.5167 153.334C23.3997 152.005 24.2827 150.675 25.3864 149.346L22.9582 146.908C22.0752 148.016 21.1923 149.346 20.53 150.454L13.2455 147.573C10.8173 146.465 7.94759 147.795 6.84387 150.232L3.5327 158.209C2.64972 160.425 3.5327 162.862 5.74014 164.192Z" fill="#B92431"/>
<path opacity="0.28" d="M18.9851 222.689L23.4 218.258C22.517 216.928 21.8548 215.82 21.1925 214.491L20.751 214.712C20.9718 214.934 20.9718 215.155 21.1925 215.377L16.7776 219.809C14.7909 221.803 14.7909 224.905 16.7776 226.899L17.8813 228.007C17.2191 226.013 17.6606 224.019 18.9851 222.689Z" fill="#B92431"/>
<path opacity="0.28" d="M5.29867 206.514C4.19495 204.076 5.51942 201.196 7.94761 200.088L14.57 197.207C14.3492 195.656 13.9077 194.105 13.687 192.333H12.1418C12.3625 192.997 12.3625 193.662 12.5832 194.327L5.74016 197.207C3.31197 198.315 1.9875 201.196 3.09123 203.633L6.4024 211.61C6.84389 212.496 7.50612 213.383 8.3891 213.826L5.29867 206.514Z" fill="#B92431"/>
</g>
<path d="M245.467 222.69C247.454 222.69 248.999 221.139 248.999 219.144V212.718C248.999 210.724 247.454 209.173 245.467 209.173H240.17C239.949 208.065 239.728 206.736 239.287 205.628L243.701 203.855C245.467 203.19 246.35 200.975 245.688 199.202L243.26 193.441C242.598 191.668 240.39 190.782 238.624 191.447L233.768 193.441C233.106 192.333 232.223 191.225 231.561 190.339L235.534 186.35C236.858 185.021 236.858 182.583 235.534 181.254L231.119 176.822C229.795 175.493 227.366 175.493 226.042 176.822L221.627 181.254C220.744 180.589 219.64 179.924 218.537 179.481L220.744 174.163C221.406 172.391 220.523 170.175 218.757 169.51L213.018 167.073C211.252 166.408 209.045 167.294 208.382 169.067L205.954 174.828C205.292 174.606 204.63 174.606 203.967 174.385V169.288C203.967 167.294 202.422 165.743 200.436 165.743H194.255C192.268 165.743 190.723 167.294 190.723 169.288V174.385C189.619 174.606 188.295 174.828 187.191 175.05L185.204 170.396C184.542 168.624 182.334 167.737 180.569 168.402L174.608 170.618C172.842 171.283 171.959 173.499 172.622 175.271L174.608 179.924C173.725 180.368 173.063 180.811 172.401 181.475L168.428 177.487C167.103 176.157 164.675 176.157 163.35 177.487L158.936 181.919C157.611 183.248 157.611 185.685 158.936 187.015L162.688 190.782C162.026 191.668 161.364 192.776 160.702 193.662L155.624 191.447C153.858 190.782 151.651 191.668 150.989 193.441L148.561 199.202C147.898 200.975 148.781 203.19 150.547 203.855L155.404 205.849C155.183 206.736 154.962 207.622 154.741 208.508H149.444C147.457 208.508 145.912 210.059 145.912 212.054V218.258C145.912 220.252 147.457 221.803 149.444 221.803H154.3C154.521 222.911 154.741 224.241 154.962 225.349L150.106 228.229C148.34 228.894 147.457 231.11 148.119 232.882L150.547 238.643C151.209 240.416 153.417 241.302 155.183 240.638L159.598 238.865C160.039 239.751 160.702 240.638 161.364 241.746L158.053 245.069C156.728 246.399 156.728 248.836 158.053 250.166L162.467 254.597C163.792 255.927 166.22 255.927 167.545 254.597L170.414 251.717C171.297 252.382 172.401 253.046 173.284 253.711L171.518 257.921C170.856 259.694 171.739 261.91 173.505 262.574L179.244 265.012C181.01 265.676 183.217 264.79 183.88 263.017L185.425 259.251C186.97 259.694 188.736 260.137 190.502 260.358V265.455C190.502 267.449 192.047 269 194.034 269H200.215C202.201 269 203.747 267.449 203.747 265.455V260.358C204.85 260.137 206.175 259.915 207.279 259.694L209.265 264.347C209.928 266.12 212.135 267.006 213.901 266.341L219.64 263.904C221.406 263.239 222.289 261.023 221.627 259.251L219.64 254.597C220.965 253.933 222.069 253.046 223.393 252.16L226.704 255.484C228.029 256.813 230.457 256.813 231.781 255.484L236.196 251.052C237.521 249.723 237.521 247.285 236.196 245.956L232.664 242.41C233.326 241.524 233.989 240.416 234.651 239.308L239.066 241.081C240.832 241.746 243.039 240.859 243.701 239.087L246.13 233.326C246.792 231.553 245.909 229.337 244.143 228.672L239.728 226.9C239.949 225.57 240.39 224.019 240.39 222.468H245.467V222.69ZM197.345 234.877C187.632 234.877 179.686 226.9 179.686 217.15C179.686 207.4 187.632 199.424 197.345 199.424C207.058 199.424 215.005 207.4 215.005 217.15C215.005 227.121 207.279 234.877 197.345 234.877Z" fill="#67C0F8"/>
<g opacity="0.73">
<path opacity="0.73" d="M234.65 194.549L239.506 192.555C240.831 192.111 242.155 192.333 243.038 192.998C242.155 191.225 240.169 190.56 238.403 191.225L233.546 193.219C234.209 193.662 234.429 194.106 234.65 194.549Z" fill="#FFDFA6"/>
<path opacity="0.73" d="M219.641 179.924L219.42 180.367C220.524 181.032 221.407 181.475 222.511 182.14L226.926 177.708C228.25 176.379 230.678 176.379 232.003 177.708L235.976 181.697C235.756 181.475 235.535 181.032 235.314 180.811L230.899 176.379C229.575 175.049 227.146 175.049 225.822 176.379L221.407 180.811C220.966 180.589 220.303 180.367 219.641 179.924Z" fill="#FFDFA6"/>
<path opacity="0.73" d="M204.85 175.493C205.512 175.493 206.174 175.714 206.836 175.936L209.265 170.175C209.927 168.402 212.134 167.516 213.9 168.181L219.64 170.618C219.86 170.84 220.302 170.84 220.522 171.061C220.081 170.396 219.419 169.732 218.757 169.288L213.017 166.851C211.251 166.186 209.044 167.073 208.382 168.845L205.953 174.606C205.512 174.606 205.291 174.385 204.85 174.385V175.493V175.493Z" fill="#FFDFA6"/>
<path opacity="0.73" d="M236.417 245.956L233.989 243.519C233.989 243.519 233.989 243.519 233.989 243.74L237.079 246.842C236.858 246.399 236.638 246.178 236.417 245.956Z" fill="#FFDFA6"/>
<path opacity="0.73" d="M240.832 209.173C240.832 209.617 241.052 210.06 241.052 210.281H246.35C247.233 210.281 247.895 210.503 248.558 211.168C247.895 210.06 246.792 209.173 245.246 209.173H240.832Z" fill="#FFDFA6"/>
<path opacity="0.73" d="M216.11 218.48C216.11 214.048 214.564 210.06 211.695 206.958C213.902 209.838 215.006 213.383 215.006 217.372C215.006 227.121 207.059 235.098 197.346 235.098C192.048 235.098 187.413 232.661 184.102 229.116C187.413 233.547 192.49 236.428 198.229 236.428C208.163 236.206 216.11 228.229 216.11 218.48Z" fill="#FFDFA6"/>
<path opacity="0.73" d="M188.074 176.157C189.178 175.936 190.502 175.714 191.606 175.493V170.396C191.606 168.402 193.151 166.851 195.138 166.851H201.319C202.202 166.851 202.864 167.073 203.526 167.737C202.864 166.629 201.76 165.743 200.215 165.743H194.255C192.268 165.743 190.723 167.294 190.723 169.288V174.385C189.62 174.606 188.737 174.828 187.633 175.05L188.074 176.157Z" fill="#FFDFA6"/>
<path opacity="0.73" d="M246.129 230.667C245.688 230.002 245.026 229.337 244.363 228.894L241.052 227.564C241.052 227.786 241.052 228.008 240.832 228.229L245.246 230.002C245.467 230.223 245.909 230.445 246.129 230.667Z" fill="#FFDFA6"/>
<path opacity="0.73" d="M159.158 245.956L162.469 242.632C161.807 241.746 161.365 240.859 160.703 239.751H160.482C160.703 240.195 161.144 240.859 161.365 241.303L158.054 244.626C156.729 245.956 156.729 248.393 158.054 249.723L158.495 250.166C157.833 248.836 157.833 247.064 159.158 245.956Z" fill="#FFDFA6"/>
<path opacity="0.73" d="M172.622 259.029L174.388 254.819C173.946 254.597 173.726 254.376 173.284 253.933L171.739 257.7C171.077 259.251 171.518 260.802 172.843 261.91C172.18 261.023 172.18 259.915 172.622 259.029Z" fill="#FFDFA6"/>
<path opacity="0.73" d="M191.607 266.563V261.467C191.386 261.467 190.944 261.245 190.724 261.245V265.455C190.724 266.563 191.165 267.671 192.048 268.336C191.607 267.671 191.607 267.228 191.607 266.563Z" fill="#FFDFA6"/>
<path opacity="0.73" d="M210.369 265.677L208.382 261.023C208.161 261.023 208.161 261.023 207.94 261.023L209.265 264.569C209.706 265.012 210.148 265.455 210.369 265.677Z" fill="#FFDFA6"/>
<path opacity="0.73" d="M151.43 239.973L149.002 234.212C148.34 232.439 149.223 230.223 150.989 229.559L155.845 227.564C155.625 226.456 155.404 225.127 155.183 224.019H154.521C154.742 224.905 154.742 225.57 154.962 226.456L150.106 228.229C148.34 228.894 147.457 231.11 148.119 232.882L150.547 238.643C150.768 239.308 150.989 239.751 151.43 239.973Z" fill="#FFDFA6"/>
<path opacity="0.73" d="M159.376 187.68C158.714 186.35 158.935 184.578 160.038 183.47L164.453 179.038C165.778 177.709 168.206 177.709 169.531 179.038L173.504 183.027C174.166 182.583 175.049 181.919 175.711 181.476L173.725 176.822C173.062 175.05 173.945 172.834 175.711 172.169L181.451 169.732C182.775 169.289 184.1 169.51 184.983 170.175C184.1 168.402 182.113 167.738 180.347 168.402L174.608 170.618C172.842 171.283 171.959 173.499 172.621 175.271L174.608 179.925C173.725 180.368 173.062 180.811 172.4 181.476L168.427 177.487C167.102 176.158 164.674 176.158 163.35 177.487L158.935 181.919C157.61 183.248 157.61 185.686 158.935 187.015L159.376 187.68Z" fill="#FFDFA6"/>
<path opacity="0.73" d="M149.664 203.855C149.223 202.969 149.223 201.861 149.444 200.975L151.872 195.214C152.534 193.441 154.741 192.555 156.507 193.219L161.585 195.435C162.247 194.327 162.909 193.441 163.571 192.555L162.468 191.447C161.805 192.333 161.143 193.219 160.481 194.327L155.404 192.112C153.638 191.447 151.43 192.333 150.768 194.106L148.34 199.867C147.898 201.196 148.34 202.969 149.664 203.855Z" fill="#FFDFA6"/>
<path opacity="0.73" d="M146.795 220.252V214.048C146.795 212.054 148.34 210.503 150.327 210.503H155.624C155.845 209.616 156.066 208.73 156.287 207.844L155.183 207.4C154.962 208.065 154.962 208.73 154.741 209.395H149.444C147.457 209.395 145.912 210.946 145.912 212.94V219.144C145.912 220.252 146.353 221.36 147.236 222.025C147.015 221.36 146.795 220.695 146.795 220.252Z" fill="#FFDFA6"/>
</g>
<path d="M188.296 67.1392C188.296 47.64 173.285 31.9077 154.743 31.9077C136.2 31.9077 121.189 47.64 121.189 67.1392C121.189 81.3204 135.096 93.9506 135.096 93.9506C138.187 96.6095 140.836 102.371 141.056 106.359L141.277 111.012C141.498 115.222 145.03 118.546 149.003 118.546H160.261C164.235 118.546 167.767 115.222 167.987 111.012L168.208 106.359C168.429 102.149 171.078 96.6095 174.168 93.9506C174.389 93.9506 188.296 81.0988 188.296 67.1392Z" fill="#FFEFAD"/>
<path d="M165.339 137.824C165.339 138.931 164.235 139.818 162.69 139.818H146.796C145.251 139.818 144.147 138.931 144.147 137.824V137.159C144.147 136.051 145.251 135.165 146.796 135.165H162.69C164.235 135.165 165.339 136.051 165.339 137.159V137.824Z" fill="#5F6D7A"/>
<path d="M165.339 132.062C165.339 133.17 164.235 134.057 162.69 134.057H146.796C145.251 134.057 144.147 133.17 144.147 132.062V131.398C144.147 130.29 145.251 129.403 146.796 129.403H162.69C164.235 129.403 165.339 130.29 165.339 131.398V132.062Z" fill="#5F6D7A"/>
<path d="M165.339 126.302C165.339 127.409 164.235 128.296 162.69 128.296H146.796C145.251 128.296 144.147 127.409 144.147 126.302V125.637C144.147 124.529 145.251 123.643 146.796 123.643H162.69C164.235 123.643 165.339 124.529 165.339 125.637V126.302Z" fill="#5F6D7A"/>
<path d="M162.027 142.255C162.027 143.363 161.144 144.249 160.261 144.249H149.445C148.562 144.249 147.679 143.363 147.679 142.255V141.59C147.679 140.483 148.562 139.596 149.445 139.596H160.261C161.144 139.596 162.027 140.483 162.027 141.59V142.255Z" fill="#5F6D7A"/>
<path d="M157.612 19.056C157.612 20.3855 156.729 21.2718 155.847 21.2718C154.964 21.2718 154.081 20.3855 154.081 19.056V2.21582C154.081 0.886326 154.964 0 155.847 0C156.729 0 157.612 0.886326 157.612 2.21582V19.056Z" fill="#FFD633"/>
<path d="M133.108 7.53373C132.667 6.42582 131.563 5.76108 130.68 6.20424C129.797 6.64741 129.356 7.97689 129.797 9.0848L135.978 24.5955C136.42 25.7034 137.523 26.3682 138.406 25.925C139.289 25.4818 139.731 24.1523 139.289 23.0444L133.108 7.53373Z" fill="#FFD633"/>
<path d="M112.58 20.8287C111.697 19.9424 110.372 19.9424 109.71 20.6071C109.048 21.2719 109.048 22.6014 109.931 23.4877L121.189 35.2315C122.072 36.1179 123.396 36.1179 124.058 35.4531C124.72 34.7884 124.72 33.4589 123.837 32.5725L112.58 20.8287Z" fill="#FFD633"/>
<path d="M98.673 41.2139C97.5692 40.7707 96.2448 41.2139 96.024 42.1002C95.5825 42.9865 96.2448 44.316 97.3485 44.7592L111.918 51.1851C113.021 51.6282 114.346 51.1851 114.567 50.2987C115.008 49.4124 114.346 48.0829 113.242 47.6398L98.673 41.2139Z" fill="#FFD633"/>
<path d="M94.6996 65.5884C93.5959 65.5884 92.4922 66.4747 92.4922 67.5826C92.4922 68.6905 93.5959 69.5769 94.6996 69.5769H110.373C111.476 69.5769 112.58 68.6905 112.58 67.5826C112.58 66.4747 111.697 65.5884 110.373 65.5884H94.6996Z" fill="#FFD633"/>
<path d="M170.857 23.0444C170.416 24.1523 170.857 25.4818 171.74 25.925C172.623 26.3682 173.727 25.7034 174.168 24.5955L180.349 9.0848C180.791 7.97689 180.349 6.64741 179.466 6.20424C178.583 5.76108 177.48 6.42582 177.038 7.53373L170.857 23.0444Z" fill="#FFD633"/>
<path d="M186.088 32.5725C185.205 33.4589 185.205 34.7884 185.868 35.4531C186.53 36.1179 187.854 36.1179 188.737 35.2315L199.995 23.4877C200.878 22.6014 200.878 21.2719 200.216 20.6071C199.554 19.9424 198.229 19.9424 197.346 20.8287L186.088 32.5725Z" fill="#FFD633"/>
<path d="M196.684 47.6398C195.58 48.0829 194.918 49.4124 195.359 50.2987C195.801 51.1851 196.905 51.6282 198.008 51.1851L212.578 44.7592C213.681 44.316 214.344 42.9865 213.902 42.1002C213.461 41.2139 212.357 40.7707 211.253 41.2139L196.684 47.6398Z" fill="#FFD633"/>
<path d="M199.333 65.5884C198.229 65.5884 197.125 66.4747 197.125 67.5826C197.125 68.6905 198.229 69.5769 199.333 69.5769H215.227C216.551 69.5769 217.434 68.6905 217.434 67.5826C217.434 66.4747 216.551 65.5884 215.227 65.5884H199.333Z" fill="#FFD633"/>
<path d="M165.117 120.54C165.117 121.648 164.013 122.756 162.468 122.756H147.016C145.692 122.756 144.367 121.87 144.367 120.54V119.876C144.367 118.768 145.471 117.881 147.016 117.881H162.468C163.793 117.881 165.117 118.768 165.117 119.876V120.54Z" fill="#5F6D7A"/>
<path d="M175.712 39.4414C172.842 62.4859 156.728 81.9851 133.991 92.621C134.874 93.5073 135.316 93.9505 135.316 93.9505C138.406 96.6095 141.055 102.371 141.276 106.359L141.497 111.012C141.717 115.222 145.249 118.546 149.223 118.546H160.481C164.454 118.546 167.986 115.222 168.207 111.012L168.427 106.359C168.648 102.149 171.297 96.6095 174.387 93.9505C174.387 93.9505 188.294 81.0987 188.294 67.1391C188.294 55.8384 183.438 45.8673 175.712 39.4414Z" fill="#FFE26E"/>
<path d="M174.168 65.5881C173.506 65.5881 173.064 64.9233 172.623 63.5938C171.961 62.2644 171.078 60.4917 169.312 60.4917C167.546 60.4917 166.663 62.2644 166.001 63.5938C165.338 64.9233 164.897 65.5881 164.455 65.5881C163.793 65.5881 163.352 64.9233 162.91 63.5938C162.248 62.2644 161.365 60.4917 159.599 60.4917C157.833 60.4917 156.95 62.2644 156.288 63.5938C155.626 64.9233 155.184 65.5881 154.743 65.5881C154.08 65.5881 153.639 64.9233 153.197 63.5938C152.535 62.2644 151.652 60.4917 149.886 60.4917C148.12 60.4917 147.237 62.2644 146.575 63.5938C145.913 64.9233 145.471 65.5881 145.03 65.5881C144.368 65.5881 143.926 64.9233 143.485 63.5938C142.822 62.2644 141.939 60.4917 140.173 60.4917C138.407 60.4917 137.525 62.2644 136.862 63.5938C136.2 64.9233 135.759 65.5881 135.317 65.5881C134.876 65.5881 134.434 66.0312 134.434 66.4744C134.434 66.9176 134.876 67.3607 135.317 67.3607C137.083 67.3607 137.966 65.5881 138.628 64.2586C138.849 63.8154 139.07 63.3723 139.29 63.1507L148.782 113.671C148.782 114.114 149.224 114.336 149.665 114.336H149.886C150.328 114.336 150.769 113.671 150.548 113.228L141.056 62.4859C141.277 62.9291 141.719 63.3723 141.939 64.037C142.602 65.3665 143.485 67.1391 145.251 67.1391C147.017 67.1391 147.9 65.3665 148.562 64.037C149.224 62.7075 149.665 62.0428 150.107 62.0428C150.769 62.0428 151.211 62.7075 151.652 64.037C152.314 65.3665 153.197 67.1391 154.963 67.1391C156.729 67.1391 157.612 65.3665 158.275 64.037C158.937 62.7075 159.378 62.0428 159.82 62.0428C160.482 62.0428 160.923 62.7075 161.365 64.037C162.027 65.3665 162.91 67.1391 164.676 67.1391C166.442 67.1391 167.325 65.3665 167.987 64.037C167.987 64.037 167.987 63.8154 168.208 63.8154L158.937 113.228C158.937 113.671 159.157 114.336 159.599 114.336H159.82C160.261 114.336 160.703 114.114 160.703 113.671L169.974 62.7075C170.415 62.9291 170.636 63.5938 171.078 64.4802C171.74 65.8097 172.623 67.5823 174.389 67.5823C174.83 67.5823 175.272 67.1391 175.272 66.696C175.272 66.2528 174.83 65.5881 174.168 65.5881Z" fill="white"/>
</svg>
