<svg width="187" height="183" viewBox="0 0 187 183" fill="none" xmlns="http://www.w3.org/2000/svg">
<path d="M76.836 108.962C80.6953 105.644 82.4495 104.596 82.0986 102.501C81.5724 99.5325 77.3622 96.9132 74.3801 98.3101C70.5208 100.231 60.6971 113.327 55.6099 108.089L54.7328 68.1012C54.7328 64.085 52.2769 60.9418 49.2947 61.1164C46.3125 61.1164 43.8566 64.4342 44.032 68.4504L44.5583 96.2147C44.2074 96.2147 43.6812 96.2147 43.3303 96.0401L42.8041 61.8149C42.8041 57.7987 40.1727 54.6556 37.1906 54.8302C34.2084 54.8302 31.7525 58.1479 31.9279 62.1641L32.4542 95.6909C32.2787 95.6909 32.2787 95.6909 32.1033 95.6909C31.9279 95.6909 31.577 95.6909 31.4016 95.6909L30.8754 64.6088C30.8754 60.5926 28.244 57.4495 25.2618 57.6241C22.2797 57.6241 19.8238 60.9418 19.9992 64.958L20.5254 96.3893C20.35 96.3893 19.9992 96.3893 19.6483 96.564L19.2975 73.3397C19.2975 70.8951 16.8416 68.7996 13.8594 68.9743C10.8772 68.9743 8.42132 71.0697 8.59674 73.5143L8.77216 115.947C8.77216 116.121 10.0001 127.995 10.0001 128.17C11.0527 134.98 13.1577 139.52 13.1577 139.52C14.5611 142.838 19.6483 143.536 32.2787 143.536C44.032 143.711 47.8913 144.06 49.8209 141.266C49.8209 141.266 52.9786 136.377 55.4345 133.758C65.4335 125.9 76.836 108.962 76.836 108.962Z" fill="#D49975"/>
<path d="M8.85647 142.149L8.68896 148.433L53.9298 149.628L54.0973 143.344L8.85647 142.149Z" fill="white"/>
<path d="M5.18526 147.004L4.27197 181.743L54.4277 183.049L55.341 148.311L5.18526 147.004Z" fill="#67C0F8"/>
<path opacity="0.54" d="M40.6986 57.4494C39.8214 56.2271 38.4181 55.354 37.0147 55.5286C35.4359 55.5286 34.0325 56.5763 33.1554 57.9733C33.1554 58.3225 32.98 58.6717 32.98 59.021C32.98 61.9895 34.5588 64.4341 36.8393 64.4341C38.9443 64.4341 40.874 62.1641 41.0494 59.1956C40.874 58.6717 40.874 57.9733 40.6986 57.4494Z" fill="#FFD8C7"/>
<path opacity="0.54" d="M52.802 63.5612C51.9248 62.3389 50.5215 61.4658 49.1181 61.6404C47.5393 61.6404 46.1359 62.6881 45.2588 64.0851C45.2588 64.4343 45.0834 64.7835 45.0834 65.1328C44.908 68.1013 46.6622 70.546 48.9427 70.546C51.2232 70.546 52.9774 68.2759 53.1528 65.3074C52.9774 64.6089 52.9774 64.0851 52.802 63.5612Z" fill="#FFD8C7"/>
<path opacity="0.54" d="M28.945 60.2433C28.0679 59.021 26.6646 58.1479 25.2612 58.3225C23.6824 58.3225 22.279 59.3702 21.4019 60.7672C21.4019 61.1164 21.2265 61.4657 21.2265 61.8149C21.051 64.6088 22.8053 67.0535 24.9103 67.0535C27.0154 67.0535 28.945 64.7834 29.1205 61.8149C29.1205 61.2911 28.945 60.7672 28.945 60.2433Z" fill="#FFD8C7"/>
<path opacity="0.54" d="M17.367 70.8952C16.4899 69.6729 15.0865 68.7998 13.6831 68.9744C12.1043 68.9744 10.701 70.0221 9.82386 71.4191C9.82386 71.7683 9.64844 72.1175 9.64844 72.4668C9.64844 75.4353 11.2272 77.8799 13.5077 77.8799C15.7882 77.8799 17.5424 75.6099 17.7179 72.6414C17.5424 72.1175 17.5424 71.4191 17.367 70.8952Z" fill="#FFD8C7"/>
<path opacity="0.54" d="M82.0983 102.501C81.9229 101.454 81.2212 100.406 80.1687 99.5327C76.134 100.755 73.5026 104.247 74.3798 107.74C74.5552 108.613 74.906 109.311 75.6077 110.01C76.4848 109.311 77.0111 108.962 77.0111 108.962C80.8704 105.644 82.4492 104.597 82.0983 102.501Z" fill="#FFD8C7"/>
<path d="M74.0286 74.5618C77.1862 78.578 78.2387 80.1496 80.3438 79.975C83.3259 79.4511 86.1327 75.2603 84.7293 72.2917C82.9751 68.4501 69.9938 58.3223 75.4319 53.2583L115.604 53.0837C119.638 53.0837 122.796 50.6391 122.796 47.6706C122.796 44.702 119.638 42.2574 115.604 42.2574H87.7115C87.7115 41.9082 87.7115 41.3843 87.8869 41.0351L122.27 41.2097C126.304 41.2097 129.462 38.765 129.462 35.7965C129.462 32.828 126.304 30.3833 122.27 30.3833L88.5886 30.2087C88.5886 30.0341 88.5886 30.0341 88.5886 29.8595C88.5886 29.6849 88.5886 29.3356 88.5886 29.161L119.814 29.3356C123.848 29.3356 127.006 26.891 127.006 23.9225C127.006 20.954 123.848 18.5093 119.814 18.5093L88.0623 18.3347C88.0623 18.1601 88.0623 17.8108 88.0623 17.4616H111.393C113.849 17.4616 115.954 15.0169 115.954 12.0484C115.954 9.07991 114.025 6.63525 111.393 6.63525L68.2396 6.80987C68.0642 6.80987 56.1355 7.68296 55.9601 7.68296C49.1186 8.73067 44.5576 10.6515 44.5576 10.6515C41.2246 12.0484 40.5229 16.9377 39.9967 29.5103C39.6458 41.2097 39.1196 45.0513 41.9263 46.9721C41.9263 46.9721 46.8381 50.1152 49.294 52.7345C57.188 62.8624 74.0286 74.5618 74.0286 74.5618Z" fill="#F9B68B"/>
<path d="M33.5049 50.9882L35.7854 6.11133L42.1006 6.28595L39.8201 51.3375L33.5049 50.9882Z" fill="white"/>
<path d="M2.3772 0.888994L0.0205078 50.7749L34.8911 52.4072L37.2478 2.52128L2.3772 0.888994Z" fill="#004882"/>
<path opacity="0.54" d="M126.303 39.8126C127.531 38.9396 128.408 37.5426 128.408 36.1457C128.408 34.5741 127.531 33.1772 125.952 32.3041C125.601 32.3041 125.251 32.1294 124.9 32.1294C121.918 31.9548 119.462 33.5264 119.286 35.7964C119.111 37.8918 121.567 39.8126 124.549 39.9873C125.251 39.9873 125.777 39.8126 126.303 39.8126Z" fill="#FFD8C7"/>
<path opacity="0.54" d="M119.988 51.6868C121.216 50.8137 122.093 49.4167 122.093 48.0198C122.093 46.4482 121.216 45.0513 119.637 44.0036C119.286 44.0036 118.935 43.829 118.585 43.829C115.778 43.6543 113.322 45.4005 113.147 47.4959C112.971 49.5914 115.427 51.5122 118.234 51.6868C118.935 51.8614 119.462 51.6868 119.988 51.6868Z" fill="#FFD8C7"/>
<path opacity="0.54" d="M123.847 27.9384C125.075 27.0653 125.952 25.6684 125.952 24.2715C125.952 22.6999 125.075 21.3029 123.496 20.2552C123.145 20.2552 122.794 20.0806 122.443 20.0806C119.461 19.906 117.005 21.4776 116.83 23.7476C116.654 25.843 119.11 27.7638 121.917 27.9384C122.794 28.1131 123.32 28.1131 123.847 27.9384Z" fill="#FFD8C7"/>
<path opacity="0.54" d="M113.321 16.239C114.549 15.3659 115.426 13.969 115.426 12.572C115.426 11.0005 114.549 9.60353 112.97 8.55582C112.619 8.55582 112.269 8.3812 111.918 8.3812C108.936 8.20658 106.48 9.95276 106.304 12.0482C106.129 14.1436 108.585 16.0644 111.392 16.239C112.269 16.4136 112.795 16.239 113.321 16.239Z" fill="#FFD8C7"/>
<path opacity="0.54" d="M80.343 79.9748C81.3955 79.8002 82.448 79.1018 83.3251 78.0541C82.2726 74.0378 78.7642 71.4186 75.2557 72.117C74.3786 72.2916 73.5015 72.6409 72.7998 73.1647C73.5015 74.0378 73.8523 74.5617 73.8523 74.5617C77.1854 78.5779 78.2379 80.3241 80.343 79.9748Z" fill="#FFD8C7"/>
<path d="M106.656 72.4661C102.446 75.4346 100.867 76.3077 101.042 78.5778C101.393 81.5463 105.428 84.5148 108.41 83.2925C112.445 81.7209 123.146 69.323 127.882 74.9108L126.128 114.898C125.952 118.915 128.233 122.232 131.215 122.232C134.197 122.407 136.828 119.264 137.004 115.248L138.407 87.4833C138.758 87.4833 139.284 87.6579 139.635 87.6579L137.881 121.708C137.706 125.725 139.986 129.042 142.968 129.042C145.95 129.217 148.582 126.074 148.757 122.058L150.336 89.0549C150.511 89.0549 150.511 89.0549 150.687 89.0549C150.862 89.0549 151.213 89.0549 151.389 89.0549L149.81 120.137C149.634 124.153 151.915 127.471 154.897 127.471C157.879 127.646 160.51 124.502 160.686 120.661L162.265 89.2295C162.44 89.2295 162.791 89.2295 163.142 89.2295L162.089 112.454C161.914 114.898 164.194 116.994 167.176 117.168C170.159 117.343 172.615 115.422 172.79 112.978L175.07 69.8469C175.07 69.6722 174.72 57.6236 174.72 57.6236C174.018 50.6388 172.439 46.0988 172.439 46.0988C171.211 42.781 166.299 41.7333 153.669 40.6856C141.916 39.8125 138.232 39.114 135.951 41.7333C135.951 41.7333 132.443 46.448 129.812 48.8927C119.286 56.4012 106.656 72.4661 106.656 72.4661Z" fill="#F9CF90"/>
<path d="M132.235 33.3347L131.646 39.5933L176.706 43.794L177.295 37.5354L132.235 33.3347Z" fill="white"/>
<path d="M134.185 0.00927332L130.939 34.6089L180.894 39.2527L184.14 4.65306L134.185 0.00927332Z" fill="#67C0F8"/>
<path d="M139.284 126.249C140.161 127.471 141.389 128.344 142.968 128.519C144.546 128.694 146.125 127.646 147.002 126.249C147.002 125.9 147.178 125.551 147.178 125.201C147.529 122.233 145.95 119.613 143.669 119.439C141.564 119.264 139.459 121.36 139.108 124.328C139.108 125.027 139.108 125.551 139.284 126.249Z" fill="#F9E4C5"/>
<path d="M127.707 119.439C128.584 120.661 129.812 121.534 131.391 121.709C132.969 121.884 134.548 120.836 135.425 119.439C135.425 119.09 135.601 118.74 135.601 118.391C135.952 115.423 134.373 112.803 132.092 112.629C129.987 112.454 127.882 114.55 127.531 117.518C127.531 118.217 127.531 118.74 127.707 119.439Z" fill="#F9E4C5"/>
<path d="M151.213 124.328C152.09 125.55 153.318 126.423 154.897 126.598C156.476 126.773 158.054 125.725 158.931 124.328C158.931 123.979 159.107 123.63 159.107 123.28C159.458 120.312 157.879 117.693 155.774 117.518C153.669 117.343 151.564 119.439 151.213 122.407C151.213 123.106 151.213 123.63 151.213 124.328Z" fill="#F9E4C5"/>
<path d="M163.493 114.2C164.37 115.423 165.598 116.296 167.176 116.47C168.755 116.645 170.334 115.597 171.211 114.2C171.211 113.851 171.387 113.502 171.387 113.153C171.737 110.184 170.159 107.565 168.054 107.39C165.948 107.216 163.843 109.486 163.493 112.28C163.317 113.153 163.493 113.677 163.493 114.2Z" fill="#F9E4C5"/>
<path d="M101.042 78.5778C101.217 79.6255 101.919 80.8478 102.796 81.7209C106.831 80.8478 109.637 77.3555 109.111 73.8631C108.936 72.99 108.585 72.1169 108.059 71.4185C107.181 72.1169 106.655 72.4662 106.655 72.4662C102.621 75.4347 100.866 76.3078 101.042 78.5778Z" fill="#F9E4C5"/>
<path d="M109.462 110.708C105.954 107.041 104.726 105.469 102.621 105.993C99.6388 106.866 97.1828 111.057 98.7616 114.026C100.867 117.693 114.55 126.773 109.638 132.186L69.6416 135.678C65.6069 136.028 62.6247 138.647 62.9755 141.615C63.151 144.584 66.6594 146.679 70.5187 146.33L98.2354 144.06C98.2354 144.409 98.2354 144.933 98.2354 145.282L64.0281 148.076C59.9934 148.426 57.0112 151.045 57.362 154.013C57.5374 156.982 61.0459 159.077 64.9052 158.728L98.5862 155.934C98.5862 156.109 98.5862 156.109 98.5862 156.283C98.5862 156.458 98.5862 156.807 98.5862 156.982L67.5365 159.426C63.5018 159.776 60.5196 162.395 60.8705 165.363C61.0459 168.332 64.5543 170.427 68.4136 170.078L99.9896 167.634C99.9896 167.808 100.165 168.157 100.165 168.507L76.8339 170.427C74.378 170.602 72.4483 173.221 72.7992 176.19C72.9746 179.158 75.2551 181.428 77.711 181.254L120.689 177.936C120.865 177.936 132.794 176.015 132.969 176.015C139.81 174.444 144.196 172.174 144.196 172.174C147.354 170.602 147.704 165.538 147.003 152.966C146.476 141.266 146.476 137.425 143.67 135.678C143.67 135.678 138.582 132.884 135.776 130.614C127.18 121.01 109.462 110.708 109.462 110.708Z" fill="#F9BE93"/>
<path d="M151.596 130.863L145.285 131.097L146.973 176.117L153.284 175.883L151.596 130.863Z" fill="white"/>
<path d="M185.168 128.231L150.283 129.538L152.169 179.443L187.054 178.137L185.168 128.231Z" fill="#004882"/>
<path opacity="0.54" d="M60.1696 149.822C58.9416 150.87 58.2399 152.267 58.4153 153.664C58.5908 155.235 59.6433 156.632 61.2221 157.331C61.5729 157.331 61.9238 157.331 62.2746 157.331C65.2568 157.156 67.5373 155.41 67.5373 153.14C67.5373 151.045 64.906 149.298 61.9238 149.298C61.2221 149.473 60.6958 149.648 60.1696 149.822Z" fill="#FFD8C7"/>
<path opacity="0.54" d="M65.4323 137.424C64.2043 138.472 63.5026 139.869 63.678 141.266C63.8535 142.837 64.906 144.234 66.4848 144.933C66.8356 144.933 67.1865 144.933 67.5373 144.933C70.5195 144.758 72.8 143.012 72.8 140.742C72.8 138.647 70.3441 136.9 67.3619 136.9C66.4848 137.25 65.9585 137.25 65.4323 137.424Z" fill="#FFD8C7"/>
<path opacity="0.54" d="M63.6779 161.347C62.4499 162.395 61.7482 163.792 61.9236 165.189C62.0991 166.76 63.1516 168.157 64.7304 168.856C65.0813 168.856 65.4321 168.856 65.7829 168.856C68.7651 168.681 71.0456 166.935 71.0456 164.665C71.0456 162.395 68.5897 160.823 65.6075 160.823C64.7304 161.172 64.2041 161.172 63.6779 161.347Z" fill="#FFD8C7"/>
<path opacity="0.54" d="M75.0802 172.174C73.8523 173.221 73.1506 174.618 73.326 176.015C73.5014 177.587 74.554 178.984 76.1328 179.682C76.4836 179.682 76.8344 179.682 77.1853 179.682C80.1675 179.508 82.448 177.762 82.448 175.491C82.448 173.396 79.8166 171.65 77.0099 171.65C76.3082 171.825 75.6065 171.999 75.0802 172.174Z" fill="#FFD8C7"/>
<path opacity="0.54" d="M102.622 105.818C101.569 106.168 100.517 106.866 99.8149 107.914C101.218 111.756 105.078 114.2 108.411 113.152C109.288 112.978 109.989 112.454 110.691 111.93C109.989 111.057 109.463 110.708 109.463 110.708C105.779 107.041 104.727 105.469 102.622 105.818Z" fill="#FFD8C7"/>
</svg>
