<svg width="228" height="195" viewBox="0 0 228 195" fill="none" xmlns="http://www.w3.org/2000/svg">
<path d="M97.7143 195C151.68 195 195.429 151.348 195.429 97.5C195.429 43.6522 151.68 0 97.7143 0C43.7482 0 0 43.6522 0 97.5C0 151.348 43.7482 195 97.7143 195Z" fill="#B92431"/>
<path d="M97.714 182.529C144.777 182.529 182.93 144.461 182.93 97.5003C182.93 50.54 144.777 12.4712 97.714 12.4712C50.6505 12.4712 12.498 50.54 12.498 97.5003C12.498 144.461 50.6505 182.529 97.714 182.529Z" fill="#FFDFA6"/>
<path d="M171.001 97.5C171.001 137.936 138.24 170.625 97.7148 170.625C57.1899 170.625 24.2397 137.936 24.2397 97.5C24.2397 57.0639 57.0005 24.186 97.7148 24.186C138.24 24.186 171.001 57.0639 171.001 97.5Z" fill="#B92431"/>
<path d="M158.123 97.5003C158.123 130.945 131.043 157.965 97.5248 157.965C64.0065 157.965 36.9268 130.945 36.9268 97.5003C36.9268 64.0555 64.0065 37.0352 97.5248 37.0352C131.043 37.0352 158.123 64.0555 158.123 97.5003Z" fill="#FFDFA6"/>
<path d="M97.7143 146.817C125.011 146.817 147.14 124.737 147.14 97.5C147.14 70.263 125.011 48.1831 97.7143 48.1831C70.4175 48.1831 48.2891 70.263 48.2891 97.5C48.2891 124.737 70.4175 146.817 97.7143 146.817Z" fill="#B92431"/>
<path d="M135.777 97.5002C135.777 118.474 118.734 135.48 97.714 135.48C76.6941 135.48 59.6509 118.474 59.6509 97.5002C59.6509 76.5263 76.6941 59.5205 97.714 59.5205C118.734 59.5205 135.777 76.5263 135.777 97.5002Z" fill="#FFDFA6"/>
<path d="M97.7143 126.032C113.507 126.032 126.309 113.258 126.309 97.5002C126.309 81.7425 113.507 68.9683 97.7143 68.9683C81.9219 68.9683 69.1196 81.7425 69.1196 97.5002C69.1196 113.258 81.9219 126.032 97.7143 126.032Z" fill="#B92431"/>
<path d="M97.7146 117.718C108.905 117.718 117.977 108.666 117.977 97.4998C117.977 86.3337 108.905 77.2817 97.7146 77.2817C86.524 77.2817 77.4521 86.3337 77.4521 97.4998C77.4521 108.666 86.524 117.718 97.7146 117.718Z" fill="#FFDFA6"/>
<path d="M108.887 97.5003C108.887 103.736 103.774 108.838 97.5247 108.838C91.2756 108.838 86.1626 103.736 86.1626 97.5003C86.1626 91.2648 91.2756 86.1631 97.5247 86.1631C103.963 86.1631 108.887 91.2648 108.887 97.5003Z" fill="#B92431"/>
<path d="M98.2819 100.901C97.1457 100.901 95.8201 100.334 95.252 99.2006C94.3052 97.5 94.8733 95.4215 96.5776 94.2878L214.933 23.9971C216.637 23.0524 218.72 23.6192 219.857 25.3198C220.804 27.0204 220.235 29.0989 218.531 30.2326L99.9862 100.334C99.4181 100.712 98.85 100.901 98.2819 100.901Z" fill="#344757"/>
<path d="M214.934 23.9974L194.672 36.0904L195.619 27.5875L214.934 12.8491V23.9974Z" fill="#1AAEBC"/>
<path d="M218.721 30.0435L197.891 42.5144L205.087 45.3487L228 35.901L218.721 30.0435Z" fill="#1AAEBC"/>
</svg>
